<?xml version="1.0" encoding="UTF-8"?>
<svg width="151px" height="150px" viewBox="0 0 151 150" version="1.1" xmlns="http://www.w3.org/2000/svg" xmlns:xlink="http://www.w3.org/1999/xlink">
    <!-- Generator: Sketch 42 (36781) - http://www.bohemiancoding.com/sketch -->
    <title>ASSET_YCircleFill Copy 3</title>
    <desc>Created with Sketch.</desc>
    <defs></defs>
    <g id="03.-Our-Work" stroke="none" stroke-width="1" fill="none" fill-rule="evenodd">
        <g id="3.1_DESKTOP_OurWork-TRCEmpty" transform="translate(-836.000000, -3269.000000)">
            <g id="CTA-DONATE" transform="translate(263.000000, 3151.000000)">
                <g id="TRC-NAV" transform="translate(0.000000, 118.000000)">
                    <g id="ASSET_YCircleFill-Copy-3" transform="translate(573.000000, 0.000000)">
                        <ellipse id="Oval-Copy" fill="#852762" cx="75.0816104" cy="75" rx="75.0816104" ry="75"></ellipse>
                        <g id="Adult-Education" transform="translate(38.000000, 49.000000)" fill="#FFFFFF">
                            <path d="M63.34,9.176 L11.66,9.176 C10.5194,9.176 9.5936,10.09788 9.5936,11.2424 C9.5936,12.383 10.51548,13.3088 11.66,13.3088 L63.34,13.3088 C64.4806,13.3088 65.4064,12.38692 65.4064,11.2424 C65.4064,10.1018 64.48452,9.176 63.34,9.176 Z" id="Fill-1"></path>
                            <path d="M32.855,19.445 L11.66,19.445 C10.5194,19.445 9.5936,20.36688 9.5936,21.5114 C9.5936,22.652 10.51548,23.5778 11.66,23.5778 L32.855,23.5778 C33.9956,23.5778 34.9214,22.65592 34.9214,21.5114 C34.9214,20.3825 33.9839,19.445 32.855,19.445 Z" id="Fill-2"></path>
                            <path d="M32.855,29.727 L11.66,29.727 C10.5194,29.727 9.5936,30.64888 9.5936,31.7934 C9.5936,32.93792 10.51548,33.8598 11.66,33.8598 L32.855,33.8598 C33.9956,33.8598 34.9214,32.93792 34.9214,31.7934 C34.9214,30.6528 33.9839,29.727 32.855,29.727 Z" id="Fill-3"></path>
                            <path d="M32.855,40.012 L11.66,40.012 C10.5194,40.012 9.5936,40.93388 9.5936,42.0784 C9.5936,43.22292 10.51548,44.1448 11.66,44.1448 L32.855,44.1448 C33.9956,44.1448 34.9214,43.22292 34.9214,42.0784 C34.9214,40.9378 33.9839,40.012 32.855,40.012 Z" id="Fill-4"></path>
                            <path d="M68.512,0.3438 L6.489002,0.3438 C3.078802,0.3438 0.2937021,3.125 0.2937021,6.5391 L0.2937021,46.7661 C0.2937021,50.1802 3.074902,52.9614 6.489002,52.9614 L45.204,52.9614 L45.204,60.563002 C45.21963,62.145002 47.0204,63.199702 48.3524,62.320802 L52.954,59.508302 L57.5556,62.320802 C58.8759,63.172362 60.704,62.160642 60.704,60.563002 L60.704,52.9614 L68.497,52.9614 C71.9111,52.9614 74.6923,50.1802 74.6923,46.7661 L74.6923,6.5391 C74.70793,3.125 71.9228,0.3438 68.5126,0.3438 L68.512,0.3438 Z M56.571,56.8988 L54.0358,55.3441 C53.37564,54.93394 52.5436,54.93394 51.8835,55.3441 L49.3483,56.8988 L49.3483,45.4458 C50.4889,45.79736 51.7077,45.98877 52.9655,45.98877 C54.2233,45.98877 55.4421,45.79736 56.5827,45.4458 L56.5827,56.8988 L56.571,56.8988 Z M52.9694,41.8438 C48.3991,41.8438 44.6803,38.125 44.6803,33.5547 C44.6803,28.9844 48.3991,25.2656 52.9694,25.2656 C57.5397,25.2656 61.2585,28.9844 61.2585,33.5547 C61.2585,38.125 57.5397,41.8438 52.9694,41.8438 Z M70.5784,46.7657 C70.5784,47.9063 69.65652,48.8321 68.512,48.8321 L60.719,48.8321 L60.719,43.2501 C63.5628,40.9649 65.3909,37.4767 65.3909,33.5548 C65.3909,26.6993 59.8089,21.1328 52.9689,21.1328 C46.1134,21.1328 40.5469,26.7148 40.5469,33.5548 C40.5469,37.465 42.3789,40.9689 45.2188,43.2501 L45.2188,48.8439 L6.4888,48.8439 C5.3482,48.8439 4.4224,47.92202 4.4224,46.7775 L4.4224,6.5395 C4.4224,5.3989 5.34428,4.4731 6.4888,4.4731 L68.4968,4.4731 C69.6374,4.4731 70.5632,5.39498 70.5632,6.5395 L70.5632,46.7665 L70.5784,46.7657 Z" id="Fill-5"></path>
                        </g>
                    </g>
                </g>
            </g>
        </g>
    </g>
</svg>