<?xml version="1.0" encoding="UTF-8"?>
<svg width="151px" height="150px" viewBox="0 0 151 150" version="1.1" xmlns="http://www.w3.org/2000/svg" xmlns:xlink="http://www.w3.org/1999/xlink">
    <!-- Generator: Sketch 42 (36781) - http://www.bohemiancoding.com/sketch -->
    <title>ASSET_YCircleFill Copy</title>
    <desc>Created with Sketch.</desc>
    <defs></defs>
    <g id="03.-Our-Work" stroke="none" stroke-width="1" fill="none" fill-rule="evenodd">
        <g id="3.1_DESKTOP_OurWork-TRCEmpty" transform="translate(-454.000000, -3269.000000)">
            <g id="CTA-DONATE" transform="translate(263.000000, 3151.000000)">
                <g id="TRC-NAV" transform="translate(0.000000, 118.000000)">
                    <g id="ASSET_YCircleFill-Copy" transform="translate(191.000000, 0.000000)">
                        <ellipse id="Oval-Copy" fill="#852762" cx="75.0816104" cy="75" rx="75.0816104" ry="75"></ellipse>
                        <g id="Primary" transform="translate(41.000000, 34.000000)" fill="#FFFFFF">
                            <path d="M38.1656518,77.0540426 C36.2076333,77.0540426 34.4512784,76.7493613 33.0006661,76.1594323 C31.5500705,76.7493613 29.8001934,77.0540426 27.8356804,77.0540426 C22.4105803,77.0540426 16.6341093,74.7721277 11.9896854,70.7918043 C6.11579647,65.7613021 2.19975946,58.1634383 0.645068124,48.8289957 C-0.955151556,39.1633021 1.84197729,33.4585149 4.47001514,30.3662298 C7.79405046,26.4635745 12.7768562,24.3114383 18.4947098,24.3114383 C24.0433726,24.3114383 29.4100219,26.4247404 32.9941716,29.8801404 C36.5848158,26.4249064 41.9449706,24.3114383 47.5001278,24.3114383 C53.2179815,24.3114383 58.2007872,26.4637404 61.5248225,30.3662298 C64.1527771,33.4520426 66.9499226,39.1633021 65.3497696,48.8289957 C63.8015894,58.1641021 59.8790412,65.761634 54.0051522,70.7918043 C49.3670563,74.7786 43.5907519,77.0540426 38.1656518,77.0540426 Z" id="Fill-1"></path>
                            <path d="M24.7652649,20.0891489 C23.00891,20.0891489 18.5986224,19.6677664 15.632286,15.7457106 C12.1195761,11.1040468 12.5423869,4.1351617 12.6010042,3.35068085 C12.6595549,2.60516681 13.0368373,1.9180034 13.6352836,1.46424255 C14.2337465,1.01044851 15.0013171,0.841902128 15.7363484,0.990998298 C16.5039356,1.1465834 23.3536032,2.65704511 26.866313,7.29870894 C30.7758555,12.4654621 28.2128296,18.2610281 28.0957448,18.5008366 C27.7314681,19.3046847 26.9768866,19.8751634 26.0987591,20.004826 C26.0076858,20.0242762 25.5068074,20.0890991 24.7652483,20.0890991 L24.7652649,20.0891489 Z M17.9480034,7.16255745 C18.1756784,9.01663404 18.7025682,11.1364085 19.8084373,12.6014809 C20.9403013,14.0989813 22.5079983,14.6306426 23.7309689,14.7990894 C23.8935987,13.6257204 23.8285368,11.9532511 22.6836671,10.4427064 C21.5322863,8.92575574 19.6132516,7.86256596 17.9479867,7.16239149 L17.9480034,7.16255745 Z" id="Fill-2"></path>
                            <path d="M33,24.5235319 C32.7463135,24.5235319 32.4926104,24.4846315 32.238924,24.4133196 C30.8533736,23.998426 30.0727474,22.539826 30.4890636,21.15906 L34.2229206,8.83539191 C34.6392368,7.45457617 36.1028382,6.68308979 37.4883386,7.09151106 C38.873889,7.50640468 39.6545152,8.96500468 39.238199,10.3457706 L35.504342,22.6694387 C35.1660934,23.7974349 34.1253028,24.5235153 32.99995,24.5235153 L33,24.5235319 Z" id="Fill-3"></path>
                        </g>
                    </g>
                </g>
            </g>
        </g>
    </g>
</svg>