<?xml version="1.0" encoding="UTF-8"?>
<svg width="151px" height="150px" viewBox="0 0 151 150" version="1.1" xmlns="http://www.w3.org/2000/svg" xmlns:xlink="http://www.w3.org/1999/xlink">
    <!-- Generator: Sketch 42 (36781) - http://www.bohemiancoding.com/sketch -->
    <title>ASSET_YCircleFill</title>
    <desc>Created with Sketch.</desc>
    <defs></defs>
    <g id="03.-Our-Work" stroke="none" stroke-width="1" fill="none" fill-rule="evenodd">
        <g id="3.1_DESKTOP_OurWork-TRCEmpty" transform="translate(-382.000000, -3446.000000)">
            <g id="CTA-DONATE" transform="translate(263.000000, 3151.000000)">
                <g id="TRC-NAV" transform="translate(0.000000, 118.000000)">
                    <g id="ASSET_YCircleFill" transform="translate(119.000000, 177.000000)">
                        <ellipse id="Oval-Copy" fill="#852762" cx="75.0816104" cy="75" rx="75.0816104" ry="75"></ellipse>
                        <g id="Crafting" transform="translate(27.000000, 51.000000)">
                            <path d="M1.7422,26.977 L1.28907,26.977 C1.28907,16.59 3.96097,9.278 9.22657,5.247 C15.21877,0.6611 24.44557,0.1376 37.43757,3.6532 L37.32038,4.0907 C24.47238,0.6141 15.37138,1.1102 9.50438,5.6063 C4.355981,9.5477 1.74268,16.7393 1.74268,26.9773 L1.7422,26.977 Z" id="Fill-1" fill="#FFFFFF"></path>
                            <path d="M2.6523,27.887 L0.3789,27.887 L0.3789,26.97684 C0.3789,16.29284 3.168,8.73884 8.6719,4.52384 C12.2539,1.78164 16.8047,0.44964 22.5819,0.44964 C26.8944,0.44964 31.9725,1.23089 37.6759,2.77384 L38.55481,3.01212 L37.96106,5.20742 L37.08215,4.96914 C31.57045,3.47694 26.69115,2.72304 22.58215,2.72304 C17.32045,2.72304 13.22275,3.90274 10.05515,6.32854 C5.144949,10.09024 2.652849,17.03554 2.652849,26.97654 L2.6523,27.887 Z" id="Fill-2" fill="#FFFFFF"></path>
                            <path id="Stroke-3" stroke="#FFFFFF" stroke-width="0.5"></path>
                            <path id="Stroke-4" stroke="#FFFFFF" stroke-width="0.5"></path>
                            <path id="Stroke-5" stroke="#FFFFFF" stroke-width="0.5"></path>
                            <path id="Stroke-6" stroke="#FFFFFF" stroke-width="0.5"></path>
                            <path d="M25.145,46.043 C20.2309,46.043 16.4067,44.9453 13.59,42.7422 C9.5744,39.6016 7.5392,34.0899 7.5392,26.3632 L7.99233,26.3632 C7.99233,33.9413 9.96893,39.3322 13.87123,42.3832 C18.66423,46.1332 26.50823,46.5902 37.85123,43.7816 L37.96061,44.22301 C33.06221,45.43391 28.80041,46.04331 25.14461,46.04331 L25.145,46.043 Z" id="Fill-7" fill="#FFFFFF"></path>
                            <path d="M25.145,46.949 L25.14109,46.949 C20.00049,46.949 16.03949,45.8045 13.03209,43.4529 C8.785994,40.1287 6.629794,34.3787 6.629794,26.3589 L6.629794,25.44874 L8.903194,25.44874 L8.903194,26.3589 C8.903194,33.6441 10.76259,38.7929 14.43049,41.6639 C17.02429,43.6912 20.52819,44.6795 25.14149,44.6795 C28.65319,44.6795 32.85629,44.07794 37.63349,42.8943 L38.5163,42.67555 L39.06318,44.88255 L38.18037,45.1013 C33.23117,46.3279 28.84447,46.949 25.14537,46.949 L25.145,46.949 Z" id="Fill-8" fill="#FFFFFF"></path>
                            <path d="M7.9922,26.859 L7.53907,26.859 C7.53907,19.2067 9.59767,13.714 13.65627,10.539 C18.66407,6.621 26.61727,6.082 37.96127,8.8945 L37.85189,9.33591 C26.64889,6.55861 18.82489,7.07031 13.93389,10.89841 C9.99249,13.98431 7.992491,19.35541 7.992491,26.85941 L7.9922,26.859 Z" id="Fill-9" fill="#FFFFFF"></path>
                            <path d="M8.9023,27.77 L6.6289,27.77 L6.6289,26.85984 C6.6289,18.91064 8.8047,13.17984 13.0937,9.82484 C16.1953,7.39904 20.2382,6.21934 25.4567,6.21934 C29.0934,6.21934 33.3747,6.82481 38.1797,8.01234 L39.06251,8.23109 L38.51563,10.43809 L37.63282,10.21934 C33.00002,9.07094 28.90232,8.48884 25.45282,8.48884 C20.76532,8.48884 17.17942,9.51224 14.49582,11.61384 C10.78492,14.52004 8.902019,19.64904 8.902019,26.85984 L8.9023,27.77 Z" id="Fill-10" fill="#FFFFFF"></path>
                            <path d="M27.371,41.043 C23.1718,41.043 19.9648,40.12894 17.6679,38.293 C14.7226,35.9414 13.2304,31.9961 13.2304,26.574 L13.68352,26.574 C13.68352,31.8513 15.11712,35.6756 17.94912,37.937 C21.73032,40.9565 28.12912,41.394 37.51112,39.2651 L37.61268,39.71041 C33.70248,40.59713 30.29628,41.04241 27.37068,41.04241 L27.371,41.043 Z" id="Fill-11" fill="#FFFFFF"></path>
                            <path d="M27.371,41.953 C22.9452,41.953 19.5858,40.98816 17.101,39.0038 C13.9291,36.4726 12.3198,32.289 12.3198,26.5738 L12.3198,25.66364 L14.5932,25.66364 L14.5932,26.5738 C14.5932,31.5621 15.9135,35.148 18.519,37.2258 C20.5854,38.8742 23.4799,39.6789 27.3628,39.6789 C30.1597,39.6789 33.5073,39.2414 37.312,38.3781 L38.19872,38.17888 L38.69872,40.39768 L37.812,40.5969 C33.8511,41.49534 30.3354,41.9524 27.371,41.9524 L27.371,41.953 Z" id="Fill-12" fill="#FFFFFF"></path>
                            <path d="M13.684,26.945 L13.23088,26.945 C13.23088,21.5778 14.73868,17.6481 17.71138,15.277 C21.68798,12.1012 28.19938,11.5973 37.61738,13.734 L37.51582,14.17541 C28.23852,12.07381 21.85182,12.54651 17.99282,15.63241 C15.13342,17.90971 13.68422,21.71831 13.68422,26.94441 L13.684,26.945 Z" id="Fill-13" fill="#FFFFFF"></path>
                            <path d="M14.594,27.852 L12.3206,27.852 L12.3206,26.94184 C12.3206,21.28164 13.9417,17.11764 17.1409,14.56284 C19.6995,12.51984 23.1253,11.52764 27.6099,11.52764 C30.5318,11.52764 33.9654,11.96905 37.8169,12.84404 L38.70362,13.04326 L38.20362,15.25806 L37.3169,15.05884 C33.6255,14.2229 30.356,13.79714 27.606,13.79714 C23.6607,13.79714 20.7037,14.62917 18.563,16.34014 C15.9302,18.44174 14.5982,22.01204 14.5982,26.94514 L14.594,27.852 Z" id="Fill-14" fill="#FFFFFF"></path>
                            <path d="M29.605,36.359 C26.1362,36.359 23.5464,35.63634 21.7769,34.1832 C19.8121,32.5738 18.816,30.023 18.816,26.6051 L19.26912,26.6051 C19.26912,29.8785 20.21053,32.3082 22.06602,33.8278 C24.86292,36.1208 29.84722,36.5114 37.29602,35.0192 L37.38586,35.46451 C34.41706,36.06217 31.82726,36.35904 29.60466,36.35904 L29.605,36.359 Z" id="Fill-15" fill="#FFFFFF"></path>
                            <path d="M29.605,37.27 C25.9058,37.27 23.1558,36.49266 21.1988,34.8872 C19.0113,33.0942 17.9019,30.3091 17.9019,26.6099 L17.9019,25.69974 L20.1753,25.69974 L20.1753,26.6099 C20.1753,29.5982 21.00342,31.7935 22.6401,33.1333 C25.187,35.2231 30.0229,35.5552 37.1171,34.1372 L38.00772,33.95751 L38.45694,36.18411 L37.56632,36.3638 C34.54682,36.96146 31.86712,37.27005 29.60542,37.27005 L29.605,37.27 Z" id="Fill-16" fill="#FFFFFF"></path>
                            <path d="M19.266,26.852 L18.81288,26.852 C18.81288,23.477 19.81678,20.9418 21.79728,19.3208 C24.76608,16.8872 29.86368,16.4341 37.38728,17.938 L37.29744,18.38331 C29.91464,16.91061 24.94244,17.33251 22.08644,19.67241 C20.21534,21.20361 19.26614,23.61771 19.26614,26.85211 L19.266,26.852 Z" id="Fill-17" fill="#FFFFFF"></path>
                            <path d="M20.176,27.762 L17.9026,27.762 L17.9026,26.85184 C17.9026,23.19164 19.0198,20.41824 21.219,18.61744 C23.2346,16.96514 26.0354,16.16434 29.7854,16.16434 C32.0159,16.16434 34.6292,16.46122 37.5627,17.04715 L38.45332,17.22684 L38.00801,19.45734 L37.11739,19.27375 C30.03149,17.85965 25.28939,18.21905 22.66039,20.37535 C21.01199,21.72695 20.17599,23.90655 20.17599,26.85195 L20.176,27.762 Z" id="Fill-18" fill="#FFFFFF"></path>
                            <path d="M76.168,51.871 C71.8242,51.871 66.7578,51.08194 60.922,49.4999 L61.03919,49.0624 C74.06219,52.5897 83.19119,52.1601 88.94919,47.7538 C94.03509,43.8632 96.61329,36.6518 96.61329,26.3238 L97.06641,26.3238 C97.06641,36.8008 94.42581,44.1328 89.22261,48.1168 C85.95311,50.6207 81.62881,51.8707 76.16761,51.8707 L76.168,51.871 Z" id="Fill-19" fill="#FFFFFF"></path>
                            <path d="M76.168,52.781 C71.7813,52.781 66.5703,51.97241 60.688,50.3787 L59.80909,50.14042 L60.40284,47.94512 L61.28175,48.1834 C66.97705,49.7264 71.98875,50.5076 76.16875,50.5076 C81.34065,50.5076 85.34065,49.3709 88.39875,47.031 C93.24645,43.3201 95.70735,36.351 95.70735,26.32 L95.70735,25.40984 L97.98075,25.40984 L97.98075,26.32 C97.98075,37.097 95.22295,44.672 89.78155,48.836 C86.35965,51.4532 81.78155,52.7813 76.16855,52.7813 L76.168,52.781 Z" id="Fill-20" fill="#FFFFFF"></path>
                            <path d="M22.176,51.871 C26.5198,51.871 31.5862,51.08194 37.422,49.4999 L37.30481,49.0624 C24.28181,52.5897 15.15281,52.1601 9.39481,47.7538 C4.305011,43.8632 1.726811,36.6518 1.726811,26.3238 L1.273691,26.3238 C1.273691,36.8008 3.914291,44.1328 9.11749,48.1168 C12.39089,50.6207 16.71519,51.8707 22.17649,51.8707 L22.176,51.871 Z" id="Fill-21" fill="#FFFFFF"></path>
                            <path d="M22.176,52.781 C26.5627,52.781 31.7737,51.97241 37.656,50.3787 L38.53491,50.14042 L37.94116,47.94512 L37.06225,48.1834 C31.36695,49.7264 26.35925,50.5076 22.17525,50.5076 C17.00335,50.5076 13.00335,49.3709 9.94525,47.031 C5.09365,43.3201 2.636651,36.355 2.636651,26.324 L2.636651,25.41384 L0.36325,25.41384 L0.36325,26.324 C0.36325,37.101 3.121051,44.676 8.56245,48.84 C11.98435,51.4533 16.56245,52.7814 22.17545,52.7814 L22.176,52.781 Z" id="Fill-22" fill="#FFFFFF"></path>
                            <path d="M97.07,26.977 L96.61688,26.977 C96.61688,16.739 94.00748,9.547 88.85908,5.606 C82.98798,1.1138 73.89008,0.6177 61.04308,4.0904 L60.92589,3.6529 C73.91789,0.1373 83.14489,0.6607 89.13689,5.2467 C94.39859,9.2779 97.07049,16.5907 97.07049,26.9767 L97.07,26.977 Z" id="Fill-23" fill="#FFFFFF"></path>
                            <path d="M97.98,27.887 L95.7066,27.887 L95.7066,26.97684 C95.7066,17.03544 93.2183,10.08584 88.3043,6.32884 C85.1363,3.90304 81.0387,2.72334 75.7773,2.72334 C71.6679,2.72334 66.789,3.47725 61.2773,4.96944 L60.4023,5.20772 L59.80855,3.01242 L60.68746,2.77414 C66.38666,1.23114 71.46446,0.44994 75.78146,0.44994 C81.55876,0.44994 86.10946,1.78194 89.68746,4.52414 C95.19136,8.73504 97.98046,16.29014 97.98046,26.97714 L97.98,27.887 Z" id="Fill-24" fill="#FFFFFF"></path>
                            <path d="M73.215,46.043 C69.5588,46.043 65.3009,45.43362 60.399,44.2188 L60.50837,43.77739 C71.84837,46.58989 79.69237,46.13289 84.48837,42.37899 C88.39067,39.32819 90.36727,33.93759 90.36727,26.35899 L90.82039,26.35899 C90.82039,34.08169 88.78519,39.59299 84.76569,42.73799 C81.94929,44.94109 78.12899,46.04269 73.21469,46.04269 L73.215,46.043 Z" id="Fill-25" fill="#FFFFFF"></path>
                            <path d="M73.215,46.953 C69.5158,46.953 65.133,46.33191 60.18,45.1014 L59.29719,44.88265 L59.84797,42.67955 L60.73078,42.8983 C65.50808,44.0819 69.71128,44.6835 73.21878,44.6835 C77.83208,44.6835 81.33598,43.69522 83.92978,41.6679 C87.60168,38.7968 89.46098,33.6484 89.46098,26.3629 L89.46098,25.45274 L91.73438,25.45274 L91.73438,26.3629 C91.73438,34.3824 89.57818,40.1329 85.33208,43.4569 C82.32038,45.8085 78.35938,46.953 73.21508,46.953 L73.215,46.953 Z" id="Fill-26" fill="#FFFFFF"></path>
                            <path d="M90.824,26.859 L90.37088,26.859 C90.37088,19.3551 88.37088,13.984 84.42558,10.898 C79.53108,7.0699 71.71058,6.5582 60.51158,9.3355 L60.4022,8.89409 C71.7462,6.08159 79.6952,6.62069 84.7072,10.53859 C88.7619,13.71829 90.8244,19.20659 90.8244,26.85859 L90.824,26.859 Z" id="Fill-27" fill="#FFFFFF"></path>
                            <path d="M91.73,27.77 L89.4566,27.77 L89.4566,26.85984 C89.4566,19.64894 87.5738,14.51984 83.8628,11.61384 C81.1753,9.50834 77.5894,8.48884 72.9018,8.48884 C69.4526,8.48884 65.3549,9.07087 60.7258,10.21934 L59.84299,10.43809 L59.29221,8.23109 L60.17502,8.01234 C64.97972,6.82094 69.25702,6.21934 72.89802,6.21934 C78.11282,6.21934 82.15972,7.39904 85.26102,9.82484 C89.55402,13.18424 91.72982,18.91464 91.72982,26.85984 L91.73,27.77 Z" id="Fill-28" fill="#FFFFFF"></path>
                            <path d="M70.988,41.043 C68.0622,41.043 64.656,40.59769 60.742,39.711 L60.84356,39.26569 C70.21856,41.39069 76.62056,40.95709 80.39856,37.93759 C83.23056,35.67589 84.66416,31.85169 84.66416,26.57059 L85.11729,26.57059 C85.11729,31.99639 83.62509,35.93779 80.67979,38.29359 C78.39069,40.12949 75.18369,41.04359 70.98839,41.04359 L70.988,41.043 Z" id="Fill-29" fill="#FFFFFF"></path>
                            <path d="M70.988,41.953 C68.0232,41.953 64.5075,41.49597 60.543,40.6014 L59.65628,40.39828 L60.16019,38.18348 L61.04691,38.3827 C64.85161,39.24598 68.19921,39.6835 70.99611,39.6835 C74.87891,39.6835 77.76951,38.88272 79.83591,37.2343 C82.44141,35.1562 83.76171,31.5702 83.76171,26.5783 L83.76171,25.66814 L86.03511,25.66814 L86.03511,26.5783 C86.03511,32.2931 84.42571,36.4767 81.25781,39.0083 C78.77341,40.9888 75.41401,41.9536 70.98781,41.9536 L70.988,41.953 Z" id="Fill-30" fill="#FFFFFF"></path>
                            <path d="M85.125,26.945 L84.67188,26.945 C84.67188,21.7184 83.22268,17.9138 80.36328,15.629 C76.50778,12.547 70.12128,12.0704 60.84728,14.172 L60.74572,13.73059 C70.16372,11.59779 76.67572,12.10169 80.64372,15.27359 C83.61642,17.64469 85.12422,21.57439 85.12422,26.94559 L85.125,26.945 Z" id="Fill-31" fill="#FFFFFF"></path>
                            <path d="M86.031,27.852 L83.7576,27.852 L83.7576,26.94184 C83.7576,22.00824 82.4217,18.43794 79.7928,16.33684 C77.6522,14.62594 74.699,13.79774 70.7537,13.79774 C68.0037,13.79774 64.7381,14.22352 61.0467,15.05944 L60.15998,15.25866 L59.65217,13.04386 L60.54279,12.84464 C64.39439,11.97355 67.82799,11.52824 70.74979,11.52824 C75.23419,11.52824 78.65599,12.52043 81.21079,14.56344 C84.40999,17.11814 86.03109,21.28224 86.03109,26.94644 L86.035,27.85269 L86.031,27.852 Z" id="Fill-32" fill="#FFFFFF"></path>
                            <path d="M68.754,36.359 C66.5313,36.359 63.9415,36.06212 60.9767,35.46838 L61.06654,35.02307 C68.51574,36.51527 73.49654,36.12857 76.29354,33.83167 C78.14904,32.31217 79.09044,29.87857 79.09044,26.60507 L79.54356,26.60507 C79.54356,30.02307 78.54747,32.56987 76.58266,34.18317 C74.80926,35.63627 72.21936,36.35897 68.75456,36.35897 L68.754,36.359 Z" id="Fill-33" fill="#FFFFFF"></path>
                            <path d="M68.754,37.27 C66.4923,37.27 63.8126,36.96531 60.797,36.35984 L59.90638,36.18015 L60.35169,33.95355 L61.24232,34.13324 C68.34002,35.55514 73.17232,35.21914 75.71532,33.13324 C77.34812,31.79344 78.17622,29.59804 78.17622,26.60984 L78.17622,25.69968 L80.44962,25.69968 L80.44962,26.60984 C80.44962,30.31294 79.34022,33.09814 77.15272,34.89104 C75.19962,36.48874 72.45352,37.26994 68.75432,37.26994 L68.754,37.27 Z" id="Fill-34" fill="#FFFFFF"></path>
                            <path d="M79.539,26.852 L79.08588,26.852 C79.08588,23.6176 78.13666,21.2036 76.26948,19.6684 C73.41398,17.3286 68.44138,16.9067 61.06248,18.3793 L60.97264,17.93399 C68.49214,16.43399 73.58964,16.88319 76.55864,19.31679 C78.53914,20.94179 79.53914,23.47299 79.53914,26.85199 L79.539,26.852 Z" id="Fill-35" fill="#FFFFFF"></path>
                            <path d="M80.449,27.762 L78.1756,27.762 L78.1756,26.85184 C78.1756,23.90264 77.33966,21.72294 75.6951,20.37524 C73.0662,18.22294 68.3279,17.85964 61.2421,19.27364 L60.35147,19.45333 L59.90616,17.22283 L60.79678,17.04314 C68.66008,15.47284 73.92978,15.98064 77.13678,18.61344 C79.33598,20.41814 80.45318,23.18764 80.45318,26.85174 L80.449,27.762 Z" id="Fill-36" fill="#FFFFFF"></path>
                            <polygon id="Fill-37" fill="#FFFFFF" points="42.555 50.531 43.00812 50.531 43.00812 2.586 42.555 2.586"></polygon>
                            <polygon id="Fill-38" fill="#FFFFFF" points="41.648 51.442 43.9214 51.442 43.9214 1.676 41.648 1.676"></polygon>
                            <polygon id="Fill-39" fill="#FFFFFF" points="46.949 50.531 47.40212 50.531 47.40212 2.586 46.949 2.586"></polygon>
                            <polygon id="Fill-40" fill="#FFFFFF" points="46.039 51.442 48.3124 51.442 48.3124 1.676 46.039 1.676"></polygon>
                            <polygon id="Fill-41" fill="#FFFFFF" points="51.188 50.531 51.64112 50.531 51.64112 2.586 51.188 2.586"></polygon>
                            <polygon id="Fill-42" fill="#FFFFFF" points="50.277 51.442 52.5504 51.442 52.5504 1.676 50.277 1.676"></polygon>
                            <path id="Stroke-43" stroke="#FFFFFF" stroke-width="0.5"></path>
                            <path id="Stroke-44" stroke="#FFFFFF" stroke-width="0.5"></path>
                            <polygon id="Fill-45" fill="#FFFFFF" points="60.023 50.531 60.47612 50.531 60.47612 2.586 60.023 2.586"></polygon>
                            <polygon id="Fill-46" fill="#FFFFFF" points="59.113 51.442 61.3864 51.442 61.3864 1.676 59.113 1.676"></polygon>
                            <path d="M31.996,32.004 C29.1327,32.004 27.1522,31.47275 25.9101,30.3985 C24.92963,29.55475 24.4335,28.3594 24.4335,26.8516 L24.88662,26.8516 C24.88662,28.2422 25.32021,29.2891 26.20302,30.0547 C27.99212,31.5977 31.65222,31.9375 37.40202,31.0859 L37.46842,31.53512 C35.37072,31.84371 33.55042,32.00387 31.99572,32.00387 L31.996,32.004 Z" id="Fill-47" fill="#FFFFFF"></path>
                            <path d="M31.996,32.91 C28.9257,32.91 26.7382,32.31234 25.3163,31.0858 C24.1288,30.0585 23.5233,28.6366 23.5233,26.8475 L23.5233,25.93734 L25.7967,25.93734 L25.7967,26.8475 C25.7967,27.9725 26.11701,28.7733 26.8006,29.3631 C28.3475,30.699 31.8748,30.9803 37.2736,30.18341 L38.17204,30.0506 L38.50407,32.3006 L37.60563,32.43341 C35.42983,32.75372 33.59783,32.90997 31.99623,32.90997 L31.996,32.91 Z" id="Fill-48" fill="#FFFFFF"></path>
                            <path d="M24.887,26.977 L24.43388,26.977 C24.43388,25.4848 24.93388,24.3012 25.91438,23.4536 C27.84408,21.7856 31.62528,21.3989 37.47338,22.2622 L37.40697,22.71142 C31.69997,21.86767 28.03587,22.22314 26.21197,23.79732 C25.32134,24.56685 24.88777,25.60592 24.88777,26.97702 L24.887,26.977 Z" id="Fill-49" fill="#FFFFFF"></path>
                            <path d="M25.797,27.887 L23.5236,27.887 L23.5236,26.97684 C23.5236,25.21124 24.12907,23.79324 25.3166,22.76594 C27.4807,20.89874 31.4221,20.44954 37.6016,21.36364 L38.50004,21.49645 L38.16801,23.74645 L37.26957,23.61364 C31.90627,22.82067 28.38677,23.12145 26.80057,24.48864 C26.11307,25.08239 25.79277,25.87144 25.79277,26.98084 L25.797,27.887 Z" id="Fill-50" fill="#FFFFFF"></path>
                            <path d="M66.652,32.004 C65.0934,32.004 63.277,31.84775 61.1754,31.53525 L61.24181,31.08603 C66.99181,31.93759 70.65981,31.59775 72.44881,30.05483 C73.33553,29.2892 73.76521,28.24233 73.76521,26.85173 L74.21833,26.85173 C74.21833,28.35953 73.72224,29.55483 72.74173,30.39863 C71.49953,31.47283 69.51513,32.00413 66.65193,32.00413 L66.652,32.004 Z" id="Fill-51" fill="#FFFFFF"></path>
                            <path d="M66.652,32.91 C65.0465,32.91 63.2106,32.75375 61.0426,32.43344 L60.14416,32.30063 L60.47228,30.05063 L61.37462,30.18344 C66.77302,30.98032 70.30822,30.69516 71.85462,29.36313 C72.53821,28.77329 72.85852,27.97253 72.85852,26.84753 L72.85852,25.93737 L75.13192,25.93737 L75.13192,26.84753 C75.13192,28.63273 74.53036,30.05843 73.33892,31.08193 C71.91312,32.31633 69.72562,32.91003 66.65142,32.91003 L66.652,32.91 Z" id="Fill-52" fill="#FFFFFF"></path>
                            <path d="M74.223,26.977 L73.76988,26.977 C73.76988,25.6059 73.33629,24.5668 72.44958,23.8012 C70.62148,22.2231 66.96128,21.8676 61.24658,22.7153 L61.18017,22.26608 C67.03177,21.39889 70.81687,21.78952 72.74617,23.45748 C73.72273,24.30123 74.22277,25.48868 74.22277,26.97698 L74.223,26.977 Z" id="Fill-53" fill="#FFFFFF"></path>
                            <path d="M75.129,27.887 L72.8556,27.887 L72.8556,26.97684 C72.8556,25.87134 72.53529,25.08234 71.8478,24.48854 C70.2619,23.12134 66.7384,22.82054 61.3708,23.61354 L60.46846,23.74635 L60.14034,21.49635 L61.03878,21.36354 C67.22238,20.44948 71.16778,20.8987 73.33178,22.76974 C74.52318,23.79704 75.12868,25.21504 75.12868,26.98064 L75.13258,27.88689 L75.129,27.887 Z" id="Fill-54" fill="#FFFFFF"></path>
                            <path id="Stroke-55" stroke="#FFFFFF" stroke-width="0.95"></path>
                            <path id="Stroke-56" stroke="#FFFFFF" stroke-width="0.95"></path>
                            <polygon id="Fill-57" fill="#FFFFFF" points="55.684 50.531 56.13712 50.531 56.13712 2.586 55.684 2.586"></polygon>
                            <polygon id="Fill-58" fill="#FFFFFF" points="54.777 51.442 57.0504 51.442 57.0504 1.676 54.777 1.676"></polygon>
                            <path id="Stroke-59" stroke="#FFFFFF" stroke-width="0.95"></path>
                            <path id="Stroke-60" stroke="#FFFFFF" stroke-width="0.95"></path>
                            <path id="Stroke-61" stroke="#FFFFFF" stroke-width="0.25"></path>
                            <path id="Stroke-62" stroke="#FFFFFF" stroke-width="0.25"></path>
                            <polygon id="Fill-75" fill="#FFFFFF" points="38.238 50.453 38.69112 50.453 38.69112 2.508 38.238 2.508"></polygon>
                            <polygon id="Fill-76" fill="#FFFFFF" points="37.328 51.364 39.6014 51.364 39.6014 1.602 37.328 1.602"></polygon>
                        </g>
                    </g>
                </g>
            </g>
        </g>
    </g>
</svg>