<?xml version="1.0" encoding="UTF-8"?>
<svg width="151px" height="150px" viewBox="0 0 151 150" version="1.1" xmlns="http://www.w3.org/2000/svg" xmlns:xlink="http://www.w3.org/1999/xlink">
    <!-- Generator: Sketch 42 (36781) - http://www.bohemiancoding.com/sketch -->
    <title>ASSET_YCircleFill Copy 6</title>
    <desc>Created with Sketch.</desc>
    <defs></defs>
    <g id="03.-Our-Work" stroke="none" stroke-width="1" fill="none" fill-rule="evenodd">
        <g id="3.1_DESKTOP_OurWork-TRCEmpty" transform="translate(-764.000000, -3446.000000)">
            <g id="CTA-DONATE" transform="translate(263.000000, 3151.000000)">
                <g id="TRC-NAV" transform="translate(0.000000, 118.000000)">
                    <g id="ASSET_YCircleFill-Copy-6" transform="translate(501.000000, 177.000000)">
                        <ellipse id="Oval-Copy" fill="#852762" cx="75.0816104" cy="75" rx="75.0816104" ry="75"></ellipse>
                        <path d="M121.846203,63.3532863 C121.846203,61.9953733 120.972916,60.7385155 119.614977,60.445688 L57.1016141,43.0957261 C56.3242386,42.9039022 55.5519288,42.9998142 54.7745017,43.3885019 L30.5496853,57.0529214 C29.4845739,57.6334331 29,58.6984928 29,59.7687474 L29,86.0327594 C29,87.3906724 29.8732874,88.5516441 31.1301711,88.9403577 L91.9984792,107.163891 C92.2912549,107.259803 92.5789909,107.259803 92.8717666,107.259803 C93.3563663,107.259803 93.8409661,107.163891 94.3255658,106.871116 L120.302695,92.5243796 C121.271894,91.9438679 121.85238,90.9746944 121.85238,89.9096088 L121.846203,63.3532863 Z M56.7185865,49.2998947 L110.898126,64.3224857 L92.4781683,74.4990796 L39.7575954,58.8006335 L56.7185865,49.2998947 Z M35.1028575,63.7422583 L89.8626221,80.1230208 L89.8626221,100.182864 L35.1028575,83.7064741 L35.1028575,63.7422583 Z M115.737662,88.0678715 L95.869074,99.0218925 L95.869074,79.6379041 L115.737662,68.4921108 L115.737662,88.0678715 Z" id="Page-1" fill="#FFFFFF"></path>
                    </g>
                </g>
            </g>
        </g>
    </g>
</svg>