<?xml version="1.0" encoding="UTF-8"?>
<svg width="100px" height="100px" viewBox="0 0 100 100" version="1.1" xmlns="http://www.w3.org/2000/svg" xmlns:xlink="http://www.w3.org/1999/xlink">
    <!-- Generator: Sketch 42 (36781) - http://www.bohemiancoding.com/sketch -->
    <title>Adult Education</title>
    <desc>Created with Sketch.</desc>
    <defs></defs>
    <g id="03.-Our-Work" stroke="none" stroke-width="1" fill="none" fill-rule="evenodd">
        <g id="2.1_DESKTOP_OurWork-Select" transform="translate(-180.000000, -3020.000000)">
            <g id="CTA-DONATE" transform="translate(41.000000, 2900.000000)">
                <g id="TRC-NAV">
                    <g id="Adult-Education" transform="translate(139.000000, 120.000000)">
                        <g id="ASSET_YCircleFill-Copy-3" fill="#852762">
                            <ellipse id="Oval-Copy" cx="49.7229208" cy="50" rx="49.7229208" ry="50"></ellipse>
                        </g>
                        <g transform="translate(25.165563, 32.666667)" fill="#FFFFFF">
                            <path d="M41.9470199,6.11733333 L7.7218543,6.11733333 C6.96649007,6.11733333 6.35337748,6.73192 6.35337748,7.49493333 C6.35337748,8.25533333 6.96389404,8.87253333 7.7218543,8.87253333 L41.9470199,8.87253333 C42.7023841,8.87253333 43.3154967,8.25794667 43.3154967,7.49493333 C43.3154967,6.73453333 42.7049801,6.11733333 41.9470199,6.11733333 Z" id="Fill-1"></path>
                            <path d="M21.7582781,12.9633333 L7.7218543,12.9633333 C6.96649007,12.9633333 6.35337748,13.57792 6.35337748,14.3409333 C6.35337748,15.1013333 6.96389404,15.7185333 7.7218543,15.7185333 L21.7582781,15.7185333 C22.5136424,15.7185333 23.126755,15.1039467 23.126755,14.3409333 C23.126755,13.5883333 22.505894,12.9633333 21.7582781,12.9633333 Z" id="Fill-2"></path>
                            <path d="M21.7582781,19.818 L7.7218543,19.818 C6.96649007,19.818 6.35337748,20.4325867 6.35337748,21.1956 C6.35337748,21.9586133 6.96389404,22.5732 7.7218543,22.5732 L21.7582781,22.5732 C22.5136424,22.5732 23.126755,21.9586133 23.126755,21.1956 C23.126755,20.4352 22.505894,19.818 21.7582781,19.818 Z" id="Fill-3"></path>
                            <path d="M21.7582781,26.6746667 L7.7218543,26.6746667 C6.96649007,26.6746667 6.35337748,27.2892533 6.35337748,28.0522667 C6.35337748,28.81528 6.96389404,29.4298667 7.7218543,29.4298667 L21.7582781,29.4298667 C22.5136424,29.4298667 23.126755,28.81528 23.126755,28.0522667 C23.126755,27.2918667 22.505894,26.6746667 21.7582781,26.6746667 Z" id="Fill-4"></path>
                            <path d="M45.3721854,0.2292 L4.29735232,0.2292 C2.03894172,0.2292 0.194504702,2.08333333 0.194504702,4.3594 L0.194504702,31.1774 C0.194504702,33.4534667 2.03635894,35.3076 4.29735232,35.3076 L29.9364238,35.3076 L29.9364238,40.3753347 C29.9467748,41.4300013 31.1393377,42.1331347 32.021457,41.5472013 L35.0688742,39.6722013 L38.1162914,41.5472013 C38.9906623,42.114908 40.2013245,41.440428 40.2013245,40.3753347 L40.2013245,35.3076 L45.3622517,35.3076 C47.623245,35.3076 49.4650993,33.4534667 49.4650993,31.1774 L49.4650993,4.3594 C49.4754503,2.08333333 47.6309934,0.2292 45.3725828,0.2292 L45.3721854,0.2292 Z M37.4642384,37.9325333 L35.785298,36.8960667 C35.348106,36.6226267 34.7970861,36.6226267 34.3599338,36.8960667 L32.6809934,37.9325333 L32.6809934,30.2972 C33.4363576,30.5315733 34.2435099,30.65918 35.0764901,30.65918 C35.9094702,30.65918 36.7166225,30.5315733 37.4719868,30.2972 L37.4719868,37.9325333 L37.4642384,37.9325333 Z M35.0790728,27.8958667 C32.0523841,27.8958667 29.5896026,25.4166667 29.5896026,22.3698 C29.5896026,19.3229333 32.0523841,16.8437333 35.0790728,16.8437333 C38.1057616,16.8437333 40.568543,19.3229333 40.568543,22.3698 C40.568543,25.4166667 38.1057616,27.8958667 35.0790728,27.8958667 Z M46.7406623,31.1771333 C46.7406623,31.9375333 46.1301457,32.5547333 45.3721854,32.5547333 L40.2112583,32.5547333 L40.2112583,28.8334 C42.0945695,27.3099333 43.3052318,24.9844667 43.3052318,22.3698667 C43.3052318,17.7995333 39.608543,14.0885333 35.0787417,14.0885333 C30.5386755,14.0885333 26.8522517,17.8098667 26.8522517,22.3698667 C26.8522517,24.9766667 28.0654967,27.3126 29.9462252,28.8334 L29.9462252,32.5626 L4.29721854,32.5626 C3.5418543,32.5626 2.92874172,31.9480133 2.92874172,31.185 L2.92874172,4.35966667 C2.92874172,3.59926667 3.53925828,2.98206667 4.29721854,2.98206667 L45.3621192,2.98206667 C46.1174834,2.98206667 46.730596,3.59665333 46.730596,4.35966667 L46.730596,31.1776667 L46.7406623,31.1771333 Z" id="Fill-5"></path>
                        </g>
                    </g>
                </g>
            </g>
        </g>
    </g>
</svg>