<?xml version="1.0" encoding="UTF-8"?>
<svg width="100px" height="100px" viewBox="0 0 100 100" version="1.1" xmlns="http://www.w3.org/2000/svg" xmlns:xlink="http://www.w3.org/1999/xlink">
    <!-- Generator: Sketch 42 (36781) - http://www.bohemiancoding.com/sketch -->
    <title>Brick</title>
    <desc>Created with Sketch.</desc>
    <defs></defs>
    <g id="03.-Our-Work" stroke="none" stroke-width="1" fill="none" fill-rule="evenodd">
        <g id="2.1_DESKTOP_OurWork-Select" transform="translate(-180.000000, -3260.000000)">
            <g id="CTA-DONATE" transform="translate(41.000000, 2900.000000)">
                <g id="TRC-NAV">
                    <g id="Brick" transform="translate(139.000000, 360.000000)">
                        <g id="ASSET_YCircleFill-Copy-6" fill="#852762">
                            <ellipse id="Oval-Copy" cx="49.7229208" cy="50" rx="49.7229208" ry="50"></ellipse>
                        </g>
                        <path d="M80.6928496,42.2355242 C80.6928496,41.3302488 80.1145136,40.4923436 79.2152163,40.2971253 L37.8156385,28.7304841 C37.3008203,28.6026015 36.7893569,28.6665428 36.2745044,28.9256679 L20.2315796,38.035281 C19.5262079,38.4222887 19.205298,39.1323286 19.205298,39.8458316 L19.205298,57.355173 C19.205298,58.2604483 19.7836341,59.0344294 20.6160073,59.2935718 L60.9261452,71.4425942 C61.1200364,71.5065355 61.31059,71.5065355 61.5044812,71.5065355 C61.8254082,71.5065355 62.1463351,71.4425942 62.4672621,71.2474104 L79.6706588,61.6829197 C80.3125127,61.295912 80.6969404,60.6497962 80.6969404,59.9397392 L80.6928496,42.2355242 Z M37.5619778,32.8665965 L73.4424678,42.8816571 L61.2438201,49.6660531 L26.3295334,39.2004223 L37.5619778,32.8665965 Z M23.2469255,42.4948389 L59.5116703,53.4153472 L59.5116703,66.7885761 L23.2469255,55.8043161 L23.2469255,42.4948389 Z M76.6474583,58.7119143 L63.489453,66.014595 L63.489453,53.0919361 L76.6474583,45.6614072 L76.6474583,58.7119143 Z" id="Page-1" fill="#FFFFFF"></path>
                    </g>
                </g>
            </g>
        </g>
    </g>
</svg>