<?xml version="1.0" encoding="UTF-8"?>
<svg width="100px" height="100px" viewBox="0 0 100 100" version="1.1" xmlns="http://www.w3.org/2000/svg" xmlns:xlink="http://www.w3.org/1999/xlink">
    <!-- Generator: Sketch 42 (36781) - http://www.bohemiancoding.com/sketch -->
    <title>Water</title>
    <desc>Created with Sketch.</desc>
    <defs></defs>
    <g id="03.-Our-Work" stroke="none" stroke-width="1" fill="none" fill-rule="evenodd">
        <g id="2.1_DESKTOP_OurWork-Select" transform="translate(-41.000000, -3380.000000)">
            <g id="CTA-DONATE" transform="translate(41.000000, 2900.000000)">
                <g id="TRC-NAV">
                    <g id="Water" transform="translate(0.000000, 480.000000)">
                        <g id="ASSET_YCircleFill-Copy-7" fill="#852762">
                            <ellipse id="Oval-Copy" cx="49.7229208" cy="50" rx="49.7229208" ry="50"></ellipse>
                        </g>
                        <g transform="translate(23.841060, 26.000000)" stroke="#FFFFFF">
                            <path d="M18.5431425,18.2927453 C18.5104641,10.9929372 26.8211921,0 26.8211921,0 C26.8211921,0 35.13192,10.9929372 35.0992416,18.2927453 C35.0993057,18.306267 35.0993377,18.3197964 35.0993377,18.3333333 C35.0993377,22.9357062 31.3930857,26.6666667 26.8211921,26.6666667 C22.2492984,26.6666667 18.5430464,22.9357062 18.5430464,18.3333333 C18.5430464,18.3197964 18.5430784,18.306267 18.5431425,18.2927453 Z" id="Combined-Shape" stroke-width="2.64900662" fill="#FFFFFF"></path>
                            <path d="M0,33.3333333 C0,33.3333333 0.860432479,33.7644131 1.93990672,34.3052335 L6.704202,36.6921623 C7.7755829,37.228928 9.52501035,37.2409288 10.6004324,36.7243588 L15.7037204,34.2730371 C16.7841682,33.754053 18.5204766,33.7644131 19.5999509,34.3052335 L24.3642461,36.6921623 C25.435627,37.228928 27.1850545,37.2409288 28.2604766,36.7243588 L33.3637646,34.2730371 C34.4442123,33.754053 36.1805208,33.7644131 37.259995,34.3052335 L42.0242903,36.6921623 C43.0956712,37.228928 44.8450986,37.2409288 45.9205207,36.7243588 L51.0238087,34.2730371" id="Path-3" stroke-width="3.97350993"></path>
                            <path d="M0,44.3307292 C0,44.3307292 0.860432479,44.7618089 1.93990672,45.3026293 L6.704202,47.6895582 C7.7755829,48.2263238 9.52501035,48.2383246 10.6004324,47.7217546 L15.7037204,45.2704329 C16.7841682,44.7514489 18.5204766,44.7618089 19.5999509,45.3026293 L24.3642461,47.6895582 C25.435627,48.2263238 27.1850545,48.2383246 28.2604766,47.7217546 L33.3637646,45.2704329 C34.4442123,44.7514489 36.1805208,44.7618089 37.259995,45.3026293 L42.0242903,47.6895582 C43.0956712,48.2263238 44.8450986,48.2383246 45.9205207,47.7217546 L51.0238087,45.2704329" id="Path-3-Copy" stroke-width="3.97350993"></path>
                        </g>
                    </g>
                </g>
            </g>
        </g>
    </g>
</svg>