<?xml version="1.0" encoding="UTF-8"?>
<svg width="100px" height="100px" viewBox="0 0 100 100" version="1.1" xmlns="http://www.w3.org/2000/svg" xmlns:xlink="http://www.w3.org/1999/xlink">
    <!-- Generator: Sketch 42 (36781) - http://www.bohemiancoding.com/sketch -->
    <title>Primary</title>
    <desc>Created with Sketch.</desc>
    <defs></defs>
    <g id="03.-Our-Work" stroke="none" stroke-width="1" fill="none" fill-rule="evenodd">
        <g id="2.1_DESKTOP_OurWork-Select" transform="translate(-180.000000, -2900.000000)">
            <g id="CTA-DONATE" transform="translate(41.000000, 2900.000000)">
                <g id="TRC-NAV">
                    <g id="Primary" transform="translate(139.000000, 0.000000)">
                        <g id="ASSET_YCircleFill-Copy" fill="#852762">
                            <ellipse id="Oval-Copy" cx="49.7229208" cy="50" rx="49.7229208" ry="50"></ellipse>
                        </g>
                        <path d="M52.427584,74.0360284 C51.130883,74.0360284 49.967734,73.8329075 49.0070636,73.4396216 C48.0464043,73.8329075 46.8875453,74.0360284 45.5865433,74.0360284 C41.9937618,74.0360284 38.1682843,72.5147518 35.0925069,69.8612028 C31.2025142,66.5075348 28.6091122,61.4422922 27.5795153,55.2193305 C26.5197672,48.7755348 28.3721704,44.9723433 30.1125928,42.9108199 C32.3139407,40.3090496 35.613812,38.8742922 39.4004701,38.8742922 C43.0750812,38.8742922 46.6291536,40.2831603 49.0027626,42.5867603 C51.3806727,40.2832709 54.9304441,38.8742922 58.6093562,38.8742922 C62.3960142,38.8742922 65.6958856,40.3091603 67.8972335,42.9108199 C69.6376007,44.9680284 71.490015,48.7755348 70.430311,55.2193305 C69.4050261,61.4427348 66.8073121,66.507756 62.9173194,69.8612028 C59.8457327,72.5190667 56.0203655,74.0360284 52.427584,74.0360284 Z" id="Fill-1" fill="#FFFFFF"></path>
                        <path d="M43.5531556,36.0594326 C42.3900066,36.0594326 39.4692863,35.7785109 37.5048251,33.1638071 C35.1785272,30.0693645 35.4585344,25.4234411 35.4973538,24.9004539 C35.5361291,24.4034445 35.785985,23.9453356 36.182307,23.6428284 C36.5786401,23.340299 37.0869649,23.2279348 37.5737406,23.3273322 C38.0820765,23.4310556 42.6182803,24.4380301 44.9445782,27.5324726 C47.5336791,30.9769748 45.836311,34.8406854 45.7587714,35.0005577 C45.5175286,35.5364565 45.0178057,35.9167756 44.4362643,36.0032173 C44.3759509,36.0161841 44.0442433,36.0593994 43.5531446,36.0593994 L43.5531556,36.0594326 Z M39.0384128,27.441705 C39.189191,28.677756 39.5381246,30.090939 40.2704883,31.0676539 C41.0200671,32.0659875 42.058277,32.4204284 42.8681913,32.5327262 C42.9758931,31.7504803 42.9328058,30.6355007 42.174614,29.6284709 C41.4121101,28.6171705 40.1412263,27.9083773 39.0384018,27.4415943 L39.0384128,27.441705 Z" id="Fill-2" fill="#FFFFFF"></path>
                        <path d="M49.0066225,39.0156879 C48.8386182,39.0156879 48.6706029,38.9897543 48.5025987,38.942213 C47.5850156,38.6656173 47.0680446,37.6932173 47.3437507,36.7727067 L49.8165037,28.5569279 C50.0922098,27.6363841 51.0614822,27.1220599 51.9790322,27.3943407 C52.8966152,27.6709365 53.4135862,28.6433365 53.1378801,29.5638471 L50.6651271,37.7796258 C50.4411214,38.5316233 49.7518561,39.0156769 49.0065894,39.0156769 L49.0066225,39.0156879 Z" id="Fill-3" fill="#FFFFFF"></path>
                    </g>
                </g>
            </g>
        </g>
    </g>
</svg>