<?xml version="1.0" encoding="UTF-8"?>
<svg width="100px" height="100px" viewBox="0 0 100 100" version="1.1" xmlns="http://www.w3.org/2000/svg" xmlns:xlink="http://www.w3.org/1999/xlink">
    <!-- Generator: Sketch 42 (36781) - http://www.bohemiancoding.com/sketch -->
    <title>Crafting</title>
    <desc>Created with Sketch.</desc>
    <defs></defs>
    <g id="03.-Our-Work" stroke="none" stroke-width="1" fill="none" fill-rule="evenodd">
        <g id="2.1_DESKTOP_OurWork-Select" transform="translate(-180.000000, -3140.000000)">
            <g id="CTA-DONATE" transform="translate(41.000000, 2900.000000)">
                <g id="TRC-NAV">
                    <g id="Crafting" transform="translate(139.000000, 240.000000)">
                        <g id="ASSET_YCircleFill" fill="#852762">
                            <ellipse id="Oval-Copy" cx="49.7229208" cy="50" rx="49.7229208" ry="50"></ellipse>
                        </g>
                        <g transform="translate(17.880795, 34.000000)">
                            <path d="M1.15377483,17.9846667 L0.853688742,17.9846667 C0.853688742,11.06 2.62315894,6.18533333 6.11031126,3.498 C10.0786556,0.440733333 16.1891192,0.0917333333 24.7930927,2.43546667 L24.7154834,2.72713333 C16.2068742,0.4094 10.1797219,0.740133333 6.29429139,3.73753333 C2.88475563,6.36513333 1.15409272,11.1595333 1.15409272,17.9848667 L1.15377483,17.9846667 Z" id="Fill-1" fill="#FFFFFF"></path>
                            <path d="M1.75649007,18.5913333 L0.250927152,18.5913333 L0.250927152,17.98456 C0.250927152,10.8618933 2.09801325,5.82589333 5.74298013,3.01589333 C8.11516556,1.18776 11.1289404,0.29976 14.9549007,0.29976 C17.8108609,0.29976 21.1738411,0.820593333 24.9509272,1.84922667 L25.5329868,2.00808 L25.1397748,3.47161333 L24.5577152,3.31276 C20.9075828,2.31796 17.6762583,1.81536 14.9550662,1.81536 C11.4704967,1.81536 8.75678808,2.60182667 6.65903974,4.21902667 C3.40725099,6.72682667 1.75685364,11.3570267 1.75685364,17.98436 L1.75649007,18.5913333 Z" id="Fill-2" fill="#FFFFFF"></path>
                            <path id="Stroke-3" stroke="#FFFFFF" stroke-width="0.5"></path>
                            <path id="Stroke-4" stroke="#FFFFFF" stroke-width="0.5"></path>
                            <path id="Stroke-5" stroke="#FFFFFF" stroke-width="0.5"></path>
                            <path id="Stroke-6" stroke="#FFFFFF" stroke-width="0.5"></path>
                            <path d="M16.6523179,30.6953333 C13.397947,30.6953333 10.8653642,29.9635333 9,28.4948 C6.34066225,26.4010667 4.99284768,22.7266 4.99284768,17.5754667 L5.29293377,17.5754667 C5.29293377,22.6275333 6.6019404,26.2214667 9.18624503,28.2554667 C12.3604172,30.7554667 17.5551192,31.0601333 25.0670397,29.1877333 L25.1394768,29.4820067 C21.8955033,30.2892733 19.0731192,30.69554 16.6520596,30.69554 L16.6523179,30.6953333 Z" id="Fill-7" fill="#FFFFFF"></path>
                            <path d="M16.6523179,31.2993333 L16.6497285,31.2993333 C13.2453576,31.2993333 10.6221788,30.5363333 8.63052318,28.9686 C5.81853907,26.7524667 4.39059205,22.9191333 4.39059205,17.5726 L4.39059205,16.9658267 L5.89615497,16.9658267 L5.89615497,17.5726 C5.89615497,22.4294 7.12754305,25.8619333 9.55661589,27.7759333 C11.2743642,29.1274667 13.5948278,29.7863333 16.6499934,29.7863333 C18.9756225,29.7863333 21.7591325,29.3852933 24.9228411,28.5962 L25.5074834,28.4503667 L25.8696556,29.9217 L25.2850132,30.0675333 C22.0073974,30.8852667 19.102298,31.2993333 16.6525629,31.2993333 L16.6523179,31.2993333 Z" id="Fill-8" fill="#FFFFFF"></path>
                            <path d="M5.29284768,17.906 L4.99276159,17.906 C4.99276159,12.8044667 6.35607285,9.14266667 9.04388742,7.026 C12.3603113,4.414 17.6273311,4.05466667 25.1399139,5.92966667 L25.0674768,6.22394 C17.6482715,4.37240667 12.4668146,4.71354 9.22774172,7.26560667 C6.61754305,9.32287333 5.2930404,12.9036067 5.2930404,17.9062733 L5.29284768,17.906 Z" id="Fill-9" fill="#FFFFFF"></path>
                            <path d="M5.89556291,18.5133333 L4.39,18.5133333 L4.39,17.90656 C4.39,12.6070933 5.83092715,8.78656 8.6713245,6.54989333 C10.7253642,4.93269333 13.4027815,4.14622667 16.8587417,4.14622667 C19.2671523,4.14622667 22.1024503,4.54987333 25.2845695,5.34156 L25.8692119,5.48739333 L25.5070397,6.95872667 L24.9223974,6.81289333 C21.8543179,6.04729333 19.1406093,5.65922667 16.8561722,5.65922667 C13.7518675,5.65922667 11.3770993,6.34149333 9.59988079,7.74256 C7.14233113,9.68002667 5.89537682,13.09936 5.89537682,17.90656 L5.89556291,18.5133333 Z" id="Fill-10" fill="#FFFFFF"></path>
                            <path d="M18.1264901,27.362 C15.3455629,27.362 13.2217219,26.7526267 11.700596,25.5286667 C9.75006623,23.9609333 8.7618543,21.3307333 8.7618543,17.716 L9.06193377,17.716 C9.06193377,21.2342 10.0113377,23.7837333 11.8868344,25.2913333 C14.3909404,27.3043333 18.6285563,27.596 24.8418013,26.1767333 L24.9090596,26.4736067 C22.3195232,27.0647533 20.0637616,27.3616067 18.1262781,27.3616067 L18.1264901,27.362 Z" id="Fill-11" fill="#FFFFFF"></path>
                            <path d="M18.1264901,27.9686667 C15.1954967,27.9686667 12.9707285,27.32544 11.3251656,26.0025333 C9.22456954,24.3150667 8.15880795,21.526 8.15880795,17.7158667 L8.15880795,17.1090933 L9.66437086,17.1090933 L9.66437086,17.7158667 C9.66437086,21.0414 10.5387417,23.432 12.2642384,24.8172 C13.6327152,25.9161333 15.5496026,26.4526 18.1210596,26.4526 C19.9733113,26.4526 22.1902649,26.1609333 24.7099338,25.5854 L25.2971656,25.4525867 L25.6282914,26.9317867 L25.0410596,27.0646 C22.417947,27.66356 20.0896689,27.9682667 18.1264901,27.9682667 L18.1264901,27.9686667 Z" id="Fill-12" fill="#FFFFFF"></path>
                            <path d="M9.06225166,17.9633333 L8.76217219,17.9633333 C8.76217219,14.3852 9.76071523,11.7654 11.7293907,10.1846667 C14.3629007,8.06746667 18.6750861,7.73153333 24.9121722,9.156 L24.8449139,9.45027333 C18.7010066,8.04920667 14.471404,8.36434 11.9157748,10.4216067 C10.0221325,11.9398067 9.06239735,14.4788733 9.06239735,17.96294 L9.06225166,17.9633333 Z" id="Fill-13" fill="#FFFFFF"></path>
                            <path d="M9.66490066,18.568 L8.15933775,18.568 L8.15933775,17.9612267 C8.15933775,14.18776 9.23291391,11.41176 11.3515894,9.70856 C13.0460265,8.34656 15.3147682,7.68509333 18.284702,7.68509333 C20.2197351,7.68509333 22.4936424,7.97936667 25.0443046,8.56269333 L25.6315364,8.69550667 L25.3004106,10.17204 L24.7131788,10.0392267 C22.268543,9.48193333 20.1033113,9.19809333 18.2821192,9.19809333 C15.6693377,9.19809333 13.7110596,9.75278 12.2933775,10.8934267 C10.5498013,12.2944933 9.66768212,14.6746933 9.66768212,17.9634267 L9.66490066,18.568 Z" id="Fill-14" fill="#FFFFFF"></path>
                            <path d="M19.6059603,24.2393333 C17.3087417,24.2393333 15.5936424,23.75756 14.4217881,22.7888 C13.120596,21.7158667 12.4609272,20.0153333 12.4609272,17.7367333 L12.7610066,17.7367333 C12.7610066,19.919 13.384457,21.5388 14.6132583,22.5518667 C16.4655099,24.0805333 19.7663709,24.3409333 24.699351,23.3461333 L24.7588477,23.6430067 C22.792755,24.0414467 21.0776556,24.23936 19.6057351,24.23936 L19.6059603,24.2393333 Z" id="Fill-15" fill="#FFFFFF"></path>
                            <path d="M19.6059603,24.8466667 C17.1561589,24.8466667 15.3349669,24.32844 14.0389404,23.2581333 C12.5902649,22.0628 11.8555629,20.2060667 11.8555629,17.7399333 L11.8555629,17.13316 L13.3611258,17.13316 L13.3611258,17.7399333 C13.3611258,19.7321333 13.9095497,21.1956667 14.9934437,22.0888667 C16.6801325,23.4820667 19.8827152,23.7034667 24.5808609,22.7581333 L25.1706755,22.63834 L25.4681722,24.12274 L24.8783576,24.2425333 C22.8786887,24.6409733 21.104053,24.8467 19.6062384,24.8467 L19.6059603,24.8466667 Z" id="Fill-16" fill="#FFFFFF"></path>
                            <path d="M12.7589404,17.9013333 L12.4588609,17.9013333 C12.4588609,15.6513333 13.1236954,13.9612 14.4352848,12.8805333 C16.4013775,11.2581333 19.7772715,10.9560667 24.7597881,11.9586667 L24.7002914,12.25554 C19.8110199,11.27374 16.5181722,11.5550067 14.6267815,13.11494 C13.3876424,14.13574 12.7590331,15.74514 12.7590331,17.9014067 L12.7589404,17.9013333 Z" id="Fill-17" fill="#FFFFFF"></path>
                            <path d="M13.3615894,18.508 L11.8560265,18.508 L11.8560265,17.9012267 C11.8560265,15.4610933 12.595894,13.61216 14.0523179,12.4116267 C15.3871523,11.3100933 17.2419868,10.7762267 19.7254305,10.7762267 C21.2025828,10.7762267 22.933245,10.9741467 24.8759603,11.3647667 L25.4657748,11.48456 L25.1708675,12.97156 L24.581053,12.8491667 C19.888404,11.9064333 16.7479404,12.1460333 15.0068808,13.5835667 C13.9152252,14.4846333 13.3615828,15.9377 13.3615828,17.9013 L13.3615894,18.508 Z" id="Fill-18" fill="#FFFFFF"></path>
                            <path d="M50.4423841,34.5806667 C47.5656954,34.5806667 44.2104636,34.0546267 40.3456954,32.9999333 L40.4233046,32.7082667 C49.0478079,35.0598 55.0935033,34.7734 58.9067483,31.8358667 C62.274894,29.2421333 63.9823113,24.4345333 63.9823113,17.5492 L64.2823907,17.5492 C64.2823907,24.5338667 62.533649,29.4218667 59.0878212,32.0778667 C56.9225894,33.7471333 54.0588146,34.5804667 50.4421258,34.5804667 L50.4423841,34.5806667 Z" id="Fill-19" fill="#FFFFFF"></path>
                            <path d="M50.4423841,35.1873333 C47.5372848,35.1873333 44.0862914,34.6482733 40.1907285,33.5858 L39.6086689,33.4269467 L40.0018808,31.9634133 L40.5839404,32.1222667 C44.3556623,33.1509333 47.6746689,33.6717333 50.4428808,33.6717333 C53.8679801,33.6717333 56.5169868,32.9139333 58.5422185,31.354 C61.7526159,28.8800667 63.382351,24.234 63.382351,17.5466667 L63.382351,16.9398933 L64.8879139,16.9398933 L64.8879139,17.5466667 C64.8879139,24.7313333 63.0615563,29.7813333 59.4579801,32.5573333 C57.1918212,34.3021333 54.1599669,35.1875333 50.4427483,35.1875333 L50.4423841,35.1873333 Z" id="Fill-20" fill="#FFFFFF"></path>
                            <path d="M14.6860927,34.5806667 C17.5627815,34.5806667 20.9180132,34.0546267 24.7827815,32.9999333 L24.7051722,32.7082667 C16.0806689,35.0598 10.0349735,34.7734 6.22172848,31.8358667 C2.85100066,29.2421333 1.14358344,24.4345333 1.14358344,17.5492 L0.843503974,17.5492 C0.843503974,24.5338667 2.5922457,29.4218667 6.03807285,32.0778667 C8.20588742,33.7471333 11.0696623,34.5804667 14.6864172,34.5804667 L14.6860927,34.5806667 Z" id="Fill-21" fill="#FFFFFF"></path>
                            <path d="M14.6860927,35.1873333 C17.5911921,35.1873333 21.0421854,34.6482733 24.9377483,33.5858 L25.5198079,33.4269467 L25.126596,31.9634133 L24.5445364,32.1222667 C20.7728146,33.1509333 17.456457,33.6717333 14.685596,33.6717333 C11.2604967,33.6717333 8.61149007,32.9139333 6.58625828,31.354 C3.37327815,28.8800667 1.74612649,24.2366667 1.74612649,17.5493333 L1.74612649,16.94256 L0.240562914,16.94256 L0.240562914,17.5493333 C0.240562914,24.734 2.06692119,29.784 5.67049669,32.56 C7.93665563,34.3022 10.9685099,35.1876 14.6857285,35.1876 L14.6860927,35.1873333 Z" id="Fill-22" fill="#FFFFFF"></path>
                            <path d="M64.2847682,17.9846667 L63.9846887,17.9846667 C63.9846887,11.1593333 62.2566093,6.36466667 58.8470728,3.73733333 C54.9589272,0.742533333 48.9338278,0.4118 40.4258808,2.72693333 L40.3482715,2.43526667 C48.952245,0.0915333333 55.0628411,0.440466667 59.031053,3.4978 C62.5156225,6.18526667 64.2850927,11.0604667 64.2850927,17.9844667 L64.2847682,17.9846667 Z" id="Fill-23" fill="#FFFFFF"></path>
                            <path d="M64.8874172,18.5913333 L63.3818543,18.5913333 L63.3818543,17.98456 C63.3818543,11.35696 61.7339735,6.72389333 58.4796689,4.21922667 C56.3816556,2.60202667 53.6680132,1.81556 50.1836424,1.81556 C47.4621854,1.81556 44.2311258,2.31816667 40.5809934,3.31296 L40.0015232,3.47181333 L39.6083113,2.00828 L40.1903709,1.84942667 C43.9646755,0.82076 47.327457,0.29996 50.1863974,0.29996 C54.0124238,0.29996 57.0261325,1.18796 59.3956689,3.01609333 C63.0406358,5.82336 64.8877219,10.8600933 64.8877219,17.98476 L64.8874172,18.5913333 Z" id="Fill-24" fill="#FFFFFF"></path>
                            <path d="M48.486755,30.6953333 C46.0654305,30.6953333 43.2456291,30.28908 39.9993377,29.4792 L40.0717682,29.1849267 C47.581702,31.0599267 52.776404,30.75526 55.9525629,28.25266 C58.5368675,26.2187933 59.8458742,22.62506 59.8458742,17.57266 L60.1459536,17.57266 C60.1459536,22.7211267 58.7981391,26.3953267 56.1362185,28.4919933 C54.271053,29.9607267 51.741053,30.6951267 48.4865497,30.6951267 L48.486755,30.6953333 Z" id="Fill-25" fill="#FFFFFF"></path>
                            <path d="M48.486755,31.302 C46.0369536,31.302 43.1344371,30.88794 39.8543046,30.0676 L39.2696623,29.9217667 L39.6344172,28.4530333 L40.2190596,28.5988667 C43.3828344,29.3879333 46.1664106,29.789 48.4892583,29.789 C51.5444238,29.789 53.8648874,29.1301467 55.5826358,27.7786 C58.0143576,25.8645333 59.2456821,22.4322667 59.2456821,17.5752667 L59.2456821,16.9684933 L60.751245,16.9684933 L60.751245,17.5752667 C60.751245,22.9216 59.323298,26.7552667 56.5113113,28.9712667 C54.5168079,30.539 51.8936291,31.302 48.4868079,31.302 L48.486755,31.302 Z" id="Fill-26" fill="#FFFFFF"></path>
                            <path d="M60.1483444,17.906 L59.8482649,17.906 C59.8482649,12.9034 58.5237616,9.32266667 55.9109801,7.26533333 C52.6695894,4.71326667 47.4904503,4.37213333 40.073894,6.22366667 L40.001457,5.92939333 C47.5140397,4.05439333 52.7782781,4.41379333 56.0974834,7.02572667 C58.7827152,9.14552667 60.1486093,12.8043933 60.1486093,17.9057267 L60.1483444,17.906 Z" id="Fill-27" fill="#FFFFFF"></path>
                            <path d="M60.7483444,18.5133333 L59.2427815,18.5133333 L59.2427815,17.90656 C59.2427815,13.0992933 57.995894,9.67989333 55.5382781,7.74256 C53.7584768,6.33889333 51.3837086,5.65922667 48.2793377,5.65922667 C45.9950993,5.65922667 43.2813907,6.04724667 40.2157616,6.81289333 L39.6311192,6.95872667 L39.2663642,5.48739333 L39.8510066,5.34156 C43.0329272,4.54729333 45.8655762,4.14622667 48.2768344,4.14622667 C51.7303444,4.14622667 54.4104106,4.93269333 56.4642517,6.54989333 C59.307298,8.78949333 60.7482252,12.60976 60.7482252,17.90656 L60.7483444,18.5133333 Z" id="Fill-28" fill="#FFFFFF"></path>
                            <path d="M47.0119205,27.362 C45.0743046,27.362 42.818543,27.0651267 40.2264901,26.474 L40.2937483,26.1771267 C46.5023576,27.5937933 50.7420927,27.3047267 53.2440795,25.2917267 C55.1195762,23.7839267 56.0689801,21.23446 56.0689801,17.7137267 L56.3690662,17.7137267 C56.3690662,21.3309267 55.3808543,23.9585267 53.4303245,25.52906 C51.9143642,26.7529933 49.7905232,27.3623933 47.0121788,27.3623933 L47.0119205,27.362 Z" id="Fill-29" fill="#FFFFFF"></path>
                            <path d="M47.0119205,27.9686667 C45.0484768,27.9686667 42.7201987,27.66398 40.094702,27.0676 L39.5074702,26.9321867 L39.8411854,25.4556533 L40.4284172,25.5884667 C42.9480861,26.1639867 45.1650397,26.4556667 47.0172914,26.4556667 C49.5886821,26.4556667 51.5029868,25.9218133 52.8714636,24.8228667 C54.5969603,23.4374667 55.4713311,21.0468 55.4713311,17.7188667 L55.4713311,17.1120933 L56.976894,17.1120933 L56.976894,17.7188667 C56.976894,21.5287333 55.9110662,24.3178 53.8131192,26.0055333 C52.1678212,27.3258667 49.943053,27.9690667 47.0117947,27.9690667 L47.0119205,27.9686667 Z" id="Fill-30" fill="#FFFFFF"></path>
                            <path d="M56.3741722,17.9633333 L56.0740927,17.9633333 C56.0740927,14.4789333 55.1143576,11.9425333 53.2207152,10.4193333 C50.667404,8.36466667 46.4379338,8.04693333 40.2962119,9.448 L40.2289536,9.15372667 C46.4660397,7.73186 50.7786225,8.06779333 53.4064371,10.1823933 C55.3751126,11.7631267 56.3736556,14.3829267 56.3736556,17.9637267 L56.3741722,17.9633333 Z" id="Fill-31" fill="#FFFFFF"></path>
                            <path d="M56.9741722,18.568 L55.4686093,18.568 L55.4686093,17.9612267 C55.4686093,14.67216 54.5839073,12.29196 52.8429139,10.8912267 C51.425298,9.75062667 49.4695364,9.19849333 46.856755,9.19849333 C45.0355629,9.19849333 42.8729139,9.48234667 40.4282781,10.0396267 L39.8410464,10.17244 L39.5047483,8.69590667 L40.0945629,8.56309333 C42.6452914,7.98236667 44.9191987,7.68549333 46.8541656,7.68549333 C49.8239669,7.68549333 52.0900596,8.34695333 53.7819801,9.70896 C55.9006556,11.4120933 56.9742318,14.18816 56.9742318,17.9642933 L56.9768212,18.56846 L56.9741722,18.568 Z" id="Fill-32" fill="#FFFFFF"></path>
                            <path d="M45.5324503,24.2393333 C44.0604636,24.2393333 42.3453642,24.0414133 40.3819205,23.6455867 L40.4414172,23.3487133 C45.3746623,24.3435133 48.6732053,24.0857133 50.5255232,22.5544467 C51.7543311,21.5414467 52.3777748,19.9190467 52.3777748,17.7367133 L52.6778543,17.7367133 C52.6778543,20.01538 52.0181921,21.7132467 50.7169934,22.78878 C49.5425563,23.7575133 47.8273907,24.2393133 45.5328212,24.2393133 L45.5324503,24.2393333 Z" id="Fill-33" fill="#FFFFFF"></path>
                            <path d="M45.5324503,24.8466667 C44.0346358,24.8466667 42.26,24.64354 40.2629139,24.2398933 L39.6730993,24.1201 L39.9680066,22.6357 L40.5578278,22.7554933 C45.2582914,23.7034267 48.4584901,23.4794267 50.142596,22.0888267 C51.2239205,21.1956267 51.7723311,19.7320267 51.7723311,17.7398933 L51.7723311,17.13312 L53.277894,17.13312 L53.277894,17.7398933 C53.277894,20.2086267 52.5431921,22.0654267 51.0945166,23.2606933 C49.8010728,24.3258267 47.9824636,24.8466267 45.5326623,24.8466267 L45.5324503,24.8466667 Z" id="Fill-34" fill="#FFFFFF"></path>
                            <path d="M52.6748344,17.9013333 L52.374755,17.9013333 C52.374755,15.7450667 51.7461325,14.1357333 50.5095894,13.1122667 C48.6185298,11.5524 45.3254172,11.2711333 40.4387285,12.2528667 L40.3792318,11.9559933 C45.3590331,10.9559933 48.7348609,11.25546 50.7010861,12.87786 C52.0126755,13.9611933 52.6749272,15.64866 52.6749272,17.9013267 L52.6748344,17.9013333 Z" id="Fill-35" fill="#FFFFFF"></path>
                            <path d="M53.2774834,18.508 L51.7719205,18.508 L51.7719205,17.9012267 C51.7719205,15.9350933 51.2183179,14.48196 50.1292053,13.5834933 C48.3882119,12.1486267 45.2502649,11.9064267 40.5576821,12.8490933 L39.9678609,12.9688867 L39.6729536,11.4818867 L40.2627682,11.3620933 C45.4702517,10.3152267 48.9601192,10.65376 51.0839603,12.40896 C52.5403841,13.6120933 53.2802517,15.4584267 53.2802517,17.90116 L53.2774834,18.508 Z" id="Fill-36" fill="#FFFFFF"></path>
                            <polygon id="Fill-37" fill="#FFFFFF" points="28.1821192 33.6873333 28.4821987 33.6873333 28.4821987 1.724 28.1821192 1.724"></polygon>
                            <polygon id="Fill-38" fill="#FFFFFF" points="27.581457 34.2946667 29.0870199 34.2946667 29.0870199 1.11733333 27.581457 1.11733333"></polygon>
                            <polygon id="Fill-39" fill="#FFFFFF" points="31.092053 33.6873333 31.3921325 33.6873333 31.3921325 1.724 31.092053 1.724"></polygon>
                            <polygon id="Fill-40" fill="#FFFFFF" points="30.489404 34.2946667 31.9949669 34.2946667 31.9949669 1.11733333 30.489404 1.11733333"></polygon>
                            <polygon id="Fill-41" fill="#FFFFFF" points="33.8993377 33.6873333 34.1994172 33.6873333 34.1994172 1.724 33.8993377 1.724"></polygon>
                            <polygon id="Fill-42" fill="#FFFFFF" points="33.2960265 34.2946667 34.8015894 34.2946667 34.8015894 1.11733333 33.2960265 1.11733333"></polygon>
                            <path id="Stroke-43" stroke="#FFFFFF" stroke-width="0.5"></path>
                            <path id="Stroke-44" stroke="#FFFFFF" stroke-width="0.5"></path>
                            <polygon id="Fill-45" fill="#FFFFFF" points="39.7503311 33.6873333 40.0504106 33.6873333 40.0504106 1.724 39.7503311 1.724"></polygon>
                            <polygon id="Fill-46" fill="#FFFFFF" points="39.1476821 34.2946667 40.653245 34.2946667 40.653245 1.11733333 39.1476821 1.11733333"></polygon>
                            <path d="M21.189404,21.336 C19.2931788,21.336 17.9815894,20.9818333 17.1590066,20.2656667 C16.5096887,19.7031667 16.1811258,18.9062667 16.1811258,17.9010667 L16.4812053,17.9010667 C16.4812053,18.8281333 16.768351,19.5260667 17.3529934,20.0364667 C18.5378278,21.0651333 20.9617351,21.2916667 24.7695497,20.7239333 L24.8135232,21.0234133 C23.4243179,21.22914 22.2188212,21.3359133 21.1892185,21.3359133 L21.189404,21.336 Z" id="Fill-47" fill="#FFFFFF"></path>
                            <path d="M21.189404,21.94 C19.1560927,21.94 17.7074172,21.54156 16.7657616,20.7238667 C15.9793377,20.039 15.5783444,19.0910667 15.5783444,17.8983333 L15.5783444,17.29156 L17.0839073,17.29156 L17.0839073,17.8983333 C17.0839073,18.6483333 17.2960331,19.1822 17.7487417,19.5754 C18.7731788,20.466 21.1091391,20.6535333 24.6845033,20.1222733 L25.2794967,20.0337333 L25.4993841,21.5337333 L24.9043907,21.6222733 C23.4634636,21.8358133 22.2502185,21.93998 21.1895563,21.93998 L21.189404,21.94 Z" id="Fill-48" fill="#FFFFFF"></path>
                            <path d="M16.481457,17.9846667 L16.1813775,17.9846667 C16.1813775,16.9898667 16.5125033,16.2008 17.1618411,15.6357333 C18.4397881,14.5237333 20.943894,14.2659333 24.8168079,14.8414667 L24.7728278,15.1409467 C20.9933576,14.5784467 18.5668013,14.8154267 17.3589205,15.86488 C16.7690993,16.3779 16.4819669,17.0706133 16.4819669,17.98468 L16.481457,17.9846667 Z" id="Fill-49" fill="#FFFFFF"></path>
                            <path d="M17.084106,18.5913333 L15.578543,18.5913333 L15.578543,17.98456 C15.578543,16.8074933 15.9795166,15.86216 16.7659603,15.1772933 C18.1991391,13.9324933 20.8093377,13.6330267 24.9017219,14.2424267 L25.4967152,14.3309667 L25.2768278,15.8309667 L24.6818344,15.7424267 C21.1299801,15.21378 18.7991854,15.4143 17.7487219,16.32576 C17.2934238,16.7215933 17.0813046,17.2476267 17.0813046,17.9872267 L17.084106,18.5913333 Z" id="Fill-50" fill="#FFFFFF"></path>
                            <path d="M44.1403974,21.336 C43.1082119,21.336 41.905298,21.2318333 40.5135099,21.0235 L40.5574901,20.72402 C44.3654371,21.2917267 46.7945762,21.0651667 47.9793444,20.0365533 C48.5665762,19.5261333 48.8511325,18.82822 48.8511325,17.9011533 L49.1512119,17.9011533 C49.1512119,18.9063533 48.8226755,19.70322 48.1733311,20.2657533 C47.3506821,20.9818867 46.0365099,21.3360867 44.140351,21.3360867 L44.1403974,21.336 Z" id="Fill-51" fill="#FFFFFF"></path>
                            <path d="M44.1403974,21.94 C43.0771523,21.94 41.8613245,21.8358333 40.4255629,21.6222933 L39.8305695,21.5337533 L40.0478675,20.0337533 L40.6454437,20.1222933 C44.220543,20.6535467 46.5617351,20.46344 47.5858411,19.57542 C48.0385497,19.1821933 48.2506755,18.6483533 48.2506755,17.8983533 L48.2506755,17.29158 L49.7562384,17.29158 L49.7562384,17.8983533 C49.7562384,19.0884867 49.3578543,20.0389533 48.5688212,20.7212867 C47.6245828,21.54422 46.1759073,21.94002 44.1400132,21.94002 L44.1403974,21.94 Z" id="Fill-52" fill="#FFFFFF"></path>
                            <path d="M49.1543046,17.9846667 L48.8542252,17.9846667 C48.8542252,17.0706 48.5670795,16.3778667 47.9798543,15.8674667 C46.7691921,14.8154 44.3452185,14.5784 40.560649,15.1435333 L40.5166689,14.8440533 C44.3919007,14.2659267 46.8985894,14.5263467 48.1762715,15.63832 C48.823,16.20082 49.1541523,16.9924533 49.1541523,17.9846533 L49.1543046,17.9846667 Z" id="Fill-53" fill="#FFFFFF"></path>
                            <path d="M49.7543046,18.5913333 L48.2487417,18.5913333 L48.2487417,17.98456 C48.2487417,17.24756 48.0366159,16.72156 47.5813245,16.3256933 C46.5310596,15.4142267 44.1976159,15.2136933 40.6429139,15.74236 L40.0453377,15.8309 L39.8280397,14.3309 L40.4230331,14.24236 C44.5181325,13.6329867 47.1309801,13.9324667 48.5640927,15.1798267 C49.3530993,15.8646933 49.7540927,16.8100267 49.7540927,17.9870933 L49.7566755,18.59126 L49.7543046,18.5913333 Z" id="Fill-54" fill="#FFFFFF"></path>
                            <path id="Stroke-55" stroke="#FFFFFF" stroke-width="0.629139073"></path>
                            <path id="Stroke-56" stroke="#FFFFFF" stroke-width="0.629139073"></path>
                            <polygon id="Fill-57" fill="#FFFFFF" points="36.8768212 33.6873333 37.1769007 33.6873333 37.1769007 1.724 36.8768212 1.724"></polygon>
                            <polygon id="Fill-58" fill="#FFFFFF" points="36.2761589 34.2946667 37.7817219 34.2946667 37.7817219 1.11733333 36.2761589 1.11733333"></polygon>
                            <path id="Stroke-59" stroke="#FFFFFF" stroke-width="0.629139073"></path>
                            <path id="Stroke-60" stroke="#FFFFFF" stroke-width="0.629139073"></path>
                            <path id="Stroke-61" stroke="#FFFFFF" stroke-width="0.5"></path>
                            <path id="Stroke-62" stroke="#FFFFFF" stroke-width="0.5"></path>
                            <polygon id="Fill-75" fill="#FFFFFF" points="25.3231788 33.6353333 25.6232583 33.6353333 25.6232583 1.672 25.3231788 1.672"></polygon>
                            <polygon id="Fill-76" fill="#FFFFFF" points="24.7205298 34.2426667 26.2260927 34.2426667 26.2260927 1.068 24.7205298 1.068"></polygon>
                        </g>
                    </g>
                </g>
            </g>
        </g>
    </g>
</svg>