<?xml version="1.0" encoding="UTF-8"?>
<svg width="101px" height="100px" viewBox="0 0 101 100" version="1.1" xmlns="http://www.w3.org/2000/svg" xmlns:xlink="http://www.w3.org/1999/xlink">
    <!-- Generator: Sketch 42 (36781) - http://www.bohemiancoding.com/sketch -->
    <title>Farm</title>
    <desc>Created with Sketch.</desc>
    <defs></defs>
    <g id="03.-Our-Work" stroke="none" stroke-width="1" fill="none" fill-rule="evenodd">
        <g id="2.1_DESKTOP_OurWork-Select" transform="translate(-41.000000, -3020.000000)">
            <g id="CTA-DONATE" transform="translate(41.000000, 2900.000000)">
                <g id="TRC-NAV">
                    <g id="Farm" transform="translate(0.000000, 120.000000)">
                        <g id="ASSET_YCircleFill-Copy-2" fill="#852762">
                            <ellipse id="Oval-Copy" cx="50.22015" cy="50" rx="50.22015" ry="50"></ellipse>
                        </g>
                        <g transform="translate(28.092715, 25.333333)" fill="#FFFFFF">
                            <path d="M11.1334106,44.109334 L11.1229628,43.9608933 C11.1334106,46.7577613 10.3783052,47.726494 8.18359523,47.726494 C5.99670845,47.726494 5.23372368,46.7655607 5.23372368,44.0494273 L5.22588515,44.203074 L6.56102689,31.54974 L9.80613682,31.54974 L11.1334106,44.109334 Z M11.1360259,28.6066667 L5.23374509,28.6066667 C4.47865303,28.6066667 3.84375767,29.17698 3.76536562,29.9244 L2.29176893,43.8957333 L2.28131777,44.049382 C2.28131777,48.2577153 4.19389658,50.6665819 8.18359523,50.6665819 C12.191623,50.6665819 14.0884833,48.2395153 14.0754403,43.95058 L14.0676011,43.80214 L12.6018302,29.9248067 C12.5234448,29.1774067 11.8911514,28.6070733 11.1360593,28.6070733 L11.1360259,28.6066667 Z" id="Fill-1"></path>
                            <path d="M9.65921192,15.3726667 C9.65921192,14.5601333 8.99817695,13.9013333 8.18300662,13.9013333 C7.36783629,13.9013333 6.70940993,14.5601867 6.70940993,15.3726667 L6.70940993,29.344 C6.70940993,30.1565333 7.36783629,30.8127333 8.18300662,30.8127333 C8.99817695,30.8127333 9.65921192,30.15648 9.65921192,29.344 L9.65921192,15.3726667 Z" id="Fill-2"></path>
                            <path d="M8.18300662,3.91666667 L13.3485212,7.3568 L13.3485212,22.7268 L3.0204351,22.7268 L3.0204351,7.3568 L8.18300662,3.91666667 Z M0.0675562914,6.54946667 L0.0675562914,24.1954667 C0.0675562914,25.008 0.728591258,25.6668 1.54376159,25.6668 L14.8222517,25.6668 C15.6374755,25.6668 16.298457,25.0079467 16.298457,24.1954667 L16.298457,6.54946667 C16.298457,6.05728 16.052853,5.59893333 15.6426459,5.32553333 L9.00092603,0.914066667 C8.5071096,0.58334 7.86176642,0.58334 7.36532801,0.914066667 L0.726216086,5.32553333 C0.316008934,5.59897333 0.0677897285,6.05733333 0.0677897285,6.54946667 L0.0675562914,6.54946667 Z" id="Fill-3"></path>
                            <path d="M38.4288278,44.109334 L38.4183733,43.9608933 C38.4288278,46.7577613 37.6737157,47.726494 35.4790058,47.726494 C33.2921217,47.726494 32.5291369,46.7655607 32.5291369,44.0494273 L32.5213044,44.203074 L33.8564441,31.54974 L37.101554,31.54974 L38.4288278,44.109334 Z M38.4314431,28.6066667 L32.5291636,28.6066667 C31.7740716,28.6066667 31.1417848,29.17698 31.0607842,29.9244 L29.5871875,43.8957333 L29.576733,44.049382 C29.576733,48.2577153 31.4893118,50.6665819 35.4790125,50.6665819 C39.4870403,50.6665819 41.3839005,48.2395153 41.3708575,43.95058 L41.3630183,43.80214 L39.8972474,29.9248067 C39.8188621,29.1774067 39.1865686,28.6070733 38.4314766,28.6070733 L38.4314431,28.6066667 Z" id="Fill-4"></path>
                            <path d="M36.955298,10.9606667 C36.955298,10.1481333 36.294263,9.48933333 35.4790927,9.48933333 C34.6639224,9.48933333 34.005496,10.1481867 34.005496,10.9606667 L34.005496,29.3433333 C34.005496,30.1558667 34.6639224,30.8120667 35.4790927,30.8120667 C36.294263,30.8120667 36.955298,30.1558133 36.955298,29.3433333 L36.955298,10.9606667 Z" id="Fill-5"></path>
                            <path d="M43.1009139,3.6094 L45.5125397,16.8440667 L25.4463146,16.8440667 L27.8631576,3.6074 L43.1009139,3.6094 Z M25.1744172,1.875 L22.2245483,18.0496667 C22.0599451,18.9533333 22.7549455,19.7840667 23.6772762,19.7840667 L47.2838523,19.7840667 C48.2035543,19.7840667 48.9011901,18.9533333 48.7365801,18.0496667 L45.7841026,1.875 C45.6560734,1.17446667 45.0446623,0.666666667 44.3339834,0.666666667 L26.6268775,0.666666667 C25.9135901,0.666666667 25.3021722,1.17448 25.1741497,1.875 L25.1744172,1.875 Z" id="Fill-6"></path>
                        </g>
                    </g>
                </g>
            </g>
        </g>
    </g>
</svg>