<?xml version="1.0" encoding="UTF-8"?>
<svg width="100px" height="100px" viewBox="0 0 100 100" version="1.1" xmlns="http://www.w3.org/2000/svg" xmlns:xlink="http://www.w3.org/1999/xlink">
    <!-- Generator: Sketch 42 (36781) - http://www.bohemiancoding.com/sketch -->
    <title>Community Work</title>
    <desc>Created with Sketch.</desc>
    <defs></defs>
    <g id="03.-Our-Work" stroke="none" stroke-width="1" fill="none" fill-rule="evenodd">
        <g id="2.1_DESKTOP_OurWork-Select" transform="translate(-41.000000, -3260.000000)">
            <g id="CTA-DONATE" transform="translate(41.000000, 2900.000000)">
                <g id="TRC-NAV">
                    <g id="Community-Work" transform="translate(0.000000, 360.000000)">
                        <g id="ASSET_YCircleFill-Copy-5" fill="#852762">
                            <ellipse id="Oval-Copy" cx="49.7229208" cy="50" rx="49.7229208" ry="50"></ellipse>
                        </g>
                        <path d="M27.9830352,77.9994088 L27.9830352,57.8537762 C27.9830352,57.7910407 27.9869339,57.7322299 27.9869339,57.6734091 L27.9869339,57.5675416 L27.9869339,50.5255023 L25.6148824,55.1757617 C24.9137866,56.5520289 23.2778298,57.1205634 21.9613267,56.4383019 C20.6448277,55.7599751 20.1462671,54.089684 20.847343,52.7134168 L25.4980198,43.5893607 C25.5798136,43.4325218 25.669405,43.2835224 25.7745614,43.1502119 C26.1913281,41.9308337 27.3442295,41.0525362 28.699716,41.0525362 L36.9610643,41.0525362 L32.7972857,49.2199005 C31.4379104,51.8940405 32.3493589,55.2856743 35.1031284,56.7128326 C36.8286466,57.6028943 38.7527913,57.4538949 40.283472,56.5638332 L40.3886384,56.4932482 L40.3886384,78 L34.966792,78 L34.966792,60.684986 L33.556763,60.684986 L33.556763,78 L27.9830352,77.9994088 Z M42.885011,77.9994088 L42.885011,56.0379588 C42.885011,55.9712985 42.885011,55.9046483 42.8889097,55.8340733 L42.8889097,55.7203664 L42.8889097,47.9568182 L40.2753554,53.081559 C39.5002533,54.6028708 37.6968998,55.2263115 36.2439946,54.4773997 C34.791189,53.7284979 34.2458635,51.8856691 35.017037,50.3681716 L40.142838,40.3104099 C40.2324194,40.1378821 40.333697,39.9771286 40.4466509,39.8281292 C40.9062639,38.48328 42.1799466,37.5147436 43.6717396,37.5147436 L55.9522838,37.5147436 C57.4479655,37.5147436 58.7176996,38.4832197 59.1773725,39.8281292 C59.2903264,39.9771286 59.391594,40.1378821 59.4811853,40.3104099 L64.6069864,50.3681716 C65.3820885,51.8855687 64.8328941,53.7284879 63.3800288,54.4773997 C61.9272233,55.2263014 60.1238299,54.6028708 59.3525567,53.081559 L56.7390024,47.9607329 L56.7390024,55.7203664 C56.7390024,55.8223091 56.7351037,55.9203372 56.7234174,56.0183552 L56.7234174,56.0379588 L56.7234174,77.9994118 L50.5420639,77.9994118 L50.5420639,59.1556642 L49.065826,59.1556642 L49.065826,77.9994118 L42.885011,77.9994088 Z M59.220847,77.9994088 L59.220847,56.4806207 L59.3415884,56.5629599 C60.8723688,57.4530216 62.7964138,57.6020612 64.5219319,56.7119593 C67.2795702,55.2847007 68.1871499,51.8930668 66.8277746,49.2190272 L62.6639961,41.0516629 L70.9253443,41.0516629 C72.2808308,41.0516629 73.4337023,41.9299605 73.850499,43.1493386 C73.9517666,43.2865739 74.0452467,43.4316485 74.1270406,43.5884874 L78.7777134,52.7125435 C79.4788192,54.0888107 78.9802586,55.7591821 77.6637296,56.4374286 C76.3472305,57.1196801 74.7113536,56.5511355 74.0062892,55.1748884 L71.6381264,50.5246291 L71.6381264,57.5666683 C71.6381264,57.6568469 71.6342277,57.7470355 71.6264402,57.8372141 L71.6264402,57.8528929 L71.6264402,77.9985335 L66.0527323,77.9985335 L66.0527323,60.6835205 L64.6427033,60.6835205 L64.6427033,77.9985335 L59.220847,77.9994088 Z M28.8285939,33.1630753 C28.8285939,30.0812045 31.3097305,27.583527 34.3711916,27.583527 C37.4326527,27.583527 39.9137893,30.0812045 39.9137893,33.1630753 C39.9137893,36.2449462 37.4326527,38.7465384 34.3711916,38.7465384 C31.3097305,38.7465384 28.8285939,36.2449462 28.8285939,33.1630753 Z M59.9148433,33.1630753 C59.9148433,30.0812045 62.3959799,27.583527 65.457441,27.583527 C68.5189021,27.583527 71.0000387,30.0812045 71.0000387,33.1630753 C71.0000387,36.2449462 68.5189021,38.7465384 65.457441,38.7465384 C62.3959799,38.7465384 59.9148433,36.2449462 59.9148433,33.1630753 Z M43.8133308,28.8186643 C43.8133308,25.4231157 46.5515252,22.6666667 49.9245867,22.6666667 C53.2976481,22.6666667 56.0358425,25.4231157 56.0358425,28.8186643 C56.0358425,32.2142128 53.2976481,34.9706619 49.9245867,34.9706619 C46.5515252,34.9706619 43.8133308,32.2142128 43.8133308,28.8186643 Z" id="Page-1" fill="#FFFFFF"></path>
                    </g>
                </g>
            </g>
        </g>
    </g>
</svg>