<?xml version="1.0" encoding="UTF-8"?>
<svg width="132px" height="81px" viewBox="0 0 132 81" version="1.1" xmlns="http://www.w3.org/2000/svg" xmlns:xlink="http://www.w3.org/1999/xlink">
    <!-- Generator: Sketch 42 (36781) - http://www.bohemiancoding.com/sketch -->
    <title>Cap</title>
    <desc>Created with Sketch.</desc>
    <defs></defs>
    <g id="02.-Handoff-Folder-" stroke="none" stroke-width="1" fill="none" fill-rule="evenodd">
        <g id="ICEF_Assets" transform="translate(-521.000000, -2469.000000)" fill="#433E3E">
            <g id="Our-Approach" transform="translate(57.000000, 2374.000000)">
                <path d="M528.231787,95.2535731 L466.741787,119.563573 C465.140187,120.181333 464,121.84204 464,123.561853 C464,125.283573 465.140187,126.94428 466.741787,127.56204 L486.895253,135.516653 L486.895253,156.474733 C486.895253,160.026853 489.009747,162.484546 491.454093,164.51896 C493.896533,166.551466 497.046347,168.301786 500.8368,169.836653 C508.411987,172.90448 518.542107,175.064733 529.795253,175.064733 C541.0484,175.064733 551.17852,172.90448 558.753707,169.836653 C562.54416,168.301786 565.693973,166.551466 568.136413,164.51896 C570.58076,162.484546 572.695253,160.026853 572.695253,156.474733 L572.695253,135.516653 L592.84872,127.56204 C594.45032,126.94428 595.590507,125.283573 595.590507,123.561853 C595.590507,121.849666 594.45032,120.181333 592.84872,119.563573 L531.35872,95.2535731 C530.205187,94.8283864 528.983013,95.0152398 528.231787,95.2535731 Z M529.795253,103.877426 L579.622173,123.584733 L529.795253,143.248186 L479.968333,123.584733 L529.795253,103.877426 Z M495.475253,138.912426 L528.231787,151.87204 C529.221347,152.259093 530.36916,152.259093 531.35872,151.87204 L564.115253,138.912426 L564.115253,156.474733 C564.115253,155.91608 564.092373,156.697813 562.6414,157.904733 C561.18852,159.111653 558.67744,160.585506 555.4914,161.88204 C549.10788,164.46748 539.931093,166.484733 529.795253,166.484733 C519.659413,166.484733 510.482627,164.46748 504.099107,161.88204 C500.913067,160.585506 498.401987,159.111653 496.949107,157.904733 C495.498133,156.697813 495.475253,155.91608 495.475253,156.474733 L495.475253,138.912426 Z" id="Cap"></path>
            </g>
        </g>
    </g>
</svg>