<?xml version="1.0" encoding="UTF-8"?>
<svg width="128px" height="108px" viewBox="0 0 128 108" version="1.1" xmlns="http://www.w3.org/2000/svg" xmlns:xlink="http://www.w3.org/1999/xlink">
    <!-- Generator: Sketch 42 (36781) - http://www.bohemiancoding.com/sketch -->
    <title>Hand Heart</title>
    <desc>Created with Sketch.</desc>
    <defs></defs>
    <g id="02.-Handoff-Folder-" stroke="none" stroke-width="1" fill="none" fill-rule="evenodd">
        <g id="ICEF_Assets" transform="translate(-274.000000, -2647.000000)" stroke="#4A4A4A">
            <g id="Our-Approach" transform="translate(57.000000, 2374.000000)">
                <g id="Hand-Heart" transform="translate(220.000000, 276.000000)">
                    <path d="M106.7436,59.0322 C116.6746,50.2982 121.0016,43.6622 121.0016,32.3962 C121.0016,15.1422 107.9176,0.5942 91.4126,0.5942 C91.4126,0.5942 77.3736,-1.2468 61.9526,14.2882" id="Stroke-1" stroke-width="7" stroke-linecap="round"></path>
                    <path d="M35.0864,23.0395 C42.5824,32.3735 53.1894,30.3935 53.1894,30.3935 L72.1404,49.3445 C72.1404,49.3445 77.2324,53.8715 82.3224,49.2035 C87.4144,44.5365 81.8024,37.9855 81.8024,37.9855 L56.0224,12.2045 C48.5714,3.7785 40.9144,0.4995 30.3834,0.4995 C13.8794,0.4995 0.5004,14.4875 0.5004,31.7415 C0.5004,42.2475 5.4564,50.4395 12.7114,57.5005" id="Stroke-3" stroke-width="7" stroke-linecap="round"></path>
                    <path d="M111.1508,54.8818 L63.6168,99.3788 C60.8988,101.8748 56.6878,101.7538 54.1188,99.1058 L10.1618,54.9368" id="Stroke-5" stroke-width="7"></path>
                    <path d="M58.7758,36.9892 L33.8918,60.3932 C33.8918,60.3932 26.4168,66.6592 31.3358,71.2892 C35.9098,75.5932 42.7738,68.9052 42.7738,68.9052 L67.7878,46.1362" id="Stroke-7" stroke-width="5" stroke-linecap="round"></path>
                    <path d="M79.3559,52.5922 L50.9969,79.1762 C50.9969,79.1762 44.4539,85.2082 39.9029,80.0592 C39.9029,80.0592 35.8939,74.9522 44.0459,67.7772" id="Stroke-9" stroke-width="5" stroke-linecap="round"></path>
                    <path d="M49.6293,80.5703 C49.6293,80.5703 46.0693,84.8853 49.9213,88.9123 C53.5373,92.6923 57.2783,90.3493 58.6413,89.3133 C60.2003,88.1283 82.9813,65.4553 82.9813,65.4553" id="Stroke-11" stroke-width="5" stroke-linecap="round"></path>
                    <path d="M64.6235,83.541 C64.6235,83.541 55.1365,91.317 60.1445,96.224 C64.1835,100.181 71.0595,93.054 72.7235,91.729" id="Stroke-13" stroke-width="5" stroke-linecap="round"></path>
                </g>
            </g>
        </g>
    </g>
</svg>