<?xml version="1.0" encoding="UTF-8"?>
<svg width="104px" height="99px" viewBox="0 0 104 99" version="1.1" xmlns="http://www.w3.org/2000/svg" xmlns:xlink="http://www.w3.org/1999/xlink">
    <!-- Generator: Sketch 42 (36781) - http://www.bohemiancoding.com/sketch -->
    <title>Health</title>
    <desc>Created with Sketch.</desc>
    <defs></defs>
    <g id="02.-Handoff-Folder-" stroke="none" stroke-width="1" fill="none" fill-rule="evenodd">
        <g id="ICEF_Assets" transform="translate(-62.000000, -2450.000000)" fill="#4A4A4A">
            <g id="Our-Approach" transform="translate(57.000000, 2374.000000)">
                <g id="Health" transform="translate(5.000000, 76.000000)">
                    <path d="M95.2511781,23.8169589 L78.9801644,23.8169589 L78.9801644,8.32820548 C78.9801644,3.77691781 75.0894247,0.0745890411 70.304,0.0745890411 L33.696,0.0745890411 C28.9105753,0.0745890411 25.0198356,3.77691781 25.0198356,8.32820548 L25.0198356,23.8169589 L8.74882192,23.8169589 C3.96767123,23.8169589 0.0783561644,27.5206438 0.0783561644,32.076 L0.0783561644,66.9294247 C0.0783561644,71.4793562 3.96767123,75.1871096 8.74882192,75.1871096 L25.0198356,75.1871096 L25.0198356,90.6772192 C25.0198356,95.2285068 28.9105753,98.9362603 33.696,98.9362603 L70.3096986,98.9362603 C75.0894247,98.9362603 78.9844384,95.2339315 78.9844384,90.6772192 L78.9844384,75.1830411 L95.2568767,75.1830411 C100.038027,75.1830411 103.933041,71.4793562 103.933041,66.924 L103.933041,32.076 C103.927342,27.5206438 100.032329,23.8169589 95.2511781,23.8169589 Z M98.3013699,66.924 C98.3013699,68.5229178 96.932274,69.8261918 95.2511781,69.8261918 L73.3584658,69.8261918 L73.3584658,90.6663699 C73.3584658,92.2666438 71.9893699,93.5699178 70.3096986,93.5699178 L33.696,93.5699178 C32.0163288,93.5699178 30.6472329,92.2666438 30.6472329,90.6663699 L30.6472329,69.8316164 L8.74882192,69.8316164 C7.06772603,69.8316164 5.69863014,68.5283425 5.69863014,66.9294247 L5.69863014,32.076 C5.69863014,30.4770822 7.06772603,29.1738082 8.74882192,29.1738082 L30.6472329,29.1738082 L30.6472329,8.32820548 C30.6472329,6.72793151 32.0163288,5.42465753 33.696,5.42465753 L70.3096986,5.42465753 C71.9893699,5.42465753 73.3584658,6.72793151 73.3584658,8.32820548 L73.3584658,29.1738082 L95.2511781,29.1738082 C96.932274,29.1738082 98.3013699,30.4770822 98.3013699,32.076 L98.3013699,66.924 Z" id="Fill-1"></path>
                    <path d="M60.3983562,34.0153151 C57.141589,34.0153151 54.1426849,35.2873973 52,37.4165753 C49.8573151,35.2914658 46.858411,34.0153151 43.6016438,34.0153151 C37.186411,34.0153151 31.9607671,38.989726 31.9607671,45.0978904 C31.9607671,47.932274 33.0947945,50.6337534 35.2047123,52.7575068 L50.0026301,66.8656849 C50.5311781,67.3688219 51.2435068,67.6495479 51.9886027,67.6495479 L51.9886027,67.6495479 C52.7351233,67.6495479 53.4531507,67.3688219 53.976,66.8656849 L68.7952877,52.7575068 C68.8565479,52.6991918 68.9121096,52.6408767 68.9676712,52.5784932 C70.9493699,50.5225479 72.0335342,47.8739589 72.0335342,45.0924658 C72.0392329,38.9843014 66.813589,34.0153151 60.3983562,34.0153151 Z M64.7606575,49.0280548 C64.7435616,49.0443288 64.733589,49.0606027 64.7164932,49.0768767 L51.9943014,61.1860685 L39.2393425,49.0280548 C38.1708493,47.9526164 37.5867397,46.5598356 37.5867397,45.0978904 C37.5867397,41.9407397 40.2850411,39.3653836 43.6016438,39.3653836 C46.2173151,39.3653836 48.522411,40.9602329 49.3287671,43.3335205 C49.707726,44.4360822 50.7861918,45.1819726 52.0056986,45.1819726 C53.2237808,45.1819726 54.3036712,44.4360822 54.6826301,43.3280959 C55.4889863,40.9548082 57.7869589,39.3653836 60.4026301,39.3653836 C63.7206575,39.3653836 66.4189589,41.9353151 66.4189589,45.0978904 C66.4132603,46.5598356 65.8291507,47.9526164 64.7606575,49.0280548 Z" id="Fill-2"></path>
                </g>
            </g>
        </g>
    </g>
</svg>