<?xml version="1.0" encoding="UTF-8"?>
<svg width="626px" height="709px" viewBox="0 0 626 709" version="1.1" xmlns="http://www.w3.org/2000/svg" xmlns:xlink="http://www.w3.org/1999/xlink">
    <!-- Generator: Sketch 42 (36781) - http://www.bohemiancoding.com/sketch -->
    <title>KoruSwirl</title>
    <desc>Created with Sketch.</desc>
    <defs></defs>
    <g id="02.-Handoff-Folder-" stroke="none" stroke-width="1" fill="none" fill-rule="evenodd">
        <g id="ICEF_Assets" transform="translate(-69.000000, -4168.000000)" fill="#B5852F">
            <g id="KoruSwirl" transform="translate(69.000000, 4168.000000)">
                <path d="M312.980426,49.5203728 C313.699817,49.9337083 314.42177,50.3117027 315.132962,50.7532085 C309.817975,50.9821563 311.394077,50.3173368 312.980426,49.5203728 M51.531037,504.956593 C50.8598105,503.804683 50.3930263,503.955778 49.9984886,504.549403 C50.4996027,504.913057 50.8751821,505.777629 51.1595567,506.945929 C51.303025,507.529823 51.4177996,508.19157 51.524376,508.902486 C51.6412002,509.612378 51.7400908,510.373489 51.825147,511.16277 C52.1889415,510.648022 52.4523082,509.970909 52.4451348,508.990582 C52.4430853,508.007694 52.209437,506.715445 51.531037,504.956593 M52.3303602,517.40224 C52.4087554,517.502629 52.4661427,517.571262 52.5563227,517.646041 C52.5455626,520.711996 52.6126853,521.700519 52.5747686,521.396791 C52.561959,521.088966 52.4369366,519.502721 52.3303602,517.40224 M485.852509,581.990637 C486.208618,579.887595 488.460045,578.221448 491.534365,576.755567 C490.230853,578.634272 488.411881,580.473025 485.852509,581.990637 M560.975566,415.414414 C560.757802,414.23587 560.233118,412.460116 560.043022,410.815993 C560.019452,410.610606 560.001007,410.406755 559.988709,410.205978 C559.970263,410.019541 559.949255,409.858202 559.941057,409.68918 C559.923124,409.356259 559.937983,409.040239 559.994858,408.748292 C560.106046,408.1603 560.404767,407.688063 560.929964,407.341312 C561.886077,407.977962 562.451752,408.550075 562.770969,409.127311 C562.928784,409.413111 563.021013,409.696863 563.060467,409.980615 C563.101971,410.26027 563.090698,410.541973 563.012303,410.880017 C562.724854,412.178925 561.7836,413.562856 560.975566,415.414414 M539.022872,307.888303 C535.297309,303.968019 533.238027,300.270024 531.906334,298.592097 C530.592062,296.908537 530.09146,297.247093 529.502216,301.426544 C534.288419,300.331487 537.102959,307.674208 539.663868,315.086588 C542.246809,322.49487 544.495162,329.977419 549.347976,329.273673 C549.153781,331.18106 548.96676,333.078715 548.727988,334.977395 C548.443101,333.469514 547.839509,333.373223 547.531053,331.889415 C547.07964,334.694667 547.341469,336.447885 548.104926,337.718623 C548.862233,338.988848 550.073003,339.78069 551.385225,340.652946 C552.704621,341.523665 554.148014,342.471212 555.372105,344.050286 C556.586462,345.628849 557.548724,347.84867 557.920204,351.226035 C558.018583,353.609244 557.882288,355.668751 557.500047,356.764832 C557.102435,357.86245 556.488084,357.995619 555.606266,356.547153 C557.042998,359.791861 558.465896,363.060643 559.806812,366.354521 C560.114756,369.373355 558.320891,368.899069 558.015508,365.91404 C558.59553,368.491368 559.08281,371.066648 559.60032,373.646537 C560.061981,376.22028 560.558996,378.804266 560.947897,381.373399 C561.529968,382.311727 562.70692,384.026531 563.758338,385.789993 C564.291732,386.673517 564.812317,387.571894 565.27244,388.400614 C565.714118,389.224724 566.101482,389.981737 566.393542,390.58407 C565.261168,394.645205 565.229912,388.659268 564.090877,389.764057 C565.080808,392.574943 566.011302,395.402219 566.857252,398.236665 C565.620863,399.999103 564.361417,399.099189 563.446807,397.106779 C562.960552,396.093672 562.553204,394.797325 562.276516,393.392394 C561.981381,391.979781 561.779501,390.443218 561.777451,388.972215 C559.47581,391.131598 558.533019,392.597479 558.271702,393.871802 C558.003723,395.139979 558.500738,396.253987 559.099718,397.635357 C559.66693,398.993166 560.429874,400.694653 560.564632,402.972864 C560.516467,405.448779 560.420651,406.130501 560.274109,406.858832 C560.14345,407.60765 559.88572,408.301152 559.604419,409.08275 C558.905011,410.78014 558.681611,411.270816 558.43874,411.775321 C558.392625,410.106613 558.197406,408.121886 558.197406,408.121886 L557.76905,404.621084 C557.051709,405.164515 556.452729,405.713068 555.947516,406.273401 C555.038542,407.396629 554.833587,407.658356 554.64964,407.931865 C554.277135,408.48554 553.989686,409.00541 553.715559,409.633864 C553.40864,410.356049 553.140662,411.105891 552.886005,411.884929 C552.376693,413.443004 551.919644,415.119906 551.314516,416.90949 C550.630479,418.698049 549.78248,420.600826 548.585032,422.586577 C549.111253,422.158388 550.084275,420.966016 551.271475,419.533939 C551.864819,418.818413 552.510938,418.042961 553.180628,417.276216 C553.815987,416.508959 554.46928,415.749385 555.121036,415.070224 C557.725497,412.359727 560.2572,410.884114 560.884873,415.629533 C559.893918,418.132594 558.924995,421.410082 560.043535,426.714297 C558.334213,426.423375 557.443172,427.509213 556.85444,429.413014 C556.253923,431.315791 556.026423,434.05958 555.352635,437.050244 L550.981464,435.594607 C550.856954,438.896168 551.407258,440.586387 552.087707,441.978513 C552.744074,443.368078 553.578752,444.463135 554.044512,446.628665 C553.429135,448.386493 552.752273,449.738668 551.978056,450.774312 C551.185394,451.805857 550.346105,452.532139 549.48632,453.061229 C547.767775,454.118385 545.965199,454.38882 544.284571,454.738644 C543.535461,456.93849 543.424786,457.316996 543.378159,457.618675 C544.107285,458.772634 545.143331,458.130863 546.20807,457.557725 C547.244116,456.979465 548.307318,456.468301 548.901687,456.956928 C549.344389,459.417478 549.117402,460.64007 548.631659,462.342069 C546.212169,466.750468 544.634531,470.650777 543.576965,475.05303 C542.971836,477.228803 542.471747,479.520842 541.984467,482.035172 C541.478741,484.616597 541.33681,485.282441 541.191292,485.964163 C540.902306,487.335801 540.601023,488.769927 540.282831,490.281905 C538.091353,493.152716 537.57538,492.55192 537.348393,491.482472 C537.109108,490.403805 537.130628,488.842145 536.013113,489.698011 C536.145821,490.899091 536.238563,492.089927 536.320033,493.283324 L536.572639,496.886052 C535.810208,498.218764 535.027793,497.270193 534.631719,496.793346 C534.099349,499.461331 535.069809,500.085176 535.854785,501.035284 C536.6372,501.986416 537.199288,503.252032 535.770754,507.255803 C536.618754,508.351372 536.122764,509.643622 534.911994,511.138697 C533.661771,512.612773 531.670636,514.270725 529.593933,516.141234 C527.546948,518.031206 525.258117,520.046665 523.534448,522.369436 C522.65878,523.523394 521.944513,524.768522 521.367053,526.060772 C520.792667,527.354558 520.419138,528.732855 520.31871,530.21154 C517.840808,531.646178 518.622198,527.652651 516.703822,527.348412 C516.139172,529.081654 515.655479,530.566486 515.234297,531.861809 C514.796206,533.15201 514.38476,534.232213 514.042486,535.196663 C513.348714,537.119927 512.851187,538.526394 512.430517,539.893423 C512.02112,541.269159 511.647078,542.576774 511.208475,544.326919 C510.773459,546.08065 510.278493,548.27691 509.567813,551.423791 L501.093963,557.560824 C504.67862,555.712338 505.871968,557.240194 505.833027,560.370173 C505.813556,561.933369 505.431316,563.852536 504.91278,565.950969 C504.381948,568.03967 503.718407,570.312759 503.00619,572.467532 C505.99699,571.470815 508.556362,570.573975 510.079175,569.806718 C508.965246,571.822688 507.88411,573.876048 506.730216,575.87819 L503.235739,581.886151 C501.592002,582.655457 501.301479,580.56317 501.283546,577.627311 C500.972527,578.577419 500.687128,579.491161 500.506255,580.241004 C498.299406,581.545034 497.065579,581.229014 496.479408,580.111933 C495.895288,578.994852 495.87428,577.006027 496.009037,574.867131 C497.749102,574.218702 499.53477,573.608174 501.296868,573.023256 C501.29943,571.942028 501.281496,570.867458 501.200027,569.834888 C501.109334,568.795659 500.966378,567.807649 500.746052,566.921053 C500.3054,565.147347 499.554241,563.779294 498.298381,563.1954 C498.165673,564.188531 497.510843,565.782459 496.529622,567.329266 C496.503491,566.19938 496.319031,565.346076 495.718514,565.357856 C495.062659,565.393709 494.956083,567.076245 494.454456,569.476357 C492.504825,569.136264 490.564417,568.785928 488.632719,568.425348 L489.706169,570.298418 L488.019392,571.66391 L486.293162,572.988939 L482.850436,575.629267 C480.58415,577.40707 478.229221,579.086533 475.900936,580.773679 C475.324501,582.315876 474.795718,583.881122 474.264885,585.449952 C473.719706,587.016734 473.176063,588.578907 472.627297,590.157469 C472.077506,591.747812 471.515931,593.361715 470.916438,595.00174 C470.300037,596.62435 469.622662,598.249521 468.893023,599.916692 C468.16031,601.580278 467.363549,603.272545 466.476096,604.997593 C465.557386,606.686276 464.544398,608.403129 463.416122,610.153274 C461.193902,613.691466 458.349643,617.183562 454.882323,620.848264 C455.571483,617.796138 454.773697,616.463426 453.491193,615.43188 C452.205102,614.402383 450.432757,613.674052 449.105163,611.886517 C450.870335,611.925443 452.400322,611.22938 453.822195,610.079519 C454.533387,609.504845 455.217936,608.816977 455.891724,608.050232 C456.550654,607.265048 457.193187,606.394329 457.845967,605.482123 C459.146404,603.652589 460.483221,601.655569 461.977341,599.720012 C463.439692,597.746553 465.078817,595.855556 467.066877,594.293896 C462.916545,597.557044 462.305268,595.2102 462.757193,593.772489 L460.264945,597.619531 C459.422068,598.89539 458.54435,600.138469 457.680979,601.404597 C455.945525,603.926609 454.21622,606.483962 452.378802,608.941438 C451.344805,607.432533 450.177076,607.533434 448.708576,608.242302 C447.232902,608.94195 445.484127,610.299248 443.182998,611.150503 C446.835803,612.819723 445.002996,615.832411 441.678631,619.2528 C440.8583,620.119421 439.903724,620.951726 438.934801,621.811177 C437.961778,622.66653 436.968261,623.538274 436.000362,624.389017 C435.032464,625.241297 434.115804,626.109968 433.269341,626.918712 C432.419292,627.723871 431.669158,628.511615 431.082475,629.270165 C430.190922,628.427617 429.745146,627.247024 430.459925,625.69612 C431.194175,624.169289 433.009561,622.174318 436.717191,619.721451 C433.945692,620.130689 432.269675,621.2196 431.121929,622.679335 C429.956249,624.108851 429.307055,625.885629 428.672721,627.705432 C428.036849,629.521137 427.404564,631.365525 426.27014,632.877503 C425.107022,634.343384 423.434079,635.474294 420.782479,635.875849 C422.565584,634.606648 423.753809,634.250166 423.773792,632.754578 C423.021096,633.908537 421.744228,635.126007 420.274703,636.247698 C419.539941,636.808543 418.758551,637.347877 417.967939,637.838552 C417.164516,638.307716 416.354433,638.733856 415.580729,639.098022 C412.48284,640.55622 409.979318,641.015652 410.661305,639.345921 L412.464394,638.148426 C411.674806,638.584298 410.839616,639.056022 409.968046,639.559503 C409.098013,640.067081 408.189552,640.603341 407.230364,641.12526 C405.324286,642.191635 403.305482,643.363008 401.247225,644.606088 C400.226038,645.243761 399.1572,645.82407 398.101171,646.44689 C397.04258,647.064588 395.982965,647.695603 394.931035,648.335838 C393.882692,648.982731 392.836911,649.627575 391.802402,650.265761 C390.758158,650.884484 389.730823,651.50884 388.730644,652.135246 C387.729953,652.761139 386.755393,653.390105 385.816701,654.017535 C383.981844,655.258054 383.535043,655.555123 383.097977,655.845533 C381.352788,657.019979 379.790009,658.179572 378.48496,659.294092 C377.83218,659.851352 377.244472,660.398369 376.731573,660.929507 C376.209451,661.440158 375.762138,661.936468 375.400905,662.417925 C374.678952,663.380325 374.299274,664.279727 374.348463,665.087447 C373.913447,664.410335 373.190469,657.591068 373.466133,656.135943 C372.214885,658.522226 370.92777,660.927459 369.602225,663.348057 L368.601534,665.166836 C368.264384,665.771729 367.914936,666.350501 367.568563,666.945151 L365.452918,670.503319 L363.277837,674.085047 C362.909431,674.680721 362.543074,675.289712 362.165958,675.878216 L361.020261,677.626312 C359.482589,679.960863 357.903413,682.309756 356.282222,684.671965 C356.596315,681.796032 353.609613,678.139012 351.967926,674.322702 C350.312405,670.512026 349.938363,666.557425 354.973074,663.265595 C353.259653,663.457666 351.358186,663.682004 349.125205,664.365262 C346.875828,664.995765 344.27854,666.004775 341.150419,667.927015 C342.345305,667.955185 344.246772,669.359091 345.513392,670.920239 C346.777962,672.481899 347.388214,674.206435 345.905367,674.905059 C343.368029,674.148046 341.708408,673.697833 340.418731,673.342887 C339.136227,673.010477 338.249798,672.865016 337.310594,672.761554 C336.371901,672.658092 335.380433,672.596117 333.907834,672.426071 C332.44292,672.287268 330.466645,671.905176 327.625974,671.257771 C329.410616,671.441134 329.852294,673.734198 329.123167,676.104603 C328.758348,677.289805 328.098394,678.496007 327.17661,679.465066 C326.253802,680.422344 325.0789,681.199845 323.678547,681.352477 C324.298022,679.991595 321.715081,673.484251 323.492038,672.275488 C321.554704,674.007194 319.569206,675.697926 317.545791,677.425535 C315.5275,679.187972 313.444648,680.783437 311.323367,682.422949 C314.56575,680.529904 310.944201,675.577562 307.745371,673.698857 C306.296342,674.573674 305.998645,674.627966 305.673792,674.673038 C303.869166,674.82106 303.032951,674.867157 302.158307,674.911205 C300.408507,674.995204 298.506015,675.085349 296.823338,675.196494 C295.139123,675.244127 293.673697,675.35015 292.796491,675.58883 L295.672005,676.400135 L298.572113,677.144856 C296.745455,677.20683 296.315562,677.221172 295.89848,677.253439 C295.064827,677.31439 294.286511,677.420413 293.553286,677.565874 C292.088372,677.856797 290.804844,678.303424 289.63609,678.856075 C288.467848,679.431261 287.414894,680.020277 286.413178,680.688682 C285.411974,681.356062 284.462522,682.082345 283.502822,682.814773 C281.585471,684.261191 279.624055,685.829509 277.144103,686.7663 C275.903615,687.256976 274.531956,687.64419 272.973276,687.871089 C272.193936,687.984795 271.367969,688.05855 270.489225,688.085184 C269.60997,688.121037 268.684087,688.020648 267.697231,687.911552 C268.728665,687.174514 270.08444,684.72933 270.195628,682.248293 C270.307841,679.767256 269.230804,677.250879 265.499092,676.389379 C264.529656,677.32156 262.940745,678.979 260.833299,680.837729 C258.731489,682.660604 256.09526,684.761598 253.036311,686.77091 C252.272855,687.267732 251.479168,687.782993 250.669597,688.242425 C249.861051,688.693662 249.028935,689.131583 248.176836,689.552601 C246.472126,690.394125 244.683896,691.163943 242.839305,691.818007 C241.918033,692.142734 240.979853,692.449534 240.036037,692.702043 C239.098882,692.925869 238.151479,693.115378 237.198952,693.264425 C235.293899,693.563543 233.365788,693.701833 231.455098,693.641907 C230.729046,692.651336 230.009143,691.680741 229.321007,690.635366 L223.508493,690.307566 L220.576104,690.13291 C219.59181,690.085788 218.636721,689.942888 217.660624,689.851207 C218.75457,689.396384 220.041173,688.968707 221.526582,688.381228 C223.003792,687.819358 224.637793,687.221123 226.370173,686.600352 C228.070272,686.001604 229.89898,685.357784 231.808132,684.685794 C233.667583,683.98 235.605942,683.243986 237.575556,682.49568 C239.512378,681.755057 241.433828,681.062579 243.321973,680.324517 C245.184498,679.571089 247.032677,678.823295 248.824493,678.099061 C249.69555,677.757944 250.552773,677.422461 251.390525,677.094149 C252.221104,676.774544 253.023502,676.481573 253.805916,676.144553 C255.365621,675.501246 256.801841,674.937839 258.083832,674.479431 C255.440429,673.155938 255.17655,672.415827 254.519671,671.881616 C253.859717,671.378135 252.845703,670.963775 248.756858,670.292297 C247.539427,668.93039 248.819882,668.321912 250.666523,668.090403 C251.591381,667.975161 252.661244,667.955185 253.647589,667.984892 C255.468611,668.037647 255.845727,668.058135 256.143936,668.083744 L253.837684,667.546459 L251.551927,666.918005 L246.992711,665.675438 C246.230792,665.487465 245.484244,665.228298 244.73616,664.982448 L242.494468,664.246435 L238.021845,662.789261 C237.799982,665.248274 234.002684,665.35993 230.115719,665.365052 C228.164038,665.407052 226.249249,665.252371 224.757692,665.407564 C223.267672,665.560708 222.208056,665.986848 222.047679,666.994833 C223.873825,667.191513 225.682037,667.406632 227.489225,667.583337 L232.938457,667.899869 C236.525676,668.189255 240.160035,668.104744 243.711387,668.145719 C243.591488,670.583732 239.887445,673.227645 234.267076,674.602356 C231.49199,675.187275 228.250119,675.451563 224.828914,675.255908 C223.142649,675.0833 221.417443,674.783671 219.6907,674.356506 C218.827841,674.142412 217.96447,673.895537 217.107247,673.613834 C216.251561,673.327521 215.390752,673.036599 214.573495,672.622239 C213.203885,671.021653 214.650353,669.29558 216.415525,667.743652 C218.217589,666.252161 218.655167,665.892093 219.038944,665.561732 C219.807524,664.898449 220.368075,664.334531 220.440834,663.934 C219.288989,664.474358 215.964112,663.921195 212.780654,663.099646 C211.986455,662.893235 211.202503,662.666848 210.468765,662.432778 C209.082247,661.932883 208.768666,661.794592 208.477118,661.658863 C207.310926,661.112871 206.494182,660.590951 206.327144,660.186835 L209.536734,660.270834 L212.753497,660.230883 C211.958786,659.648014 211.126157,659.278727 210.311975,658.928903 C209.493694,658.590346 208.656454,658.367033 207.802818,658.210303 C206.096058,657.897869 204.320638,657.852796 202.520624,657.701189 C200.724196,657.489143 200.283031,657.396949 199.840841,657.289902 C198.957999,657.074783 198.078231,656.786934 197.21281,656.381281 C196.347902,655.975629 195.496315,655.452173 194.67291,654.768402 C193.066577,653.188816 192.674602,652.727335 192.318493,652.166489 C191.002684,651.203064 189.709932,648.630346 188.549377,646.59901 C187.966793,645.582317 187.411878,644.697257 186.877971,644.199923 C185.439702,644.551796 185.490941,645.052203 185.508874,645.576683 C185.411521,648.300497 185.214764,649.499016 184.921167,650.739534 C184.333459,653.219547 183.359412,655.864996 182.169138,658.331692 C179.793201,663.269181 176.51905,667.475265 173.748576,668.232791 C172.471196,666.89342 171.919868,666.257283 171.284508,665.501806 C170.008153,663.99956 168.378251,662.050174 166.740664,660.006545 C166.334341,659.493845 165.924432,658.977048 165.515547,658.461275 C164.720323,657.414876 164.53074,657.145465 164.342182,656.878615 C163.592048,655.806095 162.879318,654.754061 162.240884,653.765539 C160.964016,651.789007 159.987408,650.069081 159.595944,648.94278 C158.591666,645.542367 161.902196,644.775109 165.146629,644.0519 C168.406945,643.33996 171.603725,642.678725 170.837707,639.828401 C169.907725,640.782095 166.515213,640.32215 165.175322,639.995374 C164.907344,637.865698 165.226561,637.537386 165.414095,637.171684 C165.787112,636.439256 165.642107,635.564439 162.54063,633.462421 C161.534815,634.220971 160.298426,633.979731 159.106615,633.361008 C157.918903,632.738188 156.757322,631.770665 155.990792,630.963458 C156.411461,633.170986 156.753735,633.75949 157.150323,634.441724 C155.456885,633.572029 154.325023,632.692091 153.416049,631.861835 C152.507075,631.030554 151.837385,630.22642 151.163597,629.370042 C150.489296,628.513664 149.810896,627.604531 148.882452,626.561717 C148.425403,626.032115 147.875099,625.505074 147.28688,624.8674 C146.690461,624.239458 146.003863,623.563883 145.194805,622.828382 C145.120509,624.941156 141.879663,625.558342 137.75905,625.033861 C136.729665,624.903254 135.646992,624.701964 134.547923,624.438699 C132.34466,623.830733 131.816389,623.63098 131.284532,623.428153 C129.165301,622.607629 127.143423,621.569936 125.540165,620.408295 C126.755546,619.879205 126.723266,617.507264 126.683812,616.400939 C126.023858,615.670559 125.378763,614.966301 124.77466,614.25897 C124.192588,613.531152 123.626401,612.823308 123.073536,612.132367 C121.978053,610.742802 120.956867,609.406505 119.986919,608.109133 C119.017483,606.811762 118.097749,605.553829 117.207733,604.319457 C116.358196,603.05589 115.52813,601.820494 114.702675,600.59278 C111.454144,595.64812 108.373163,590.803338 104.204897,584.868619 C104.307887,583.977413 103.661768,581.894858 103.427094,580.206175 C103.208818,578.503151 103.416847,577.190927 105.091839,577.827576 C103.260056,576.601911 100.784716,575.952969 98.3565161,572.23756 C98.1110829,569.87279 98.4103167,569.179288 98.9016955,569.368285 C99.3956362,569.558307 100.16934,570.590365 100.999919,571.6593 C102.645705,573.816635 104.569204,576.039017 104.966816,571.982491 C104.296615,572.248828 103.383542,571.920516 102.310604,571.202429 C101.236641,570.484854 99.995641,569.382114 98.743368,568.068865 C98.1100581,567.41685 97.4598395,566.718738 96.8034722,566.004749 C96.1527411,565.28615 95.5214807,564.537331 94.8799727,563.805927 C94.2359026,563.072475 93.6010556,562.349778 92.9943898,561.659349 C92.394385,560.962774 91.8077023,560.304613 91.2435646,559.712524 C90.5021411,560.649827 90.5026535,561.964101 91.0263126,563.465835 C91.5766159,564.952203 92.5937034,566.652666 93.906438,568.332642 C95.228908,570.005959 96.7573574,571.707958 98.3308968,573.212765 C99.1081873,573.970291 99.8742054,574.6935 100.596671,575.361393 C101.342193,576.012895 102.035965,576.618813 102.653391,577.157635 C101.393944,577.995574 99.7409848,578.26857 97.785205,578.005305 C95.8263508,577.745114 93.6246254,576.907687 91.2015489,575.584194 C86.4255929,572.903916 80.9717493,568.09806 76.15429,561.525668 C75.7146623,560.85419 75.333959,560.239565 75.0060315,559.678207 C73.7778407,557.195122 73.5267713,556.458596 73.4114843,555.878287 C73.1762988,554.719207 73.5001272,554.178849 73.9704981,553.931462 C75.0828895,551.899614 74.5484703,550.638608 74.0125138,549.479527 C73.4765574,548.319934 72.9862034,547.242291 72.4661309,546.263501 C71.419325,544.307456 70.4509142,542.66231 69.4471487,541.264037 C68.4326232,539.86935 67.495468,538.67749 66.5301315,537.62392 C66.0520748,537.09483 65.57658,536.597496 65.1067214,536.116552 C64.6435239,535.630486 64.1962103,535.16081 63.7550454,534.697792 C62.8706661,533.766123 62.0108813,532.850331 61.2197563,531.832614 C60.448102,530.807727 59.7333226,529.684499 59.1025746,528.352811 C57.8661856,525.687387 57.0064008,522.152268 56.9495259,516.954076 C57.9876213,512.598944 59.8593697,512.179975 61.7444402,512.474483 C63.6330974,512.782307 65.5396881,513.810268 66.7243261,512.691138 C68.4572177,517.448337 68.8661023,521.276939 69.0305784,524.833058 C69.1515016,526.596008 69.1889059,528.290837 69.3641421,529.945715 C69.5639729,531.592398 69.8416865,533.220131 70.4350302,534.836083 C70.1178629,531.960661 69.8283644,529.102654 69.6433928,526.241062 C71.7134349,528.990997 74.7467639,534.947227 74.9706769,538.733318 C75.4933113,535.145444 72.3605793,526.030553 70.0384429,515.216735 C68.8681518,509.820326 67.8777084,504.020314 67.3970897,498.45181 C66.9067357,492.885867 66.9267188,487.559627 67.5262112,483.176838 C66.8391007,481.66025 66.0720579,479.560793 65.3895588,478.14818 C64.6845148,476.738127 63.9538514,476.014918 63.1924449,477.31485 C63.3717802,479.193555 63.6254116,481.0656 63.8708448,482.930988 C62.41208,485.590778 61.2397393,482.999109 60.2892621,480.566217 C59.3480078,478.146131 58.6983015,475.90992 57.9999185,479.59511 C56.8557591,475.731166 55.4292747,471.545569 54.7457509,466.899003 C54.0524918,462.26268 54.0207238,457.154633 55.5829907,451.714688 C57.129886,451.203013 58.6752441,450.706703 60.2180404,450.226783 C58.743904,452.045561 58.3754979,452.995157 58.1029082,454.050264 C57.8251947,455.103321 57.606918,456.25728 57.5444068,457.349776 C57.4926557,458.443297 57.5720757,459.47177 57.8390291,460.268222 C57.4624249,459.088653 57.6924865,457.464506 58.2904418,455.644192 C58.5799402,454.73301 58.9386109,453.770097 59.3162398,452.781063 C59.715389,451.795101 60.1375956,450.784043 60.5285467,449.769399 C60.9107871,448.753731 61.2971266,447.740112 61.6060958,446.743395 C61.9171145,445.746678 62.1307797,444.762765 62.2496534,443.817267 C62.498161,441.929343 62.1943157,440.161272 61.0434953,438.657489 C60.2779896,439.812472 59.5770447,440.991016 58.8386955,442.17212 C58.0977844,443.353225 57.4004261,444.552256 56.6969193,445.760507 C56.2019538,441.66403 55.3467804,436.94166 55.1530983,431.999562 C55.0429352,429.527744 55.1418258,427.019049 55.4846125,424.528281 C55.8704396,422.051341 56.5032371,419.592841 57.5756624,417.276216 C54.84003,418.865534 54.7770065,419.479647 54.573589,420.368293 C53.2167891,422.854964 52.26375,423.858339 50.5949066,425.332927 C54.4460047,423.054717 52.690568,429.356161 51.470063,435.280636 C51.3178842,436.022283 51.1677549,436.75676 51.0227495,437.464604 C50.8905537,438.174496 50.7824401,438.862364 50.6896982,439.504647 C50.5108752,440.790238 50.4037864,441.895539 50.4903797,442.68021 C50.6666408,444.255187 51.4582781,444.490281 53.504238,442.308362 C51.7462394,443.868998 50.6031048,445.447048 49.759204,447.05122 C48.9537322,448.664098 48.4269987,450.301562 47.9663631,452.025074 C47.5272477,453.752683 47.0543148,455.551486 46.4199802,457.523408 C46.0930775,458.508345 45.7000769,459.534257 45.2061362,460.613948 C44.7352529,461.696713 44.1659913,462.834794 43.4604349,464.044581 C44.1946849,463.930363 44.9432818,463.095497 45.3501168,463.373103 C45.7615633,463.652245 45.7933313,465.023884 45.2876057,469.362113 C45.690854,469.76879 46.2027282,470.70763 46.5173336,471.300231 C47.3140949,469.184384 48.1687558,467.558188 48.9901116,466.924612 C50.5651882,469.12036 51.2066963,473.546174 51.8984183,477.97506 C52.1997016,480.18976 52.5783554,482.404459 52.9175553,484.339504 C53.3126054,486.273524 53.7322501,487.925842 54.2287528,489.01424 C52.453333,489.51055 51.7329174,488.459541 51.0760377,489.884447 C52.1218188,492.083781 53.158377,494.254432 54.279479,496.385133 C53.4980894,496.638665 52.8647795,497.6277 52.3093524,498.802658 C51.7785198,499.973519 51.3281319,501.328768 50.8685211,502.297827 C49.9569852,504.229286 48.9685914,504.633402 47.2526085,498.726854 C47.4396296,500.539486 47.6825009,502.345972 47.8982157,504.156043 C48.1579957,505.959456 48.4198253,507.763381 48.7011256,509.564233 C48.5556077,511.223208 48.4889975,513.034304 48.5556077,514.888423 C48.651424,516.734859 48.80514,518.642758 49.1258941,520.482536 C49.7387085,524.169263 50.8265054,527.626529 52.222759,530.075299 C52.4205403,531.36345 52.9657197,532.731504 53.6123516,533.991485 C54.2743552,535.246857 55.0624059,536.385962 55.68803,537.255145 C58.158246,543.115596 60.7744923,548.179083 63.5629004,553.101206 C65.9716301,561.333085 70.9689371,568.446859 75.8473704,575.726582 C77.0591649,577.560726 77.3665969,578.01811 77.6745412,578.476006 C78.2853061,579.395382 78.8847985,580.325515 79.4709688,581.26794 C80.6597059,583.143571 81.8294846,585.046349 82.9116452,587.033637 C85.1354033,590.966213 87.0809354,595.181005 88.6744579,599.830132 C92.5855052,603.854391 96.7783652,607.756236 101.969354,615.368369 L101.000944,618.544956 C103.704808,620.858508 106.660767,625.278175 109.541404,629.15185 C112.538866,632.932307 115.39081,636.199552 117.475199,636.269722 C117.424473,638.991487 119.003649,641.865371 121.39547,644.897522 C122.597529,646.407451 124.012228,647.9476 125.569884,649.488772 C127.190563,650.974629 128.951636,652.46407 130.77317,653.939171 C131.683681,654.676721 132.609564,655.410173 133.54057,656.139016 C134.471577,656.867347 135.39746,657.599776 136.379192,658.267668 C138.309865,659.630087 140.217993,660.975604 142.048238,662.266829 C143.869261,663.564201 145.576533,664.843645 147.215145,665.971482 C148.828651,667.126978 150.26897,668.243035 151.461806,669.31658 L153.970963,666.642448 C154.831773,667.300097 155.699756,667.938283 156.578499,668.561615 C157.451094,669.192118 158.39491,669.732476 159.318231,670.302541 C161.181781,671.424744 163.098107,672.501363 165.093853,673.565689 C167.06398,674.664843 169.22164,675.602147 171.461794,676.589132 C172.583921,677.074174 173.731155,677.570484 174.909132,678.079598 C175.498376,678.330058 176.095307,678.583591 176.699923,678.840709 C177.304027,679.098339 177.914279,679.360067 178.557837,679.585942 L179.545718,676.472866 C181.884764,676.969175 184.2648,678.020184 186.742189,679.426652 C189.18986,680.885874 191.858882,682.475705 194.641142,684.260679 C196.036883,685.144202 197.455682,686.087652 198.93238,686.994224 C200.431623,687.855211 201.968271,688.722857 203.542323,689.570016 C205.117912,690.412564 206.723731,691.25204 208.377203,692.009565 C210.054245,692.708701 211.765616,693.357643 213.506193,693.927708 C212.83343,694.342068 211.641106,694.16229 210.340156,693.680833 C209.689425,693.439593 209.012562,693.124086 208.360294,692.770164 C207.704439,692.424437 207.10136,691.972176 206.557206,691.55884 C208.311105,693.125622 208.77379,693.471861 209.244674,693.802222 C210.186953,694.463456 211.164074,695.064252 212.167839,695.611269 C213.171605,696.157773 214.202527,696.65101 215.254457,697.097637 C216.307924,697.538631 217.370101,697.96682 218.481468,698.25723 C220.689342,698.882099 222.953579,699.350751 225.23165,699.727721 L227.798194,700.116471 C229.820584,700.296249 230.974992,700.382809 232.124275,700.463222 C234.425916,700.612781 236.695789,700.7859 238.938505,700.919069 C241.191981,701.003068 243.399343,701.135212 245.544194,701.386184 C246.616619,701.510646 247.67316,701.670448 248.71433,701.859958 C249.762673,702.006956 250.793595,702.193904 251.807608,702.430023 C253.835122,702.901747 255.792952,703.568104 257.679559,704.50387 C258.693572,704.370702 259.634314,704.234972 260.508446,704.211411 C261.383602,704.179656 262.196248,704.222167 262.966877,704.322556 C264.507624,704.523846 265.880308,704.95562 267.231471,705.485734 C268.706632,706.133139 269.574615,706.450696 270.471292,706.793861 C271.367969,707.131393 272.294364,707.465339 273.263799,707.768554 C271.63236,706.909103 270.085977,706.191016 268.72764,705.826339 C270.254552,705.867826 272.181639,705.844778 274.291647,705.735682 C276.402167,705.608659 278.696123,705.482661 280.955235,705.03757 L282.855677,708.492275 C288.428907,709.672356 287.47843,706.763642 285.109666,704.163266 C286.238454,703.881562 287.315491,703.569128 288.305422,703.223401 C289.295865,702.885357 290.195104,702.431047 290.976493,701.993127 C292.835432,704.701575 295.788829,704.100779 298.851876,703.536348 C301.915436,702.846431 305.079936,702.184173 307.832477,704.920279 C308.518563,704.157632 310.237108,703.42674 312.449081,702.691238 C313.555836,702.325024 314.786076,701.958298 316.072167,701.578255 C317.357745,701.195138 318.704297,700.825851 320.017544,700.332614 C322.654798,699.391726 325.239789,698.355058 327.223238,697.156027 C328.218805,696.574694 329.04221,695.856607 329.663223,695.151324 C330.280649,694.433749 330.682872,693.674175 330.80687,692.865943 C332.607909,694.085462 335.066853,693.908245 337.396675,693.439081 C339.702415,692.888479 341.881083,692.057711 343.763079,690.678902 C344.80681,691.91942 345.861815,693.156866 346.928604,694.391238 C349.855869,691.522475 352.671433,688.571762 355.428073,685.699414 C362.28227,686.187016 365.458554,686.738642 360.380803,692.049004 C362.036324,690.795681 363.444875,689.765159 364.669991,688.901611 C365.894083,688.054452 366.929104,687.33739 367.833467,686.712009 C369.637068,685.477124 370.951852,684.712428 372.197976,683.975902 C372.820526,683.607639 373.426167,683.246035 374.064601,682.837309 C374.704059,682.431656 375.375286,681.975809 376.111585,681.379623 C377.591358,680.207738 379.398033,678.612785 381.876448,676.161455 L382.427263,679.010243 C382.962195,678.768491 383.514548,678.456056 384.077661,678.097525 C384.638212,677.733871 385.196201,677.298 385.765462,676.852397 C386.900911,675.954532 388.052244,674.963449 389.177957,674.068657 C390.303671,673.173865 391.405302,672.374852 392.449034,671.857543 C393.475344,671.306429 394.447342,671.041116 395.336333,671.249064 C401.221093,671.377111 412.925542,665.511538 425.693192,657.563922 C426.492515,657.069661 427.299012,656.570791 428.111145,656.067822 C429.735411,655.048569 430.138146,654.784792 430.541907,654.519479 C432.159512,653.462324 433.794025,652.392876 435.437249,651.318306 C436.262704,650.785119 437.089696,650.250907 437.917713,649.716184 L440.364359,648.057208 C441.999385,646.95498 443.641584,645.863508 445.285833,644.792524 C446.922396,643.718979 447.325132,643.444958 447.727355,643.17145 C448.536926,642.63058 449.342911,642.092271 450.143259,641.557547 C451.753177,640.496294 453.35951,639.466285 454.957644,638.47725 C458.096012,636.429012 461.196463,634.537503 464.225181,632.891332 C461.875888,632.112295 461.460855,631.396256 462.102875,630.69712 C462.731061,629.980057 464.400417,629.245068 466.268067,628.421983 C468.134179,627.598897 470.201146,626.686691 471.578442,625.624926 C472.929605,624.533454 473.60032,623.312399 472.717477,621.927443 C475.189231,622.359218 478.758004,620.648511 476.640822,624.864327 C477.767048,623.52342 478.883538,622.338218 479.984657,621.268258 C481.097561,620.211103 482.127971,619.199532 483.173752,618.30474 C485.243281,616.494157 487.236466,615.00574 489.035967,613.504006 C490.805239,611.974613 492.405422,610.457001 493.738652,608.660759 C494.405267,607.762894 495.005784,606.796396 495.52432,605.724388 C496.022872,604.632916 496.440979,603.43747 496.762758,602.102197 C499.290362,602.319876 496.820658,606.253477 498.639118,606.045529 C499.099754,604.934594 500.420174,601.657106 502.277063,601.415353 C504.111408,601.186917 502.090042,604.025461 501.191828,606.22838 C502.388251,604.902839 503.381257,603.660784 504.193902,602.495557 C504.600224,601.912687 504.961969,601.348769 505.281186,600.803289 C507.00383,597.112977 507.311262,595.315198 507.211859,593.71871 C507.013053,590.525732 505.195618,588.129718 503.382281,585.870458 C509.984383,582.316388 512.070309,579.348261 512.288074,573.0335 C515.266577,572.322071 519.392315,570.322491 514.469816,577.496703 C515.302957,576.600374 516.991783,574.783133 519.061825,572.556141 C521.093438,570.29432 523.406352,567.533117 525.545566,564.811864 C527.644814,562.060392 529.475059,559.277164 530.606921,557.031221 C531.749031,554.791425 532.057488,552.995183 531.197191,552.24995 C533.012064,551.652739 535.324465,546.830493 535.584758,545.474732 C541.731348,536.472522 542.617777,535.868653 547.674008,526.402913 L545.556314,528.606344 C544.221547,525.372392 545.035217,523.31647 546.660508,521.070016 C548.317566,518.848146 550.633554,516.33689 552.36952,512.395094 C554.376026,510.940993 555.547342,509.304553 556.478348,507.954427 C557.407305,506.602251 558.072383,505.52256 558.5612,504.62828 C559.048992,503.732976 559.364622,503.025645 559.586998,502.409483 C560.307926,499.697962 560.576417,498.673075 561.550464,496.91832 C562.037743,496.04043 562.701284,494.980202 563.630754,493.638782 C564.517182,492.276363 565.659805,490.62968 567.146238,488.588612 L563.557995,488.228544 C562.03262,487.08739 561.936803,485.646094 562.681301,483.94051 C563.066616,483.092327 563.609233,482.154511 564.297881,481.155745 C564.985504,480.155443 565.808397,479.08958 566.693289,477.962256 C567.56742,476.830833 568.548128,475.655362 569.436094,474.393844 C570.32816,473.133863 571.206903,471.820101 571.998028,470.464341 C572.781979,469.106531 573.507006,467.718503 574.015806,466.286938 C574.510259,464.850252 574.841261,463.389493 574.932978,461.927197 L571.825353,465.223637 C571.690596,463.553905 572.542695,461.899027 573.950221,460.234417 C574.653728,459.402112 575.496604,458.567759 576.422486,457.72982 C577.317113,456.882149 578.292698,456.029357 579.297488,455.17554 C581.302457,453.466882 583.438597,451.753614 585.20838,450.071078 C586.930512,448.373688 588.321129,446.717785 588.927795,445.197613 C589.888008,443.97246 589.404827,447.605407 589.393554,449.649035 C591.460522,445.772799 592.256771,443.600099 592.311596,442.376483 C592.337728,441.13955 591.643957,440.843505 590.766238,440.64785 C589.004141,440.258587 586.482686,440.222222 587.214374,434.016557 C588.638297,433.119204 590.008931,434.136408 591.287848,434.364844 C591.927819,434.477525 592.545245,434.389429 593.138076,433.749195 C593.746791,433.114594 594.271475,431.908392 594.733648,429.793569 C595.393602,428.814779 595.495055,426.685615 595.368495,423.902899 C595.183524,421.104818 594.681385,417.639357 594.315541,414.00641 C593.51468,405.786311 592.049767,397.799257 594.066008,391.79693 C592.30596,394.519207 590.553085,397.058121 588.883217,391.301132 C588.294998,386.890685 589.543171,380.808969 589.94437,374.837885 C590.034038,373.353053 590.083739,371.875392 590.052484,370.438706 C590.022253,369.003044 589.870586,367.62321 589.624128,366.313034 C589.138898,363.689097 588.101828,361.402691 586.327945,359.704277 C586.654848,358.523685 587.067319,358.024302 587.520781,357.898816 C586.84853,356.319741 586.107106,354.228991 585.320593,351.930805 C584.498725,349.643375 583.632279,347.148509 582.700248,344.762739 C581.743622,342.383628 580.782897,340.095686 579.759661,338.224664 C578.735912,336.353643 577.708577,334.883152 576.703787,334.108724 C579.25291,331.938585 579.518327,328.429588 578.670327,324.36794 C578.221476,322.345311 577.497986,320.185416 576.630515,317.991716 C575.732814,315.806724 574.698818,313.585878 573.672507,311.420861 C572.614429,309.265575 571.559425,307.167143 570.660186,305.206488 C569.753262,303.248395 568.959062,301.441397 568.488691,299.841323 C567.553073,296.642711 567.730872,294.319428 570.34763,293.474319 L568.57221,288.701754 L566.719933,283.960433 C565.509675,280.791528 564.177983,277.66872 562.903165,274.527986 C562.1228,268.416051 560.016891,264.497303 557.887412,261.761197 C555.789701,259.009725 553.656123,257.437309 551.538941,255.886405 C551.023992,252.850156 552.836816,254.43128 553.460391,254.432304 C553.108381,253.291662 552.775842,252.215044 552.461237,251.195278 C552.13126,250.180634 551.80487,249.22899 551.495388,248.325491 C550.872838,246.520029 550.293329,244.919955 549.728167,243.473025 C548.564024,240.593506 547.436261,238.336808 546.152732,236.269106 C543.527776,232.167507 540.209047,228.818825 534.067068,223.150956 L536.415336,220.003051 C535.436166,219.306476 534.42164,217.296652 533.243663,214.439157 C532.660567,213.002983 532.000101,211.377299 531.28071,209.604106 C530.556195,207.828863 529.788128,205.892794 528.918095,203.880409 C525.427205,195.85238 520.393006,186.453737 513.302087,179.946905 C513.742227,179.863418 514.53079,179.785566 515.809195,180.720821 C513.847779,178.855433 512.046227,176.732928 510.36355,174.436278 C508.660889,172.153458 507.012541,169.74003 505.470257,167.22314 C504.692966,165.966231 503.914139,164.70625 503.136848,163.449854 C502.365194,162.186799 501.606862,160.915037 500.858265,159.648397 C500.119916,158.37305 499.351848,157.130995 498.585318,155.908915 C497.815713,154.687348 497.055843,153.481658 496.310833,152.299017 C494.824912,149.924515 493.234464,147.757449 491.675783,145.782966 C490.892344,144.798541 490.105831,143.871481 489.314706,143.015104 C488.51692,142.163336 487.685316,141.40581 486.863448,140.718966 C485.212538,139.351425 483.536522,138.319367 481.819514,137.733937 C480.10558,137.144921 478.294294,137.051703 476.462511,137.476819 C474.449344,136.18713 472.46692,134.885149 470.449142,133.631314 L464.35379,129.959441 C470.44453,136.54054 468.950411,137.053239 466.454575,136.793048 C463.951054,136.525686 460.465288,135.508994 462.301169,138.77419 C460.934634,137.717547 459.625486,136.246544 458.524879,134.709469 C457.418637,133.179052 456.467135,131.63788 455.924517,130.349728 C454.825448,127.78879 455.243555,126.368493 458.638117,129.006772 C460.918237,129.677738 460.869561,128.290733 459.857085,126.5411 C459.352384,125.667308 458.607886,124.704396 457.729655,123.69641 C457.29054,123.192418 456.820169,122.675108 456.325204,122.156774 C455.818453,121.650733 455.290695,121.13957 454.756276,120.627894 C453.684875,119.60608 452.598103,118.569924 451.57333,117.593183 C450.551118,116.610807 449.627285,115.644309 448.837697,114.812004 C447.281579,113.12076 446.472521,111.715317 447.286191,110.894793 C433.332877,99.8202716 419.015769,89.4515452 404.089946,80.2951668 C389.12057,71.2581282 373.447175,63.6086059 357.313656,58.2926104 C358.021262,60.3751654 358.705811,62.4505497 359.366277,64.5187633 C355.745753,63.1261251 352.036586,62.0059708 348.350989,60.794647 C345.762412,58.7597256 345.483673,55.6645757 353.505599,58.2654645 C352.660161,57.2400649 351.337691,56.6233909 349.831786,56.2950787 C348.324857,55.9647176 346.638593,55.9134989 345.032773,56.1132521 C341.827794,56.4656372 339.051171,57.4603055 338.801639,57.9817126 C335.000242,56.4267109 333.519445,55.5273094 333.431827,54.7989786 C333.339597,54.0885743 334.622101,53.648093 336.252003,53.3469267 C339.486187,52.834739 344.109452,52.9663712 341.65717,52.2718448 C339.387809,51.841095 337.136382,51.3396633 334.851138,51.0154485 C333.26069,52.395282 331.549318,53.1558807 329.359378,53.5057048 C328.26492,53.680873 327.052101,53.7541158 325.504693,53.6363127 C323.951136,53.5574358 322.057355,53.3279757 319.607635,52.8255196 C313.54815,50.6922581 316.932464,49.0491602 314.486843,48.4493885 C314.561651,48.0765159 313.74132,47.7881543 310.685958,47.7625449 C308.243924,47.3548435 305.801376,46.9184597 303.353705,46.5379042 L295.990197,45.5657721 C297.830177,47.1387003 299.644026,48.7095798 301.431743,50.2789227 C298.086883,50.9652542 294.683611,50.5667722 292.884621,50.6635756 C291.745073,51.8667044 292.489571,52.695424 294.042103,54.0271118 C293.474891,53.5154364 292.766772,53.0360288 291.936194,52.5868402 C291.10459,52.1545538 290.147964,51.7791203 289.087836,51.4221255 C286.966555,50.71377 284.426142,50.1278274 281.616214,49.6386882 C280.21125,49.3697897 278.737626,49.2448159 277.21635,49.0860377 C275.694561,48.9395521 274.124609,48.8161148 272.52545,48.7106042 C271.725102,48.6629707 270.918093,48.6143129 270.106473,48.5661673 C269.293827,48.5200704 268.476058,48.4765344 267.660851,48.4770466 C266.028387,48.4575835 264.384651,48.4524616 262.748088,48.4570713 C261.112037,48.4703882 259.48316,48.4837051 257.879902,48.4970219 C256.276645,48.5077779 254.695932,48.6235323 253.159796,48.6834582 C250.087014,48.8422364 247.188442,48.9426252 244.602939,49.0998668 C239.430909,49.4645444 235.510126,49.5818354 233.945297,49.1587684 C231.748695,50.1390955 229.55773,50.9268401 227.332435,51.5691234 C226.219531,51.8897528 225.097917,52.1745292 223.96298,52.4290864 C222.830093,52.7194968 221.684397,52.9822491 220.520254,53.2199041 C218.192994,53.7013605 215.790413,54.0639893 213.285867,54.4199597 C210.787982,54.8363683 208.183008,55.2087287 205.440715,55.5856988 C206.87591,55.7787935 208.18967,56.953752 207.968318,58.2091239 C207.858668,58.8370659 207.367801,59.4844711 206.32407,60.0386581 C205.80246,60.3183125 205.139944,60.5636504 204.320126,60.7915739 C203.502356,61.0369118 202.524723,61.2499818 201.362117,61.4184916 C201.731548,58.889309 200.818987,57.5857915 199.061501,56.9803857 C198.184295,56.6771706 197.098548,56.5486116 195.86677,56.5260753 C194.633968,56.5004659 193.255136,56.5793428 191.805594,56.770901 C190.351953,56.9552885 188.810694,57.150432 187.2556,57.3481364 C186.475236,57.442379 185.688722,57.5299631 184.903233,57.6021815 C184.11467,57.6703025 183.332256,57.737399 182.565213,57.8034713 C179.481158,58.0380532 176.5211,57.8823482 174.117494,56.76834 C176.14962,57.3911602 175.495814,58.2183432 173.619967,59.2294016 C171.75078,60.275801 168.64418,61.49071 165.684635,62.7250822 C162.752246,64.0490873 159.976647,65.4176526 158.724374,66.5767332 C157.470052,67.7409357 157.758013,68.7048729 160.872299,69.3015714 C158.931891,69.7948081 157.852805,69.8537097 157.230767,69.6785415 C155.991304,67.449501 155.882166,66.122935 152.592131,66.2397138 C144.297616,71.590538 134.466453,75.5128709 124.177217,80.3294834 C121.635267,81.5766603 119.026706,82.7992522 116.430955,84.1171109 C115.149476,84.8080521 113.861849,85.5020663 112.568072,86.1996659 C111.92349,86.5546119 111.27737,86.9105823 110.629714,87.2670649 L108.710313,88.3836339 C107.445231,89.1575495 106.181173,89.9463184 104.922239,90.7530139 C103.66228,91.5571485 102.402833,92.3740878 101.199237,93.2750258 C98.7807722,95.0605119 96.3377127,96.8490712 94.1042193,98.9090898 C94.3522144,99.5221784 95.5640088,99.5703241 96.3494976,100.059463 C97.1375483,100.547578 97.4982685,101.476686 96.1076511,103.804067 L92.6639004,104.556471 C91.5089809,104.810004 90.3899284,105.117316 89.2426947,105.403117 L85.8015059,106.294323 C84.6506855,106.598051 83.4834687,106.894607 82.3536562,107.242383 C80.7929264,109.105209 81.2202569,111.190325 80.8825941,113.133053 C80.5162376,115.062463 79.5104226,116.917095 74.8743482,118.412171 C76.5032253,118.292319 78.9073435,118.160174 76.9618114,120.655552 C67.6758281,127.822082 59.6651752,136.655782 52.6413789,146.208593 C45.5899138,155.766015 39.6841452,166.154204 34.2472105,176.701684 C31.5705026,181.999753 28.9527192,187.322919 26.4691811,192.697816 C25.8327968,194.035138 25.1994869,195.373484 24.5923088,196.722074 L22.7195355,200.747357 C21.5118402,203.446586 20.2329231,206.119181 19.0139553,208.814824 C17.749385,211.49459 16.5370782,214.193307 15.2397152,216.866414 C13.9971775,219.558472 12.6762447,222.228506 11.3773446,224.911345 C8.74931344,230.268316 5.97422733,235.604287 3.03056601,240.948964 C5.07447636,238.179054 5.86150226,237.860473 5.98908654,238.80341 C6.124869,239.750958 5.56175607,241.960023 5.00171746,244.329403 C6.36927744,241.423762 7.99251835,245.201658 9.80636711,245.038271 C6.60958678,250.884892 3.57625779,256.869805 0.713041173,262.995569 C2.66369716,265.226658 1.74754983,270.377729 0.986143259,275.392558 C0.212439413,280.398168 -0.376292851,285.286487 1.76292143,286.577712 C1.73832687,284.487986 1.7485746,282.405432 1.77470632,280.32134 C3.85140942,284.779421 7.18858369,282.279433 10.8685446,279.178137 C14.5474808,276.047646 18.6414502,272.32814 21.9191876,273.511805 C19.6985038,268.704412 23.0525869,263.448855 26.4005213,257.716451 C27.2444221,256.279765 28.0862733,254.806713 28.829234,253.281418 C29.5983264,251.762782 30.2495698,250.186781 30.7501715,248.548805 C31.7534246,245.270804 32.0562451,241.726465 31.0309594,237.700158 C33.3064686,235.144854 32.3503551,240.889551 34.3722328,239.765299 C33.5098861,237.645866 33.2137266,235.477776 33.6892214,232.972154 C34.1360226,230.457313 35.309388,227.585989 37.2923243,224.05548 C41.1941487,214.515473 44.8915308,207.354578 49.2293962,200.252072 C53.6021039,193.165956 58.6199064,186.09162 65.929102,176.197692 L62.0805658,175.955939 C62.8819386,174.879833 63.5757101,174.049577 64.1967227,173.384245 C64.8202973,172.719938 65.3982694,172.240018 65.9193666,171.829755 C66.9707841,171.015377 67.8659235,170.528287 68.8999198,169.731323 C68.4428709,165.745991 66.3262016,168.819629 64.1024436,171.946534 C61.9370976,175.094952 59.7138519,178.336075 58.7736224,174.452156 C63.5634128,173.166053 68.668321,165.302436 74.2886902,158.118492 C74.9686273,157.20475 75.6972411,156.33608 76.4079214,155.475092 C77.1211637,154.615129 77.8297944,153.774117 78.5322765,152.964861 C79.2239985,152.146385 79.9608105,151.404737 80.6694412,150.693308 C81.3811463,149.984441 82.0836284,149.322182 82.7738132,148.719337 C84.1357369,147.498282 85.5345525,146.597856 86.8170563,146.012426 C88.1072459,145.433141 89.3185279,145.203169 90.4314317,145.428532 C93.1680889,142.514184 92.0746557,142.281651 90.9427936,142.033752 C89.8181049,141.790463 88.6836809,141.561003 91.503857,138.616436 C92.5147959,138.590827 93.4970411,138.545242 94.5177153,138.550364 L94.0319727,135.179657 C95.0639195,134.31867 96.0722964,133.672801 97.0237984,133.210296 C97.9671022,132.739083 98.9042574,132.506038 99.7189522,132.383113 C101.362689,132.151604 102.638019,132.489135 103.318468,133.084298 C102.781487,133.43617 102.205052,134.140941 101.653724,134.884637 C101.098809,135.623724 100.576175,136.409932 100.157555,136.951314 C103.463986,135.517189 106.762219,132.15775 109.692558,129.131746 C111.117506,127.574695 112.4989,126.170789 113.625638,125.048074 C114.755963,123.93048 115.657251,123.127882 116.232662,122.925056 C113.996606,124.187598 111.710849,125.415824 109.471207,126.727537 C117.163156,118.912578 127.28228,112.025703 137.66887,105.907109 C138.94625,105.103487 140.288703,104.409985 141.593751,103.661167 C142.901875,102.915421 144.206923,102.171213 145.505824,101.43059 C146.828293,100.730429 148.140516,100.022586 149.439928,99.3050109 C150.74344,98.5961432 152.010572,97.8334958 153.318695,97.170725 C158.480991,94.378278 163.47881,91.5899285 168.155876,88.7124584 L166.047404,87.7766916 C167.863815,86.7220973 169.438892,85.8815973 170.831046,85.206534 C171.526867,84.8695146 172.177086,84.5729579 172.789388,84.3117422 C173.409888,84.0715262 173.993497,83.8692121 174.545849,83.6919952 C176.756285,82.9836397 178.47688,82.7111559 180.251787,82.4724765 C181.135142,82.3387955 182.052826,82.274772 183.048906,82.1549201 C184.046523,82.0366048 185.127659,81.8798754 186.363535,81.6355619 C187.604023,81.4040531 188.981319,81.0301561 190.618906,80.6198938 C192.257007,80.2121924 194.126193,79.6774685 196.303836,78.9670643 C196.541071,78.8907483 197.424426,78.3109519 198.382077,77.7746915 C199.349463,77.271211 200.39012,76.8061447 201.485603,76.3861508 C202.581598,75.9656448 203.733443,75.5907234 204.921155,75.267533 C206.108867,74.942806 207.331934,74.6626394 208.588819,74.5135928 C206.464976,75.8283785 208.797872,76.3554195 210.919153,76.9434109 C213.04812,77.530378 214.962396,78.1782953 212.186285,79.708712 C214.318326,78.9450402 216.052243,78.292001 217.479752,77.762399 C218.915459,77.2681379 220.035537,76.856339 220.926577,76.4952468 C222.709682,75.7720378 223.575616,75.2506308 224.242231,74.66981 C224.909871,74.0895015 225.377167,73.444145 226.383495,72.4807201 C227.39802,71.5505873 228.949527,70.3141664 231.832214,68.5240706 L234.867081,70.8934506 C236.580502,69.608884 236.948395,69.3379368 237.307578,69.073648 C238.029019,68.5548019 238.720228,68.1004914 239.580013,67.6886926 C240.439798,67.2768937 241.467645,66.9076064 242.864411,66.5582945 C244.262202,66.2243481 246.023275,65.8366221 248.365907,65.6102352 C247.415942,65.9303524 246.802615,66.2284456 246.438308,66.5157829 C246.101158,67.8766655 246.843606,68.3642681 247.556336,68.8984798 C248.98692,69.9622935 250.261738,71.0819357 246.11653,72.7844474 C248.563688,73.3801216 250.834586,73.785262 252.954329,73.9522352 C254.013945,74.0408436 255.037694,74.0802821 256.027625,74.0802821 C257.969058,74.0495508 258.441478,74.0372583 258.906725,74.0167708 C262.624603,73.8620901 265.879283,73.1742221 268.817308,72.6220839 C274.650317,71.6832439 279.333532,70.9093284 283.443385,75.5144074 C285.740927,73.8185542 285.900791,72.6512786 284.87653,71.8312662 C283.855344,71.0133025 281.661304,70.5344071 279.331482,70.2424601 C274.657491,69.8152956 269.465989,70.0908526 271.979758,69.3732777 C269.910741,68.1122718 271.76968,66.7892911 274.967485,65.8965481 C276.563569,65.4617008 278.493217,65.0847307 280.404932,64.9659031 C282.315109,64.86449 284.211965,64.9315866 285.744513,65.2158507 C287.314466,65.358751 288.727116,66.0609603 290.191005,67.0453849 C291.652844,68.0605408 293.16131,69.4075943 294.942366,70.7464528 C295.832382,71.4184429 296.78952,72.0950428 297.842987,72.742448 C298.369208,73.0661506 298.920536,73.3821703 299.498508,73.686922 C300.076993,73.9875761 300.682634,74.2836206 301.314407,74.5955428 C303.848671,75.8119885 306.87995,76.7754134 310.675198,77.2829913 C309.173393,77.0197269 308.983298,77.5734017 307.486616,77.3249907 C310.190481,78.5972648 313.017318,78.5153148 316.029126,78.5398998 C317.530419,78.5634604 319.075777,78.6064842 320.631383,78.9506743 C322.177766,79.3317419 323.743108,79.973513 325.288978,81.0875211 C326.483864,80.2060462 327.644419,79.9023189 328.741952,79.858783 C330.848886,80.0421461 331.342314,80.1553396 331.816272,80.2536796 C333.713127,80.6475519 335.301526,80.8042813 336.572757,78.2008316 L333.042925,77.6374252 C331.86751,77.4499645 330.697732,77.2476504 329.509507,77.123701 L322.426786,76.2668111 C324.465573,76.3282736 326.547912,76.0680823 328.734778,75.7402822 C329.824625,75.5891868 330.953412,75.3663852 332.088861,75.2578014 C333.228922,75.1312911 334.400237,75.0206586 335.606908,74.9566351 C336.814091,74.8931238 338.056116,74.8762217 339.337595,74.937172 C339.978591,74.9679032 340.629322,75.0175854 341.289276,75.0913405 C341.949742,75.1640711 342.607647,75.3033861 343.28246,75.4473109 C344.6285,75.7459163 346.013481,76.1551542 347.436379,76.7057559 C348.148084,76.9808006 348.869012,77.2916985 349.59865,77.6410105 C350.328801,77.9898103 351.069712,78.3703657 351.802938,78.8441393 C351.135298,79.203695 349.72521,79.4720813 348.1322,79.6574932 C346.53919,79.8377833 344.767357,79.9248552 343.348046,79.940733 C344.979485,81.2980302 346.842523,81.5612947 348.736816,81.8383882 C349.687806,81.9618254 350.624961,82.1482617 351.537521,82.4642815 C352.44957,82.779789 353.333949,83.2351238 354.149669,83.9639668 C353.422592,85.2178022 352.021727,85.5763335 350.189432,85.4313844 C348.220843,85.1609493 347.681812,85.0626093 347.121773,84.9458305 C346.001696,84.7117608 344.800662,84.403936 343.546852,84.0689653 C342.294066,83.7345068 340.984918,83.3846826 339.662448,83.0312732 C338.326656,82.7265215 336.962171,82.4709399 335.616643,82.2681136 C334.269579,82.0688726 332.936861,81.9382648 331.65487,81.9234113 C331.013874,81.9162407 330.385688,81.9377526 329.773898,81.993581 C329.15801,82.0678482 328.557492,82.1841148 327.980033,82.3357224 C328.41095,82.7393262 328.996095,83.0148832 329.667834,83.2443432 C330.337524,83.4819983 331.102005,83.6433374 331.908501,83.7590918 C333.520982,83.989064 335.303063,84.0351609 336.811017,84.13094 C337.564225,84.1790857 338.248261,84.2395238 338.805226,84.3409369 C340.505837,85.2848988 340.246057,85.9865958 338.823159,87.1671883 C340.797897,85.7156486 342.689116,85.3217763 344.573674,85.4969444 C346.456695,85.6823564 348.349452,86.3794437 350.287298,87.3249421 C352.237954,88.2366361 354.283914,89.2400117 356.578894,89.8674415 C358.85799,90.5435292 361.357924,90.9164018 364.330279,90.433921 L362.462117,93.3636343 C363.312679,93.409219 364.682289,93.3303421 366.171797,93.4399503 C367.651057,93.5695337 369.269686,93.8415054 370.638271,94.4658621 C368.389406,95.1214623 366.183582,95.7555506 363.983393,96.4608329 C366.23687,96.3537857 368.199311,96.9269237 370.005474,97.7894476 C370.907274,98.2248071 371.767059,98.7410923 372.599687,99.3019377 C373.432316,99.8632954 374.211143,100.529651 374.993558,101.171935 C376.552238,102.472891 378.065828,103.810213 379.686507,104.910392 C381.296426,106.034644 382.976029,106.998581 384.960503,107.424209 C383.128208,106.502271 381.732467,105.725795 380.680025,105.062512 C379.61836,104.419717 378.886671,103.917773 378.423986,103.464999 C377.492467,102.569695 377.593408,101.961728 378.000755,101.407541 C378.809301,100.296094 380.881393,99.4171799 378.180603,96.7860721 C379.476429,97.0769946 380.643133,97.383795 381.692501,97.7049367 C382.740844,98.0281271 383.680561,98.3497809 384.490132,98.7426288 C386.124133,99.4996422 387.356423,100.293021 388.316635,101.118667 C389.276848,101.943802 389.966008,102.800691 390.518361,103.685752 C391.071226,104.5703 391.46269,105.533212 391.869525,106.493052 C392.676533,108.426048 393.484567,110.465067 395.367588,112.609597 C396.311404,113.677508 397.47196,114.865271 399.060871,116.046376 C400.63646,117.251041 402.651164,118.430609 405.11267,119.841686 C404.40199,119.529252 403.526321,118.852652 402.653214,118.083346 C401.772421,117.327357 400.91776,116.438712 400.302896,115.619211 C399.07573,113.981235 398.800579,112.616255 401.289241,113.197076 C402.133654,113.91209 403.031868,114.702908 403.922908,115.531115 C404.81651,116.355225 405.660411,117.288431 406.461784,118.179637 C408.054282,119.980489 409.381363,121.768024 409.987517,123.23032 C416.333938,127.247407 416.389788,126.212276 415.626332,124.398107 C414.870561,122.587524 413.275502,119.976392 416.545041,120.990523 C417.483733,124.195281 419.267864,124.869832 421.563356,125.252436 C423.86346,125.615577 426.78765,125.517237 429.886565,127.090678 L427.790391,129.845223 C430.848827,133.027957 432.898373,134.408303 434.385832,134.975294 C435.867142,135.546896 436.841701,135.213974 437.767584,134.858003 C438.693979,134.502033 439.570672,134.124038 440.87111,134.615739 C441.520816,134.861589 442.277611,135.325118 443.197345,136.115936 C444.118616,136.904193 445.150563,138.083249 446.413596,139.674616 L442.315015,139.184964 C440.962315,139.02004 439.567086,138.922212 438.206187,138.796726 C440.583148,140.233412 442.853534,141.819658 445.178232,143.357757 L441.271796,145.124804 C442.336023,145.600115 443.294699,146.056986 444.167805,146.503614 C445.041937,146.948192 445.829988,147.383552 446.527858,147.84913 C447.936922,148.762873 449.088254,149.673543 450.147358,150.669236 C452.294258,152.631426 453.955415,155.066879 456.617776,158.568193 C456.785839,157.000899 458.108821,156.109693 460.10303,156.320202 C462.087504,156.535833 464.683767,157.927446 467.41735,160.792112 C469.470483,166.178277 463.006213,160.721942 470.714046,168.766361 C469.06621,168.525121 467.283617,168.340733 465.821778,167.506892 C465.09009,167.089971 464.438846,166.509662 463.919799,165.674284 C463.39409,164.845053 462.976495,163.784824 462.75002,162.361967 C461.582803,162.759937 459.490728,162.026484 458.333759,162.422405 C458.863567,163.86575 459.702344,165.257876 460.708159,166.581881 C461.217984,167.237481 461.749841,167.89513 462.29707,168.542023 C462.848398,169.184819 463.423296,169.808663 464.004342,170.409459 C465.164386,171.614124 466.355172,172.721986 467.407102,173.729459 C468.437512,174.756396 469.34751,175.665016 469.986969,176.423054 C469.107201,175.168194 468.096262,173.632656 467.854416,172.606744 C470.168866,174.11821 472.473069,175.666553 474.804428,177.215921 C477.11273,178.786288 479.376454,180.422215 481.684756,182.044313 C482.228398,184.835224 480.147596,183.879482 478.113934,182.958056 C480.443243,185.249071 483.011325,186.132083 486.142008,189.799346 C483.133786,190.471337 480.962803,192.409967 475.914258,187.879667 L481.686293,192.987202 C483.605181,194.709177 485.467194,196.492614 487.37276,198.255052 C487.551583,201.007036 487.680705,201.986339 487.796504,202.861668 C488.001971,204.62513 488.010682,206.054133 487.03561,205.532726 C487.86209,207.49338 489.287037,209.325988 490.950756,211.21596 C492.621649,213.098762 494.661973,214.943662 496.628513,216.965266 C498.608375,218.976115 500.676367,221.049963 502.383127,223.369148 C504.111408,225.672456 505.618337,228.127371 506.48427,230.860405 C507.243115,231.103694 508.268913,231.873512 509.786602,233.773216 C510.925125,236.168205 511.808992,238.614413 512.706181,241.0345 C513.597734,243.458172 514.384248,245.924355 515.368542,248.3511 C515.864533,249.562424 516.367184,250.788089 516.925173,252.013242 C517.486749,253.235834 518.107761,254.456377 518.811268,255.674359 C520.223918,258.10725 521.868679,260.580092 524.072967,263.036032 C523.51549,265.8966 522.911386,268.74846 522.31753,271.566005 C524.757003,275.822284 525.284249,273.017544 526.213206,270.882234 C526.667693,269.822006 527.222608,268.93336 528.187432,269.207893 C529.164041,269.477303 530.505469,270.932941 532.53452,274.569985 C534.049647,277.112485 534.594827,278.771972 534.656313,279.847567 C534.708577,280.928282 534.234619,281.445592 533.585425,281.778002 C532.286525,282.439748 530.291804,282.370603 530.387108,284.511547 C531.521019,285.612751 532.856299,286.927536 534.264337,288.450782 C535.66674,289.975565 537.150099,291.707271 538.423892,293.688413 C541.018618,297.62816 542.992844,302.509308 542.683362,308.242737 C542.186347,307.471894 541.805132,306.715393 541.492063,305.965551 C541.167723,305.219805 540.90743,304.481743 540.668658,303.744193 C540.190601,302.269092 539.78889,300.797577 539.081797,299.291746 C539.064375,302.174338 539.077698,305.029784 539.022872,307.888303 Z" id="Fill-115"></path>
                <path d="M296.269282,208.345975 L297.664483,207.22298 C295.992896,207.452539 294.347852,207.680368 292.720118,207.999905 C291.905962,208.153906 291.099885,208.288873 290.297846,208.465368 L287.909041,209.003506 C289.279431,208.850082 290.663668,208.675317 292.056561,208.5888 L294.155709,208.434799 C294.858502,208.388656 295.561296,208.375391 296.269282,208.345975" id="Fill-3"></path>
                <path d="M238.829253,210.826541 C242.140691,212.92545 246.930995,211.535406 252.449481,209.901959 C253.836604,209.502249 255.259501,209.092157 256.689899,208.679758 C258.138184,208.316386 259.596278,207.933979 261.056103,207.666352 C263.972292,207.124754 266.866554,206.879045 269.450964,207.305864 L271.17275,208.57017 C272.660272,206.973061 274.217034,205.449203 275.829189,203.894775 C269.372491,204.180859 262.135105,205.592245 255.620129,207.213002 C249.082074,208.813572 243.209883,210.515655 238.829253,210.826541" id="Fill-5"></path>
                <path d="M205.5311,209.373627 C206.87437,210.006357 205.510905,211.129351 205.371847,211.242977 C205.301452,211.300079 205.533408,211.10628 206.56221,210.47355 C207.076322,210.156897 207.790079,209.730655 208.766373,209.171753 C209.750168,208.624387 211.007465,207.960511 212.591346,207.140327 C211.839507,207.184163 211.595434,207.130522 211.141907,207.124177 C209.965969,207.638667 208.329003,208.299082 205.5311,209.373627" id="Fill-7"></path>
                <path d="M211.141734,207.123947 C216.891022,204.597642 206.627239,206.939953 211.141734,207.123947" id="Fill-9"></path>
                <path d="M186.048145,220.794082 C188.050356,218.881473 190.112576,217.0127 192.20653,215.149694 C191.141954,214.954165 188.977028,215.667644 187.304287,216.155602 C185.647703,216.662016 184.493114,216.955598 185.439404,215.866057 C182.022374,218.399284 180.927793,219.794519 181.278613,220.433593 C181.642704,221.090548 183.455657,220.993072 186.048145,220.794082" id="Fill-11"></path>
                <path d="M181.662841,228.253084 C182.672602,227.291011 183.71179,226.361239 184.750401,225.422238 C183.857772,225.31611 182.781079,225.677176 181.662841,228.253084" id="Fill-13"></path>
                <path d="M191.519836,219.567844 C190.361784,220.520111 189.219312,221.485644 188.097036,222.469634 C186.966681,223.442665 185.846712,224.420887 184.750401,225.42218 C186.221189,225.639627 187.219409,227.193478 187.907201,222.862999 C188.015101,223.781236 188.243018,223.670494 188.775018,222.971434 C189.305286,222.26776 190.148869,220.979229 191.519836,219.567844" id="Fill-15"></path>
                <path d="M196.347472,218.02674 C198.62203,217.542243 201.180475,216.911821 202.33391,217.00699 C203.499462,217.113118 203.279046,217.988673 200.163213,220.619375 C206.742813,216.932585 209.300681,214.612191 208.370547,213.894098 C207.912981,213.551489 206.572596,213.609167 204.522494,214.263815 C202.463159,214.900582 199.67045,216.102019 196.347472,218.02674" id="Fill-17"></path>
                <path d="M237.632716,217.317068 C238.61478,217.319952 239.607808,217.371285 240.588718,217.404162 C241.572513,217.44396 242.5465,217.469338 243.528564,217.540859 C244.957231,216.541873 246.406093,215.537119 247.893038,214.588312 C246.778262,215.288526 244.027674,215.50828 241.630214,215.805899 C240.437542,215.967975 239.332576,216.135242 238.577852,216.364801 C237.823705,216.597821 237.427879,216.90986 237.632716,217.317068" id="Fill-19"></path>
                <path d="M143.473927,247.139346 C143.683957,247.770346 144.723722,247.949148 145.893313,248.084692 C147.068675,248.225427 148.368669,248.318865 149.098582,248.735302 C150.283752,247.122043 151.502966,245.532432 152.737759,243.945705 C149.846959,245.151756 144.952217,248.23927 143.473927,247.139346" id="Fill-21"></path>
                <path d="M149.09864,248.735071 C148.200241,249.928433 147.31973,251.132754 146.457106,252.349187 C145.588712,253.558122 144.723203,254.763019 143.886544,255.990988 C149.841246,251.078536 150.351897,249.475083 149.09864,248.735071" id="Fill-23"></path>
                <path d="M183.827191,234.43434 C187.004186,230.727363 190.34332,227.102288 193.843439,223.554503 C189.547052,227.557946 185.464734,231.684821 181.579175,235.911479 C182.318897,235.406218 183.073621,234.920567 183.827191,234.43434" id="Fill-25"></path>
                <path d="M118.989483,270.436491 C119.435509,268.571755 119.904615,266.705289 120.380068,264.82325 L118.855041,269.563243 L117.427528,274.303237 L118.989483,270.436491 Z" id="Fill-27"></path>
                <path d="M104.80102,287.756272 C105.0324,285.571999 103.467559,285.94287 101.993309,286.383531 C100.521366,286.820732 99.1428989,287.324262 99.8116489,285.314177 C96.3161463,290.453304 94.8118916,295.914275 93.60768,300.797311 C95.6416263,296.133453 99.0430769,291.936787 104.80102,287.756272" id="Fill-29"></path>
                <path d="M91.3783017,308.780896 C92.2559279,306.397633 92.8871725,303.726556 93.6078531,300.797081 C93.0614283,302.033124 92.6044396,303.314734 92.2172685,304.63268 C91.8272124,305.948897 91.5404404,307.326252 91.3783017,308.780896" id="Fill-31"></path>
                <path d="M132.715361,265.612979 C131.722911,265.561069 129.415463,265.060422 125.402963,268.015853 L130.263085,267.980092 C131.010885,267.258538 131.856776,266.441815 132.715361,265.612979" id="Fill-33"></path>
                <path d="M130.423954,267.970806 L130.263547,267.980611 C128.942203,269.271449 127.823388,270.365028 126.937107,271.231931 C126.05775,272.106909 125.409195,272.752905 125.020293,273.140503 C125.687889,272.473166 127.292543,270.892207 130.423954,267.970806" id="Fill-35"></path>
                <path d="M133.335181,265.019586 C133.107263,265.23761 132.939355,265.398532 132.715476,265.613095 C133.189198,265.626937 133.405576,265.565799 133.335181,265.019586" id="Fill-37"></path>
                <path d="M163.602091,244.447217 C163.242616,245.017077 162.817362,245.637118 162.370183,246.28196 C161.930504,246.931993 161.471207,247.612596 161.021142,248.278202 C160.126206,249.609415 159.315513,250.923324 158.9093,251.981719 C158.089375,254.096202 158.821595,255.073847 163.609592,253.176234 C164.272572,251.16788 163.236269,250.693765 162.532321,249.876465 C161.842799,249.067817 161.440049,247.868687 163.602091,244.447217" id="Fill-39"></path>
                <path d="M139.352084,265.209924 C140.526869,264.255927 141.728772,263.332499 142.925483,262.407341 C144.115846,261.474684 145.326982,260.567983 146.540426,259.666473 C145.805897,259.101227 143.686554,259.207931 144.917308,256.829283 C143.000494,259.59899 141.143111,262.391191 139.352084,265.209924" id="Fill-41"></path>
                <path d="M136.934141,269.072806 C137.715984,267.769855 138.538794,266.498628 139.351796,265.210097 L136.727572,267.325733 L136.934141,269.072806 Z" id="Fill-43"></path>
                <path d="M103.162958,297.605227 C101.98875,301.696918 99.5809042,305.292 97.0322685,309.489242 C100.52604,305.50887 103.985191,301.345081 107.069289,297.242431 C106.650959,296.023114 106.469202,293.004814 103.162958,297.605227" id="Fill-45"></path>
                <path d="M116.137746,282.904613 C116.021191,283.165895 115.820393,283.45717 115.715378,283.70461 C116.292384,283.483125 116.640896,283.210308 116.137746,282.904613" id="Fill-47"></path>
                <path d="M73.688335,351.791466 C73.9681829,351.619009 74.2838053,351.503076 74.5740393,351.330618 C74.4182477,351.195651 74.2543779,351.07741 74.0997403,350.922833 L73.688335,351.791466 Z" id="Fill-49"></path>
                <path d="M108.115401,296.93691 C108.843582,296.259768 109.436167,295.604544 109.924315,294.964892 C110.422271,294.331586 110.815212,293.713852 111.133719,293.102464 C111.775927,291.883723 112.101935,290.677672 112.410057,289.483734 C110.821559,291.985814 109.068038,294.564606 107.069289,297.242027 C107.264894,297.799199 107.485887,298.042024 108.115401,296.93691" id="Fill-51"></path>
                <path d="M85.4822809,321.228773 C87.1827177,319.812773 88.9108508,318.104922 90.7018775,316.318051 C88.6938965,317.435855 85.0899167,320.134041 85.4822809,321.228773" id="Fill-53"></path>
                <path d="M114.120706,284.102935 C114.210142,283.918365 114.277075,283.740139 114.38786,283.550955 C112.984005,284.069482 113.361943,284.176187 114.120706,284.102935" id="Fill-55"></path>
                <path d="M114.120706,284.102935 C113.177302,285.9769 112.838022,287.771268 112.410461,289.483734 C113.711032,287.454038 114.84081,285.498747 115.715551,283.704956 C115.212402,283.918365 114.607123,284.051025 114.120706,284.102935" id="Fill-57"></path>
                <path d="M88.9561457,373.131244 C88.2637385,372.704426 87.7657823,371.753312 87.5361339,370.463628 C87.3151406,369.177404 87.3474529,367.545688 87.6648062,365.758241 C88.3537514,362.209302 90.223828,358.034554 93.560077,354.982801 C93.8630051,352.864858 93.4065934,351.306393 92.3674055,350.198972 C91.3299486,349.093281 89.7258718,348.449592 87.8015566,348.218302 C83.9483103,347.741881 78.8302667,348.976194 74.5742701,351.330618 C75.1570462,351.737249 75.7427073,352.072936 75.9486985,353.431834 C76.1483426,354.784965 75.9844729,357.172842 75.1893585,361.676355 C76.56898,360.53375 79.4049647,356.353235 81.9310972,353.560457 C84.4733858,350.765371 86.6019611,349.322263 86.3751977,353.257069 C85.546617,356.042926 84.8928692,357.96361 84.2310432,359.323085 C83.6021067,360.695826 82.9950963,361.51947 82.3609667,362.136627 C81.0828983,363.36748 79.7430902,363.781609 77.9203281,366.11873 C80.6507207,364.594872 80.6345646,368.568322 80.9017184,372.810553 C81.0350068,374.936572 81.249653,377.139879 81.8035788,378.761789 C82.3863549,380.394659 83.3251438,381.447863 84.9026783,381.323278 C85.2488819,378.023508 85.6799054,374.720855 86.1784386,371.411857 C87.0929932,371.567588 87.2441688,375.377233 88.9561457,373.131244" id="Fill-59"></path>
                <path d="M82.3772382,335.870786 L83.783979,332.388176 C82.542839,334.139863 81.2532305,335.52587 79.7299345,337.004162 C78.9613624,337.738982 78.1177796,338.488222 77.1639886,339.303792 C76.2084666,340.127436 75.1681247,341.023755 73.9939174,342.035431 C72.6968078,348.428482 73.3049722,350.095382 74.1000865,350.923064 C76.7312341,345.346736 79.5545247,339.876536 82.5555331,334.520539 L82.3772382,335.870786 Z" id="Fill-61"></path>
                <path d="M92.2012854,317.895377 C92.8988857,320.049081 92.4384349,323.21446 92.5688383,325.482943 C92.7142438,327.769307 93.4360784,329.138587 96.3966964,327.795839 C97.7059231,325.491595 98.457185,323.853534 98.8755143,322.589228 C99.3059608,321.331844 99.3913577,320.442446 99.3740476,319.641873 C99.3336571,318.036689 98.8864775,316.803529 100.029526,313.702172 C97.8063221,317.439719 96.83926,319.02587 96.3949654,319.388089 C95.9587488,319.756075 96.0920372,318.92551 96.2339807,317.915564 C96.5149826,315.904326 96.8525312,313.135773 92.6138448,317.992276 C93.9473057,314.736919 95.5115691,312.020276 97.03198,309.489357 C94.9132138,311.901459 92.7881006,314.19013 90.7022237,316.318455 C90.8574384,316.22444 90.9676465,316.15984 91.1038199,316.088319 L91.1436334,316.015068 C91.1580585,316.024296 91.1557505,316.04333 91.1724837,316.053712 C91.9520188,315.639583 92.3120706,315.569215 91.6404356,316.165608 C91.6427436,316.235975 91.5394595,316.425737 91.5031081,316.515715 C91.8429647,316.871589 92.0276066,317.373966 92.1845523,317.884995 C90.5268139,319.866818 90.2458119,319.937185 90.4148747,319.288305 C90.5827835,318.640002 91.2417244,317.303022 91.5031081,316.515715 C91.3836679,316.371519 91.3219282,316.167915 91.1724837,316.053712 C91.1517114,316.060634 91.1269002,316.074476 91.1038199,316.088319 C88.4830585,321.454698 86.0405919,326.891445 83.7839213,332.388176 C86.0232817,329.335846 88.1449329,325.163983 92.2012854,317.895377" id="Fill-63"></path>
                <path d="M161.343112,264.633142 C160.751681,264.728311 160.607429,264.5224 160.41644,264.35571 C159.865399,265.369693 159.742497,265.848999 161.343112,264.633142" id="Fill-65"></path>
                <path d="M154.784457,267.507766 C155.366079,266.334591 155.225867,264.622702 158.477873,262.309807 C161.792773,260.90938 159.534371,263.598338 160.416036,264.355652 C161.618517,262.144271 165.274427,257.098005 158.389014,260.58869 L157.776811,261.716298 C156.290443,262.586662 154.590006,263.401078 152.874567,264.119749 C151.177592,264.858606 149.447728,265.483838 147.938281,265.991983 C144.921116,267.010003 142.680024,267.451818 142.961026,266.864654 C146.593856,267.784621 149.385412,268.176833 154.784457,267.507766" id="Fill-67"></path>
                <path d="M122.403628,290.969697 C119.784021,294.976601 117.240578,299.010614 114.853504,303.129414 L118.235337,301.19085 L121.640249,299.320923 L120.002129,298.475937 C125.599665,292.699466 122.830613,292.644672 122.403628,290.969697" id="Fill-69"></path>
                <path d="M71.4172392,352.663388 L68.8432153,349.37054 C69.2430805,352.730871 69.7450757,356.077937 70.2759213,359.371938 C70.635973,357.141523 71.0041029,354.898418 71.4172392,352.663388" id="Fill-71"></path>
                <path d="M64.8408128,370.952566 L62.0579127,369.233179 C62.0954181,371.079458 62.1479256,372.917085 62.2448627,374.758173 L63.5240851,372.842103 L64.8408128,370.952566 Z" id="Fill-73"></path>
                <path d="M625.641123,312.134883 L623.99377,308.53461 C624.625592,310.264956 625.156438,311.354497 625.641123,312.134883" id="Fill-75"></path>
                <path d="M557.782615,542.919174 L564.253738,538.499294 C562.57292,539.326399 560.465116,540.732017 557.782615,542.919174" id="Fill-83"></path>
                <path d="M112.753144,64.844708 C112.372897,65.0079373 111.985149,65.278448 111.604325,65.392074 C111.854746,65.815432 112.251149,65.4560968 112.753144,64.844708" id="Fill-93"></path>
                <path d="M386.613542,0.643919342 C386.41159,0.471461546 386.164631,0.323805373 385.952293,0.106358587 C382.028075,0.45761878 383.638498,0.695829715 386.613542,0.643919342" id="Fill-109"></path>
                <path d="M400.036837,657.248195 C399.890278,657.335866 399.837193,657.452376 399.705059,657.534856 C399.877583,657.519859 400.093961,657.500249 400.248598,657.486406 L400.036837,657.248195 Z" id="Fill-111"></path>
                <path d="M570.483499,170.982157 C570.445994,170.844306 570.369252,170.73068 570.324246,170.597443 C570.010354,170.51208 569.74147,170.523615 569.506051,170.578986 L570.483499,170.982157 Z" id="Fill-120"></path>
                <path d="M189.662049,626.701824 C191.328443,628.609242 192.034121,629.99698 192.347435,631.141892 C193.015608,630.453214 192.57593,629.13123 189.662049,626.701824" id="Fill-122"></path>
                <path d="M99.9412445,342.422682 C100.076264,341.135882 101.091218,340.158236 101.251625,338.896238 L99.507336,338.307343 C97.1318021,342.89276 96.7902145,346.726629 99.9412445,342.422682" id="Fill-126"></path>
                <path d="M71.5738387,386.633824 C71.9246583,384.814654 72.4047274,382.988563 73.0590522,381.300322 C71.512099,380.085042 72.0319815,383.349628 71.5738387,386.633824" id="Fill-130"></path>
                <path d="M310.821778,672.138051 C309.739315,672.410869 308.58588,672.750594 307.343586,673.220094 C309.31637,672.802504 310.244195,672.452974 310.821778,672.138051" id="Fill-152"></path>
            </g>
        </g>
    </g>
</svg>