<?xml version="1.0" encoding="UTF-8"?>
<svg width="130px" height="127px" viewBox="0 0 130 127" version="1.1" xmlns="http://www.w3.org/2000/svg" xmlns:xlink="http://www.w3.org/1999/xlink">
    <!-- Generator: Sketch 42 (36781) - http://www.bohemiancoding.com/sketch -->
    <title>Social</title>
    <desc>Created with Sketch.</desc>
    <defs></defs>
    <g id="02.-Handoff-Folder-" stroke="none" stroke-width="1" fill="none" fill-rule="evenodd">
        <g id="ICEF_Assets" transform="translate(-275.000000, -2423.000000)" fill="#433E3E">
            <g id="Our-Approach" transform="translate(57.000000, 2374.000000)">
                <path d="M282.68,49 C276.21788,49 270.92,54.29788 270.92,60.76 C270.92,67.22212 276.21788,72.52 282.68,72.52 C289.14212,72.52 294.44,67.22212 294.44,60.76 C294.44,54.29788 289.14212,49 282.68,49 Z M282.68,54.88 C285.96496,54.88 288.56,57.47504 288.56,60.76 C288.56,64.04496 285.96496,66.64 282.68,66.64 C279.39504,66.64 276.8,64.04496 276.8,60.76 C276.8,57.47504 279.39504,54.88 282.68,54.88 Z M282.68,76.93 C276.21004,76.93 270.30064,78.03936 265.72992,80.37568 C261.1592,82.71004 257.69,86.63004 257.69,91.58492 L257.69,103.39 C257.69,104.9286 259.0914,106.33 260.63,106.33 L304.73,106.33 C306.2686,106.33 307.67,104.9286 307.67,103.39 L307.67,91.58492 C307.67,86.63004 304.2008,82.71004 299.63008,80.37568 C295.05936,78.03936 289.14996,76.93 282.68,76.93 Z M282.68,82.81 C288.4228,82.81 293.5678,83.87428 296.96644,85.6128 C300.36508,87.34936 301.79,89.29564 301.79,91.58492 L301.79,100.45 L263.57,100.45 L263.57,91.58492 C263.57,89.29564 264.99492,87.34936 268.39356,85.6128 C271.7922,83.87428 276.9372,82.81 282.68,82.81 Z M282.35856,115.10492 C280.91208,115.26564 279.70864,116.63568 279.74,118.09 L279.74,131.13576 L266.46492,139.08356 C264.99492,139.79504 264.38144,141.855 265.22424,143.2564 C266.07292,144.6578 268.1858,145.07136 269.49508,144.09136 L282.68,136.18864 L295.86492,144.09136 C297.1742,145.06352 299.28708,144.64996 300.13576,143.2564 C300.9864,141.855 300.36508,139.79504 298.89508,139.08356 L285.62,131.13576 L285.62,118.09 C285.6592,116.42008 284.02064,114.92068 282.35856,115.10492 Z M242.99,118.09 C236.52788,118.09 231.23,123.38788 231.23,129.85 C231.23,136.31212 236.52788,141.61 242.99,141.61 C249.45212,141.61 254.75,136.31212 254.75,129.85 C254.75,123.38788 249.45212,118.09 242.99,118.09 Z M322.37,118.09 C315.90788,118.09 310.61,123.38788 310.61,129.85 C310.61,136.31212 315.90788,141.61 322.37,141.61 C328.83212,141.61 334.13,136.31212 334.13,129.85 C334.13,123.38788 328.83212,118.09 322.37,118.09 Z M242.99,123.97 C246.27496,123.97 248.87,126.56504 248.87,129.85 C248.87,133.13496 246.27496,135.73 242.99,135.73 C239.70504,135.73 237.11,133.13496 237.11,129.85 C237.11,126.56504 239.70504,123.97 242.99,123.97 Z M322.37,123.97 C325.65496,123.97 328.25,126.56504 328.25,129.85 C328.25,133.13496 325.65496,135.73 322.37,135.73 C319.08504,135.73 316.49,133.13496 316.49,129.85 C316.49,126.56504 319.08504,123.97 322.37,123.97 Z M242.99,146.02 C236.52004,146.02 230.61064,147.12936 226.03992,149.46568 C221.4692,151.80004 218,155.72004 218,160.67492 L218,172.48 C218,174.0186 219.4014,175.42 220.94,175.42 L265.04,175.42 C266.5786,175.42 267.98,174.0186 267.98,172.48 L267.98,160.67492 C267.98,155.72004 264.5108,151.80004 259.94008,149.46568 C255.36936,147.12936 249.45996,146.02 242.99,146.02 Z M322.37,146.02 C315.90004,146.02 309.99064,147.12936 305.41992,149.46568 C300.8492,151.80004 297.38,155.72004 297.38,160.67492 L297.38,172.48 C297.38,174.0186 298.7814,175.42 300.32,175.42 L344.42,175.42 C345.9586,175.42 347.36,174.0186 347.36,172.48 L347.36,160.67492 C347.36,155.72004 343.8908,151.80004 339.32008,149.46568 C334.74936,147.12936 328.83996,146.02 322.37,146.02 Z M242.99,151.9 C248.7328,151.9 253.8778,152.96428 257.27644,154.7028 C260.67508,156.43936 262.1,158.38564 262.1,160.67492 L262.1,169.54 L223.88,169.54 L223.88,160.67492 C223.88,158.38564 225.30492,156.43936 228.70356,154.7028 C232.1022,152.96428 237.2472,151.9 242.99,151.9 Z M322.37,151.9 C328.1128,151.9 333.2578,152.96428 336.65644,154.7028 C340.05508,156.43936 341.48,158.38564 341.48,160.67492 L341.48,169.54 L303.26,169.54 L303.26,160.67492 C303.26,158.38564 304.68492,156.43936 308.08356,154.7028 C311.4822,152.96428 316.6272,151.9 322.37,151.9 Z" id="Social"></path>
            </g>
        </g>
    </g>
</svg>