<?xml version="1.0" encoding="UTF-8"?>
<svg width="140px" height="93px" viewBox="0 0 140 93" version="1.1" xmlns="http://www.w3.org/2000/svg" xmlns:xlink="http://www.w3.org/1999/xlink">
    <!-- Generator: Sketch 42 (36781) - http://www.bohemiancoding.com/sketch -->
    <title>Tractor</title>
    <desc>Created with Sketch.</desc>
    <defs></defs>
    <g id="02.-Handoff-Folder-" stroke="none" stroke-width="1" fill="none" fill-rule="evenodd">
        <g id="ICEF_Assets" transform="translate(-755.000000, -2457.000000)" fill="#433E3E">
            <g id="Our-Approach" transform="translate(57.000000, 2374.000000)">
                <path d="M834.76248,163.07672 L815.59588,159.35996 L815.59588,130.25004 C815.59588,128.10496 813.86252,126.36408 811.70992,126.36408 C809.5592,126.36408 807.82584,128.09744 807.82584,130.25004 L807.82584,136.88832 L798.49164,136.88832 L798.49164,116.78172 C798.49164,114.63664 796.75828,112.89576 794.60756,112.89576 L788.71752,112.89576 L788.71752,101.33 C788.71752,95.98328 784.36908,91.60664 778.99416,91.60664 C776.84908,91.60664 775.11008,93.34 775.11008,95.4926 C775.11008,97.6358 776.84156,99.37668 778.99416,99.37668 C780.06576,99.37668 780.9174,100.2584 780.9174,101.29992 L780.9174,112.86756 L761.23004,112.86756 L753.34908,85.80496 C752.85088,84.15244 751.33748,83 749.6342,83 L707.88504,83 C705.73996,83 703.99908,84.73336 703.99908,86.88408 L703.99908,133.29 C700.25412,137.73996 698,143.44576 698,149.69676 C698,163.71592 709.39656,175.14256 723.4458,175.14256 C733.96252,175.14256 742.99592,168.72424 746.88,159.61 L769.38172,159.61 C769.79156,168.23168 776.92992,175.14256 785.62492,175.14256 C794.60004,175.14256 801.92828,167.81244 801.92828,158.8392 C801.92828,155.06416 800.63672,151.62752 798.48412,148.84512 L798.48412,144.65836 L807.81832,144.65836 L807.81832,162.58416 C807.81832,164.45664 809.13996,166.05088 810.96168,166.40996 L833.27164,170.70576 C835.31332,171.11748 837.4584,169.79584 837.81748,167.62256 C838.2292,165.50004 836.8474,163.46588 834.76248,163.07672 Z M723.4458,167.34244 C713.69424,167.34244 705.7926,159.4126 705.7926,149.68924 C705.7926,139.96588 713.72244,132.03416 723.4458,132.03416 C733.16916,132.03416 741.10088,139.96588 741.10088,149.68924 C741.10088,159.4126 733.16916,167.34244 723.4458,167.34244 Z M770.92332,151.81928 L748.75248,151.81928 C749.82408,139.12176 741.10088,124.86008 723.41572,124.22088 C719.20076,124.22088 715.26592,125.26428 711.76912,127.08412 L711.76912,117.77248 L717.6084,117.77248 C719.7516,117.77248 721.49248,116.03912 721.49248,113.8884 C721.49248,111.74332 719.75912,110.00244 717.6084,110.00244 L711.76912,110.00244 L711.76912,105.70664 L727.30168,105.70664 C729.44676,105.70664 731.18576,103.97328 731.18576,101.82256 C731.18576,99.67748 729.4524,97.9366 727.30168,97.9366 L711.76912,97.9366 L711.76912,90.77756 L746.71832,90.77756 L754.59176,117.8458 C755.08996,119.49832 756.60336,120.65076 758.30664,120.65076 L790.6934,120.65076 L790.6934,143.34424 C781.99088,140.55244 773.8392,145.25996 770.92332,151.81928 Z M785.63244,167.34244 C780.92492,167.34244 777.09912,163.51664 777.09912,158.80912 C777.09912,154.1016 780.92492,150.2758 785.63244,150.2758 C790.33996,150.2758 794.16576,154.1016 794.16576,158.80912 C794.16576,163.51664 790.33996,167.34244 785.63244,167.34244 Z" id="Tractor"></path>
            </g>
        </g>
    </g>
</svg>