<?xml version="1.0" encoding="UTF-8"?>
<svg width="104px" height="124px" viewBox="0 0 104 124" version="1.1" xmlns="http://www.w3.org/2000/svg" xmlns:xlink="http://www.w3.org/1999/xlink">
    <!-- Generator: Sketch 42 (36781) - http://www.bohemiancoding.com/sketch -->
    <title>Well-being</title>
    <desc>Created with Sketch.</desc>
    <defs></defs>
    <g id="02.-Handoff-Folder-" stroke="none" stroke-width="1" fill="none" fill-rule="evenodd">
        <g id="ICEF_Assets" transform="translate(-62.000000, -2629.000000)" fill="#4A4A4A">
            <g id="Our-Approach" transform="translate(57.000000, 2374.000000)">
                <g id="Well-being" transform="translate(5.000000, 255.000000)">
                    <path d="M101.221193,59.5968696 L87.6574035,59.5968696 C86.5024561,59.5968696 85.5682807,58.661913 85.5682807,57.506 C85.5682807,56.350087 86.5024561,55.4169565 87.6574035,55.4169565 L101.221193,55.4169565 C102.374316,55.4169565 103.308491,56.350087 103.308491,57.506 C103.308491,58.6546087 102.374316,59.5968696 101.221193,59.5968696 Z" id="Fill-1"></path>
                    <path d="M53.8464561,18.4806957 C52.6915088,18.4806957 51.7573333,17.5457391 51.7573333,16.3898261 L51.7573333,2.81652174 C51.7573333,1.6606087 52.6915088,0.725652174 53.8464561,0.725652174 C55.0014035,0.725652174 55.9337544,1.6606087 55.9337544,2.81652174 L55.9337544,16.3898261 C55.9337544,17.5457391 55.0014035,18.4806957 53.8464561,18.4806957 Z" id="Fill-2"></path>
                    <path d="M85.3402105,39.9591304 C84.506386,39.9591304 83.7236491,39.4587826 83.3952281,38.6315652 C82.9755789,37.5541739 83.5028772,36.3489565 84.5720702,35.9216522 L96.5594386,31.2066957 C97.6359298,30.7848696 98.8474386,31.3126087 99.2670877,32.3826957 C99.6885614,33.460087 99.1612632,34.6653043 98.0920702,35.0944348 L86.1028772,39.8166957 C85.8547368,39.908 85.5974737,39.9591304 85.3402105,39.9591304 Z" id="Fill-3"></path>
                    <path d="M74.1720702,24.4008696 C73.7524211,24.4008696 73.3309474,24.2803478 72.9678596,24.0155652 C72.0282105,23.3453913 71.805614,22.0470435 72.4770526,21.1047826 L80.3299649,10.0350435 C81.0014035,9.09278261 82.3041404,8.87182609 83.2383158,9.542 C84.1797895,10.214 84.4005614,11.5123478 83.7309474,12.4527826 L75.8762105,23.5243478 C75.4693333,24.094087 74.8289123,24.4008696 74.1720702,24.4008696 Z" id="Fill-4"></path>
                    <path d="M63.1462456,93.4506957 C57.5302456,87.1306087 80.9503158,82.0084348 80.9503158,57.506 C80.9503158,24.6857391 57.0741053,24.2803478 52.0565614,24.2803478 C47.0390175,24.2803478 23.162807,27.1911304 23.162807,57.506 C23.162807,82.0084348 46.5828772,87.1306087 40.9668772,93.4506957 C33.5682807,101.774 7.98245614,91.2886087 7.98245614,123.630435 L96.1324912,123.630435 C96.1324912,91.2886087 70.5448421,101.774 63.1462456,93.4506957 Z M52.0218947,65.8731304 C49.162807,64.2972174 41.437614,59.1531304 40.9887719,52.4623478 C40.4687719,44.6375652 50.5111579,45.6857391 52.0218947,51.4853913 C53.5326316,45.6857391 63.5750175,44.6448696 63.0550175,52.4623478 C62.6043509,59.1531304 54.8718596,64.2972174 52.0218947,65.8731304 Z" id="Fill-5"></path>
                    <path d="M15.8864561,59.5968696 L2.32266667,59.5968696 C1.16954386,59.5968696 0.235368421,58.661913 0.235368421,57.506 C0.235368421,56.350087 1.16954386,55.4169565 2.32266667,55.4169565 L15.8864561,55.4169565 C17.0414035,55.4169565 17.9755789,56.350087 17.9755789,57.506 C17.9755789,58.6546087 17.0341053,59.5968696 15.8864561,59.5968696 Z" id="Fill-6"></path>
                    <path d="M18.1963509,39.9591304 C17.9390877,39.9591304 17.6818246,39.908 17.4336842,39.8166957 L5.44449123,35.1017391 C4.36982456,34.679913 3.84070175,33.4673913 4.26947368,32.39 C4.68912281,31.3126087 5.90063158,30.7848696 6.97712281,31.214 L18.9663158,35.9289565 C20.0409825,36.3489565 20.5682807,37.5614783 20.1413333,38.6388696 C19.8202105,39.4514783 19.0301754,39.9591304 18.1963509,39.9591304 Z" id="Fill-7"></path>
                    <path d="M33.4770526,23.0313043 C32.8202105,23.0313043 32.1797895,22.7245217 31.7729123,22.1547826 L23.9181754,11.0832174 C23.2485614,10.1427826 23.4693333,8.83713043 24.410807,8.17243478 C25.3522807,7.50226087 26.6550175,7.72321739 27.3191579,8.66547826 L35.1720702,19.7352174 C35.8435088,20.6774783 35.6209123,21.9831304 34.6812632,22.646 C34.3181754,22.9034783 33.8967018,23.0313043 33.4770526,23.0313043 Z" id="Fill-8"></path>
                </g>
            </g>
        </g>
    </g>
</svg>