<?xml version="1.0" encoding="UTF-8"?>
<svg width="99px" height="139px" viewBox="0 0 99 139" version="1.1" xmlns="http://www.w3.org/2000/svg" xmlns:xlink="http://www.w3.org/1999/xlink">
    <!-- Generator: Sketch 42 (36781) - http://www.bohemiancoding.com/sketch -->
    <title>LOGO_Banner</title>
    <desc>Created with Sketch.</desc>
    <defs></defs>
    <g id="Symbols" stroke="none" stroke-width="1" fill="none" fill-rule="evenodd">
        <g id="DESKTOP_Navigation" transform="translate(-180.000000, 0.000000)">
            <g id="LOGO_Banner" transform="translate(180.000000, 0.000000)">
                <g id="Logo">
                    <polygon id="Rectangle-11" fill="#852762" points="0 0 98.2586207 0 98.2586207 139 49.1293103 108.011702 0 139"></polygon>
                    <polygon id="Rectangle-11" fill="#631747" points="98.2586207 0 98.2586207 139 49.1293103 108.011702 49.1293103 0"></polygon>
                </g>
                <g id="LOGO_VerticalWhite" transform="translate(21.000000, 19.000000)" fill="#FFFFFF">
                    <g id="Group" transform="translate(1.600000, 56.000000)">
                        <path d="M3.23956044,1.9619255 C2.65716141,3.12766444 2.3793598,6.19867979 2.70419081,7.38269218 C2.21858486,7.86425146 2.18194567,9.4072835 2.2486618,10.3827635 C2.2863947,10.9229054 2.45099762,13.6440378 2.74465798,13.3822974 C2.41162416,13.6795098 3.45392703,13.5241854 2.72442439,14.5136393 C2.02609241,15.4600967 1.12706517,14.0358422 0.856919515,13.5204232 C-0.573649376,10.7960661 0.402484214,5.79773869 0,2.88312261 C0.45881013,2.54721351 0.530447945,2.19786805 0.883715339,1.72544549 C0.238428148,1.01600547 3.16682892,-0.0519167336 3.23956044,1.9619255" id="Fill-1"></path>
                        <path d="M21.9868132,8.83856381 C21.1155395,12.9361561 12.9954204,15.1914657 9.91282786,14.0097049 C4.72592459,12.0211753 6.16102758,6.45843538 8.45056547,2.9629733 C10.0774139,1.3574714 10.9226146,0 13.5565337,0 C15.31592,0.13928278 17.4712904,1.20051043 18.157337,2.83226177 C19.170926,5.24506808 15.9395,7.15645639 15.8075052,4.50044091 C15.7504705,3.35885782 15.0611648,1.02962117 13.6097661,2.17656129 C10.3343418,0.509989257 7.13605024,8.5337488 8.83622903,10.8185221 C9.73574854,12.0286752 12.0263728,13.2243643 13.788475,12.458309 C15.2816991,11.809037 16.9096339,11.578149 18.2502222,10.7145957 C19.2230721,10.0872875 20.8482909,7.70126634 21.9868132,8.83856381" id="Fill-3"></path>
                        <path d="M39.2615385,5.53878598 C39.2615385,7.40937622 34.037859,7.40293146 32.9146032,7.48456503 C31.9744165,7.55330909 28.3362558,7.22892307 27.898294,7.93516084 C27.7384461,8.19295105 28.2946737,10.726277 28.500964,10.9308979 C29.2948034,11.7193063 29.8683119,12.0683973 30.9597061,12.5324196 C32.4442398,12.561421 34.2538697,11.4642014 35.3755054,10.5871777 C36.3572742,10.4308923 36.4220774,8.98297064 37.6490184,8.98297064 C39.4705288,8.98297064 36.7925358,11.4599049 36.4458386,11.8229595 C35.3107022,13.0114798 33.2035175,14.0157875 31.9906173,14.3734714 C25.6501624,16.2424505 24.8871044,6.78262376 26.3332963,3.14617056 C23.8896749,3.06453699 25.7387267,1.4238097 26.7825986,0.963009691 C27.4727529,0.963009691 27.3809483,0.514562132 28.2984539,0.575250245 C29.0987737,0.627882414 30.0605614,0.753555143 30.7220943,0.0956530356 C32.8530401,-0.109505009 35.3123223,0.0365761117 37.1732547,0.332497794 C38.2981306,0.511339755 40.4695785,1.10801669 38.1512433,1.98933698 C37.1484135,2.37065167 34.7209929,1.65582089 33.9735958,1.88353558 C32.2249889,2.41898733 28.7364157,1.82929222 28.0775829,3.85401952 C28.8282202,4.71761674 28.0775829,4.82932583 28.0775829,5.74931465 C28.0775829,5.94319438 32.7147933,5.64190207 33.0749912,5.6703664 C34.521723,5.6703664 37.9384727,5.15639716 39.2615385,5.53878598 C39.2615385,5.94212025 39.2615385,5.53878598 39.2615385,5.53878598" id="Fill-5"></path>
                        <path d="M56.8307692,0.991662872 C56.8307692,2.16240212 50.5260174,1.9786514 49.585229,2.03023055 C49.1243569,2.05494556 46.9484095,2.08664524 47.1339554,2.62822631 C47.5893863,3.95961312 47.3831637,4.60005423 47.2139415,6.10713252 C49.2745348,5.91156157 51.3623343,6.24145322 53.353824,6.0045115 C54.093287,5.9169344 57.1360222,5.27595601 56.564149,7.0017084 C56.4188682,7.37243354 54.2423767,7.47774097 53.9208001,7.55994524 C53.0268062,7.78667858 51.8988395,7.88876232 51.0124633,7.79043956 C50.5831503,7.74315868 47.3118836,7.78560402 47.0800873,8.00105443 C46.6807011,9.97234506 47.3760901,15.9130811 44.3632817,15.1291855 C44.7545061,12.7484853 45.0423471,10.5483122 44.7893299,8.00105443 C44.2348687,8.03436596 43.7859673,8.00105443 43.164579,8.00105443 C42.185702,8.00105443 42.1998492,6.50687093 42.9055765,6.15118971 C43.4741849,5.86428069 44.408988,6.00612335 45.0292881,6.10713252 C44.944405,5.12497954 45.5173663,1.83734602 43.9051303,2.72278809 C43.0481367,3.19291055 42.9246208,1.19905404 42.9246208,0.780510728 C42.9246208,0.06807372 45.436292,0.235705957 46.1349458,0.194335181 C47.5627242,0.108369931 56.8307692,-0.49768508 56.8307692,0.991662872 C56.8307692,1.33015104 56.8307692,0.421068527 56.8307692,0.991662872" id="Fill-7"></path>
                    </g>
                    <g id="Page-1" transform="translate(1.600000, 1.600000)">
                        <path d="M8.79090703,34.1241697 C4.83447678,22.4543273 20.6592432,18.0594828 25.5397474,25.8150626 C30.6164264,33.8824485 25.7612196,40.5505212 23.4319423,43.2089778 C21.102665,45.8679111 17.3319087,48.4167111 8.79090703,46.0900848 C0.249905346,43.7634586 -2.85547953,31.1329293 3.02308182,18.2811798 C8.90164316,5.42895354 26.5378045,0 26.5378045,0 C26.4270684,1.99431919 21.8257911,0.751862626 17.9972801,7.20157576 C14.2814146,13.4615354 18.440702,15.1788525 19.8826583,15.1788525 C20.8601911,15.1788525 21.3270011,14.808404 21.5269944,14.2834828 C20.1332465,14.1924202 19.030181,13.0372121 19.030181,11.6221657 C19.030181,10.1470465 20.2272768,8.9517899 21.7035995,8.9517899 C22.6138314,8.9517899 23.4161911,9.40662626 23.8992297,10.1003232 C24.3999289,10.6991434 24.7631625,11.6302707 24.7631625,13.0739232 C24.7631625,17.726699 20.6592432,18.0594828 20.6592432,18.0594828 C12.0075053,18.0594828 13.8933608,10.303903 13.8933608,10.303903 C13.4494616,10.5251232 3.91040283,20.9401131 5.24162299,32.1298505 C6.57332047,43.3200646 15.7777843,42.4080081 18.3299659,40.6611313 C21.3246146,38.6115071 25.0595726,31.6545131 19.6607087,27.8093818 C16.9810852,25.900404 15.230786,28.0377535 14.641307,29.2234747 C15.5462885,28.9498101 16.4694079,28.9989172 17.255539,29.4423111 C19.0898448,30.4778505 19.4817171,33.2516848 18.1314045,35.6393374 C17.0502953,37.5516525 15.1797137,38.6324848 13.5349003,38.4565576 C11.9554785,38.4417778 9.90733728,37.417204 8.79090703,34.1241697 Z M47.9297346,34.1241697 C46.8133043,37.417204 44.7651632,38.4417778 43.1857413,38.4565576 C41.5409279,38.6324848 39.669869,37.5516525 38.5892371,35.6393374 C37.2389245,33.2512081 37.6307968,30.4773737 39.46558,29.4423111 C40.2512337,28.9989172 41.1743531,28.9498101 42.0788573,29.2234747 C41.4898556,28.0377535 39.7395564,25.900404 37.0599329,27.8093818 C31.6605917,31.6545131 35.3955497,38.6115071 38.3906758,40.6611313 C40.9428573,42.4080081 50.1473211,43.3200646 51.4790186,32.1298505 C52.8102388,20.9401131 43.2707027,10.5256 42.8272808,10.303903 C42.8272808,10.303903 44.7131363,18.0594828 36.0618758,18.0594828 C36.0618758,18.0594828 31.9570018,17.7271758 31.9570018,13.0739232 C31.9570018,11.6302707 32.3207127,10.6991434 32.8214119,10.1003232 C33.3039732,9.40662626 34.1068102,8.9517899 35.0165648,8.9517899 C36.4933648,8.9517899 37.6904606,10.1470465 37.6904606,11.6221657 C37.6904606,13.0372121 36.5873951,14.1924202 35.1936472,14.2834828 C35.3931632,14.808404 35.8604506,15.1788525 36.8379833,15.1788525 C38.2794623,15.1788525 42.439227,13.4615354 38.7233615,7.20157576 C34.8948506,0.752339394 30.2935732,1.99431919 30.1823598,0 C30.1823598,0 47.8189985,5.42895354 53.6975598,18.2811798 C59.5761211,31.1329293 56.4707363,43.7634586 47.9297346,46.0896081 C39.3887329,48.4167111 35.6174993,45.8679111 33.288222,43.2089778 C30.9589447,40.5505212 26.1042153,33.8819717 31.1808943,25.8150626 C36.0618758,18.0594828 51.8856875,22.4543273 47.9297346,34.1241697 Z" id="Combined-Shape"></path>
                    </g>
                </g>
            </g>
        </g>
    </g>
</svg>