<?xml version="1.0" encoding="UTF-8"?>
<svg width="94px" height="76px" viewBox="0 0 94 76" version="1.1" xmlns="http://www.w3.org/2000/svg" xmlns:xlink="http://www.w3.org/1999/xlink">
    <!-- Generator: Sketch 42 (36781) - http://www.bohemiancoding.com/sketch -->
    <title>Page 1</title>
    <desc>Created with Sketch.</desc>
    <defs></defs>
    <g id="Symbols" stroke="none" stroke-width="1" fill="none" fill-rule="evenodd">
        <g id="Footer" transform="translate(-249.000000, -39.000000)" fill="#000000">
            <g id="Group-3" transform="translate(249.000000, 33.000000)">
                <g id="Page-1" transform="translate(0.000000, 6.000000)">
                    <path d="M2.65217391,30.7738571 L2.65217391,30.7738571 C2.65217391,31.4981429 2.0706087,32.0803571 1.34852174,32.0803571 C0.625043478,32.0803571 0.0434782609,31.4981429 0.0434782609,30.7738571 C0.0434782609,30.0509643 0.625043478,29.46875 1.34852174,29.46875 C2.0706087,29.46875 2.65217391,30.0509643 2.65217391,30.7738571 Z" id="Fill-1"></path>
                    <path d="M6.30434783,27.119 L6.30434783,27.119 C6.30434783,27.8418929 5.72278261,28.4241071 4.99930435,28.4241071 C4.27721739,28.4241071 3.69565217,27.8418929 3.69565217,27.119 C3.69565217,26.3947143 4.27721739,25.8125 4.99930435,25.8125 C5.72278261,25.8125 6.30434783,26.3947143 6.30434783,27.119 Z" id="Fill-2"></path>
                    <path d="M6.30434783,30.7738571 L6.30434783,30.7738571 C6.30434783,31.4981429 5.72278261,32.0803571 4.99930435,32.0803571 C4.27721739,32.0803571 3.69565217,31.4981429 3.69565217,30.7738571 C3.69565217,30.0509643 4.27721739,29.46875 4.99930435,29.46875 C5.72278261,29.46875 6.30434783,30.0509643 6.30434783,30.7738571 Z" id="Fill-3"></path>
                    <path d="M6.30434783,34.4315 L6.30434783,34.4315 C6.30434783,35.1543929 5.72278261,35.7366071 4.99930435,35.7366071 C4.27721739,35.7366071 3.69565217,35.1543929 3.69565217,34.4315 C3.69565217,33.7072143 4.27721739,33.125 4.99930435,33.125 C5.72278261,33.125 6.30434783,33.7072143 6.30434783,34.4315 Z" id="Fill-4"></path>
                    <path d="M6.30434783,38.0863571 L6.30434783,38.0863571 C6.30434783,38.8106429 5.72278261,39.3928571 4.99930435,39.3928571 C4.27721739,39.3928571 3.69565217,38.8106429 3.69565217,38.0863571 C3.69565217,37.3634643 4.27721739,36.78125 4.99930435,36.78125 C5.72278261,36.78125 6.30434783,37.3634643 6.30434783,38.0863571 Z" id="Fill-5"></path>
                    <path d="M6.30434783,41.744 L6.30434783,41.744 C6.30434783,42.4668929 5.72278261,43.0491071 4.99930435,43.0491071 C4.27721739,43.0491071 3.69565217,42.4668929 3.69565217,41.744 C3.69565217,41.0197143 4.27721739,40.4375 4.99930435,40.4375 C5.72278261,40.4375 6.30434783,41.0197143 6.30434783,41.744 Z" id="Fill-6"></path>
                    <path d="M6.30434783,45.3988571 L6.30434783,45.3988571 C6.30434783,46.1231429 5.72278261,46.7053571 4.99930435,46.7053571 C4.27721739,46.7053571 3.69565217,46.1231429 3.69565217,45.3988571 C3.69565217,44.6759643 4.27721739,44.09375 4.99930435,44.09375 C5.72278261,44.09375 6.30434783,44.6759643 6.30434783,45.3988571 Z" id="Fill-7"></path>
                    <path d="M6.30434783,49.0565 L6.30434783,49.0565 C6.30434783,49.7793929 5.72278261,50.3616071 4.99930435,50.3616071 C4.27721739,50.3616071 3.69565217,49.7793929 3.69565217,49.0565 C3.69565217,48.3322143 4.27721739,47.75 4.99930435,47.75 C5.72278261,47.75 6.30434783,48.3322143 6.30434783,49.0565 Z" id="Fill-8"></path>
                    <path d="M6.30434783,52.7113571 L6.30434783,52.7113571 C6.30434783,53.4356429 5.72278261,54.0178571 4.99930435,54.0178571 C4.27721739,54.0178571 3.69565217,53.4356429 3.69565217,52.7113571 C3.69565217,51.9884643 4.27721739,51.40625 4.99930435,51.40625 C5.72278261,51.40625 6.30434783,51.9884643 6.30434783,52.7113571 Z" id="Fill-9"></path>
                    <path d="M6.30434783,56.369 L6.30434783,56.369 C6.30434783,57.0918929 5.72278261,57.6741071 4.99930435,57.6741071 C4.27721739,57.6741071 3.69565217,57.0918929 3.69565217,56.369 C3.69565217,55.6447143 4.27721739,55.0625 4.99930435,55.0625 C5.72278261,55.0625 6.30434783,55.6447143 6.30434783,56.369 Z" id="Fill-10"></path>
                    <path d="M6.30434783,60.0238571 L6.30434783,60.0238571 C6.30434783,60.7481429 5.72278261,61.3303571 4.99930435,61.3303571 C4.27721739,61.3303571 3.69565217,60.7481429 3.69565217,60.0238571 C3.69565217,59.3009643 4.27721739,58.71875 4.99930435,58.71875 C5.72278261,58.71875 6.30434783,59.3009643 6.30434783,60.0238571 Z" id="Fill-11"></path>
                    <path d="M9.95652174,23.4613571 L9.95652174,23.4613571 C9.95652174,24.1856429 9.37495652,24.7678571 8.65286957,24.7678571 C7.9293913,24.7678571 7.34782609,24.1856429 7.34782609,23.4613571 C7.34782609,22.7384643 7.9293913,22.15625 8.65286957,22.15625 C9.37495652,22.15625 9.95652174,22.7384643 9.95652174,23.4613571 Z" id="Fill-12"></path>
                    <path d="M9.95652174,27.119 L9.95652174,27.119 C9.95652174,27.8418929 9.37495652,28.4241071 8.65286957,28.4241071 C7.9293913,28.4241071 7.34782609,27.8418929 7.34782609,27.119 C7.34782609,26.3947143 7.9293913,25.8125 8.65286957,25.8125 C9.37495652,25.8125 9.95652174,26.3947143 9.95652174,27.119 Z" id="Fill-13"></path>
                    <path d="M9.95652174,30.7738571 L9.95652174,30.7738571 C9.95652174,31.4981429 9.37495652,32.0803571 8.65286957,32.0803571 C7.9293913,32.0803571 7.34782609,31.4981429 7.34782609,30.7738571 C7.34782609,30.0509643 7.9293913,29.46875 8.65286957,29.46875 C9.37495652,29.46875 9.95652174,30.0509643 9.95652174,30.7738571 Z" id="Fill-14"></path>
                    <path d="M9.95652174,34.4315 L9.95652174,34.4315 C9.95652174,35.1543929 9.37495652,35.7366071 8.65286957,35.7366071 C7.9293913,35.7366071 7.34782609,35.1543929 7.34782609,34.4315 C7.34782609,33.7072143 7.9293913,33.125 8.65286957,33.125 C9.37495652,33.125 9.95652174,33.7072143 9.95652174,34.4315 Z" id="Fill-15"></path>
                    <path d="M9.95652174,38.0863571 L9.95652174,38.0863571 C9.95652174,38.8106429 9.37495652,39.3928571 8.65286957,39.3928571 C7.9293913,39.3928571 7.34782609,38.8106429 7.34782609,38.0863571 C7.34782609,37.3634643 7.9293913,36.78125 8.65286957,36.78125 C9.37495652,36.78125 9.95652174,37.3634643 9.95652174,38.0863571 Z" id="Fill-16"></path>
                    <path d="M9.95652174,41.744 L9.95652174,41.744 C9.95652174,42.4668929 9.37495652,43.0491071 8.65286957,43.0491071 C7.9293913,43.0491071 7.34782609,42.4668929 7.34782609,41.744 C7.34782609,41.0197143 7.9293913,40.4375 8.65286957,40.4375 C9.37495652,40.4375 9.95652174,41.0197143 9.95652174,41.744 Z" id="Fill-17"></path>
                    <path d="M9.95652174,45.3988571 L9.95652174,45.3988571 C9.95652174,46.1231429 9.37495652,46.7053571 8.65286957,46.7053571 C7.9293913,46.7053571 7.34782609,46.1231429 7.34782609,45.3988571 C7.34782609,44.6759643 7.9293913,44.09375 8.65286957,44.09375 C9.37495652,44.09375 9.95652174,44.6759643 9.95652174,45.3988571 Z" id="Fill-18"></path>
                    <path d="M9.95652174,49.0565 L9.95652174,49.0565 C9.95652174,49.7793929 9.37495652,50.3616071 8.65286957,50.3616071 C7.9293913,50.3616071 7.34782609,49.7793929 7.34782609,49.0565 C7.34782609,48.3322143 7.9293913,47.75 8.65286957,47.75 C9.37495652,47.75 9.95652174,48.3322143 9.95652174,49.0565 Z" id="Fill-19"></path>
                    <path d="M9.95652174,52.7113571 L9.95652174,52.7113571 C9.95652174,53.4356429 9.37495652,54.0178571 8.65286957,54.0178571 C7.9293913,54.0178571 7.34782609,53.4356429 7.34782609,52.7113571 C7.34782609,51.9884643 7.9293913,51.40625 8.65286957,51.40625 C9.37495652,51.40625 9.95652174,51.9884643 9.95652174,52.7113571 Z" id="Fill-20"></path>
                    <path d="M9.95652174,56.369 L9.95652174,56.369 C9.95652174,57.0918929 9.37495652,57.6741071 8.65286957,57.6741071 C7.9293913,57.6741071 7.34782609,57.0918929 7.34782609,56.369 C7.34782609,55.6447143 7.9293913,55.0625 8.65286957,55.0625 C9.37495652,55.0625 9.95652174,55.6447143 9.95652174,56.369 Z" id="Fill-21"></path>
                    <path d="M9.95652174,60.0238571 L9.95652174,60.0238571 C9.95652174,60.7481429 9.37495652,61.3303571 8.65286957,61.3303571 C7.9293913,61.3303571 7.34782609,60.7481429 7.34782609,60.0238571 C7.34782609,59.3009643 7.9293913,58.71875 8.65286957,58.71875 C9.37495652,58.71875 9.95652174,59.3009643 9.95652174,60.0238571 Z" id="Fill-22"></path>
                    <path d="M13.6086957,19.8065 L13.6086957,19.8065 C13.6086957,20.5293929 13.0271304,21.1116071 12.3036522,21.1116071 C11.5815652,21.1116071 11,20.5293929 11,19.8065 C11,19.0822143 11.5815652,18.5 12.3036522,18.5 C13.0271304,18.5 13.6086957,19.0822143 13.6086957,19.8065 Z" id="Fill-23"></path>
                    <path d="M13.6086957,23.4613571 L13.6086957,23.4613571 C13.6086957,24.1856429 13.0271304,24.7678571 12.3036522,24.7678571 C11.5815652,24.7678571 11,24.1856429 11,23.4613571 C11,22.7384643 11.5815652,22.15625 12.3036522,22.15625 C13.0271304,22.15625 13.6086957,22.7384643 13.6086957,23.4613571 Z" id="Fill-24"></path>
                    <path d="M13.6086957,27.119 L13.6086957,27.119 C13.6086957,27.8418929 13.0271304,28.4241071 12.3036522,28.4241071 C11.5815652,28.4241071 11,27.8418929 11,27.119 C11,26.3947143 11.5815652,25.8125 12.3036522,25.8125 C13.0271304,25.8125 13.6086957,26.3947143 13.6086957,27.119 Z" id="Fill-25"></path>
                    <path d="M13.6086957,30.7738571 L13.6086957,30.7738571 C13.6086957,31.4981429 13.0271304,32.0803571 12.3036522,32.0803571 C11.5815652,32.0803571 11,31.4981429 11,30.7738571 C11,30.0509643 11.5815652,29.46875 12.3036522,29.46875 C13.0271304,29.46875 13.6086957,30.0509643 13.6086957,30.7738571 Z" id="Fill-26"></path>
                    <path d="M13.6086957,34.4315 L13.6086957,34.4315 C13.6086957,35.1543929 13.0271304,35.7366071 12.3036522,35.7366071 C11.5815652,35.7366071 11,35.1543929 11,34.4315 C11,33.7072143 11.5815652,33.125 12.3036522,33.125 C13.0271304,33.125 13.6086957,33.7072143 13.6086957,34.4315 Z" id="Fill-27"></path>
                    <path d="M13.6086957,38.0863571 L13.6086957,38.0863571 C13.6086957,38.8106429 13.0271304,39.3928571 12.3036522,39.3928571 C11.5815652,39.3928571 11,38.8106429 11,38.0863571 C11,37.3634643 11.5815652,36.78125 12.3036522,36.78125 C13.0271304,36.78125 13.6086957,37.3634643 13.6086957,38.0863571 Z" id="Fill-28"></path>
                    <path d="M13.6086957,41.744 L13.6086957,41.744 C13.6086957,42.4668929 13.0271304,43.0491071 12.3036522,43.0491071 C11.5815652,43.0491071 11,42.4668929 11,41.744 C11,41.0197143 11.5815652,40.4375 12.3036522,40.4375 C13.0271304,40.4375 13.6086957,41.0197143 13.6086957,41.744 Z" id="Fill-29"></path>
                    <path d="M13.6086957,45.3988571 L13.6086957,45.3988571 C13.6086957,46.1231429 13.0271304,46.7053571 12.3036522,46.7053571 C11.5815652,46.7053571 11,46.1231429 11,45.3988571 C11,44.6759643 11.5815652,44.09375 12.3036522,44.09375 C13.0271304,44.09375 13.6086957,44.6759643 13.6086957,45.3988571 Z" id="Fill-30"></path>
                    <path d="M13.6086957,49.0565 L13.6086957,49.0565 C13.6086957,49.7793929 13.0271304,50.3616071 12.3036522,50.3616071 C11.5815652,50.3616071 11,49.7793929 11,49.0565 C11,48.3322143 11.5815652,47.75 12.3036522,47.75 C13.0271304,47.75 13.6086957,48.3322143 13.6086957,49.0565 Z" id="Fill-31"></path>
                    <path d="M13.6086957,52.7113571 L13.6086957,52.7113571 C13.6086957,53.4356429 13.0271304,54.0178571 12.3036522,54.0178571 C11.5815652,54.0178571 11,53.4356429 11,52.7113571 C11,51.9884643 11.5815652,51.40625 12.3036522,51.40625 C13.0271304,51.40625 13.6086957,51.9884643 13.6086957,52.7113571 Z" id="Fill-32"></path>
                    <path d="M13.6086957,56.369 L13.6086957,56.369 C13.6086957,57.0918929 13.0271304,57.6741071 12.3036522,57.6741071 C11.5815652,57.6741071 11,57.0918929 11,56.369 C11,55.6447143 11.5815652,55.0625 12.3036522,55.0625 C13.0271304,55.0625 13.6086957,55.6447143 13.6086957,56.369 Z" id="Fill-33"></path>
                    <path d="M13.6086957,60.0238571 L13.6086957,60.0238571 C13.6086957,60.7481429 13.0271304,61.3303571 12.3036522,61.3303571 C11.5815652,61.3303571 11,60.7481429 11,60.0238571 C11,59.3009643 11.5815652,58.71875 12.3036522,58.71875 C13.0271304,58.71875 13.6086957,59.3009643 13.6086957,60.0238571 Z" id="Fill-34"></path>
                    <path d="M17.2608696,19.8065 L17.2608696,19.8065 C17.2608696,20.5293929 16.6793043,21.1116071 15.9572174,21.1116071 C15.2337391,21.1116071 14.6521739,20.5293929 14.6521739,19.8065 C14.6521739,19.0822143 15.2337391,18.5 15.9572174,18.5 C16.6793043,18.5 17.2608696,19.0822143 17.2608696,19.8065 Z" id="Fill-35"></path>
                    <path d="M17.2608696,23.4613571 L17.2608696,23.4613571 C17.2608696,24.1856429 16.6793043,24.7678571 15.9572174,24.7678571 C15.2337391,24.7678571 14.6521739,24.1856429 14.6521739,23.4613571 C14.6521739,22.7384643 15.2337391,22.15625 15.9572174,22.15625 C16.6793043,22.15625 17.2608696,22.7384643 17.2608696,23.4613571 Z" id="Fill-36"></path>
                    <path d="M17.2608696,27.119 L17.2608696,27.119 C17.2608696,27.8418929 16.6793043,28.4241071 15.9572174,28.4241071 C15.2337391,28.4241071 14.6521739,27.8418929 14.6521739,27.119 C14.6521739,26.3947143 15.2337391,25.8125 15.9572174,25.8125 C16.6793043,25.8125 17.2608696,26.3947143 17.2608696,27.119 Z" id="Fill-37"></path>
                    <path d="M17.2608696,30.7738571 L17.2608696,30.7738571 C17.2608696,31.4981429 16.6793043,32.0803571 15.9572174,32.0803571 C15.2337391,32.0803571 14.6521739,31.4981429 14.6521739,30.7738571 C14.6521739,30.0509643 15.2337391,29.46875 15.9572174,29.46875 C16.6793043,29.46875 17.2608696,30.0509643 17.2608696,30.7738571 Z" id="Fill-38"></path>
                    <path d="M17.2608696,34.4315 L17.2608696,34.4315 C17.2608696,35.1543929 16.6793043,35.7366071 15.9572174,35.7366071 C15.2337391,35.7366071 14.6521739,35.1543929 14.6521739,34.4315 C14.6521739,33.7072143 15.2337391,33.125 15.9572174,33.125 C16.6793043,33.125 17.2608696,33.7072143 17.2608696,34.4315 Z" id="Fill-39"></path>
                    <path d="M17.2608696,38.0863571 L17.2608696,38.0863571 C17.2608696,38.8106429 16.6793043,39.3928571 15.9572174,39.3928571 C15.2337391,39.3928571 14.6521739,38.8106429 14.6521739,38.0863571 C14.6521739,37.3634643 15.2337391,36.78125 15.9572174,36.78125 C16.6793043,36.78125 17.2608696,37.3634643 17.2608696,38.0863571 Z" id="Fill-40"></path>
                    <path d="M17.2608696,41.744 L17.2608696,41.744 C17.2608696,42.4668929 16.6793043,43.0491071 15.9572174,43.0491071 C15.2337391,43.0491071 14.6521739,42.4668929 14.6521739,41.744 C14.6521739,41.0197143 15.2337391,40.4375 15.9572174,40.4375 C16.6793043,40.4375 17.2608696,41.0197143 17.2608696,41.744 Z" id="Fill-41"></path>
                    <path d="M17.2608696,45.3988571 L17.2608696,45.3988571 C17.2608696,46.1231429 16.6793043,46.7053571 15.9572174,46.7053571 C15.2337391,46.7053571 14.6521739,46.1231429 14.6521739,45.3988571 C14.6521739,44.6759643 15.2337391,44.09375 15.9572174,44.09375 C16.6793043,44.09375 17.2608696,44.6759643 17.2608696,45.3988571 Z" id="Fill-42"></path>
                    <path d="M17.2608696,49.0565 L17.2608696,49.0565 C17.2608696,49.7793929 16.6793043,50.3616071 15.9572174,50.3616071 C15.2337391,50.3616071 14.6521739,49.7793929 14.6521739,49.0565 C14.6521739,48.3322143 15.2337391,47.75 15.9572174,47.75 C16.6793043,47.75 17.2608696,48.3322143 17.2608696,49.0565 Z" id="Fill-43"></path>
                    <path d="M17.2608696,52.7113571 L17.2608696,52.7113571 C17.2608696,53.4356429 16.6793043,54.0178571 15.9572174,54.0178571 C15.2337391,54.0178571 14.6521739,53.4356429 14.6521739,52.7113571 C14.6521739,51.9884643 15.2337391,51.40625 15.9572174,51.40625 C16.6793043,51.40625 17.2608696,51.9884643 17.2608696,52.7113571 Z" id="Fill-44"></path>
                    <path d="M17.2608696,56.369 L17.2608696,56.369 C17.2608696,57.0918929 16.6793043,57.6741071 15.9572174,57.6741071 C15.2337391,57.6741071 14.6521739,57.0918929 14.6521739,56.369 C14.6521739,55.6447143 15.2337391,55.0625 15.9572174,55.0625 C16.6793043,55.0625 17.2608696,55.6447143 17.2608696,56.369 Z" id="Fill-45"></path>
                    <path d="M17.2608696,60.0238571 L17.2608696,60.0238571 C17.2608696,60.7481429 16.6793043,61.3303571 15.9572174,61.3303571 C15.2337391,61.3303571 14.6521739,60.7481429 14.6521739,60.0238571 C14.6521739,59.3009643 15.2337391,58.71875 15.9572174,58.71875 C16.6793043,58.71875 17.2608696,59.3009643 17.2608696,60.0238571 Z" id="Fill-46"></path>
                    <path d="M20.9130435,19.8065 L20.9130435,19.8065 C20.9130435,20.5293929 20.3314783,21.1116071 19.608,21.1116071 C18.885913,21.1116071 18.3043478,20.5293929 18.3043478,19.8065 C18.3043478,19.0822143 18.885913,18.5 19.608,18.5 C20.3314783,18.5 20.9130435,19.0822143 20.9130435,19.8065 Z" id="Fill-47"></path>
                    <path d="M20.9130435,23.4613571 L20.9130435,23.4613571 C20.9130435,24.1856429 20.3314783,24.7678571 19.608,24.7678571 C18.885913,24.7678571 18.3043478,24.1856429 18.3043478,23.4613571 C18.3043478,22.7384643 18.885913,22.15625 19.608,22.15625 C20.3314783,22.15625 20.9130435,22.7384643 20.9130435,23.4613571 Z" id="Fill-48"></path>
                    <path d="M20.9130435,27.119 L20.9130435,27.119 C20.9130435,27.8418929 20.3314783,28.4241071 19.608,28.4241071 C18.885913,28.4241071 18.3043478,27.8418929 18.3043478,27.119 C18.3043478,26.3947143 18.885913,25.8125 19.608,25.8125 C20.3314783,25.8125 20.9130435,26.3947143 20.9130435,27.119 Z" id="Fill-49"></path>
                    <path d="M20.9130435,30.7738571 L20.9130435,30.7738571 C20.9130435,31.4981429 20.3314783,32.0803571 19.608,32.0803571 C18.885913,32.0803571 18.3043478,31.4981429 18.3043478,30.7738571 C18.3043478,30.0509643 18.885913,29.46875 19.608,29.46875 C20.3314783,29.46875 20.9130435,30.0509643 20.9130435,30.7738571 Z" id="Fill-50"></path>
                    <path d="M20.9130435,34.4315 L20.9130435,34.4315 C20.9130435,35.1543929 20.3314783,35.7366071 19.608,35.7366071 C18.885913,35.7366071 18.3043478,35.1543929 18.3043478,34.4315 C18.3043478,33.7072143 18.885913,33.125 19.608,33.125 C20.3314783,33.125 20.9130435,33.7072143 20.9130435,34.4315 Z" id="Fill-51"></path>
                    <path d="M20.9130435,38.0863571 L20.9130435,38.0863571 C20.9130435,38.8106429 20.3314783,39.3928571 19.608,39.3928571 C18.885913,39.3928571 18.3043478,38.8106429 18.3043478,38.0863571 C18.3043478,37.3634643 18.885913,36.78125 19.608,36.78125 C20.3314783,36.78125 20.9130435,37.3634643 20.9130435,38.0863571 Z" id="Fill-52"></path>
                    <path d="M20.9130435,41.744 L20.9130435,41.744 C20.9130435,42.4668929 20.3314783,43.0491071 19.608,43.0491071 C18.885913,43.0491071 18.3043478,42.4668929 18.3043478,41.744 C18.3043478,41.0197143 18.885913,40.4375 19.608,40.4375 C20.3314783,40.4375 20.9130435,41.0197143 20.9130435,41.744 Z" id="Fill-53"></path>
                    <path d="M20.9130435,45.3988571 L20.9130435,45.3988571 C20.9130435,46.1231429 20.3314783,46.7053571 19.608,46.7053571 C18.885913,46.7053571 18.3043478,46.1231429 18.3043478,45.3988571 C18.3043478,44.6759643 18.885913,44.09375 19.608,44.09375 C20.3314783,44.09375 20.9130435,44.6759643 20.9130435,45.3988571 Z" id="Fill-54"></path>
                    <path d="M20.9130435,49.0565 L20.9130435,49.0565 C20.9130435,49.7793929 20.3314783,50.3616071 19.608,50.3616071 C18.885913,50.3616071 18.3043478,49.7793929 18.3043478,49.0565 C18.3043478,48.3322143 18.885913,47.75 19.608,47.75 C20.3314783,47.75 20.9130435,48.3322143 20.9130435,49.0565 Z" id="Fill-55"></path>
                    <path d="M20.9130435,52.7113571 L20.9130435,52.7113571 C20.9130435,53.4356429 20.3314783,54.0178571 19.608,54.0178571 C18.885913,54.0178571 18.3043478,53.4356429 18.3043478,52.7113571 C18.3043478,51.9884643 18.885913,51.40625 19.608,51.40625 C20.3314783,51.40625 20.9130435,51.9884643 20.9130435,52.7113571 Z" id="Fill-56"></path>
                    <path d="M20.9130435,56.369 L20.9130435,56.369 C20.9130435,57.0918929 20.3314783,57.6741071 19.608,57.6741071 C18.885913,57.6741071 18.3043478,57.0918929 18.3043478,56.369 C18.3043478,55.6447143 18.885913,55.0625 19.608,55.0625 C20.3314783,55.0625 20.9130435,55.6447143 20.9130435,56.369 Z" id="Fill-57"></path>
                    <path d="M20.9130435,60.0238571 L20.9130435,60.0238571 C20.9130435,60.7481429 20.3314783,61.3303571 19.608,61.3303571 C18.885913,61.3303571 18.3043478,60.7481429 18.3043478,60.0238571 C18.3043478,59.3009643 18.885913,58.71875 19.608,58.71875 C20.3314783,58.71875 20.9130435,59.3009643 20.9130435,60.0238571 Z" id="Fill-58"></path>
                    <path d="M20.9130435,63.6815 L20.9130435,63.6815 C20.9130435,64.4043929 20.3314783,64.9866071 19.608,64.9866071 C18.885913,64.9866071 18.3043478,64.4043929 18.3043478,63.6815 C18.3043478,62.9572143 18.885913,62.375 19.608,62.375 C20.3314783,62.375 20.9130435,62.9572143 20.9130435,63.6815 Z" id="Fill-59"></path>
                    <path d="M24.5652174,16.1488571 L24.5652174,16.1488571 C24.5652174,16.8731429 23.9836522,17.4553571 23.2615652,17.4553571 C22.538087,17.4553571 21.9565217,16.8731429 21.9565217,16.1488571 C21.9565217,15.4259643 22.538087,14.84375 23.2615652,14.84375 C23.9836522,14.84375 24.5652174,15.4259643 24.5652174,16.1488571 Z" id="Fill-60"></path>
                    <path d="M24.5652174,23.4613571 L24.5652174,23.4613571 C24.5652174,24.1856429 23.9836522,24.7678571 23.2615652,24.7678571 C22.538087,24.7678571 21.9565217,24.1856429 21.9565217,23.4613571 C21.9565217,22.7384643 22.538087,22.15625 23.2615652,22.15625 C23.9836522,22.15625 24.5652174,22.7384643 24.5652174,23.4613571 Z" id="Fill-61"></path>
                    <path d="M24.5652174,27.119 L24.5652174,27.119 C24.5652174,27.8418929 23.9836522,28.4241071 23.2615652,28.4241071 C22.538087,28.4241071 21.9565217,27.8418929 21.9565217,27.119 C21.9565217,26.3947143 22.538087,25.8125 23.2615652,25.8125 C23.9836522,25.8125 24.5652174,26.3947143 24.5652174,27.119 Z" id="Fill-62"></path>
                    <path d="M24.5652174,30.7738571 L24.5652174,30.7738571 C24.5652174,31.4981429 23.9836522,32.0803571 23.2615652,32.0803571 C22.538087,32.0803571 21.9565217,31.4981429 21.9565217,30.7738571 C21.9565217,30.0509643 22.538087,29.46875 23.2615652,29.46875 C23.9836522,29.46875 24.5652174,30.0509643 24.5652174,30.7738571 Z" id="Fill-63"></path>
                    <path d="M24.5652174,34.4315 L24.5652174,34.4315 C24.5652174,35.1543929 23.9836522,35.7366071 23.2615652,35.7366071 C22.538087,35.7366071 21.9565217,35.1543929 21.9565217,34.4315 C21.9565217,33.7072143 22.538087,33.125 23.2615652,33.125 C23.9836522,33.125 24.5652174,33.7072143 24.5652174,34.4315 Z" id="Fill-64"></path>
                    <path d="M24.5652174,38.0863571 L24.5652174,38.0863571 C24.5652174,38.8106429 23.9836522,39.3928571 23.2615652,39.3928571 C22.538087,39.3928571 21.9565217,38.8106429 21.9565217,38.0863571 C21.9565217,37.3634643 22.538087,36.78125 23.2615652,36.78125 C23.9836522,36.78125 24.5652174,37.3634643 24.5652174,38.0863571 Z" id="Fill-65"></path>
                    <path d="M24.5652174,41.744 L24.5652174,41.744 C24.5652174,42.4668929 23.9836522,43.0491071 23.2615652,43.0491071 C22.538087,43.0491071 21.9565217,42.4668929 21.9565217,41.744 C21.9565217,41.0197143 22.538087,40.4375 23.2615652,40.4375 C23.9836522,40.4375 24.5652174,41.0197143 24.5652174,41.744 Z" id="Fill-66"></path>
                    <path d="M24.5652174,45.3988571 L24.5652174,45.3988571 C24.5652174,46.1231429 23.9836522,46.7053571 23.2615652,46.7053571 C22.538087,46.7053571 21.9565217,46.1231429 21.9565217,45.3988571 C21.9565217,44.6759643 22.538087,44.09375 23.2615652,44.09375 C23.9836522,44.09375 24.5652174,44.6759643 24.5652174,45.3988571 Z" id="Fill-67"></path>
                    <path d="M24.5652174,49.0565 L24.5652174,49.0565 C24.5652174,49.7793929 23.9836522,50.3616071 23.2615652,50.3616071 C22.538087,50.3616071 21.9565217,49.7793929 21.9565217,49.0565 C21.9565217,48.3322143 22.538087,47.75 23.2615652,47.75 C23.9836522,47.75 24.5652174,48.3322143 24.5652174,49.0565 Z" id="Fill-68"></path>
                    <path d="M24.5652174,52.7113571 L24.5652174,52.7113571 C24.5652174,53.4356429 23.9836522,54.0178571 23.2615652,54.0178571 C22.538087,54.0178571 21.9565217,53.4356429 21.9565217,52.7113571 C21.9565217,51.9884643 22.538087,51.40625 23.2615652,51.40625 C23.9836522,51.40625 24.5652174,51.9884643 24.5652174,52.7113571 Z" id="Fill-69"></path>
                    <path d="M24.5652174,56.369 L24.5652174,56.369 C24.5652174,57.0918929 23.9836522,57.6741071 23.2615652,57.6741071 C22.538087,57.6741071 21.9565217,57.0918929 21.9565217,56.369 C21.9565217,55.6447143 22.538087,55.0625 23.2615652,55.0625 C23.9836522,55.0625 24.5652174,55.6447143 24.5652174,56.369 Z" id="Fill-70"></path>
                    <path d="M24.5652174,60.0238571 L24.5652174,60.0238571 C24.5652174,60.7481429 23.9836522,61.3303571 23.2615652,61.3303571 C22.538087,61.3303571 21.9565217,60.7481429 21.9565217,60.0238571 C21.9565217,59.3009643 22.538087,58.71875 23.2615652,58.71875 C23.9836522,58.71875 24.5652174,59.3009643 24.5652174,60.0238571 Z" id="Fill-71"></path>
                    <path d="M24.5652174,63.6815 L24.5652174,63.6815 C24.5652174,64.4043929 23.9836522,64.9866071 23.2615652,64.9866071 C22.538087,64.9866071 21.9565217,64.4043929 21.9565217,63.6815 C21.9565217,62.9572143 22.538087,62.375 23.2615652,62.375 C23.9836522,62.375 24.5652174,62.9572143 24.5652174,63.6815 Z" id="Fill-72"></path>
                    <path d="M28.2173913,12.494 L28.2173913,12.494 C28.2173913,13.2168929 27.6358261,13.7991071 26.9123478,13.7991071 C26.1902609,13.7991071 25.6086957,13.2168929 25.6086957,12.494 C25.6086957,11.7697143 26.1902609,11.1875 26.9123478,11.1875 C27.6358261,11.1875 28.2173913,11.7697143 28.2173913,12.494 Z" id="Fill-73"></path>
                    <path d="M28.2173913,16.1488571 L28.2173913,16.1488571 C28.2173913,16.8731429 27.6358261,17.4553571 26.9123478,17.4553571 C26.1902609,17.4553571 25.6086957,16.8731429 25.6086957,16.1488571 C25.6086957,15.4259643 26.1902609,14.84375 26.9123478,14.84375 C27.6358261,14.84375 28.2173913,15.4259643 28.2173913,16.1488571 Z" id="Fill-74"></path>
                    <path d="M28.2173913,27.119 L28.2173913,27.119 C28.2173913,27.8418929 27.6358261,28.4241071 26.9123478,28.4241071 C26.1902609,28.4241071 25.6086957,27.8418929 25.6086957,27.119 C25.6086957,26.3947143 26.1902609,25.8125 26.9123478,25.8125 C27.6358261,25.8125 28.2173913,26.3947143 28.2173913,27.119 Z" id="Fill-75"></path>
                    <path d="M28.2173913,30.7738571 L28.2173913,30.7738571 C28.2173913,31.4981429 27.6358261,32.0803571 26.9123478,32.0803571 C26.1902609,32.0803571 25.6086957,31.4981429 25.6086957,30.7738571 C25.6086957,30.0509643 26.1902609,29.46875 26.9123478,29.46875 C27.6358261,29.46875 28.2173913,30.0509643 28.2173913,30.7738571 Z" id="Fill-76"></path>
                    <path d="M28.2173913,34.4315 L28.2173913,34.4315 C28.2173913,35.1543929 27.6358261,35.7366071 26.9123478,35.7366071 C26.1902609,35.7366071 25.6086957,35.1543929 25.6086957,34.4315 C25.6086957,33.7072143 26.1902609,33.125 26.9123478,33.125 C27.6358261,33.125 28.2173913,33.7072143 28.2173913,34.4315 Z" id="Fill-77"></path>
                    <path d="M28.2173913,38.0863571 L28.2173913,38.0863571 C28.2173913,38.8106429 27.6358261,39.3928571 26.9123478,39.3928571 C26.1902609,39.3928571 25.6086957,38.8106429 25.6086957,38.0863571 C25.6086957,37.3634643 26.1902609,36.78125 26.9123478,36.78125 C27.6358261,36.78125 28.2173913,37.3634643 28.2173913,38.0863571 Z" id="Fill-78"></path>
                    <path d="M28.2173913,41.744 L28.2173913,41.744 C28.2173913,42.4668929 27.6358261,43.0491071 26.9123478,43.0491071 C26.1902609,43.0491071 25.6086957,42.4668929 25.6086957,41.744 C25.6086957,41.0197143 26.1902609,40.4375 26.9123478,40.4375 C27.6358261,40.4375 28.2173913,41.0197143 28.2173913,41.744 Z" id="Fill-79"></path>
                    <path d="M28.2173913,45.3988571 L28.2173913,45.3988571 C28.2173913,46.1231429 27.6358261,46.7053571 26.9123478,46.7053571 C26.1902609,46.7053571 25.6086957,46.1231429 25.6086957,45.3988571 C25.6086957,44.6759643 26.1902609,44.09375 26.9123478,44.09375 C27.6358261,44.09375 28.2173913,44.6759643 28.2173913,45.3988571 Z" id="Fill-80"></path>
                    <path d="M28.2173913,49.0565 L28.2173913,49.0565 C28.2173913,49.7793929 27.6358261,50.3616071 26.9123478,50.3616071 C26.1902609,50.3616071 25.6086957,49.7793929 25.6086957,49.0565 C25.6086957,48.3322143 26.1902609,47.75 26.9123478,47.75 C27.6358261,47.75 28.2173913,48.3322143 28.2173913,49.0565 Z" id="Fill-81"></path>
                    <path d="M28.2173913,52.7113571 L28.2173913,52.7113571 C28.2173913,53.4356429 27.6358261,54.0178571 26.9123478,54.0178571 C26.1902609,54.0178571 25.6086957,53.4356429 25.6086957,52.7113571 C25.6086957,51.9884643 26.1902609,51.40625 26.9123478,51.40625 C27.6358261,51.40625 28.2173913,51.9884643 28.2173913,52.7113571 Z" id="Fill-82"></path>
                    <path d="M28.2173913,56.369 L28.2173913,56.369 C28.2173913,57.0918929 27.6358261,57.6741071 26.9123478,57.6741071 C26.1902609,57.6741071 25.6086957,57.0918929 25.6086957,56.369 C25.6086957,55.6447143 26.1902609,55.0625 26.9123478,55.0625 C27.6358261,55.0625 28.2173913,55.6447143 28.2173913,56.369 Z" id="Fill-83"></path>
                    <path d="M28.2173913,60.0238571 L28.2173913,60.0238571 C28.2173913,60.7481429 27.6358261,61.3303571 26.9123478,61.3303571 C26.1902609,61.3303571 25.6086957,60.7481429 25.6086957,60.0238571 C25.6086957,59.3009643 26.1902609,58.71875 26.9123478,58.71875 C27.6358261,58.71875 28.2173913,59.3009643 28.2173913,60.0238571 Z" id="Fill-84"></path>
                    <path d="M28.2173913,63.6815 L28.2173913,63.6815 C28.2173913,64.4043929 27.6358261,64.9866071 26.9123478,64.9866071 C26.1902609,64.9866071 25.6086957,64.4043929 25.6086957,63.6815 C25.6086957,62.9572143 26.1902609,62.375 26.9123478,62.375 C27.6358261,62.375 28.2173913,62.9572143 28.2173913,63.6815 Z" id="Fill-85"></path>
                    <path d="M31.8695652,19.8065 L31.8695652,19.8065 C31.8695652,20.5293929 31.288,21.1116071 30.565913,21.1116071 C29.8424348,21.1116071 29.2608696,20.5293929 29.2608696,19.8065 C29.2608696,19.0822143 29.8424348,18.5 30.565913,18.5 C31.288,18.5 31.8695652,19.0822143 31.8695652,19.8065 Z" id="Fill-86"></path>
                    <path d="M31.8695652,23.4613571 L31.8695652,23.4613571 C31.8695652,24.1856429 31.288,24.7678571 30.565913,24.7678571 C29.8424348,24.7678571 29.2608696,24.1856429 29.2608696,23.4613571 C29.2608696,22.7384643 29.8424348,22.15625 30.565913,22.15625 C31.288,22.15625 31.8695652,22.7384643 31.8695652,23.4613571 Z" id="Fill-87"></path>
                    <path d="M31.8695652,30.7738571 L31.8695652,30.7738571 C31.8695652,31.4981429 31.288,32.0803571 30.565913,32.0803571 C29.8424348,32.0803571 29.2608696,31.4981429 29.2608696,30.7738571 C29.2608696,30.0509643 29.8424348,29.46875 30.565913,29.46875 C31.288,29.46875 31.8695652,30.0509643 31.8695652,30.7738571 Z" id="Fill-88"></path>
                    <path d="M31.8695652,34.4315 L31.8695652,34.4315 C31.8695652,35.1543929 31.288,35.7366071 30.565913,35.7366071 C29.8424348,35.7366071 29.2608696,35.1543929 29.2608696,34.4315 C29.2608696,33.7072143 29.8424348,33.125 30.565913,33.125 C31.288,33.125 31.8695652,33.7072143 31.8695652,34.4315 Z" id="Fill-89"></path>
                    <path d="M31.8695652,38.0863571 L31.8695652,38.0863571 C31.8695652,38.8106429 31.288,39.3928571 30.565913,39.3928571 C29.8424348,39.3928571 29.2608696,38.8106429 29.2608696,38.0863571 C29.2608696,37.3634643 29.8424348,36.78125 30.565913,36.78125 C31.288,36.78125 31.8695652,37.3634643 31.8695652,38.0863571 Z" id="Fill-90"></path>
                    <path d="M31.8695652,41.744 L31.8695652,41.744 C31.8695652,42.4668929 31.288,43.0491071 30.565913,43.0491071 C29.8424348,43.0491071 29.2608696,42.4668929 29.2608696,41.744 C29.2608696,41.0197143 29.8424348,40.4375 30.565913,40.4375 C31.288,40.4375 31.8695652,41.0197143 31.8695652,41.744 Z" id="Fill-91"></path>
                    <path d="M31.8695652,45.3988571 L31.8695652,45.3988571 C31.8695652,46.1231429 31.288,46.7053571 30.565913,46.7053571 C29.8424348,46.7053571 29.2608696,46.1231429 29.2608696,45.3988571 C29.2608696,44.6759643 29.8424348,44.09375 30.565913,44.09375 C31.288,44.09375 31.8695652,44.6759643 31.8695652,45.3988571 Z" id="Fill-92"></path>
                    <path d="M31.8695652,49.0565 L31.8695652,49.0565 C31.8695652,49.7793929 31.288,50.3616071 30.565913,50.3616071 C29.8424348,50.3616071 29.2608696,49.7793929 29.2608696,49.0565 C29.2608696,48.3322143 29.8424348,47.75 30.565913,47.75 C31.288,47.75 31.8695652,48.3322143 31.8695652,49.0565 Z" id="Fill-93"></path>
                    <path d="M31.8695652,52.7113571 L31.8695652,52.7113571 C31.8695652,53.4356429 31.288,54.0178571 30.565913,54.0178571 C29.8424348,54.0178571 29.2608696,53.4356429 29.2608696,52.7113571 C29.2608696,51.9884643 29.8424348,51.40625 30.565913,51.40625 C31.288,51.40625 31.8695652,51.9884643 31.8695652,52.7113571 Z" id="Fill-94"></path>
                    <path d="M31.8695652,56.369 L31.8695652,56.369 C31.8695652,57.0918929 31.288,57.6741071 30.565913,57.6741071 C29.8424348,57.6741071 29.2608696,57.0918929 29.2608696,56.369 C29.2608696,55.6447143 29.8424348,55.0625 30.565913,55.0625 C31.288,55.0625 31.8695652,55.6447143 31.8695652,56.369 Z" id="Fill-95"></path>
                    <path d="M31.8695652,60.0238571 L31.8695652,60.0238571 C31.8695652,60.7481429 31.288,61.3303571 30.565913,61.3303571 C29.8424348,61.3303571 29.2608696,60.7481429 29.2608696,60.0238571 C29.2608696,59.3009643 29.8424348,58.71875 30.565913,58.71875 C31.288,58.71875 31.8695652,59.3009643 31.8695652,60.0238571 Z" id="Fill-96"></path>
                    <path d="M31.8695652,63.6815 L31.8695652,63.6815 C31.8695652,64.4043929 31.288,64.9866071 30.565913,64.9866071 C29.8424348,64.9866071 29.2608696,64.4043929 29.2608696,63.6815 C29.2608696,62.9572143 29.8424348,62.375 30.565913,62.375 C31.288,62.375 31.8695652,62.9572143 31.8695652,63.6815 Z" id="Fill-97"></path>
                    <path d="M35.5217391,8.83635714 L35.5217391,8.83635714 C35.5217391,9.56064286 34.9401739,10.1428571 34.2166957,10.1428571 C33.4946087,10.1428571 32.9130435,9.56064286 32.9130435,8.83635714 C32.9130435,8.11346429 33.4946087,7.53125 34.2166957,7.53125 C34.9401739,7.53125 35.5217391,8.11346429 35.5217391,8.83635714 Z" id="Fill-98"></path>
                    <path d="M35.5217391,12.494 L35.5217391,12.494 C35.5217391,13.2168929 34.9401739,13.7991071 34.2166957,13.7991071 C33.4946087,13.7991071 32.9130435,13.2168929 32.9130435,12.494 C32.9130435,11.7697143 33.4946087,11.1875 34.2166957,11.1875 C34.9401739,11.1875 35.5217391,11.7697143 35.5217391,12.494 Z" id="Fill-99"></path>
                    <path d="M35.5217391,16.1488571 L35.5217391,16.1488571 C35.5217391,16.8731429 34.9401739,17.4553571 34.2166957,17.4553571 C33.4946087,17.4553571 32.9130435,16.8731429 32.9130435,16.1488571 C32.9130435,15.4259643 33.4946087,14.84375 34.2166957,14.84375 C34.9401739,14.84375 35.5217391,15.4259643 35.5217391,16.1488571 Z" id="Fill-100"></path>
                    <path d="M35.5217391,19.8065 L35.5217391,19.8065 C35.5217391,20.5293929 34.9401739,21.1116071 34.2166957,21.1116071 C33.4946087,21.1116071 32.9130435,20.5293929 32.9130435,19.8065 C32.9130435,19.0822143 33.4946087,18.5 34.2166957,18.5 C34.9401739,18.5 35.5217391,19.0822143 35.5217391,19.8065 Z" id="Fill-101"></path>
                    <path d="M35.5217391,23.4613571 L35.5217391,23.4613571 C35.5217391,24.1856429 34.9401739,24.7678571 34.2166957,24.7678571 C33.4946087,24.7678571 32.9130435,24.1856429 32.9130435,23.4613571 C32.9130435,22.7384643 33.4946087,22.15625 34.2166957,22.15625 C34.9401739,22.15625 35.5217391,22.7384643 35.5217391,23.4613571 Z" id="Fill-102"></path>
                    <path d="M35.5217391,27.119 L35.5217391,27.119 C35.5217391,27.8418929 34.9401739,28.4241071 34.2166957,28.4241071 C33.4946087,28.4241071 32.9130435,27.8418929 32.9130435,27.119 C32.9130435,26.3947143 33.4946087,25.8125 34.2166957,25.8125 C34.9401739,25.8125 35.5217391,26.3947143 35.5217391,27.119 Z" id="Fill-103"></path>
                    <path d="M35.5217391,30.7738571 L35.5217391,30.7738571 C35.5217391,31.4981429 34.9401739,32.0803571 34.2166957,32.0803571 C33.4946087,32.0803571 32.9130435,31.4981429 32.9130435,30.7738571 C32.9130435,30.0509643 33.4946087,29.46875 34.2166957,29.46875 C34.9401739,29.46875 35.5217391,30.0509643 35.5217391,30.7738571 Z" id="Fill-104"></path>
                    <path d="M35.5217391,34.4315 L35.5217391,34.4315 C35.5217391,35.1543929 34.9401739,35.7366071 34.2166957,35.7366071 C33.4946087,35.7366071 32.9130435,35.1543929 32.9130435,34.4315 C32.9130435,33.7072143 33.4946087,33.125 34.2166957,33.125 C34.9401739,33.125 35.5217391,33.7072143 35.5217391,34.4315 Z" id="Fill-105"></path>
                    <path d="M35.5217391,38.0863571 L35.5217391,38.0863571 C35.5217391,38.8106429 34.9401739,39.3928571 34.2166957,39.3928571 C33.4946087,39.3928571 32.9130435,38.8106429 32.9130435,38.0863571 C32.9130435,37.3634643 33.4946087,36.78125 34.2166957,36.78125 C34.9401739,36.78125 35.5217391,37.3634643 35.5217391,38.0863571 Z" id="Fill-106"></path>
                    <path d="M35.5217391,41.744 L35.5217391,41.744 C35.5217391,42.4668929 34.9401739,43.0491071 34.2166957,43.0491071 C33.4946087,43.0491071 32.9130435,42.4668929 32.9130435,41.744 C32.9130435,41.0197143 33.4946087,40.4375 34.2166957,40.4375 C34.9401739,40.4375 35.5217391,41.0197143 35.5217391,41.744 Z" id="Fill-107"></path>
                    <path d="M35.5217391,45.3988571 L35.5217391,45.3988571 C35.5217391,46.1231429 34.9401739,46.7053571 34.2166957,46.7053571 C33.4946087,46.7053571 32.9130435,46.1231429 32.9130435,45.3988571 C32.9130435,44.6759643 33.4946087,44.09375 34.2166957,44.09375 C34.9401739,44.09375 35.5217391,44.6759643 35.5217391,45.3988571 Z" id="Fill-108"></path>
                    <path d="M35.5217391,49.0565 L35.5217391,49.0565 C35.5217391,49.7793929 34.9401739,50.3616071 34.2166957,50.3616071 C33.4946087,50.3616071 32.9130435,49.7793929 32.9130435,49.0565 C32.9130435,48.3322143 33.4946087,47.75 34.2166957,47.75 C34.9401739,47.75 35.5217391,48.3322143 35.5217391,49.0565 Z" id="Fill-109"></path>
                    <path d="M35.5217391,52.7113571 L35.5217391,52.7113571 C35.5217391,53.4356429 34.9401739,54.0178571 34.2166957,54.0178571 C33.4946087,54.0178571 32.9130435,53.4356429 32.9130435,52.7113571 C32.9130435,51.9884643 33.4946087,51.40625 34.2166957,51.40625 C34.9401739,51.40625 35.5217391,51.9884643 35.5217391,52.7113571 Z" id="Fill-110"></path>
                    <path d="M35.5217391,56.369 L35.5217391,56.369 C35.5217391,57.0918929 34.9401739,57.6741071 34.2166957,57.6741071 C33.4946087,57.6741071 32.9130435,57.0918929 32.9130435,56.369 C32.9130435,55.6447143 33.4946087,55.0625 34.2166957,55.0625 C34.9401739,55.0625 35.5217391,55.6447143 35.5217391,56.369 Z" id="Fill-111"></path>
                    <path d="M35.5217391,60.0238571 L35.5217391,60.0238571 C35.5217391,60.7481429 34.9401739,61.3303571 34.2166957,61.3303571 C33.4946087,61.3303571 32.9130435,60.7481429 32.9130435,60.0238571 C32.9130435,59.3009643 33.4946087,58.71875 34.2166957,58.71875 C34.9401739,58.71875 35.5217391,59.3009643 35.5217391,60.0238571 Z" id="Fill-112"></path>
                    <path d="M35.5217391,63.6815 L35.5217391,63.6815 C35.5217391,64.4043929 34.9401739,64.9866071 34.2166957,64.9866071 C33.4946087,64.9866071 32.9130435,64.4043929 32.9130435,63.6815 C32.9130435,62.9572143 33.4946087,62.375 34.2166957,62.375 C34.9401739,62.375 35.5217391,62.9572143 35.5217391,63.6815 Z" id="Fill-113"></path>
                    <path d="M39.173913,5.1815 L39.173913,5.1815 C39.173913,5.90439286 38.5923478,6.48660714 37.8702609,6.48660714 C37.1467826,6.48660714 36.5652174,5.90439286 36.5652174,5.1815 C36.5652174,4.45721429 37.1467826,3.875 37.8702609,3.875 C38.5923478,3.875 39.173913,4.45721429 39.173913,5.1815 Z" id="Fill-114"></path>
                    <path d="M39.173913,12.494 L39.173913,12.494 C39.173913,13.2168929 38.5923478,13.7991071 37.8702609,13.7991071 C37.1467826,13.7991071 36.5652174,13.2168929 36.5652174,12.494 C36.5652174,11.7697143 37.1467826,11.1875 37.8702609,11.1875 C38.5923478,11.1875 39.173913,11.7697143 39.173913,12.494 Z" id="Fill-115"></path>
                    <path d="M39.173913,23.4613571 L39.173913,23.4613571 C39.173913,24.1856429 38.5923478,24.7678571 37.8702609,24.7678571 C37.1467826,24.7678571 36.5652174,24.1856429 36.5652174,23.4613571 C36.5652174,22.7384643 37.1467826,22.15625 37.8702609,22.15625 C38.5923478,22.15625 39.173913,22.7384643 39.173913,23.4613571 Z" id="Fill-116"></path>
                    <path d="M39.173913,30.7738571 L39.173913,30.7738571 C39.173913,31.4981429 38.5923478,32.0803571 37.8702609,32.0803571 C37.1467826,32.0803571 36.5652174,31.4981429 36.5652174,30.7738571 C36.5652174,30.0509643 37.1467826,29.46875 37.8702609,29.46875 C38.5923478,29.46875 39.173913,30.0509643 39.173913,30.7738571 Z" id="Fill-117"></path>
                    <path d="M39.173913,34.4315 L39.173913,34.4315 C39.173913,35.1543929 38.5923478,35.7366071 37.8702609,35.7366071 C37.1467826,35.7366071 36.5652174,35.1543929 36.5652174,34.4315 C36.5652174,33.7072143 37.1467826,33.125 37.8702609,33.125 C38.5923478,33.125 39.173913,33.7072143 39.173913,34.4315 Z" id="Fill-118"></path>
                    <path d="M39.173913,38.0863571 L39.173913,38.0863571 C39.173913,38.8106429 38.5923478,39.3928571 37.8702609,39.3928571 C37.1467826,39.3928571 36.5652174,38.8106429 36.5652174,38.0863571 C36.5652174,37.3634643 37.1467826,36.78125 37.8702609,36.78125 C38.5923478,36.78125 39.173913,37.3634643 39.173913,38.0863571 Z" id="Fill-119"></path>
                    <path d="M39.173913,41.744 L39.173913,41.744 C39.173913,42.4668929 38.5923478,43.0491071 37.8702609,43.0491071 C37.1467826,43.0491071 36.5652174,42.4668929 36.5652174,41.744 C36.5652174,41.0197143 37.1467826,40.4375 37.8702609,40.4375 C38.5923478,40.4375 39.173913,41.0197143 39.173913,41.744 Z" id="Fill-120"></path>
                    <path d="M39.173913,45.3988571 L39.173913,45.3988571 C39.173913,46.1231429 38.5923478,46.7053571 37.8702609,46.7053571 C37.1467826,46.7053571 36.5652174,46.1231429 36.5652174,45.3988571 C36.5652174,44.6759643 37.1467826,44.09375 37.8702609,44.09375 C38.5923478,44.09375 39.173913,44.6759643 39.173913,45.3988571 Z" id="Fill-121"></path>
                    <path d="M39.173913,49.0565 L39.173913,49.0565 C39.173913,49.7793929 38.5923478,50.3616071 37.8702609,50.3616071 C37.1467826,50.3616071 36.5652174,49.7793929 36.5652174,49.0565 C36.5652174,48.3322143 37.1467826,47.75 37.8702609,47.75 C38.5923478,47.75 39.173913,48.3322143 39.173913,49.0565 Z" id="Fill-122"></path>
                    <path d="M39.173913,52.7113571 L39.173913,52.7113571 C39.173913,53.4356429 38.5923478,54.0178571 37.8702609,54.0178571 C37.1467826,54.0178571 36.5652174,53.4356429 36.5652174,52.7113571 C36.5652174,51.9884643 37.1467826,51.40625 37.8702609,51.40625 C38.5923478,51.40625 39.173913,51.9884643 39.173913,52.7113571 Z" id="Fill-123"></path>
                    <path d="M39.173913,56.369 L39.173913,56.369 C39.173913,57.0918929 38.5923478,57.6741071 37.8702609,57.6741071 C37.1467826,57.6741071 36.5652174,57.0918929 36.5652174,56.369 C36.5652174,55.6447143 37.1467826,55.0625 37.8702609,55.0625 C38.5923478,55.0625 39.173913,55.6447143 39.173913,56.369 Z" id="Fill-124"></path>
                    <path d="M39.173913,60.0238571 L39.173913,60.0238571 C39.173913,60.7481429 38.5923478,61.3303571 37.8702609,61.3303571 C37.1467826,61.3303571 36.5652174,60.7481429 36.5652174,60.0238571 C36.5652174,59.3009643 37.1467826,58.71875 37.8702609,58.71875 C38.5923478,58.71875 39.173913,59.3009643 39.173913,60.0238571 Z" id="Fill-125"></path>
                    <path d="M39.173913,63.6815 L39.173913,63.6815 C39.173913,64.4043929 38.5923478,64.9866071 37.8702609,64.9866071 C37.1467826,64.9866071 36.5652174,64.4043929 36.5652174,63.6815 C36.5652174,62.9572143 37.1467826,62.375 37.8702609,62.375 C38.5923478,62.375 39.173913,62.9572143 39.173913,63.6815 Z" id="Fill-126"></path>
                    <path d="M42.826087,5.1815 L42.826087,5.1815 C42.826087,5.90439286 42.2445217,6.48660714 41.5210435,6.48660714 C40.7989565,6.48660714 40.2173913,5.90439286 40.2173913,5.1815 C40.2173913,4.45721429 40.7989565,3.875 41.5210435,3.875 C42.2445217,3.875 42.826087,4.45721429 42.826087,5.1815 Z" id="Fill-127"></path>
                    <path d="M42.826087,8.83635714 L42.826087,8.83635714 C42.826087,9.56064286 42.2445217,10.1428571 41.5210435,10.1428571 C40.7989565,10.1428571 40.2173913,9.56064286 40.2173913,8.83635714 C40.2173913,8.11346429 40.7989565,7.53125 41.5210435,7.53125 C42.2445217,7.53125 42.826087,8.11346429 42.826087,8.83635714 Z" id="Fill-128"></path>
                    <path d="M42.826087,23.4613571 L42.826087,23.4613571 C42.826087,24.1856429 42.2445217,24.7678571 41.5210435,24.7678571 C40.7989565,24.7678571 40.2173913,24.1856429 40.2173913,23.4613571 C40.2173913,22.7384643 40.7989565,22.15625 41.5210435,22.15625 C42.2445217,22.15625 42.826087,22.7384643 42.826087,23.4613571 Z" id="Fill-129"></path>
                    <path d="M42.826087,27.119 L42.826087,27.119 C42.826087,27.8418929 42.2445217,28.4241071 41.5210435,28.4241071 C40.7989565,28.4241071 40.2173913,27.8418929 40.2173913,27.119 C40.2173913,26.3947143 40.7989565,25.8125 41.5210435,25.8125 C42.2445217,25.8125 42.826087,26.3947143 42.826087,27.119 Z" id="Fill-130"></path>
                    <path d="M42.826087,30.7738571 L42.826087,30.7738571 C42.826087,31.4981429 42.2445217,32.0803571 41.5210435,32.0803571 C40.7989565,32.0803571 40.2173913,31.4981429 40.2173913,30.7738571 C40.2173913,30.0509643 40.7989565,29.46875 41.5210435,29.46875 C42.2445217,29.46875 42.826087,30.0509643 42.826087,30.7738571 Z" id="Fill-131"></path>
                    <path d="M42.826087,34.4315 L42.826087,34.4315 C42.826087,35.1543929 42.2445217,35.7366071 41.5210435,35.7366071 C40.7989565,35.7366071 40.2173913,35.1543929 40.2173913,34.4315 C40.2173913,33.7072143 40.7989565,33.125 41.5210435,33.125 C42.2445217,33.125 42.826087,33.7072143 42.826087,34.4315 Z" id="Fill-132"></path>
                    <path d="M42.826087,38.0863571 L42.826087,38.0863571 C42.826087,38.8106429 42.2445217,39.3928571 41.5210435,39.3928571 C40.7989565,39.3928571 40.2173913,38.8106429 40.2173913,38.0863571 C40.2173913,37.3634643 40.7989565,36.78125 41.5210435,36.78125 C42.2445217,36.78125 42.826087,37.3634643 42.826087,38.0863571 Z" id="Fill-133"></path>
                    <path d="M42.826087,41.744 L42.826087,41.744 C42.826087,42.4668929 42.2445217,43.0491071 41.5210435,43.0491071 C40.7989565,43.0491071 40.2173913,42.4668929 40.2173913,41.744 C40.2173913,41.0197143 40.7989565,40.4375 41.5210435,40.4375 C42.2445217,40.4375 42.826087,41.0197143 42.826087,41.744 Z" id="Fill-134"></path>
                    <path d="M42.826087,45.3988571 L42.826087,45.3988571 C42.826087,46.1231429 42.2445217,46.7053571 41.5210435,46.7053571 C40.7989565,46.7053571 40.2173913,46.1231429 40.2173913,45.3988571 C40.2173913,44.6759643 40.7989565,44.09375 41.5210435,44.09375 C42.2445217,44.09375 42.826087,44.6759643 42.826087,45.3988571 Z" id="Fill-135"></path>
                    <path d="M42.826087,49.0565 L42.826087,49.0565 C42.826087,49.7793929 42.2445217,50.3616071 41.5210435,50.3616071 C40.7989565,50.3616071 40.2173913,49.7793929 40.2173913,49.0565 C40.2173913,48.3322143 40.7989565,47.75 41.5210435,47.75 C42.2445217,47.75 42.826087,48.3322143 42.826087,49.0565 Z" id="Fill-136"></path>
                    <path d="M42.826087,52.7113571 L42.826087,52.7113571 C42.826087,53.4356429 42.2445217,54.0178571 41.5210435,54.0178571 C40.7989565,54.0178571 40.2173913,53.4356429 40.2173913,52.7113571 C40.2173913,51.9884643 40.7989565,51.40625 41.5210435,51.40625 C42.2445217,51.40625 42.826087,51.9884643 42.826087,52.7113571 Z" id="Fill-137"></path>
                    <path d="M42.826087,56.369 L42.826087,56.369 C42.826087,57.0918929 42.2445217,57.6741071 41.5210435,57.6741071 C40.7989565,57.6741071 40.2173913,57.0918929 40.2173913,56.369 C40.2173913,55.6447143 40.7989565,55.0625 41.5210435,55.0625 C42.2445217,55.0625 42.826087,55.6447143 42.826087,56.369 Z" id="Fill-138"></path>
                    <path d="M42.826087,60.0238571 L42.826087,60.0238571 C42.826087,60.7481429 42.2445217,61.3303571 41.5210435,61.3303571 C40.7989565,61.3303571 40.2173913,60.7481429 40.2173913,60.0238571 C40.2173913,59.3009643 40.7989565,58.71875 41.5210435,58.71875 C42.2445217,58.71875 42.826087,59.3009643 42.826087,60.0238571 Z" id="Fill-139"></path>
                    <path d="M42.826087,63.6815 L42.826087,63.6815 C42.826087,64.4043929 42.2445217,64.9866071 41.5210435,64.9866071 C40.7989565,64.9866071 40.2173913,64.4043929 40.2173913,63.6815 C40.2173913,62.9572143 40.7989565,62.375 41.5210435,62.375 C42.2445217,62.375 42.826087,62.9572143 42.826087,63.6815 Z" id="Fill-140"></path>
                    <path d="M46.4782609,1.52385714 L46.4782609,1.52385714 C46.4782609,2.24814286 45.8966957,2.83035714 45.1746087,2.83035714 C44.4511304,2.83035714 43.8695652,2.24814286 43.8695652,1.52385714 C43.8695652,0.800964286 44.4511304,0.21875 45.1746087,0.21875 C45.8966957,0.21875 46.4782609,0.800964286 46.4782609,1.52385714 Z" id="Fill-141"></path>
                    <path d="M46.4782609,5.1815 L46.4782609,5.1815 C46.4782609,5.90439286 45.8966957,6.48660714 45.1746087,6.48660714 C44.4511304,6.48660714 43.8695652,5.90439286 43.8695652,5.1815 C43.8695652,4.45721429 44.4511304,3.875 45.1746087,3.875 C45.8966957,3.875 46.4782609,4.45721429 46.4782609,5.1815 Z" id="Fill-142"></path>
                    <path d="M46.4782609,8.83635714 L46.4782609,8.83635714 C46.4782609,9.56064286 45.8966957,10.1428571 45.1746087,10.1428571 C44.4511304,10.1428571 43.8695652,9.56064286 43.8695652,8.83635714 C43.8695652,8.11346429 44.4511304,7.53125 45.1746087,7.53125 C45.8966957,7.53125 46.4782609,8.11346429 46.4782609,8.83635714 Z" id="Fill-143"></path>
                    <path d="M46.4782609,12.494 L46.4782609,12.494 C46.4782609,13.2168929 45.8966957,13.7991071 45.1746087,13.7991071 C44.4511304,13.7991071 43.8695652,13.2168929 43.8695652,12.494 C43.8695652,11.7697143 44.4511304,11.1875 45.1746087,11.1875 C45.8966957,11.1875 46.4782609,11.7697143 46.4782609,12.494 Z" id="Fill-144"></path>
                    <path d="M46.4782609,16.1488571 L46.4782609,16.1488571 C46.4782609,16.8731429 45.8966957,17.4553571 45.1746087,17.4553571 C44.4511304,17.4553571 43.8695652,16.8731429 43.8695652,16.1488571 C43.8695652,15.4259643 44.4511304,14.84375 45.1746087,14.84375 C45.8966957,14.84375 46.4782609,15.4259643 46.4782609,16.1488571 Z" id="Fill-145"></path>
                    <path d="M46.4782609,19.8065 L46.4782609,19.8065 C46.4782609,20.5293929 45.8966957,21.1116071 45.1746087,21.1116071 C44.4511304,21.1116071 43.8695652,20.5293929 43.8695652,19.8065 C43.8695652,19.0822143 44.4511304,18.5 45.1746087,18.5 C45.8966957,18.5 46.4782609,19.0822143 46.4782609,19.8065 Z" id="Fill-146"></path>
                    <path d="M46.4782609,27.119 L46.4782609,27.119 C46.4782609,27.8418929 45.8966957,28.4241071 45.1746087,28.4241071 C44.4511304,28.4241071 43.8695652,27.8418929 43.8695652,27.119 C43.8695652,26.3947143 44.4511304,25.8125 45.1746087,25.8125 C45.8966957,25.8125 46.4782609,26.3947143 46.4782609,27.119 Z" id="Fill-147"></path>
                    <path d="M46.4782609,30.7738571 L46.4782609,30.7738571 C46.4782609,31.4981429 45.8966957,32.0803571 45.1746087,32.0803571 C44.4511304,32.0803571 43.8695652,31.4981429 43.8695652,30.7738571 C43.8695652,30.0509643 44.4511304,29.46875 45.1746087,29.46875 C45.8966957,29.46875 46.4782609,30.0509643 46.4782609,30.7738571 Z" id="Fill-148"></path>
                    <path d="M46.4782609,34.4315 L46.4782609,34.4315 C46.4782609,35.1543929 45.8966957,35.7366071 45.1746087,35.7366071 C44.4511304,35.7366071 43.8695652,35.1543929 43.8695652,34.4315 C43.8695652,33.7072143 44.4511304,33.125 45.1746087,33.125 C45.8966957,33.125 46.4782609,33.7072143 46.4782609,34.4315 Z" id="Fill-149"></path>
                    <path d="M46.4782609,38.0863571 L46.4782609,38.0863571 C46.4782609,38.8106429 45.8966957,39.3928571 45.1746087,39.3928571 C44.4511304,39.3928571 43.8695652,38.8106429 43.8695652,38.0863571 C43.8695652,37.3634643 44.4511304,36.78125 45.1746087,36.78125 C45.8966957,36.78125 46.4782609,37.3634643 46.4782609,38.0863571 Z" id="Fill-150"></path>
                    <path d="M46.4782609,41.744 L46.4782609,41.744 C46.4782609,42.4668929 45.8966957,43.0491071 45.1746087,43.0491071 C44.4511304,43.0491071 43.8695652,42.4668929 43.8695652,41.744 C43.8695652,41.0197143 44.4511304,40.4375 45.1746087,40.4375 C45.8966957,40.4375 46.4782609,41.0197143 46.4782609,41.744 Z" id="Fill-151"></path>
                    <path d="M46.4782609,45.3988571 L46.4782609,45.3988571 C46.4782609,46.1231429 45.8966957,46.7053571 45.1746087,46.7053571 C44.4511304,46.7053571 43.8695652,46.1231429 43.8695652,45.3988571 C43.8695652,44.6759643 44.4511304,44.09375 45.1746087,44.09375 C45.8966957,44.09375 46.4782609,44.6759643 46.4782609,45.3988571 Z" id="Fill-152"></path>
                    <path d="M46.4782609,49.0565 L46.4782609,49.0565 C46.4782609,49.7793929 45.8966957,50.3616071 45.1746087,50.3616071 C44.4511304,50.3616071 43.8695652,49.7793929 43.8695652,49.0565 C43.8695652,48.3322143 44.4511304,47.75 45.1746087,47.75 C45.8966957,47.75 46.4782609,48.3322143 46.4782609,49.0565 Z" id="Fill-153"></path>
                    <path d="M46.4782609,52.7113571 L46.4782609,52.7113571 C46.4782609,53.4356429 45.8966957,54.0178571 45.1746087,54.0178571 C44.4511304,54.0178571 43.8695652,53.4356429 43.8695652,52.7113571 C43.8695652,51.9884643 44.4511304,51.40625 45.1746087,51.40625 C45.8966957,51.40625 46.4782609,51.9884643 46.4782609,52.7113571 Z" id="Fill-154"></path>
                    <path d="M46.4782609,56.369 L46.4782609,56.369 C46.4782609,57.0918929 45.8966957,57.6741071 45.1746087,57.6741071 C44.4511304,57.6741071 43.8695652,57.0918929 43.8695652,56.369 C43.8695652,55.6447143 44.4511304,55.0625 45.1746087,55.0625 C45.8966957,55.0625 46.4782609,55.6447143 46.4782609,56.369 Z" id="Fill-155"></path>
                    <path d="M46.4782609,60.0238571 L46.4782609,60.0238571 C46.4782609,60.7481429 45.8966957,61.3303571 45.1746087,61.3303571 C44.4511304,61.3303571 43.8695652,60.7481429 43.8695652,60.0238571 C43.8695652,59.3009643 44.4511304,58.71875 45.1746087,58.71875 C45.8966957,58.71875 46.4782609,59.3009643 46.4782609,60.0238571 Z" id="Fill-156"></path>
                    <path d="M46.4782609,63.6815 L46.4782609,63.6815 C46.4782609,64.4043929 45.8966957,64.9866071 45.1746087,64.9866071 C44.4511304,64.9866071 43.8695652,64.4043929 43.8695652,63.6815 C43.8695652,62.9572143 44.4511304,62.375 45.1746087,62.375 C45.8966957,62.375 46.4782609,62.9572143 46.4782609,63.6815 Z" id="Fill-157"></path>
                    <path d="M46.4782609,67.3363571 L46.4782609,67.3363571 C46.4782609,68.0606429 45.8966957,68.6428571 45.1746087,68.6428571 C44.4511304,68.6428571 43.8695652,68.0606429 43.8695652,67.3363571 C43.8695652,66.6134643 44.4511304,66.03125 45.1746087,66.03125 C45.8966957,66.03125 46.4782609,66.6134643 46.4782609,67.3363571 Z" id="Fill-158"></path>
                    <path d="M50.1304348,1.52385714 L50.1304348,1.52385714 C50.1304348,2.24814286 49.5488696,2.83035714 48.8253913,2.83035714 C48.1033043,2.83035714 47.5217391,2.24814286 47.5217391,1.52385714 C47.5217391,0.800964286 48.1033043,0.21875 48.8253913,0.21875 C49.5488696,0.21875 50.1304348,0.800964286 50.1304348,1.52385714 Z" id="Fill-159"></path>
                    <path d="M50.1304348,5.1815 L50.1304348,5.1815 C50.1304348,5.90439286 49.5488696,6.48660714 48.8253913,6.48660714 C48.1033043,6.48660714 47.5217391,5.90439286 47.5217391,5.1815 C47.5217391,4.45721429 48.1033043,3.875 48.8253913,3.875 C49.5488696,3.875 50.1304348,4.45721429 50.1304348,5.1815 Z" id="Fill-160"></path>
                    <path d="M50.1304348,8.83635714 L50.1304348,8.83635714 C50.1304348,9.56064286 49.5488696,10.1428571 48.8253913,10.1428571 C48.1033043,10.1428571 47.5217391,9.56064286 47.5217391,8.83635714 C47.5217391,8.11346429 48.1033043,7.53125 48.8253913,7.53125 C49.5488696,7.53125 50.1304348,8.11346429 50.1304348,8.83635714 Z" id="Fill-161"></path>
                    <path d="M50.1304348,12.494 L50.1304348,12.494 C50.1304348,13.2168929 49.5488696,13.7991071 48.8253913,13.7991071 C48.1033043,13.7991071 47.5217391,13.2168929 47.5217391,12.494 C47.5217391,11.7697143 48.1033043,11.1875 48.8253913,11.1875 C49.5488696,11.1875 50.1304348,11.7697143 50.1304348,12.494 Z" id="Fill-162"></path>
                    <path d="M50.1304348,16.1488571 L50.1304348,16.1488571 C50.1304348,16.8731429 49.5488696,17.4553571 48.8253913,17.4553571 C48.1033043,17.4553571 47.5217391,16.8731429 47.5217391,16.1488571 C47.5217391,15.4259643 48.1033043,14.84375 48.8253913,14.84375 C49.5488696,14.84375 50.1304348,15.4259643 50.1304348,16.1488571 Z" id="Fill-163"></path>
                    <path d="M50.1304348,19.8065 L50.1304348,19.8065 C50.1304348,20.5293929 49.5488696,21.1116071 48.8253913,21.1116071 C48.1033043,21.1116071 47.5217391,20.5293929 47.5217391,19.8065 C47.5217391,19.0822143 48.1033043,18.5 48.8253913,18.5 C49.5488696,18.5 50.1304348,19.0822143 50.1304348,19.8065 Z" id="Fill-164"></path>
                    <path d="M50.1304348,27.119 L50.1304348,27.119 C50.1304348,27.8418929 49.5488696,28.4241071 48.8253913,28.4241071 C48.1033043,28.4241071 47.5217391,27.8418929 47.5217391,27.119 C47.5217391,26.3947143 48.1033043,25.8125 48.8253913,25.8125 C49.5488696,25.8125 50.1304348,26.3947143 50.1304348,27.119 Z" id="Fill-165"></path>
                    <path d="M50.1304348,30.7738571 L50.1304348,30.7738571 C50.1304348,31.4981429 49.5488696,32.0803571 48.8253913,32.0803571 C48.1033043,32.0803571 47.5217391,31.4981429 47.5217391,30.7738571 C47.5217391,30.0509643 48.1033043,29.46875 48.8253913,29.46875 C49.5488696,29.46875 50.1304348,30.0509643 50.1304348,30.7738571 Z" id="Fill-166"></path>
                    <path d="M50.1304348,34.4315 L50.1304348,34.4315 C50.1304348,35.1543929 49.5488696,35.7366071 48.8253913,35.7366071 C48.1033043,35.7366071 47.5217391,35.1543929 47.5217391,34.4315 C47.5217391,33.7072143 48.1033043,33.125 48.8253913,33.125 C49.5488696,33.125 50.1304348,33.7072143 50.1304348,34.4315 Z" id="Fill-167"></path>
                    <path d="M50.1304348,49.0565 L50.1304348,49.0565 C50.1304348,49.7793929 49.5488696,50.3616071 48.8253913,50.3616071 C48.1033043,50.3616071 47.5217391,49.7793929 47.5217391,49.0565 C47.5217391,48.3322143 48.1033043,47.75 48.8253913,47.75 C49.5488696,47.75 50.1304348,48.3322143 50.1304348,49.0565 Z" id="Fill-168"></path>
                    <path d="M50.1304348,52.7113571 L50.1304348,52.7113571 C50.1304348,53.4356429 49.5488696,54.0178571 48.8253913,54.0178571 C48.1033043,54.0178571 47.5217391,53.4356429 47.5217391,52.7113571 C47.5217391,51.9884643 48.1033043,51.40625 48.8253913,51.40625 C49.5488696,51.40625 50.1304348,51.9884643 50.1304348,52.7113571 Z" id="Fill-169"></path>
                    <path d="M50.1304348,56.369 L50.1304348,56.369 C50.1304348,57.0918929 49.5488696,57.6741071 48.8253913,57.6741071 C48.1033043,57.6741071 47.5217391,57.0918929 47.5217391,56.369 C47.5217391,55.6447143 48.1033043,55.0625 48.8253913,55.0625 C49.5488696,55.0625 50.1304348,55.6447143 50.1304348,56.369 Z" id="Fill-170"></path>
                    <path d="M50.1304348,60.0238571 L50.1304348,60.0238571 C50.1304348,60.7481429 49.5488696,61.3303571 48.8253913,61.3303571 C48.1033043,61.3303571 47.5217391,60.7481429 47.5217391,60.0238571 C47.5217391,59.3009643 48.1033043,58.71875 48.8253913,58.71875 C49.5488696,58.71875 50.1304348,59.3009643 50.1304348,60.0238571 Z" id="Fill-171"></path>
                    <path d="M50.1304348,63.6815 L50.1304348,63.6815 C50.1304348,64.4043929 49.5488696,64.9866071 48.8253913,64.9866071 C48.1033043,64.9866071 47.5217391,64.4043929 47.5217391,63.6815 C47.5217391,62.9572143 48.1033043,62.375 48.8253913,62.375 C49.5488696,62.375 50.1304348,62.9572143 50.1304348,63.6815 Z" id="Fill-172"></path>
                    <path d="M50.1304348,67.3363571 L50.1304348,67.3363571 C50.1304348,68.0606429 49.5488696,68.6428571 48.8253913,68.6428571 C48.1033043,68.6428571 47.5217391,68.0606429 47.5217391,67.3363571 C47.5217391,66.6134643 48.1033043,66.03125 48.8253913,66.03125 C49.5488696,66.03125 50.1304348,66.6134643 50.1304348,67.3363571 Z" id="Fill-173"></path>
                    <path d="M53.7826087,16.1488571 L53.7826087,16.1488571 C53.7826087,16.8731429 53.2010435,17.4553571 52.4789565,17.4553571 C51.7554783,17.4553571 51.173913,16.8731429 51.173913,16.1488571 C51.173913,15.4259643 51.7554783,14.84375 52.4789565,14.84375 C53.2010435,14.84375 53.7826087,15.4259643 53.7826087,16.1488571 Z" id="Fill-174"></path>
                    <path d="M53.7826087,19.8065 L53.7826087,19.8065 C53.7826087,20.5293929 53.2010435,21.1116071 52.4789565,21.1116071 C51.7554783,21.1116071 51.173913,20.5293929 51.173913,19.8065 C51.173913,19.0822143 51.7554783,18.5 52.4789565,18.5 C53.2010435,18.5 53.7826087,19.0822143 53.7826087,19.8065 Z" id="Fill-175"></path>
                    <path d="M53.7826087,27.119 L53.7826087,27.119 C53.7826087,27.8418929 53.2010435,28.4241071 52.4789565,28.4241071 C51.7554783,28.4241071 51.173913,27.8418929 51.173913,27.119 C51.173913,26.3947143 51.7554783,25.8125 52.4789565,25.8125 C53.2010435,25.8125 53.7826087,26.3947143 53.7826087,27.119 Z" id="Fill-176"></path>
                    <path d="M53.7826087,30.7738571 L53.7826087,30.7738571 C53.7826087,31.4981429 53.2010435,32.0803571 52.4789565,32.0803571 C51.7554783,32.0803571 51.173913,31.4981429 51.173913,30.7738571 C51.173913,30.0509643 51.7554783,29.46875 52.4789565,29.46875 C53.2010435,29.46875 53.7826087,30.0509643 53.7826087,30.7738571 Z" id="Fill-177"></path>
                    <path d="M53.7826087,52.7113571 L53.7826087,52.7113571 C53.7826087,53.4356429 53.2010435,54.0178571 52.4789565,54.0178571 C51.7554783,54.0178571 51.173913,53.4356429 51.173913,52.7113571 C51.173913,51.9884643 51.7554783,51.40625 52.4789565,51.40625 C53.2010435,51.40625 53.7826087,51.9884643 53.7826087,52.7113571 Z" id="Fill-178"></path>
                    <path d="M53.7826087,56.369 L53.7826087,56.369 C53.7826087,57.0918929 53.2010435,57.6741071 52.4789565,57.6741071 C51.7554783,57.6741071 51.173913,57.0918929 51.173913,56.369 C51.173913,55.6447143 51.7554783,55.0625 52.4789565,55.0625 C53.2010435,55.0625 53.7826087,55.6447143 53.7826087,56.369 Z" id="Fill-179"></path>
                    <path d="M53.7826087,60.0238571 L53.7826087,60.0238571 C53.7826087,60.7481429 53.2010435,61.3303571 52.4789565,61.3303571 C51.7554783,61.3303571 51.173913,60.7481429 51.173913,60.0238571 C51.173913,59.3009643 51.7554783,58.71875 52.4789565,58.71875 C53.2010435,58.71875 53.7826087,59.3009643 53.7826087,60.0238571 Z" id="Fill-180"></path>
                    <path d="M53.7826087,63.6815 L53.7826087,63.6815 C53.7826087,64.4043929 53.2010435,64.9866071 52.4789565,64.9866071 C51.7554783,64.9866071 51.173913,64.4043929 51.173913,63.6815 C51.173913,62.9572143 51.7554783,62.375 52.4789565,62.375 C53.2010435,62.375 53.7826087,62.9572143 53.7826087,63.6815 Z" id="Fill-181"></path>
                    <path d="M53.7826087,67.3363571 L53.7826087,67.3363571 C53.7826087,68.0606429 53.2010435,68.6428571 52.4789565,68.6428571 C51.7554783,68.6428571 51.173913,68.0606429 51.173913,67.3363571 C51.173913,66.6134643 51.7554783,66.03125 52.4789565,66.03125 C53.2010435,66.03125 53.7826087,66.6134643 53.7826087,67.3363571 Z" id="Fill-182"></path>
                    <path d="M57.4347826,19.8065 L57.4347826,19.8065 C57.4347826,20.5293929 56.8532174,21.1116071 56.1297391,21.1116071 C55.4076522,21.1116071 54.826087,20.5293929 54.826087,19.8065 C54.826087,19.0822143 55.4076522,18.5 56.1297391,18.5 C56.8532174,18.5 57.4347826,19.0822143 57.4347826,19.8065 Z" id="Fill-183"></path>
                    <path d="M57.4347826,23.4613571 L57.4347826,23.4613571 C57.4347826,24.1856429 56.8532174,24.7678571 56.1297391,24.7678571 C55.4076522,24.7678571 54.826087,24.1856429 54.826087,23.4613571 C54.826087,22.7384643 55.4076522,22.15625 56.1297391,22.15625 C56.8532174,22.15625 57.4347826,22.7384643 57.4347826,23.4613571 Z" id="Fill-184"></path>
                    <path d="M57.4347826,30.7738571 L57.4347826,30.7738571 C57.4347826,31.4981429 56.8532174,32.0803571 56.1297391,32.0803571 C55.4076522,32.0803571 54.826087,31.4981429 54.826087,30.7738571 C54.826087,30.0509643 55.4076522,29.46875 56.1297391,29.46875 C56.8532174,29.46875 57.4347826,30.0509643 57.4347826,30.7738571 Z" id="Fill-185"></path>
                    <path d="M57.4347826,52.7113571 L57.4347826,52.7113571 C57.4347826,53.4356429 56.8532174,54.0178571 56.1297391,54.0178571 C55.4076522,54.0178571 54.826087,53.4356429 54.826087,52.7113571 C54.826087,51.9884643 55.4076522,51.40625 56.1297391,51.40625 C56.8532174,51.40625 57.4347826,51.9884643 57.4347826,52.7113571 Z" id="Fill-186"></path>
                    <path d="M57.4347826,56.369 L57.4347826,56.369 C57.4347826,57.0918929 56.8532174,57.6741071 56.1297391,57.6741071 C55.4076522,57.6741071 54.826087,57.0918929 54.826087,56.369 C54.826087,55.6447143 55.4076522,55.0625 56.1297391,55.0625 C56.8532174,55.0625 57.4347826,55.6447143 57.4347826,56.369 Z" id="Fill-187"></path>
                    <path d="M57.4347826,60.0238571 L57.4347826,60.0238571 C57.4347826,60.7481429 56.8532174,61.3303571 56.1297391,61.3303571 C55.4076522,61.3303571 54.826087,60.7481429 54.826087,60.0238571 C54.826087,59.3009643 55.4076522,58.71875 56.1297391,58.71875 C56.8532174,58.71875 57.4347826,59.3009643 57.4347826,60.0238571 Z" id="Fill-188"></path>
                    <path d="M57.4347826,63.6815 L57.4347826,63.6815 C57.4347826,64.4043929 56.8532174,64.9866071 56.1297391,64.9866071 C55.4076522,64.9866071 54.826087,64.4043929 54.826087,63.6815 C54.826087,62.9572143 55.4076522,62.375 56.1297391,62.375 C56.8532174,62.375 57.4347826,62.9572143 57.4347826,63.6815 Z" id="Fill-189"></path>
                    <path d="M57.4347826,67.3363571 L57.4347826,67.3363571 C57.4347826,68.0606429 56.8532174,68.6428571 56.1297391,68.6428571 C55.4076522,68.6428571 54.826087,68.0606429 54.826087,67.3363571 C54.826087,66.6134643 55.4076522,66.03125 56.1297391,66.03125 C56.8532174,66.03125 57.4347826,66.6134643 57.4347826,67.3363571 Z" id="Fill-190"></path>
                    <path d="M61.0869565,19.8065 L61.0869565,19.8065 C61.0869565,20.5293929 60.5053913,21.1116071 59.7833043,21.1116071 C59.0598261,21.1116071 58.4782609,20.5293929 58.4782609,19.8065 C58.4782609,19.0822143 59.0598261,18.5 59.7833043,18.5 C60.5053913,18.5 61.0869565,19.0822143 61.0869565,19.8065 Z" id="Fill-191"></path>
                    <path d="M61.0869565,23.4613571 L61.0869565,23.4613571 C61.0869565,24.1856429 60.5053913,24.7678571 59.7833043,24.7678571 C59.0598261,24.7678571 58.4782609,24.1856429 58.4782609,23.4613571 C58.4782609,22.7384643 59.0598261,22.15625 59.7833043,22.15625 C60.5053913,22.15625 61.0869565,22.7384643 61.0869565,23.4613571 Z" id="Fill-192"></path>
                    <path d="M61.0869565,27.119 L61.0869565,27.119 C61.0869565,27.8418929 60.5053913,28.4241071 59.7833043,28.4241071 C59.0598261,28.4241071 58.4782609,27.8418929 58.4782609,27.119 C58.4782609,26.3947143 59.0598261,25.8125 59.7833043,25.8125 C60.5053913,25.8125 61.0869565,26.3947143 61.0869565,27.119 Z" id="Fill-193"></path>
                    <path d="M61.0869565,30.7738571 L61.0869565,30.7738571 C61.0869565,31.4981429 60.5053913,32.0803571 59.7833043,32.0803571 C59.0598261,32.0803571 58.4782609,31.4981429 58.4782609,30.7738571 C58.4782609,30.0509643 59.0598261,29.46875 59.7833043,29.46875 C60.5053913,29.46875 61.0869565,30.0509643 61.0869565,30.7738571 Z" id="Fill-194"></path>
                    <path d="M61.0869565,38.0863571 L61.0869565,38.0863571 C61.0869565,38.8106429 60.5053913,39.3928571 59.7833043,39.3928571 C59.0598261,39.3928571 58.4782609,38.8106429 58.4782609,38.0863571 C58.4782609,37.3634643 59.0598261,36.78125 59.7833043,36.78125 C60.5053913,36.78125 61.0869565,37.3634643 61.0869565,38.0863571 Z" id="Fill-195"></path>
                    <path d="M61.0869565,41.744 L61.0869565,41.744 C61.0869565,42.4668929 60.5053913,43.0491071 59.7833043,43.0491071 C59.0598261,43.0491071 58.4782609,42.4668929 58.4782609,41.744 C58.4782609,41.0197143 59.0598261,40.4375 59.7833043,40.4375 C60.5053913,40.4375 61.0869565,41.0197143 61.0869565,41.744 Z" id="Fill-196"></path>
                    <path d="M61.0869565,45.3988571 L61.0869565,45.3988571 C61.0869565,46.1231429 60.5053913,46.7053571 59.7833043,46.7053571 C59.0598261,46.7053571 58.4782609,46.1231429 58.4782609,45.3988571 C58.4782609,44.6759643 59.0598261,44.09375 59.7833043,44.09375 C60.5053913,44.09375 61.0869565,44.6759643 61.0869565,45.3988571 Z" id="Fill-197"></path>
                    <path d="M61.0869565,52.7113571 L61.0869565,52.7113571 C61.0869565,53.4356429 60.5053913,54.0178571 59.7833043,54.0178571 C59.0598261,54.0178571 58.4782609,53.4356429 58.4782609,52.7113571 C58.4782609,51.9884643 59.0598261,51.40625 59.7833043,51.40625 C60.5053913,51.40625 61.0869565,51.9884643 61.0869565,52.7113571 Z" id="Fill-198"></path>
                    <path d="M61.0869565,56.369 L61.0869565,56.369 C61.0869565,57.0918929 60.5053913,57.6741071 59.7833043,57.6741071 C59.0598261,57.6741071 58.4782609,57.0918929 58.4782609,56.369 C58.4782609,55.6447143 59.0598261,55.0625 59.7833043,55.0625 C60.5053913,55.0625 61.0869565,55.6447143 61.0869565,56.369 Z" id="Fill-199"></path>
                    <path d="M61.0869565,60.0238571 L61.0869565,60.0238571 C61.0869565,60.7481429 60.5053913,61.3303571 59.7833043,61.3303571 C59.0598261,61.3303571 58.4782609,60.7481429 58.4782609,60.0238571 C58.4782609,59.3009643 59.0598261,58.71875 59.7833043,58.71875 C60.5053913,58.71875 61.0869565,59.3009643 61.0869565,60.0238571 Z" id="Fill-200"></path>
                    <path d="M61.0869565,63.6815 L61.0869565,63.6815 C61.0869565,64.4043929 60.5053913,64.9866071 59.7833043,64.9866071 C59.0598261,64.9866071 58.4782609,64.4043929 58.4782609,63.6815 C58.4782609,62.9572143 59.0598261,62.375 59.7833043,62.375 C60.5053913,62.375 61.0869565,62.9572143 61.0869565,63.6815 Z" id="Fill-201"></path>
                    <path d="M61.0869565,67.3363571 L61.0869565,67.3363571 C61.0869565,68.0606429 60.5053913,68.6428571 59.7833043,68.6428571 C59.0598261,68.6428571 58.4782609,68.0606429 58.4782609,67.3363571 C58.4782609,66.6134643 59.0598261,66.03125 59.7833043,66.03125 C60.5053913,66.03125 61.0869565,66.6134643 61.0869565,67.3363571 Z" id="Fill-202"></path>
                    <path d="M61.0869565,74.6488571 L61.0869565,74.6488571 C61.0869565,75.3731429 60.5053913,75.9553571 59.7833043,75.9553571 C59.0598261,75.9553571 58.4782609,75.3731429 58.4782609,74.6488571 C58.4782609,73.9259643 59.0598261,73.34375 59.7833043,73.34375 C60.5053913,73.34375 61.0869565,73.9259643 61.0869565,74.6488571 Z" id="Fill-203"></path>
                    <path d="M64.7391304,23.4613571 L64.7391304,23.4613571 C64.7391304,24.1856429 64.1575652,24.7678571 63.434087,24.7678571 C62.712,24.7678571 62.1304348,24.1856429 62.1304348,23.4613571 C62.1304348,22.7384643 62.712,22.15625 63.434087,22.15625 C64.1575652,22.15625 64.7391304,22.7384643 64.7391304,23.4613571 Z" id="Fill-204"></path>
                    <path d="M64.7391304,27.119 L64.7391304,27.119 C64.7391304,27.8418929 64.1575652,28.4241071 63.434087,28.4241071 C62.712,28.4241071 62.1304348,27.8418929 62.1304348,27.119 C62.1304348,26.3947143 62.712,25.8125 63.434087,25.8125 C64.1575652,25.8125 64.7391304,26.3947143 64.7391304,27.119 Z" id="Fill-205"></path>
                    <path d="M64.7391304,30.7738571 L64.7391304,30.7738571 C64.7391304,31.4981429 64.1575652,32.0803571 63.434087,32.0803571 C62.712,32.0803571 62.1304348,31.4981429 62.1304348,30.7738571 C62.1304348,30.0509643 62.712,29.46875 63.434087,29.46875 C64.1575652,29.46875 64.7391304,30.0509643 64.7391304,30.7738571 Z" id="Fill-206"></path>
                    <path d="M64.7391304,38.0863571 L64.7391304,38.0863571 C64.7391304,38.8106429 64.1575652,39.3928571 63.434087,39.3928571 C62.712,39.3928571 62.1304348,38.8106429 62.1304348,38.0863571 C62.1304348,37.3634643 62.712,36.78125 63.434087,36.78125 C64.1575652,36.78125 64.7391304,37.3634643 64.7391304,38.0863571 Z" id="Fill-207"></path>
                    <path d="M64.7391304,41.744 L64.7391304,41.744 C64.7391304,42.4668929 64.1575652,43.0491071 63.434087,43.0491071 C62.712,43.0491071 62.1304348,42.4668929 62.1304348,41.744 C62.1304348,41.0197143 62.712,40.4375 63.434087,40.4375 C64.1575652,40.4375 64.7391304,41.0197143 64.7391304,41.744 Z" id="Fill-208"></path>
                    <path d="M64.7391304,45.3988571 L64.7391304,45.3988571 C64.7391304,46.1231429 64.1575652,46.7053571 63.434087,46.7053571 C62.712,46.7053571 62.1304348,46.1231429 62.1304348,45.3988571 C62.1304348,44.6759643 62.712,44.09375 63.434087,44.09375 C64.1575652,44.09375 64.7391304,44.6759643 64.7391304,45.3988571 Z" id="Fill-209"></path>
                    <path d="M64.7391304,49.0565 L64.7391304,49.0565 C64.7391304,49.7793929 64.1575652,50.3616071 63.434087,50.3616071 C62.712,50.3616071 62.1304348,49.7793929 62.1304348,49.0565 C62.1304348,48.3322143 62.712,47.75 63.434087,47.75 C64.1575652,47.75 64.7391304,48.3322143 64.7391304,49.0565 Z" id="Fill-210"></path>
                    <path d="M64.7391304,52.7113571 L64.7391304,52.7113571 C64.7391304,53.4356429 64.1575652,54.0178571 63.434087,54.0178571 C62.712,54.0178571 62.1304348,53.4356429 62.1304348,52.7113571 C62.1304348,51.9884643 62.712,51.40625 63.434087,51.40625 C64.1575652,51.40625 64.7391304,51.9884643 64.7391304,52.7113571 Z" id="Fill-211"></path>
                    <path d="M64.7391304,56.369 L64.7391304,56.369 C64.7391304,57.0918929 64.1575652,57.6741071 63.434087,57.6741071 C62.712,57.6741071 62.1304348,57.0918929 62.1304348,56.369 C62.1304348,55.6447143 62.712,55.0625 63.434087,55.0625 C64.1575652,55.0625 64.7391304,55.6447143 64.7391304,56.369 Z" id="Fill-212"></path>
                    <path d="M64.7391304,60.0238571 L64.7391304,60.0238571 C64.7391304,60.7481429 64.1575652,61.3303571 63.434087,61.3303571 C62.712,61.3303571 62.1304348,60.7481429 62.1304348,60.0238571 C62.1304348,59.3009643 62.712,58.71875 63.434087,58.71875 C64.1575652,58.71875 64.7391304,59.3009643 64.7391304,60.0238571 Z" id="Fill-213"></path>
                    <path d="M64.7391304,63.6815 L64.7391304,63.6815 C64.7391304,64.4043929 64.1575652,64.9866071 63.434087,64.9866071 C62.712,64.9866071 62.1304348,64.4043929 62.1304348,63.6815 C62.1304348,62.9572143 62.712,62.375 63.434087,62.375 C64.1575652,62.375 64.7391304,62.9572143 64.7391304,63.6815 Z" id="Fill-214"></path>
                    <path d="M64.7391304,67.3363571 L64.7391304,67.3363571 C64.7391304,68.0606429 64.1575652,68.6428571 63.434087,68.6428571 C62.712,68.6428571 62.1304348,68.0606429 62.1304348,67.3363571 C62.1304348,66.6134643 62.712,66.03125 63.434087,66.03125 C64.1575652,66.03125 64.7391304,66.6134643 64.7391304,67.3363571 Z" id="Fill-215"></path>
                    <path d="M64.7391304,70.994 L64.7391304,70.994 C64.7391304,71.7168929 64.1575652,72.2991071 63.434087,72.2991071 C62.712,72.2991071 62.1304348,71.7168929 62.1304348,70.994 C62.1304348,70.2697143 62.712,69.6875 63.434087,69.6875 C64.1575652,69.6875 64.7391304,70.2697143 64.7391304,70.994 Z" id="Fill-216"></path>
                    <path d="M64.7391304,74.6488571 L64.7391304,74.6488571 C64.7391304,75.3731429 64.1575652,75.9553571 63.434087,75.9553571 C62.712,75.9553571 62.1304348,75.3731429 62.1304348,74.6488571 C62.1304348,73.9259643 62.712,73.34375 63.434087,73.34375 C64.1575652,73.34375 64.7391304,73.9259643 64.7391304,74.6488571 Z" id="Fill-217"></path>
                    <path d="M68.3913043,23.4613571 L68.3913043,23.4613571 C68.3913043,24.1856429 67.8097391,24.7678571 67.0876522,24.7678571 C66.3641739,24.7678571 65.7826087,24.1856429 65.7826087,23.4613571 C65.7826087,22.7384643 66.3641739,22.15625 67.0876522,22.15625 C67.8097391,22.15625 68.3913043,22.7384643 68.3913043,23.4613571 Z" id="Fill-218"></path>
                    <path d="M68.3913043,27.119 L68.3913043,27.119 C68.3913043,27.8418929 67.8097391,28.4241071 67.0876522,28.4241071 C66.3641739,28.4241071 65.7826087,27.8418929 65.7826087,27.119 C65.7826087,26.3947143 66.3641739,25.8125 67.0876522,25.8125 C67.8097391,25.8125 68.3913043,26.3947143 68.3913043,27.119 Z" id="Fill-219"></path>
                    <path d="M68.3913043,30.7738571 L68.3913043,30.7738571 C68.3913043,31.4981429 67.8097391,32.0803571 67.0876522,32.0803571 C66.3641739,32.0803571 65.7826087,31.4981429 65.7826087,30.7738571 C65.7826087,30.0509643 66.3641739,29.46875 67.0876522,29.46875 C67.8097391,29.46875 68.3913043,30.0509643 68.3913043,30.7738571 Z" id="Fill-220"></path>
                    <path d="M68.3913043,38.0863571 L68.3913043,38.0863571 C68.3913043,38.8106429 67.8097391,39.3928571 67.0876522,39.3928571 C66.3641739,39.3928571 65.7826087,38.8106429 65.7826087,38.0863571 C65.7826087,37.3634643 66.3641739,36.78125 67.0876522,36.78125 C67.8097391,36.78125 68.3913043,37.3634643 68.3913043,38.0863571 Z" id="Fill-221"></path>
                    <path d="M68.3913043,41.744 L68.3913043,41.744 C68.3913043,42.4668929 67.8097391,43.0491071 67.0876522,43.0491071 C66.3641739,43.0491071 65.7826087,42.4668929 65.7826087,41.744 C65.7826087,41.0197143 66.3641739,40.4375 67.0876522,40.4375 C67.8097391,40.4375 68.3913043,41.0197143 68.3913043,41.744 Z" id="Fill-222"></path>
                    <path d="M68.3913043,45.3988571 L68.3913043,45.3988571 C68.3913043,46.1231429 67.8097391,46.7053571 67.0876522,46.7053571 C66.3641739,46.7053571 65.7826087,46.1231429 65.7826087,45.3988571 C65.7826087,44.6759643 66.3641739,44.09375 67.0876522,44.09375 C67.8097391,44.09375 68.3913043,44.6759643 68.3913043,45.3988571 Z" id="Fill-223"></path>
                    <path d="M68.3913043,49.0565 L68.3913043,49.0565 C68.3913043,49.7793929 67.8097391,50.3616071 67.0876522,50.3616071 C66.3641739,50.3616071 65.7826087,49.7793929 65.7826087,49.0565 C65.7826087,48.3322143 66.3641739,47.75 67.0876522,47.75 C67.8097391,47.75 68.3913043,48.3322143 68.3913043,49.0565 Z" id="Fill-224"></path>
                    <path d="M68.3913043,52.7113571 L68.3913043,52.7113571 C68.3913043,53.4356429 67.8097391,54.0178571 67.0876522,54.0178571 C66.3641739,54.0178571 65.7826087,53.4356429 65.7826087,52.7113571 C65.7826087,51.9884643 66.3641739,51.40625 67.0876522,51.40625 C67.8097391,51.40625 68.3913043,51.9884643 68.3913043,52.7113571 Z" id="Fill-225"></path>
                    <path d="M68.3913043,56.369 L68.3913043,56.369 C68.3913043,57.0918929 67.8097391,57.6741071 67.0876522,57.6741071 C66.3641739,57.6741071 65.7826087,57.0918929 65.7826087,56.369 C65.7826087,55.6447143 66.3641739,55.0625 67.0876522,55.0625 C67.8097391,55.0625 68.3913043,55.6447143 68.3913043,56.369 Z" id="Fill-226"></path>
                    <path d="M68.3913043,60.0238571 L68.3913043,60.0238571 C68.3913043,60.7481429 67.8097391,61.3303571 67.0876522,61.3303571 C66.3641739,61.3303571 65.7826087,60.7481429 65.7826087,60.0238571 C65.7826087,59.3009643 66.3641739,58.71875 67.0876522,58.71875 C67.8097391,58.71875 68.3913043,59.3009643 68.3913043,60.0238571 Z" id="Fill-227"></path>
                    <path d="M68.3913043,63.6815 L68.3913043,63.6815 C68.3913043,64.4043929 67.8097391,64.9866071 67.0876522,64.9866071 C66.3641739,64.9866071 65.7826087,64.4043929 65.7826087,63.6815 C65.7826087,62.9572143 66.3641739,62.375 67.0876522,62.375 C67.8097391,62.375 68.3913043,62.9572143 68.3913043,63.6815 Z" id="Fill-228"></path>
                    <path d="M68.3913043,67.3363571 L68.3913043,67.3363571 C68.3913043,68.0606429 67.8097391,68.6428571 67.0876522,68.6428571 C66.3641739,68.6428571 65.7826087,68.0606429 65.7826087,67.3363571 C65.7826087,66.6134643 66.3641739,66.03125 67.0876522,66.03125 C67.8097391,66.03125 68.3913043,66.6134643 68.3913043,67.3363571 Z" id="Fill-229"></path>
                    <path d="M68.3913043,70.994 L68.3913043,70.994 C68.3913043,71.7168929 67.8097391,72.2991071 67.0876522,72.2991071 C66.3641739,72.2991071 65.7826087,71.7168929 65.7826087,70.994 C65.7826087,70.2697143 66.3641739,69.6875 67.0876522,69.6875 C67.8097391,69.6875 68.3913043,70.2697143 68.3913043,70.994 Z" id="Fill-230"></path>
                    <path d="M72.0434783,38.0863571 L72.0434783,38.0863571 C72.0434783,38.8106429 71.461913,39.3928571 70.7384348,39.3928571 C70.0163478,39.3928571 69.4347826,38.8106429 69.4347826,38.0863571 C69.4347826,37.3634643 70.0163478,36.78125 70.7384348,36.78125 C71.461913,36.78125 72.0434783,37.3634643 72.0434783,38.0863571 Z" id="Fill-231"></path>
                    <path d="M72.0434783,41.744 L72.0434783,41.744 C72.0434783,42.4668929 71.461913,43.0491071 70.7384348,43.0491071 C70.0163478,43.0491071 69.4347826,42.4668929 69.4347826,41.744 C69.4347826,41.0197143 70.0163478,40.4375 70.7384348,40.4375 C71.461913,40.4375 72.0434783,41.0197143 72.0434783,41.744 Z" id="Fill-232"></path>
                    <path d="M72.0434783,45.3988571 L72.0434783,45.3988571 C72.0434783,46.1231429 71.461913,46.7053571 70.7384348,46.7053571 C70.0163478,46.7053571 69.4347826,46.1231429 69.4347826,45.3988571 C69.4347826,44.6759643 70.0163478,44.09375 70.7384348,44.09375 C71.461913,44.09375 72.0434783,44.6759643 72.0434783,45.3988571 Z" id="Fill-233"></path>
                    <path d="M72.0434783,49.0565 L72.0434783,49.0565 C72.0434783,49.7793929 71.461913,50.3616071 70.7384348,50.3616071 C70.0163478,50.3616071 69.4347826,49.7793929 69.4347826,49.0565 C69.4347826,48.3322143 70.0163478,47.75 70.7384348,47.75 C71.461913,47.75 72.0434783,48.3322143 72.0434783,49.0565 Z" id="Fill-234"></path>
                    <path d="M72.0434783,52.7113571 L72.0434783,52.7113571 C72.0434783,53.4356429 71.461913,54.0178571 70.7384348,54.0178571 C70.0163478,54.0178571 69.4347826,53.4356429 69.4347826,52.7113571 C69.4347826,51.9884643 70.0163478,51.40625 70.7384348,51.40625 C71.461913,51.40625 72.0434783,51.9884643 72.0434783,52.7113571 Z" id="Fill-235"></path>
                    <path d="M72.0434783,56.369 L72.0434783,56.369 C72.0434783,57.0918929 71.461913,57.6741071 70.7384348,57.6741071 C70.0163478,57.6741071 69.4347826,57.0918929 69.4347826,56.369 C69.4347826,55.6447143 70.0163478,55.0625 70.7384348,55.0625 C71.461913,55.0625 72.0434783,55.6447143 72.0434783,56.369 Z" id="Fill-236"></path>
                    <path d="M72.0434783,60.0238571 L72.0434783,60.0238571 C72.0434783,60.7481429 71.461913,61.3303571 70.7384348,61.3303571 C70.0163478,61.3303571 69.4347826,60.7481429 69.4347826,60.0238571 C69.4347826,59.3009643 70.0163478,58.71875 70.7384348,58.71875 C71.461913,58.71875 72.0434783,59.3009643 72.0434783,60.0238571 Z" id="Fill-237"></path>
                    <path d="M72.0434783,63.6815 L72.0434783,63.6815 C72.0434783,64.4043929 71.461913,64.9866071 70.7384348,64.9866071 C70.0163478,64.9866071 69.4347826,64.4043929 69.4347826,63.6815 C69.4347826,62.9572143 70.0163478,62.375 70.7384348,62.375 C71.461913,62.375 72.0434783,62.9572143 72.0434783,63.6815 Z" id="Fill-238"></path>
                    <path d="M72.0434783,67.3363571 L72.0434783,67.3363571 C72.0434783,68.0606429 71.461913,68.6428571 70.7384348,68.6428571 C70.0163478,68.6428571 69.4347826,68.0606429 69.4347826,67.3363571 C69.4347826,66.6134643 70.0163478,66.03125 70.7384348,66.03125 C71.461913,66.03125 72.0434783,66.6134643 72.0434783,67.3363571 Z" id="Fill-239"></path>
                    <path d="M75.6956522,38.0863571 L75.6956522,38.0863571 C75.6956522,38.8106429 75.114087,39.3928571 74.392,39.3928571 C73.6685217,39.3928571 73.0869565,38.8106429 73.0869565,38.0863571 C73.0869565,37.3634643 73.6685217,36.78125 74.392,36.78125 C75.114087,36.78125 75.6956522,37.3634643 75.6956522,38.0863571 Z" id="Fill-240"></path>
                    <path d="M75.6956522,41.744 L75.6956522,41.744 C75.6956522,42.4668929 75.114087,43.0491071 74.392,43.0491071 C73.6685217,43.0491071 73.0869565,42.4668929 73.0869565,41.744 C73.0869565,41.0197143 73.6685217,40.4375 74.392,40.4375 C75.114087,40.4375 75.6956522,41.0197143 75.6956522,41.744 Z" id="Fill-241"></path>
                    <path d="M75.6956522,45.3988571 L75.6956522,45.3988571 C75.6956522,46.1231429 75.114087,46.7053571 74.392,46.7053571 C73.6685217,46.7053571 73.0869565,46.1231429 73.0869565,45.3988571 C73.0869565,44.6759643 73.6685217,44.09375 74.392,44.09375 C75.114087,44.09375 75.6956522,44.6759643 75.6956522,45.3988571 Z" id="Fill-242"></path>
                    <path d="M75.6956522,49.0565 L75.6956522,49.0565 C75.6956522,49.7793929 75.114087,50.3616071 74.392,50.3616071 C73.6685217,50.3616071 73.0869565,49.7793929 73.0869565,49.0565 C73.0869565,48.3322143 73.6685217,47.75 74.392,47.75 C75.114087,47.75 75.6956522,48.3322143 75.6956522,49.0565 Z" id="Fill-243"></path>
                    <path d="M75.6956522,52.7113571 L75.6956522,52.7113571 C75.6956522,53.4356429 75.114087,54.0178571 74.392,54.0178571 C73.6685217,54.0178571 73.0869565,53.4356429 73.0869565,52.7113571 C73.0869565,51.9884643 73.6685217,51.40625 74.392,51.40625 C75.114087,51.40625 75.6956522,51.9884643 75.6956522,52.7113571 Z" id="Fill-244"></path>
                    <path d="M75.6956522,56.369 L75.6956522,56.369 C75.6956522,57.0918929 75.114087,57.6741071 74.392,57.6741071 C73.6685217,57.6741071 73.0869565,57.0918929 73.0869565,56.369 C73.0869565,55.6447143 73.6685217,55.0625 74.392,55.0625 C75.114087,55.0625 75.6956522,55.6447143 75.6956522,56.369 Z" id="Fill-245"></path>
                    <path d="M75.6956522,60.0238571 L75.6956522,60.0238571 C75.6956522,60.7481429 75.114087,61.3303571 74.392,61.3303571 C73.6685217,61.3303571 73.0869565,60.7481429 73.0869565,60.0238571 C73.0869565,59.3009643 73.6685217,58.71875 74.392,58.71875 C75.114087,58.71875 75.6956522,59.3009643 75.6956522,60.0238571 Z" id="Fill-246"></path>
                    <path d="M75.6956522,63.6815 L75.6956522,63.6815 C75.6956522,64.4043929 75.114087,64.9866071 74.392,64.9866071 C73.6685217,64.9866071 73.0869565,64.4043929 73.0869565,63.6815 C73.0869565,62.9572143 73.6685217,62.375 74.392,62.375 C75.114087,62.375 75.6956522,62.9572143 75.6956522,63.6815 Z" id="Fill-247"></path>
                    <path d="M75.6956522,67.3363571 L75.6956522,67.3363571 C75.6956522,68.0606429 75.114087,68.6428571 74.392,68.6428571 C73.6685217,68.6428571 73.0869565,68.0606429 73.0869565,67.3363571 C73.0869565,66.6134643 73.6685217,66.03125 74.392,66.03125 C75.114087,66.03125 75.6956522,66.6134643 75.6956522,67.3363571 Z" id="Fill-248"></path>
                    <path d="M79.3478261,41.744 L79.3478261,41.744 C79.3478261,42.4668929 78.7662609,43.0491071 78.0427826,43.0491071 C77.3206957,43.0491071 76.7391304,42.4668929 76.7391304,41.744 C76.7391304,41.0197143 77.3206957,40.4375 78.0427826,40.4375 C78.7662609,40.4375 79.3478261,41.0197143 79.3478261,41.744 Z" id="Fill-249"></path>
                    <path d="M79.3478261,45.3988571 L79.3478261,45.3988571 C79.3478261,46.1231429 78.7662609,46.7053571 78.0427826,46.7053571 C77.3206957,46.7053571 76.7391304,46.1231429 76.7391304,45.3988571 C76.7391304,44.6759643 77.3206957,44.09375 78.0427826,44.09375 C78.7662609,44.09375 79.3478261,44.6759643 79.3478261,45.3988571 Z" id="Fill-250"></path>
                    <path d="M79.3478261,49.0565 L79.3478261,49.0565 C79.3478261,49.7793929 78.7662609,50.3616071 78.0427826,50.3616071 C77.3206957,50.3616071 76.7391304,49.7793929 76.7391304,49.0565 C76.7391304,48.3322143 77.3206957,47.75 78.0427826,47.75 C78.7662609,47.75 79.3478261,48.3322143 79.3478261,49.0565 Z" id="Fill-251"></path>
                    <path d="M79.3478261,52.7113571 L79.3478261,52.7113571 C79.3478261,53.4356429 78.7662609,54.0178571 78.0427826,54.0178571 C77.3206957,54.0178571 76.7391304,53.4356429 76.7391304,52.7113571 C76.7391304,51.9884643 77.3206957,51.40625 78.0427826,51.40625 C78.7662609,51.40625 79.3478261,51.9884643 79.3478261,52.7113571 Z" id="Fill-252"></path>
                    <path d="M79.3478261,56.369 L79.3478261,56.369 C79.3478261,57.0918929 78.7662609,57.6741071 78.0427826,57.6741071 C77.3206957,57.6741071 76.7391304,57.0918929 76.7391304,56.369 C76.7391304,55.6447143 77.3206957,55.0625 78.0427826,55.0625 C78.7662609,55.0625 79.3478261,55.6447143 79.3478261,56.369 Z" id="Fill-253"></path>
                    <path d="M79.3478261,60.0238571 L79.3478261,60.0238571 C79.3478261,60.7481429 78.7662609,61.3303571 78.0427826,61.3303571 C77.3206957,61.3303571 76.7391304,60.7481429 76.7391304,60.0238571 C76.7391304,59.3009643 77.3206957,58.71875 78.0427826,58.71875 C78.7662609,58.71875 79.3478261,59.3009643 79.3478261,60.0238571 Z" id="Fill-254"></path>
                    <path d="M83,41.744 L83,41.744 C83,42.4668929 82.4184348,43.0491071 81.6963478,43.0491071 C80.9728696,43.0491071 80.3913043,42.4668929 80.3913043,41.744 C80.3913043,41.0197143 80.9728696,40.4375 81.6963478,40.4375 C82.4184348,40.4375 83,41.0197143 83,41.744 Z" id="Fill-255"></path>
                    <path d="M83,45.3988571 L83,45.3988571 C83,46.1231429 82.4184348,46.7053571 81.6963478,46.7053571 C80.9728696,46.7053571 80.3913043,46.1231429 80.3913043,45.3988571 C80.3913043,44.6759643 80.9728696,44.09375 81.6963478,44.09375 C82.4184348,44.09375 83,44.6759643 83,45.3988571 Z" id="Fill-256"></path>
                    <path d="M83,49.0565 L83,49.0565 C83,49.7793929 82.4184348,50.3616071 81.6963478,50.3616071 C80.9728696,50.3616071 80.3913043,49.7793929 80.3913043,49.0565 C80.3913043,48.3322143 80.9728696,47.75 81.6963478,47.75 C82.4184348,47.75 83,48.3322143 83,49.0565 Z" id="Fill-257"></path>
                    <path d="M83,52.7113571 L83,52.7113571 C83,53.4356429 82.4184348,54.0178571 81.6963478,54.0178571 C80.9728696,54.0178571 80.3913043,53.4356429 80.3913043,52.7113571 C80.3913043,51.9884643 80.9728696,51.40625 81.6963478,51.40625 C82.4184348,51.40625 83,51.9884643 83,52.7113571 Z" id="Fill-258"></path>
                    <path d="M83,56.369 L83,56.369 C83,57.0918929 82.4184348,57.6741071 81.6963478,57.6741071 C80.9728696,57.6741071 80.3913043,57.0918929 80.3913043,56.369 C80.3913043,55.6447143 80.9728696,55.0625 81.6963478,55.0625 C82.4184348,55.0625 83,55.6447143 83,56.369 Z" id="Fill-259"></path>
                    <path d="M83,60.0238571 L83,60.0238571 C83,60.7481429 82.4184348,61.3303571 81.6963478,61.3303571 C80.9728696,61.3303571 80.3913043,60.7481429 80.3913043,60.0238571 C80.3913043,59.3009643 80.9728696,58.71875 81.6963478,58.71875 C82.4184348,58.71875 83,59.3009643 83,60.0238571 Z" id="Fill-260"></path>
                    <path d="M83,63.6815 L83,63.6815 C83,64.4043929 82.4184348,64.9866071 81.6963478,64.9866071 C80.9728696,64.9866071 80.3913043,64.4043929 80.3913043,63.6815 C80.3913043,62.9572143 80.9728696,62.375 81.6963478,62.375 C82.4184348,62.375 83,62.9572143 83,63.6815 Z" id="Fill-261"></path>
                    <path d="M83,67.3363571 L83,67.3363571 C83,68.0606429 82.4184348,68.6428571 81.6963478,68.6428571 C80.9728696,68.6428571 80.3913043,68.0606429 80.3913043,67.3363571 C80.3913043,66.6134643 80.9728696,66.03125 81.6963478,66.03125 C82.4184348,66.03125 83,66.6134643 83,67.3363571 Z" id="Fill-262"></path>
                    <path d="M86.6521739,45.3988571 L86.6521739,45.3988571 C86.6521739,46.1231429 86.0706087,46.7053571 85.3471304,46.7053571 C84.6250435,46.7053571 84.0434783,46.1231429 84.0434783,45.3988571 C84.0434783,44.6759643 84.6250435,44.09375 85.3471304,44.09375 C86.0706087,44.09375 86.6521739,44.6759643 86.6521739,45.3988571 Z" id="Fill-263"></path>
                    <path d="M86.6521739,60.0238571 L86.6521739,60.0238571 C86.6521739,60.7481429 86.0706087,61.3303571 85.3471304,61.3303571 C84.6250435,61.3303571 84.0434783,60.7481429 84.0434783,60.0238571 C84.0434783,59.3009643 84.6250435,58.71875 85.3471304,58.71875 C86.0706087,58.71875 86.6521739,59.3009643 86.6521739,60.0238571 Z" id="Fill-264"></path>
                    <path d="M86.6521739,63.6815 L86.6521739,63.6815 C86.6521739,64.4043929 86.0706087,64.9866071 85.3471304,64.9866071 C84.6250435,64.9866071 84.0434783,64.4043929 84.0434783,63.6815 C84.0434783,62.9572143 84.6250435,62.375 85.3471304,62.375 C86.0706087,62.375 86.6521739,62.9572143 86.6521739,63.6815 Z" id="Fill-265"></path>
                    <path d="M90.3043478,49.0565 L90.3043478,49.0565 C90.3043478,49.7793929 89.7227826,50.3616071 89.0006957,50.3616071 C88.2772174,50.3616071 87.6956522,49.7793929 87.6956522,49.0565 C87.6956522,48.3322143 88.2772174,47.75 89.0006957,47.75 C89.7227826,47.75 90.3043478,48.3322143 90.3043478,49.0565 Z" id="Fill-266"></path>
                    <path d="M90.3043478,52.7113571 L90.3043478,52.7113571 C90.3043478,53.4356429 89.7227826,54.0178571 89.0006957,54.0178571 C88.2772174,54.0178571 87.6956522,53.4356429 87.6956522,52.7113571 C87.6956522,51.9884643 88.2772174,51.40625 89.0006957,51.40625 C89.7227826,51.40625 90.3043478,51.9884643 90.3043478,52.7113571 Z" id="Fill-267"></path>
                    <path d="M90.3043478,56.369 L90.3043478,56.369 C90.3043478,57.0918929 89.7227826,57.6741071 89.0006957,57.6741071 C88.2772174,57.6741071 87.6956522,57.0918929 87.6956522,56.369 C87.6956522,55.6447143 88.2772174,55.0625 89.0006957,55.0625 C89.7227826,55.0625 90.3043478,55.6447143 90.3043478,56.369 Z" id="Fill-268"></path>
                    <path d="M93.9565217,49.0565 L93.9565217,49.0565 C93.9565217,49.7793929 93.3749565,50.3616071 92.6514783,50.3616071 C91.9293913,50.3616071 91.3478261,49.7793929 91.3478261,49.0565 C91.3478261,48.3322143 91.9293913,47.75 92.6514783,47.75 C93.3749565,47.75 93.9565217,48.3322143 93.9565217,49.0565 Z" id="Fill-269"></path>
                    <path d="M93.9565217,52.7113571 L93.9565217,52.7113571 C93.9565217,53.4356429 93.3749565,54.0178571 92.6514783,54.0178571 C91.9293913,54.0178571 91.3478261,53.4356429 91.3478261,52.7113571 C91.3478261,51.9884643 91.9293913,51.40625 92.6514783,51.40625 C93.3749565,51.40625 93.9565217,51.9884643 93.9565217,52.7113571 Z" id="Fill-270"></path>
                </g>
            </g>
        </g>
    </g>
</svg>