<?xml version="1.0" encoding="UTF-8"?>
<svg width="151px" height="150px" viewBox="0 0 151 150" version="1.1" xmlns="http://www.w3.org/2000/svg" xmlns:xlink="http://www.w3.org/1999/xlink">
    <!-- Generator: Sketch 42 (36781) - http://www.bohemiancoding.com/sketch -->
    <title>CoopFarming</title>
    <desc>Created with Sketch.</desc>
    <defs></defs>
    <g id="01.-Homepage" stroke="none" stroke-width="1" fill="none" fill-rule="evenodd">
        <g id="1.1_DESKTOP_Main" transform="translate(-509.000000, -2936.000000)">
            <g id="Tekera-Research-Centre-" transform="translate(253.000000, 2310.000000)">
                <g id="4/8-Programs" transform="translate(0.000000, 626.000000)">
                    <g id="CoopFarming" transform="translate(256.000000, 0.000000)">
                        <g id="ASSET_YCircleFill" transform="translate(0.387984, 0.000000)" fill="#FFEABA">
                            <ellipse id="Oval-Copy" cx="75.0816104" cy="75" rx="75.0816104" ry="75"></ellipse>
                        </g>
                        <path d="M111.168222,58.204381 L109.887035,58.7815896 C90.5484521,67.4763854 87.8250415,82.9320917 87.7090005,90.3518243 C83.5646801,81.1756271 77.1303266,71.4872755 67.1815894,63.5128075 C71.2939394,60.8325726 86.0950837,49.7674365 77.7365815,34.1591484 L77.1173016,33 L75.9284737,33.5547353 C75.7425713,33.6422628 58.407471,42.0839385 63.5973443,61.2855867 C59.0824032,57.7738401 45.9697734,49.6148547 29.6139168,57.6768502 L28,58.476426 L29.1840916,59.8307372 C29.6008918,60.3062246 39.5306835,71.5062003 51.1312284,71.5523297 L51.2058262,71.5523297 C56.2749221,71.5523297 60.8443314,69.3948943 64.8134063,65.1758307 C75.363662,73.4235264 81.895111,83.6760758 85.9281268,93.1941035 C66.8855665,71.8149123 45.1420934,87.8667521 44.9194842,88.0323447 L43.4808129,89.1228905 L44.9064592,90.2276299 C55.1228011,98.1748933 64.4617311,100.405663 71.7237646,100.405663 C80.9277082,100.405663 86.8067228,96.8253133 86.9085546,96.7602591 L87.2649662,96.5390746 C92.3530076,110.187456 92.4726008,121.502164 92.4726008,121.705606 L95.2481114,121.705606 C95.2481114,121.492701 95.1332546,109.748635 89.8545744,95.5774546 C100.964905,91.1927983 108.236412,85.0244729 111.455957,77.2392537 C115.312543,67.9293995 111.871573,59.8260059 111.723561,59.4889067 L111.168222,58.204381 Z M75.9142646,36.7151889 C81.5576449,49.1429157 70.4520503,58.0234119 66.2793116,60.8053681 C62.2048526,46.3112818 72.311074,38.8536994 75.9142646,36.7151889 Z M51.2058262,68.7845672 L51.1501739,68.7845672 C43.0699332,68.7561799 35.5343745,62.2507552 32.5883548,59.3635294 C47.5375106,52.9917616 58.9580736,60.9674123 62.3339186,63.7895838 C59.0184623,67.1073504 55.2802852,68.7845672 51.2058262,68.7845672 Z M48.1532382,89.210418 C53.1714182,86.1434059 69.2490133,78.4729188 83.9850326,95.1622902 C79.5588984,97.1813375 65.4658408,101.787178 48.1532382,89.210418 Z M108.897135,76.1818265 C106.132281,82.8623063 99.9382981,88.2913789 90.4892475,92.3247422 C90.1233632,87.0435202 90.7473795,71.169101 109.646665,61.9515056 C110.368961,64.4413091 111.437011,70.0454368 108.897135,76.1818265 Z" id="Page-1" fill="#000000"></path>
                    </g>
                </g>
            </g>
        </g>
    </g>
</svg>