<?xml version="1.0" encoding="UTF-8"?>
<svg width="55px" height="81px" viewBox="0 0 55 81" version="1.1" xmlns="http://www.w3.org/2000/svg" xmlns:xlink="http://www.w3.org/1999/xlink">
    <!-- Generator: Sketch 42 (36781) - http://www.bohemiancoding.com/sketch -->
    <title>Page 1</title>
    <desc>Created with Sketch.</desc>
    <defs></defs>
    <g id="02.-Handoff-Folder-" stroke="none" stroke-width="1" fill="none" fill-rule="evenodd">
        <g id="ICEF_Assets" transform="translate(-680.000000, -3646.000000)" fill="#898989">
            <g id="Donate-Page" transform="translate(55.000000, 3544.000000)">
                <g id="Page-1" transform="translate(625.000000, 102.000000)">
                    <path d="M13.5997814,13.5 L42.2110217,13.5 L52.0020936,4.910652 C52.0904522,4.8304944 52.1409489,4.7208096 52.1409489,4.606902 L52.1409489,3.09663 C52.1409489,2.8772496 51.9642318,2.7000648 51.7454305,2.7000648 L4.06433862,2.7000648 C3.84553728,2.7000648 3.66882017,2.8772496 3.66882017,3.09663 L3.66882017,4.606902 C3.66882017,4.7208096 3.71931693,4.8304944 3.80767548,4.910652 L13.5997814,13.5 Z M43.2213878,16.2 L12.5894154,16.2 L2.03249032,6.939864 C1.35927199,6.3492336 0.976377722,5.497092 0.976377722,4.606848 L0.976377722,3.096576 C0.976377722,1.388016 2.36073003,0 4.06478026,0 L51.7458721,0 C53.4499223,0 54.8342746,1.388016 54.8342746,3.096576 L54.8342746,4.606848 C54.8342746,5.4970056 54.4513804,6.349212 53.7823737,6.935544 L53.778162,6.9397668 L43.2213878,16.2 Z" id="Fill-1"></path>
                    <path d="M3.80849412,76.0935611 C3.72013556,76.1694991 3.6696388,76.2791915 3.6696388,76.3930883 L3.6696388,77.9033603 C3.6696388,78.1227407 3.84635592,78.2999255 4.06515726,78.2999255 L51.7462491,78.2999255 C51.9650505,78.2999255 52.1417676,78.1227407 52.1417676,77.9033603 L52.1417676,76.3930883 C52.1417676,76.2791807 52.0912708,76.1694959 52.0071239,76.0935611 L42.2117434,67.5 L13.6005031,67.5 L3.80849412,76.0935611 Z M51.7459475,81 L4.06485566,81 C2.36080543,81 0.976453122,79.6119851 0.976453122,77.9034251 L0.976453122,76.3931531 C0.976453122,75.5029955 1.35934739,74.6507891 2.02835406,74.0644571 L2.03256572,74.0602386 L12.5894908,64.800108 L43.2214632,64.800108 L53.7783883,74.0602386 C54.4516066,74.650869 54.8345008,75.5030106 54.8345008,76.3932546 L54.8345008,77.9035266 C54.8345008,79.6078746 53.4501485,81.0001028 51.7460983,81.0001028 L51.7459475,81 Z" id="Fill-2"></path>
                    <path d="M14.4410351,64.8 L41.3697681,64.8 L41.3697681,16.2 L14.4410351,16.2 L14.4410351,64.8 Z M11.7481618,67.5 L44.0626414,67.5 L44.0626414,13.5 L11.7481618,13.5 L11.7481618,67.5 Z" id="Fill-3"></path>
                    <polygon id="Fill-4" points="13.8604516 28.10916 12.328853 25.890084 29.8325294 13.740084 31.3641281 15.95916"></polygon>
                    <polygon id="Fill-5" points="13.7387337 60.58584 12.4512171 58.214916 42.0728235 42.014916 43.36034 44.38584"></polygon>
                    <polygon id="Fill-6" points="42.3628998 44.50356 12.7412934 36.40356 13.4481727 33.796332 43.069779 41.896332"></polygon>
                    <polygon id="Fill-7" points="13.8184428 36.2394 12.3709695 33.961248 41.9925758 15.061248 43.4400491 17.3394"></polygon>
                    <polygon id="Fill-8" points="23.2144163 38.9556 21.8258631 36.643752 42.0224129 24.493752 43.4109661 26.8056"></polygon>
                    <polygon id="Fill-9" points="32.6599387 41.64372 31.2293767 39.357144 42.0008699 32.607144 43.4314319 34.89372"></polygon>
                    <polygon id="Fill-10" points="32.1590643 50.20704 12.6357328 43.11954 13.5529901 40.579812 33.0763215 47.667312"></polygon>
                    <polygon id="Fill-11" points="23.3953774 55.26576 12.6238842 51.21576 13.5663898 48.684456 24.337883 52.734456"></polygon>
                    <polygon id="Fill-12" points="19.1320204 67.33152 17.8277002 64.96902 42.06356 51.46902 43.3678801 53.83152"></polygon>
                </g>
            </g>
        </g>
    </g>
</svg>