<?xml version="1.0" encoding="UTF-8"?>
<svg width="151px" height="150px" viewBox="0 0 151 150" version="1.1" xmlns="http://www.w3.org/2000/svg" xmlns:xlink="http://www.w3.org/1999/xlink">
    <!-- Generator: Sketch 42 (36781) - http://www.bohemiancoding.com/sketch -->
    <title>ASSET_YCircleFill Copy 2</title>
    <desc>Created with Sketch.</desc>
    <defs></defs>
    <g id="03.-Our-Work" stroke="none" stroke-width="1" fill="none" fill-rule="evenodd">
        <g id="3.1_DESKTOP_OurWork-TRCEmpty" transform="translate(-645.000000, -3269.000000)">
            <g id="CTA-DONATE" transform="translate(263.000000, 3151.000000)">
                <g id="TRC-NAV" transform="translate(0.000000, 118.000000)">
                    <g id="ASSET_YCircleFill-Copy-2" transform="translate(382.000000, 0.000000)">
                        <ellipse id="Oval-Copy" fill="#852762" cx="75.0816104" cy="75" rx="75.0816104" ry="75"></ellipse>
                        <g id="Farm" transform="translate(42.000000, 38.000000)" fill="#FFFFFF">
                            <path d="M16.645,66.164001 L16.62938,65.94134 C16.645,70.136642 15.51608,71.589741 12.23488,71.589741 C8.965376,71.589741 7.824676,70.148341 7.824676,66.074141 L7.812957,66.304611 L9.80906,47.32461 L14.66066,47.32461 L16.645,66.164001 Z M16.64891,42.91 L7.824708,42.91 C6.695808,42.91 5.746608,43.76547 5.629408,44.8866 L3.426308,65.8436 L3.410683,66.074073 C3.410683,72.386573 6.270083,75.9998729 12.23488,75.9998729 C18.22708,75.9998729 21.06298,72.359273 21.04348,65.92587 L21.03176,65.70321 L18.84036,44.88721 C18.72317,43.76611 17.77786,42.91061 16.64896,42.91061 L16.64891,42.91 Z" id="Fill-1"></path>
                            <path d="M14.441,23.059 C14.441,21.8402 13.45272,20.852 12.234,20.852 C11.01528,20.852 10.0309,21.84028 10.0309,23.059 L10.0309,44.016 C10.0309,45.2348 11.01528,46.2191 12.234,46.2191 C13.45272,46.2191 14.441,45.23472 14.441,44.016 L14.441,23.059 Z" id="Fill-2"></path>
                            <path d="M12.234,5.875 L19.9567,11.0352 L19.9567,34.0902 L4.5157,34.0902 L4.5157,11.0352 L12.234,5.875 Z M0.101,9.8242 L0.101,36.2932 C0.101,37.512 1.08928,38.5002 2.308,38.5002 L22.16,38.5002 C23.3788,38.5002 24.367,37.51192 24.367,36.2932 L24.367,9.8242 C24.367,9.08592 23.99981,8.3984 23.38653,7.9883 L13.45683,1.3711 C12.71855,0.87501 11.75373,0.87501 11.01153,1.3711 L1.085729,7.9883 C0.472449,8.39846 0.101349,9.086 0.101349,9.8242 L0.101,9.8242 Z" id="Fill-3"></path>
                            <path d="M57.453,66.164001 L57.43737,65.94134 C57.453,70.136642 56.32407,71.589741 53.04287,71.589741 C49.77337,71.589741 48.63267,70.148341 48.63267,66.074141 L48.62096,66.304611 L50.61706,47.32461 L55.46866,47.32461 L57.453,66.164001 Z M57.45691,42.91 L48.63271,42.91 C47.50381,42.91 46.55851,43.76547 46.43741,44.8866 L44.23431,65.8436 L44.21868,66.074073 C44.21868,72.386573 47.07808,75.9998729 53.04288,75.9998729 C59.03508,75.9998729 61.87098,72.359273 61.85148,65.92587 L61.83976,65.70321 L59.64836,44.88721 C59.53117,43.76611 58.58586,42.91061 57.45696,42.91061 L57.45691,42.91 Z" id="Fill-4"></path>
                            <path d="M55.25,16.441 C55.25,15.2222 54.26172,14.234 53.043,14.234 C51.82428,14.234 50.8399,15.22228 50.8399,16.441 L50.8399,44.015 C50.8399,45.2338 51.82428,46.2181 53.043,46.2181 C54.26172,46.2181 55.25,45.23372 55.25,44.015 L55.25,16.441 Z" id="Fill-5"></path>
                            <path d="M64.438,5.4141 L68.0435,25.2661 L38.0435,25.2661 L41.6568,5.4111 L64.438,5.4141 Z M37.637,2.8125 L33.2268,27.0745 C32.98071,28.43 34.01977,29.6761 35.3987,29.6761 L70.6917,29.6761 C72.0667,29.6761 73.1097,28.43 72.8636,27.0745 L68.4495,2.8125 C68.25809,1.7617 67.344,1 66.2815,1 L39.8085,1 C38.7421,1 37.828,1.76172 37.6366,2.8125 L37.637,2.8125 Z" id="Fill-6"></path>
                        </g>
                    </g>
                </g>
            </g>
        </g>
    </g>
</svg>