<?xml version="1.0" encoding="UTF-8"?>
<svg width="124px" height="146px" viewBox="0 0 124 146" version="1.1" xmlns="http://www.w3.org/2000/svg" xmlns:xlink="http://www.w3.org/1999/xlink">
    <!-- Generator: Sketch 42 (36781) - http://www.bohemiancoding.com/sketch -->
    <title>Gift</title>
    <desc>Created with Sketch.</desc>
    <defs></defs>
    <g id="02.-Handoff-Folder-" stroke="none" stroke-width="1" fill="none" fill-rule="evenodd">
        <g id="ICEF_Assets" transform="translate(-61.000000, -3588.000000)" stroke-width="4" stroke="#fff">
            <g id="Donate-Page" transform="translate(55.000000, 3544.000000)">
                <g id="Gift" transform="translate(68.000000, 117.000000) rotate(90.000000) translate(-68.000000, -117.000000) translate(-3.000000, 57.000000)">
                    <polygon id="Stroke-1" points="40.40584 66.75788 40.40584 53.2265953 53.9371247 53.2265953 53.9371247 66.75788"></polygon>
                    <path d="M53.9386988,53.23584 L58.9387388,36.7668847 C59.8215694,33.5324471 57.4699623,30.2980094 53.9386988,30.2980094 L39.821527,30.2980094 C36.2903223,30.2980094 33.9385388,33.5324471 34.821487,36.7668847 L39.821527,53.23584 L53.9386988,53.23584 Z" id="Stroke-2"></path>
                    <path d="M53.9386988,66.76536 L58.9387388,83.2343153 C59.8215694,86.4687529 57.4699623,89.7031906 53.9386988,89.7031906 L39.821527,89.7031906 C36.2903223,89.7031906 33.9385388,86.4687529 34.821487,83.2343153 L39.821527,66.76536 L53.9386988,66.76536 Z" id="Stroke-3"></path>
                    <path d="M53.9386988,56.1799812 L81.0012682,38.8204306" id="Stroke-4"></path>
                    <path d="M53.9386988,63.8212188 L81.0012682,81.1807694" id="Stroke-5"></path>
                    <path d="M0.41415296,60.0006 L40.414473,60.0006" id="Stroke-6"></path>
                    <path d="M53.9386988,60.0006 L141.586459,60.0006" id="Stroke-7"></path>
                    <path d="M132.7658,119.415781 L9.23246174,119.415781 C4.23242174,119.415781 0.412097061,115.595457 0.412097061,110.595417 L0.412097061,9.41519238 C0.412097061,4.41515238 4.23242174,0.594827699 9.23246174,0.594827699 L132.7658,0.594827699 C137.76584,0.594827699 141.586165,4.41515238 141.586165,9.41519238 L141.586165,110.298355 C141.586165,115.298395 137.76584,119.415487 132.7658,119.415487 L132.7658,119.415781 Z" id="Stroke-10"></path>
                </g>
            </g>
        </g>
    </g>
</svg>