<?xml version="1.0" encoding="UTF-8"?>
<svg width="151px" height="150px" viewBox="0 0 151 150" version="1.1" xmlns="http://www.w3.org/2000/svg" xmlns:xlink="http://www.w3.org/1999/xlink">
    <!-- Generator: Sketch 42 (36781) - http://www.bohemiancoding.com/sketch -->
    <title>HealthCare</title>
    <desc>Created with Sketch.</desc>
    <defs></defs>
    <g id="01.-Homepage" stroke="none" stroke-width="1" fill="none" fill-rule="evenodd">
        <g id="1.1_DESKTOP_Main" transform="translate(-253.000000, -2936.000000)">
            <g id="Tekera-Research-Centre-" transform="translate(253.000000, 2310.000000)">
                <g id="4/8-Programs" transform="translate(0.000000, 626.000000)">
                    <g id="HealthCare">
                        <g id="ASSET_YCircleFill" fill="#FFEABA">
                            <ellipse id="Oval-Copy" cx="75.0816104" cy="75" rx="75.0816104" ry="75"></ellipse>
                        </g>
                        <path d="M108.276213,43.454 L103.583112,43.454 L103.583112,41.852 C103.583112,36.97 99.6107943,33 94.723482,33 L55.1164309,33 C50.2291186,33 46.2568009,36.97 46.2568009,41.852 L46.2568009,43.454 L41.5636997,43.454 C40.7027639,43.454 40,44.15 40,45.016 L40,67.922 C40,68.782 40.7027639,69.486 41.5636997,69.486 L46.2568009,69.486 L46.2568009,112.65 C46.2568009,117.524 50.2291186,121.5 55.1164309,121.5 L94.723482,121.5 C99.6107943,121.5 103.583112,117.532 103.583112,112.65 L103.583112,69.486 L108.276213,69.486 C109.137149,69.486 109.839913,68.79 109.839913,67.922 L109.839913,45.016 C109.839913,44.158 109.145158,43.454 108.276213,43.454 Z M49.3922089,41.852 C49.3922089,38.696 51.9650054,36.126 55.1244396,36.126 L94.7294886,36.126 C97.8909249,36.126 100.463721,38.696 100.463721,41.852 L100.463721,43.454 L49.3922089,43.454 L49.3922089,41.852 Z M100.463721,112.642 C100.463721,115.798 97.8909249,118.368 94.7294886,118.368 L55.1244396,118.368 C51.9650054,118.368 49.3922089,115.798 49.3922089,112.642 L49.3922089,106.72 L74.9519913,106.72 C75.8109249,106.72 76.515691,106.016 76.515691,105.158 L76.515691,81.736 C76.515691,80.876 75.8109249,80.172 74.9519913,80.172 L49.3922089,80.172 L49.3922089,69.478 L100.463721,69.478 L100.463721,112.642 Z M49.416235,103.602 L49.416235,83.298 L73.3862894,83.298 L73.3862894,103.602 L49.416235,103.602 Z M106.712514,66.36 L43.1354081,66.36 L43.1354081,46.578 L106.712514,46.578 L106.712514,66.36 Z" id="Page-1" fill="#000000"></path>
                    </g>
                </g>
            </g>
        </g>
    </g>
</svg>