<?xml version="1.0" encoding="UTF-8"?>
<svg width="85px" height="68px" viewBox="0 0 85 68" version="1.1" xmlns="http://www.w3.org/2000/svg" xmlns:xlink="http://www.w3.org/1999/xlink">
    <!-- Generator: Sketch 42 (36781) - http://www.bohemiancoding.com/sketch -->
    <title>ASSET_Heart</title>
    <desc>Created with Sketch.</desc>
    <defs>
        <path d="M42.5210904,14.7818473 C42.5215151,14.7822622 42.5217285,14.7824707 42.5217285,14.7824707 L42.5217285,67.1665039 C42.5217285,67.1665039 23.315918,58.234375 12.4326172,45.4506836 C2.68984044,34.0066691 -2.77490234,19.4545898 1.46533203,10.1337891 C7.78654671,-3.76138217 26.045089,-0.00888365025 34.677002,7.3972168 C37.0073652,9.39664661 42.4533319,14.7156577 42.5210904,14.7818473 C42.5221811,14.7820028 47.4998625,9.63608118 49.8447266,7.62420975 C58.4766395,0.218109304 76.7351818,-3.53438922 83.0563965,10.360782 C87.2966309,19.6815828 81.8318881,34.2336621 72.0891113,45.6776765 C61.2058105,58.461368 42.5217285,67.1665039 42.5217285,67.1665039 L42.5217285,14.7824707 Z" id="path-1"></path>
    </defs>
    <g id="Symbols" stroke="none" stroke-width="1" fill="none" fill-rule="evenodd">
        <g id="ASSET_Heart">
            <g id="Heart">
                <mask id="mask-2" fill="white">
                    <use xlink:href="#path-1"></use>
                </mask>
                <use id="Mask" fill="#852762" xlink:href="#path-1"></use>
                <path d="M22.6484375,-2.95361328 L84,-2 L84,68 L42,68 C42,68 51.0957031,50.0268555 52.0483398,35.4111328 C53.2494553,16.9831525 22.6484375,-2.95361328 22.6484375,-2.95361328 Z" id="Rectangle-24" fill="#631747" mask="url(#mask-2)"></path>
            </g>
        </g>
    </g>
</svg>