<?xml version="1.0" encoding="UTF-8"?>
<svg width="58px" height="48px" viewBox="0 0 58 48" version="1.1" xmlns="http://www.w3.org/2000/svg" xmlns:xlink="http://www.w3.org/1999/xlink">
    <!-- Generator: Sketch 42 (36781) - http://www.bohemiancoding.com/sketch -->
    <title>Logo_ICEF_Shape</title>
    <desc>Created with Sketch.</desc>
    <defs></defs>
    <g id="Symbols" stroke="none" stroke-width="1" fill="none" fill-rule="evenodd">
        <g id="LOGO_VerticalWhite" transform="translate(-1.000000, -1.000000)" fill="#FFFFFF">
            <g id="Page-1" transform="translate(1.600000, 1.600000)">
                <g id="Logo_ICEF_Shape" transform="translate(0.000000, 0.000000)">
                    <path d="M8.79090703,34.1241697 C4.83447678,22.4543273 20.6592432,18.0594828 25.5397474,25.8150626 C30.6164264,33.8824485 25.7612196,40.5505212 23.4319423,43.2089778 C21.102665,45.8679111 17.3319087,48.4167111 8.79090703,46.0900848 C0.249905347,43.7634586 -2.85547953,31.1329293 3.02308182,18.2811798 C8.90164316,5.42895354 26.5378045,0 26.5378045,0 C26.4270684,1.99431919 21.8257911,0.751862626 17.9972801,7.20157576 C14.2814146,13.4615354 18.440702,15.1788525 19.8826583,15.1788525 C20.8601911,15.1788525 21.3270011,14.808404 21.5269944,14.2834828 C20.1332465,14.1924202 19.030181,13.0372121 19.030181,11.6221657 C19.030181,10.1470465 20.2272768,8.9517899 21.7035995,8.9517899 C22.6138314,8.9517899 23.4161911,9.40662626 23.8992297,10.1003232 C24.3999289,10.6991434 24.7631625,11.6302707 24.7631625,13.0739232 C24.7631625,17.726699 20.6592432,18.0594828 20.6592432,18.0594828 C12.0075053,18.0594828 13.8933608,10.303903 13.8933608,10.303903 C13.4494616,10.5251232 3.91040283,20.9401131 5.24162299,32.1298505 C6.57332047,43.3200646 15.7777843,42.4080081 18.3299659,40.6611313 C21.3246146,38.6115071 25.0595726,31.6545131 19.6607087,27.8093818 C16.9810852,25.900404 15.230786,28.0377535 14.641307,29.2234747 C15.5462885,28.9498101 16.4694079,28.9989172 17.255539,29.4423111 C19.0898448,30.4778505 19.4817171,33.2516848 18.1314045,35.6393374 C17.0502953,37.5516525 15.1797137,38.6324848 13.5349003,38.4565576 C11.9554785,38.4417778 9.90733728,37.417204 8.79090703,34.1241697 Z M47.9297346,34.1241697 C46.8133043,37.417204 44.7651632,38.4417778 43.1857413,38.4565576 C41.5409279,38.6324848 39.669869,37.5516525 38.5892371,35.6393374 C37.2389245,33.2512081 37.6307968,30.4773737 39.46558,29.4423111 C40.2512337,28.9989172 41.1743531,28.9498101 42.0788573,29.2234747 C41.4898556,28.0377535 39.7395564,25.900404 37.0599329,27.8093818 C31.6605917,31.6545131 35.3955497,38.6115071 38.3906758,40.6611313 C40.9428573,42.4080081 50.1473211,43.3200646 51.4790186,32.1298505 C52.8102388,20.9401131 43.2707027,10.5256 42.8272808,10.303903 C42.8272808,10.303903 44.7131363,18.0594828 36.0618758,18.0594828 C36.0618758,18.0594828 31.9570018,17.7271758 31.9570018,13.0739232 C31.9570018,11.6302707 32.3207127,10.6991434 32.8214119,10.1003232 C33.3039732,9.40662626 34.1068102,8.9517899 35.0165648,8.9517899 C36.4933648,8.9517899 37.6904606,10.1470465 37.6904606,11.6221657 C37.6904606,13.0372121 36.5873951,14.1924202 35.1936472,14.2834828 C35.3931632,14.808404 35.8604506,15.1788525 36.8379833,15.1788525 C38.2794623,15.1788525 42.439227,13.4615354 38.7233615,7.20157576 C34.8948506,0.752339394 30.2935732,1.99431919 30.1823598,0 C30.1823598,0 47.8189985,5.42895354 53.6975598,18.2811798 C59.5761211,31.1329293 56.4707363,43.7634586 47.9297346,46.0896081 C39.3887329,48.4167111 35.6174993,45.8679111 33.288222,43.2089778 C30.9589447,40.5505212 26.1042153,33.8819717 31.1808943,25.8150626 C36.0618758,18.0594828 51.8856875,22.4543273 47.9297346,34.1241697 Z" id="Combined-Shape"></path>
                </g>
            </g>
        </g>
    </g>
</svg>