<?xml version="1.0" encoding="UTF-8"?>
<svg width="290px" height="328px" viewBox="0 0 290 328" version="1.1" xmlns="http://www.w3.org/2000/svg" xmlns:xlink="http://www.w3.org/1999/xlink">
    <!-- Generator: Sketch 42 (36781) - http://www.bohemiancoding.com/sketch -->
    <title>KoruSwirl</title>
    <desc>Created with Sketch.</desc>
    <defs></defs>
    <g id="02.-Handoff-Folder-" stroke="none" stroke-width="1" fill="none" fill-rule="evenodd">
        <g id="ICEF_Assets" transform="translate(-692.000000, -4549.000000)" fill="#B5852F">
            <g id="KoruSwirl" transform="translate(692.000000, 4549.000000)">
                <path d="M144.990932,22.9092839 C145.324196,23.1005026 145.658647,23.2753716 145.988113,23.4796225 C143.525899,23.5855392 144.256042,23.2779781 144.990932,22.9092839 M23.8722057,233.604742 C23.5612541,233.071842 23.3450122,233.141742 23.1622391,233.416367 C23.3943846,233.584602 23.5683751,233.984573 23.7001141,234.525056 C23.7665771,234.795179 23.8197474,235.101319 23.8691199,235.430205 C23.9232397,235.758618 23.9690516,236.110726 24.0084547,236.475865 C24.1769857,236.237731 24.2989926,235.924483 24.2956695,235.470961 C24.29472,235.016253 24.1864804,234.418429 23.8722057,233.604742 M24.2424991,239.36239 C24.2788164,239.408832 24.3054016,239.440584 24.3471783,239.475178 C24.3421935,240.893561 24.3732887,241.350875 24.3557235,241.210363 C24.3497893,241.067956 24.2918716,240.334122 24.2424991,239.36239 M225.075444,269.242495 C225.240414,268.269578 226.283407,267.49878 227.707613,266.820629 C227.10375,267.689762 226.261095,268.540412 225.075444,269.242495 M259.87686,192.180434 C259.775978,191.635212 259.532914,190.813706 259.444851,190.053097 C259.433932,189.95808 259.425386,189.863774 259.41969,189.77089 C259.411144,189.68464 259.401412,189.610001 259.397614,189.531807 C259.389307,189.37779 259.39619,189.231591 259.422538,189.09653 C259.474047,188.824511 259.612432,188.606043 259.855734,188.445628 C260.298662,188.740157 260.560716,189.00483 260.708596,189.271873 C260.781705,189.404091 260.824431,189.535361 260.842708,189.666632 C260.861935,189.796006 260.856713,189.926329 260.820396,190.082716 C260.687233,190.683621 260.251188,191.32386 259.87686,192.180434 M249.707081,142.436338 C247.981181,140.622722 247.027201,138.911943 246.410283,138.135695 C245.801435,137.356841 245.569526,137.513465 245.296554,139.446976 C247.513805,138.940377 248.817665,142.337292 250.004028,145.766433 C251.200598,149.193677 252.242168,152.65528 254.490276,152.329711 C254.400314,153.212112 254.313675,154.090012 254.203061,154.968386 C254.071085,154.270805 253.791466,154.226258 253.648571,153.539814 C253.43945,154.837589 253.560745,155.648669 253.914422,156.236542 C254.265252,156.824178 254.826151,157.190503 255.43405,157.594029 C256.045272,157.996844 256.713936,158.435201 257.281007,159.165718 C257.843569,159.895998 258.289345,160.922939 258.461437,162.485387 C258.507011,163.587916 258.443871,164.540691 258.266795,165.047764 C258.082598,165.555548 257.797994,165.617155 257.389484,164.947061 C258.055063,166.448139 258.714233,167.960354 259.335424,169.484179 C259.478082,170.880762 258.647058,170.661347 258.505587,169.280402 C258.774287,170.472734 259.000024,171.664119 259.239765,172.857636 C259.453633,174.04831 259.68388,175.243723 259.864042,176.432264 C260.133691,176.866356 260.678925,177.659665 261.166003,178.475483 C261.413103,178.884222 261.654268,179.299833 261.867424,179.683218 C262.072035,180.06447 262.251485,180.414682 262.386785,180.693335 C261.862202,182.572112 261.847723,179.802877 261.320055,180.313978 C261.778649,181.61436 262.209709,182.922324 262.601603,184.233605 C262.028834,185.04895 261.445385,184.632629 261.021684,183.710894 C260.796422,183.242206 260.607715,182.642486 260.479536,181.992532 C260.342812,181.339024 260.249289,180.628174 260.24834,179.947654 C259.182085,180.946635 258.745328,181.624786 258.624271,182.214317 C258.500127,182.801006 258.730374,183.316372 259.007857,183.955426 C259.270623,184.58358 259.624063,185.370728 259.686491,186.424682 C259.664178,187.570098 259.61979,187.885478 259.551903,188.222421 C259.491375,188.568842 259.371979,188.889673 259.241664,189.251258 C258.917657,190.036511 258.814165,190.263509 258.701653,190.496904 C258.680289,189.724921 258.589852,188.80674 258.589852,188.80674 L258.391413,187.187187 C258.059098,187.438591 257.781616,187.692364 257.547571,187.951588 C257.126481,188.471219 257.031534,188.5923 256.946319,188.718832 C256.773753,188.974975 256.64059,189.215479 256.513598,189.506216 C256.371415,189.840316 256.247271,190.187211 256.1293,190.547612 C255.893356,191.268414 255.681624,192.044188 255.401293,192.872091 C255.084407,193.69952 254.691564,194.57979 254.136836,195.498445 C254.380612,195.300355 254.831374,194.748735 255.381354,194.086223 C255.656226,193.755204 255.955547,193.396461 256.265786,193.041747 C256.560122,192.686796 256.862766,192.335399 257.164697,192.021204 C258.371237,190.767264 259.54407,190.084611 259.834846,192.279953 C259.375777,193.437928 258.926914,194.954171 259.445088,197.408025 C258.65323,197.273437 258.240447,197.775771 257.967712,198.656514 C257.689517,199.536783 257.584126,200.806125 257.271987,202.189676 L255.247004,201.516264 C255.189324,203.043643 255.444257,203.825578 255.759481,204.469608 C256.063549,205.112454 256.450221,205.619053 256.665988,206.620877 C256.380909,207.43409 256.067347,208.059638 255.708684,208.538751 C255.341477,209.015968 254.952668,209.351963 254.554366,209.596732 C253.758235,210.085797 252.923175,210.210907 252.144609,210.372744 C251.797578,211.390444 251.746307,211.56555 251.724706,211.705113 C252.06248,212.238962 252.542438,211.942063 253.035687,211.676916 C253.515645,211.4094 254.008183,211.172924 254.283529,211.398974 C254.488615,212.537282 254.383461,213.102881 254.158436,213.890266 C253.037586,215.929695 252.306732,217.734069 251.816805,219.770654 C251.536474,220.777218 251.304803,221.837569 251.079066,223.000756 C250.844784,224.194984 250.779034,224.503019 250.711621,224.8184 C250.577746,225.452952 250.438174,226.116412 250.290768,226.815888 C249.275547,228.143993 249.036518,227.866051 248.931364,227.371299 C248.820513,226.872282 248.830483,226.149822 248.312784,226.545765 C248.374262,227.101413 248.417226,227.652322 248.454967,228.204415 L248.571989,229.871121 C248.218786,230.487665 247.856326,230.048834 247.672841,229.828233 C247.426216,231.062506 247.87579,231.351111 248.239437,231.790653 C248.601898,232.230669 248.86229,232.816173 248.200509,234.668411 C248.593352,235.175247 248.363581,235.773072 247.802681,236.464729 C247.223504,237.146671 246.301093,237.913678 245.339042,238.779019 C244.390759,239.653365 243.330438,240.585763 242.531933,241.660331 C242.126272,242.19418 241.795381,242.770205 241.527868,243.36803 C241.261779,243.966566 241.088738,244.604198 241.042214,245.288273 C239.894304,245.95197 240.25629,244.10447 239.367585,243.963722 C239.106006,244.765561 238.881931,245.452479 238.686815,246.051725 C238.483866,246.648602 238.293259,247.14833 238.134698,247.594507 C237.813302,248.484254 237.582818,249.134919 237.387939,249.767338 C237.198283,250.403786 237.025004,251.008719 236.821818,251.818377 C236.620292,252.629694 236.390995,253.645736 236.061766,255.101556 L232.136181,257.940691 C233.796805,257.085539 234.349634,257.792361 234.331594,259.240362 C234.322574,259.963533 234.145498,260.851385 233.905282,261.822169 C233.659369,262.788451 233.351978,263.840035 233.022037,264.836884 C234.407551,264.375779 235.593203,263.96088 236.298659,263.605929 C235.782622,264.538564 235.281776,265.488496 234.747225,266.414734 L233.128377,269.194157 C232.366902,269.550056 232.232315,268.582115 232.224007,267.223918 C232.079925,267.66346 231.947711,268.086179 231.86392,268.433074 C230.841578,269.036349 230.269997,268.89015 229.998448,268.373362 C229.727849,267.856575 229.718117,266.936498 229.780544,265.946995 C230.586645,265.647016 231.413871,265.364571 232.230178,265.093975 C232.231365,264.593773 232.223057,264.096652 232.185316,263.618961 C232.143302,263.138189 232.077076,262.681113 231.975008,262.270952 C231.770872,261.450395 231.422891,260.817501 230.841103,260.547378 C230.779625,261.006824 230.476269,261.744213 230.02171,262.459802 C230.009604,261.93709 229.924152,261.542331 229.645957,261.547781 C229.342127,261.564367 229.292754,262.342748 229.060371,263.453096 C228.157187,263.295761 227.258276,263.133687 226.3634,262.966874 L226.860685,263.833401 L226.079271,264.465109 L225.27958,265.078099 L223.684707,266.299576 C222.63483,267.12203 221.543888,267.898989 220.46529,268.679502 C220.198251,269.392958 219.953288,270.117077 219.707375,270.842855 C219.454816,271.567685 219.202969,272.290383 218.948748,273.020663 C218.694052,273.756392 218.433898,274.503022 218.156177,275.261736 C217.870624,276.012393 217.556824,276.764236 217.218813,277.535508 C216.879377,278.305121 216.51027,279.088004 216.09915,279.886052 C215.67355,280.667276 215.204274,281.461532 214.68159,282.27119 C213.652127,283.908041 212.334499,285.523566 210.728233,287.218943 C211.047492,285.806958 210.677911,285.190414 210.083779,284.713197 C209.487987,284.236927 208.666932,283.899985 208.051913,283.073029 C208.869644,283.091037 209.578424,282.769022 210.237119,282.237069 C210.566585,281.971212 210.883708,281.652988 211.195847,281.298274 C211.501102,280.935029 211.798761,280.532214 212.101167,280.110206 C212.703606,279.263821 213.322898,278.339953 214.015062,277.444519 C214.692509,276.531551 215.451848,275.656731 216.372835,274.934271 C214.450157,276.443879 214.166977,275.358174 214.376336,274.693056 L213.221779,276.472787 C212.83131,277.063029 212.424699,277.638107 212.024735,278.223847 C211.22077,279.390589 210.419655,280.573681 209.568454,281.710567 C209.089447,281.012512 208.548486,281.059191 207.86819,281.38713 C207.184571,281.710804 206.374436,282.338721 205.308418,282.732532 C207.000611,283.504752 206.151548,284.898492 204.611506,286.480844 C204.231481,286.881763 203.789265,287.266807 203.340403,287.664409 C202.889642,288.060116 202.429386,288.463404 201.980998,288.856978 C201.532611,289.251263 201.10796,289.65313 200.715829,290.027274 C200.322036,290.39976 199.97453,290.764189 199.702744,291.115112 C199.289724,290.725329 199.083215,290.179159 199.414342,289.461675 C199.75449,288.755327 200.595484,287.832407 202.313076,286.697653 C201.029154,286.886976 200.252725,287.390732 199.721021,288.066039 C199.18101,288.727367 198.880265,289.549346 198.586404,290.39123 C198.291831,291.231217 197.998919,292.084474 197.473387,292.783951 C196.934563,293.462101 196.159558,293.985287 194.93118,294.171056 C195.757219,293.583894 196.307675,293.418977 196.316932,292.727083 C195.968239,293.260931 195.376719,293.824161 194.695949,294.343082 C194.355564,294.602542 193.993578,294.85205 193.62732,295.079048 C193.255127,295.296094 192.879849,295.493237 192.521424,295.661708 C191.086299,296.336305 189.926521,296.548849 190.242458,295.776392 L191.077754,295.222403 C190.711971,295.424047 190.325062,295.642278 189.921299,295.8752 C189.518249,296.110018 189.097396,296.358104 188.653044,296.599556 C187.770036,297.092886 186.834808,297.634791 185.881302,298.209868 C185.408229,298.504871 184.91308,298.773335 184.423865,299.061467 C183.933464,299.347228 183.442587,299.639151 182.955272,299.935338 C182.469618,300.234606 181.98515,300.532926 181.505905,300.828166 C181.02215,301.114401 180.546228,301.403243 180.082886,301.693033 C179.619307,301.982586 179.167834,302.273561 178.732976,302.563825 C177.882963,303.137717 177.675978,303.275148 177.473504,303.409499 C176.66503,303.952825 175.941059,304.48928 175.336483,305.004883 C175.034077,305.262685 174.761816,305.515748 174.524211,305.761465 C174.282334,305.997704 174.075112,306.227308 173.907768,306.450041 C173.573317,306.89527 173.397427,307.311355 173.420214,307.685025 C173.218689,307.371777 172.883764,304.217025 173.011467,303.54385 C172.431816,304.6478 171.835548,305.760517 171.221478,306.880343 L170.757899,307.721752 C170.601711,308.00159 170.439827,308.269343 170.279366,308.544442 L169.299275,310.190534 L168.29165,311.847525 C168.120982,312.123098 167.951265,312.404832 167.776562,312.677087 L167.245808,313.485797 C166.533468,314.565815 165.801901,315.652468 165.05087,316.745281 C165.196376,315.414807 163.81276,313.722984 163.052234,311.95747 C162.285299,310.194562 162.112021,308.365071 164.444395,306.842194 C163.650638,306.93105 162.769767,307.034834 161.735319,307.350925 C160.693275,307.642611 159.490058,308.109402 158.040929,308.998675 C158.59447,309.011708 159.475342,309.661188 160.062114,310.383411 C160.647938,311.105872 160.930642,311.903682 160.243701,312.226882 C159.068256,311.87667 158.299422,311.668391 157.701968,311.504185 C157.107837,311.350404 156.697191,311.28311 156.262096,311.235246 C155.827239,311.187382 155.367932,311.158712 154.685738,311.080044 C154.007104,311.015831 153.091577,310.839066 151.775611,310.539561 C152.602362,310.624389 152.806973,311.685214 152.469199,312.781819 C152.300193,313.330121 151.994464,313.888138 151.567439,314.336448 C151.13994,314.779307 150.595656,315.138998 149.946931,315.209609 C150.233908,314.580032 149.037338,311.569583 149.860529,311.010381 C148.963042,311.811509 148.043242,312.593681 147.105878,313.392913 C146.170887,314.208258 145.205987,314.946357 144.223285,315.704834 C145.725348,314.829067 144.047633,312.537997 142.565747,311.668865 C141.894472,312.073575 141.756561,312.098692 141.60607,312.119544 C140.770061,312.188022 140.382677,312.209348 139.977491,312.229726 C139.16688,312.268585 138.285534,312.310289 137.506019,312.361707 C136.725792,312.383743 136.04692,312.432792 135.640547,312.54321 L136.972654,312.918539 L138.316155,313.263064 C137.469939,313.291735 137.270788,313.29837 137.07757,313.313298 C136.691373,313.341495 136.330812,313.390544 135.991139,313.457837 C135.312505,313.592425 134.717899,313.799045 134.176463,314.054714 C133.635265,314.320809 133.147475,314.593302 132.683421,314.902521 C132.219605,315.211267 131.779763,315.547262 131.335173,315.886101 C130.446943,316.555248 129.5383,317.280788 128.389441,317.71417 C127.814774,317.941168 127.179341,318.120302 126.457268,318.225271 C126.096232,318.277874 125.713596,318.311995 125.30651,318.324316 C124.899187,318.340903 124.470264,318.294461 124.013094,318.24399 C124.490915,317.903019 125.11899,316.77182 125.170499,315.624034 C125.222482,314.476248 124.723535,313.312113 122.994787,312.913563 C122.545687,313.344812 121.80961,314.111582 120.833317,314.971474 C119.859635,315.814779 118.638379,316.786748 117.221294,317.716303 C116.867617,317.946144 116.499934,318.184516 116.124893,318.39706 C115.750327,318.605813 115.364842,318.808405 114.9701,319.003178 C114.180378,319.392487 113.351965,319.748623 112.497441,320.051208 C112.070654,320.201434 111.636034,320.343367 111.198803,320.460183 C110.764658,320.563731 110.325765,320.651402 109.884499,320.720355 C109.001966,320.858733 108.108751,320.92271 107.223608,320.894987 C106.887258,320.436725 106.553756,319.987705 106.234972,319.50409 L103.542273,319.352442 L102.183818,319.271642 C101.727835,319.249843 101.285382,319.183734 100.833197,319.14132 C101.339976,318.930908 101.936007,318.733055 102.624135,318.461273 C103.308466,318.201339 104.065431,317.924582 104.867971,317.637398 C105.655557,317.360404 106.502722,317.062558 107.387154,316.751679 C108.248561,316.425162 109.146523,316.084665 110.058964,315.738481 C110.956213,315.395851 111.846342,315.075495 112.721042,314.73405 C113.583873,314.385497 114.440058,314.03955 115.270133,313.704502 C115.673658,313.546694 116.070774,313.391491 116.45887,313.239606 C116.843642,313.09175 117.21536,312.956214 117.577821,312.800301 C118.300368,312.502692 118.965709,312.242047 119.559603,312.029977 C118.335023,311.417698 118.212779,311.075305 117.908474,310.828166 C117.602744,310.595244 117.132994,310.403552 115.2388,310.09291 C114.674815,309.46286 115.267996,309.181364 116.123469,309.074262 C116.551918,309.020949 117.047541,309.011708 117.504474,309.025451 C118.348078,309.049857 118.522781,309.059335 118.660929,309.071182 L117.592537,308.822622 L116.53364,308.531884 L114.421543,307.957043 C114.068578,307.870083 113.722733,307.750186 113.376176,307.63645 L112.337693,307.295953 L110.265711,306.62183 C110.162931,307.759427 108.403799,307.811082 106.603129,307.813452 C105.698995,307.832881 104.811953,307.761323 104.120975,307.833118 C103.43071,307.903966 102.939834,308.101109 102.865538,308.567426 C103.711516,308.658415 104.549187,308.757934 105.386382,308.839682 L107.910787,308.986117 C109.572598,309.119994 111.256246,309.080897 112.901441,309.099853 C112.845897,310.227735 111.129967,311.450871 108.526281,312.086845 C107.240698,312.357442 105.738873,312.479708 104.15397,312.389193 C103.372793,312.309341 102.573576,312.170725 101.773647,311.973109 C101.37392,311.874064 100.973956,311.759854 100.57684,311.629531 C100.180436,311.497076 99.7816581,311.362489 99.4030567,311.170796 C98.7685731,310.430327 99.4386618,309.631806 100.256393,308.913847 C101.091215,308.223849 101.293927,308.057273 101.471716,307.90444 C101.827767,307.59759 102.087447,307.336708 102.121153,307.151413 C101.587551,307.401396 100.047272,307.14549 98.5725074,306.765422 C98.2045876,306.669931 97.8414151,306.565199 97.5015047,306.456913 C96.8591879,306.22565 96.7139189,306.161673 96.5788568,306.098881 C96.0386081,305.846293 95.6602441,305.604841 95.5828622,305.417887 L97.069733,305.456747 L98.5599269,305.438265 C98.1917697,305.168616 97.8060474,304.997775 97.4288702,304.835938 C97.0497941,304.679314 96.6619354,304.576004 96.266481,304.503497 C95.4758094,304.358958 94.6533307,304.338106 93.8194582,304.267969 C92.9872473,304.169872 92.7828738,304.127221 92.5780256,304.077698 C92.1690412,303.978179 91.761481,303.845013 91.360567,303.657349 C90.9598905,303.469684 90.5653855,303.227521 90.1839358,302.911193 C89.4397883,302.180439 89.258202,301.966947 89.0932315,301.707487 C88.4836715,301.261784 87.884793,300.071584 87.3471553,299.131841 C87.0772684,298.661495 86.8201992,298.252046 86.5728622,298.021967 C85.9065713,298.184752 85.930308,298.416252 85.9386159,298.658889 C85.893516,299.918989 85.8023669,300.473452 85.6663552,301.047345 C85.3940946,302.194656 84.9428587,303.418503 84.3914538,304.559654 C83.2907801,306.843852 81.774001,308.789686 80.4905543,309.140135 C79.8987968,308.52051 79.6433893,308.226218 79.3490534,307.876717 C78.7577707,307.181743 78.0027043,306.279911 77.2440774,305.334481 C77.0558449,305.097294 76.8659508,304.858211 76.6765314,304.619603 C76.3081369,304.135514 76.2203108,304.010878 76.1329596,303.887427 C75.7854534,303.391254 75.455275,302.904559 75.159515,302.447245 C74.5679948,301.532855 74.1155722,300.737177 73.9342233,300.216124 C73.4689828,298.643013 75.002615,298.288062 76.5056267,297.953489 C78.0159969,297.624128 79.4969335,297.318226 79.1420689,295.999599 C78.7112466,296.4408 77.1396356,296.228019 76.5189193,296.076845 C76.394776,295.091607 76.5426561,294.939722 76.6295326,294.770539 C76.8023362,294.431701 76.7351612,294.02699 75.298375,293.054547 C74.8324224,293.40547 74.2596543,293.293867 73.7075372,293.007631 C73.1573191,292.7195 72.6192067,292.271902 72.2641047,291.898468 C72.4589836,292.919723 72.6175451,293.191978 72.8012677,293.507596 C72.0167677,293.105255 71.4924226,292.698175 71.0713325,292.314079 C70.6502423,291.929509 70.3400028,291.557497 70.0278644,291.161317 C69.7154886,290.765137 69.4012139,290.34455 68.9711038,289.86212 C68.7593718,289.617114 68.504439,289.373292 68.231941,289.07829 C67.9556451,288.787789 67.6375725,288.475252 67.262769,288.134992 C67.2283507,289.11241 65.7270005,289.397935 63.8180901,289.155298 C63.3412186,289.094876 62.8396608,289.001755 62.3305073,288.879963 C61.3098265,288.598703 61.0651005,288.506292 60.8187129,288.41246 C59.8369604,288.032866 58.9003078,287.552806 58.1575845,287.015403 C58.7206205,286.770634 58.7056664,285.673318 58.687389,285.161506 C58.3816596,284.823616 58.0828137,284.497809 57.8029573,284.170581 C57.5333077,283.833875 57.2710165,283.506411 57.0148968,283.186765 C56.5074048,282.54392 56.0343312,281.925717 55.5849943,281.325523 C55.1358947,280.725329 54.7098199,280.143379 54.2975123,279.57233 C53.9039568,278.987774 53.5194212,278.416251 53.137022,277.848282 C51.6321113,275.560767 50.2048198,273.319457 48.2738342,270.573917 C48.3215451,270.161624 48.0222246,269.198185 47.9135102,268.416961 C47.8123916,267.629103 47.9087628,267.022037 48.6847176,267.316565 C47.8361284,266.749544 46.6894054,266.449329 45.5645202,264.730493 C45.4508211,263.636495 45.5894438,263.315665 45.8170794,263.403099 C46.0459018,263.491008 46.4043269,263.968462 46.7890998,264.462977 C47.5515246,265.46101 48.4426026,266.489136 48.6267999,264.612492 C48.316323,264.735706 47.8933339,264.583821 47.3962862,264.251617 C46.8987636,263.91965 46.3238593,263.409497 45.7437328,262.801957 C45.4503464,262.50032 45.1491269,262.177357 44.845059,261.847049 C44.5436021,261.514608 44.2511652,261.168187 43.9539809,260.829823 C43.6556098,260.49051 43.3615114,260.156174 43.0804681,259.836765 C42.8025106,259.514513 42.5307247,259.210032 42.269383,258.936118 C41.925912,259.369737 41.9261494,259.97775 42.1687391,260.672488 C42.4236719,261.360117 42.8948466,262.146791 43.5029825,262.923987 C44.1156283,263.698102 44.8236959,264.485487 45.5526519,265.181646 C45.9127385,265.532095 46.2676031,265.866668 46.6022915,266.175651 C46.9476614,266.477052 47.2690571,266.757364 47.5550851,267.006635 C46.9716355,267.394285 46.2058875,267.520579 45.2998553,267.398787 C44.3923989,267.278417 43.3724303,266.891003 42.2499188,266.278725 C40.0374152,265.038765 37.5108743,262.815463 35.2791439,259.774921 C35.0754825,259.46428 34.8991184,259.17994 34.7472031,258.920243 C34.1782329,257.771509 34.0619228,257.430775 34.0085151,257.162311 C33.8995633,256.626093 34.0495797,256.37611 34.2674832,256.261664 C34.7828083,255.321683 34.5352338,254.738312 34.2869473,254.202094 C34.0386608,253.66564 33.8115,253.167097 33.5705718,252.714285 C33.0856298,251.809373 32.637005,251.04829 32.1720018,250.401416 C31.7020139,249.756202 31.2678686,249.204819 30.820668,248.717413 C30.599204,248.472644 30.3789268,248.242565 30.1612607,248.020069 C29.9466804,247.795203 29.7394585,247.57792 29.5350849,247.363718 C29.1253884,246.932706 28.7270856,246.509039 28.36059,246.038219 C28.0031143,245.564082 27.6719865,245.044451 27.379787,244.428381 C26.8070189,243.195293 26.408716,241.559864 26.3823682,239.155059 C26.863275,237.140273 27.7303789,236.946448 28.6036544,237.082694 C29.4785914,237.225101 30.3618364,237.70066 30.9106303,237.182924 C31.7134076,239.383716 31.9028269,241.154917 31.9790219,242.800061 C32.0350407,243.615643 32.0523685,244.39971 32.1335483,245.165296 C32.2261216,245.92709 32.3547749,246.680117 32.6296466,247.427694 C32.482716,246.097457 32.3486033,244.775276 32.2629136,243.451436 C33.2218788,244.723621 34.6270951,247.479112 34.7308247,249.230647 C34.9729397,247.570812 33.5216741,243.35405 32.445924,238.351325 C31.9037764,235.85482 31.4449448,233.171598 31.222294,230.595478 C30.9951332,228.020542 31.0043905,225.556499 31.2821106,223.528918 C30.9638006,222.827309 30.6084613,221.856051 30.2922876,221.202543 C29.9656698,220.55022 29.6271836,220.215646 29.2744553,220.817025 C29.357534,221.686158 29.4750309,222.55221 29.58873,223.415182 C28.9129444,224.645663 28.3698473,223.446696 27.9295304,222.321184 C27.493486,221.201595 27.1925039,220.167071 26.8689718,221.871927 C26.33893,220.084376 25.6780985,218.148021 25.3614501,215.99841 C25.0402917,213.853539 25.0255749,211.490437 25.7493088,208.973791 C26.4659216,208.737078 27.1818224,208.507473 27.8965363,208.285451 C27.2136296,209.12686 27.0429623,209.566166 26.9166827,210.054283 C26.7880295,210.541452 26.6869109,211.0753 26.657952,211.580715 C26.6339779,212.086603 26.6707699,212.562398 26.7944384,212.930856 C26.6199732,212.38516 26.7265513,211.633791 27.0035593,210.791671 C27.137672,210.370137 27.3038293,209.924671 27.4787693,209.467121 C27.6636786,209.010992 27.8592695,208.543253 28.040381,208.073855 C28.2174573,207.603983 28.3964325,207.135059 28.5395651,206.673954 C28.6836473,206.212849 28.7826296,205.757669 28.8376989,205.320259 C28.9528222,204.446861 28.8120632,203.62891 28.2789355,202.933225 C27.9243083,203.467547 27.5995894,204.012769 27.2575426,204.559175 C26.9143091,205.105582 26.5912517,205.660282 26.265346,206.219247 C26.0360489,204.324121 25.6398823,202.139442 25.5501574,199.853112 C25.4991233,198.709591 25.5449353,197.54901 25.7037342,196.396722 C25.882472,195.250832 26.175621,194.113472 26.6724315,193.041747 C25.4051257,193.777003 25.3759295,194.061106 25.2816946,194.472214 C24.6531451,195.622607 24.2116414,196.086792 23.438535,196.768971 C25.22259,195.715017 24.4093686,198.630213 23.8439589,201.371013 C23.7734607,201.714117 23.703912,202.053903 23.636737,202.381368 C23.5754961,202.709781 23.5254116,203.028005 23.482448,203.32514 C23.3996067,203.919884 23.3499969,204.431223 23.390112,204.79423 C23.4717665,205.522851 23.8384995,205.631611 24.7863084,204.622204 C23.9719001,205.344191 23.4423329,206.074234 23.0513884,206.816361 C22.6782465,207.562517 22.4342326,208.320046 22.2208391,209.117382 C22.0174151,209.916615 21.7983248,210.748783 21.5044637,211.661041 C21.3530231,212.116695 21.1709622,212.591306 20.9421398,213.090797 C20.7239989,213.591709 20.4602835,214.118212 20.1334283,214.677888 C20.4735761,214.625048 20.8203702,214.23882 21.0088401,214.367246 C21.1994463,214.496384 21.2141631,215.130936 20.9798812,217.137903 C21.1666895,217.326041 21.4038198,217.76037 21.5495635,218.034522 C21.9186702,217.055681 22.3145993,216.303365 22.6950996,216.010258 C23.4247677,217.026062 23.721952,219.073547 24.0423982,221.122454 C24.1819704,222.147026 24.3573851,223.171597 24.5145224,224.066794 C24.6975329,224.961518 24.8919369,225.725918 25.1219462,226.229437 C24.2994674,226.459042 23.9657285,225.97282 23.6614232,226.632015 C24.1458905,227.649478 24.6260852,228.653672 25.1454456,229.639384 C24.7834599,229.756675 24.4900736,230.214225 24.2327671,230.757788 C23.9868542,231.299456 23.7782081,231.926426 23.5652893,232.374735 C23.1430123,233.268273 22.6851302,233.455227 21.890186,230.72272 C21.9768252,231.561286 22.0893375,232.397008 22.1892692,233.23439 C22.3096146,234.06869 22.4309095,234.903228 22.5612243,235.736345 C22.4938119,236.503826 22.4629541,237.341681 22.4938119,238.19944 C22.5381996,239.053644 22.6094099,239.936283 22.7580021,240.787407 C23.0418937,242.492974 23.5458252,244.092386 24.1926519,245.225244 C24.2842758,245.821173 24.536835,246.454067 24.8363929,247.036964 C25.1430719,247.617728 25.5081433,248.144705 25.7979691,248.546809 C26.9423184,251.257991 28.1543175,253.600478 29.4460721,255.877568 C30.5619373,259.685828 32.8769836,262.976826 35.1369607,266.344597 C35.6983352,267.193115 35.8407557,267.404711 35.9834137,267.616544 C36.2663559,268.041869 36.544076,268.472171 36.8156245,268.908159 C37.3663174,269.775869 37.9082277,270.656139 38.4095481,271.575505 C39.4397236,273.394807 40.3410084,275.344668 41.0792217,277.495463 C42.8910487,279.357179 44.833428,281.162264 47.2381993,284.683815 L46.7895745,286.153379 C48.0421634,287.223682 49.4115372,289.268324 50.746018,291.060376 C52.1346186,292.809304 53.4558067,294.320808 54.4214182,294.35327 C54.3979188,295.612423 55.1294858,296.941949 56.2375179,298.344693 C56.7943823,299.043222 57.4497543,299.75573 58.1713518,300.468713 C58.9221456,301.156105 59.7379781,301.845155 60.58182,302.527571 C61.0036223,302.868779 61.4325456,303.208092 61.8638425,303.545271 C62.2951395,303.882214 62.7240628,304.221053 63.1788591,304.530036 C64.0732603,305.160323 64.9572173,305.78279 65.8050945,306.380141 C66.648699,306.980335 67.4396079,307.572236 68.1987095,308.094 C68.9461802,308.62856 69.6134205,309.144874 70.1660124,309.641521 L71.3284016,308.404405 C71.7271792,308.708649 72.1292799,309.003888 72.5363654,309.292256 C72.9406025,309.583942 73.3778336,309.833924 73.8055701,310.097649 C74.6688761,310.616807 75.556631,311.114876 76.4811779,311.607258 C77.3938564,312.115753 78.3934114,312.549371 79.4311826,313.005974 C79.9510177,313.230365 80.4824838,313.45997 81.028192,313.695498 C81.3011647,313.811367 81.577698,313.928657 81.8577918,314.047606 C82.1376482,314.166792 82.420353,314.287873 82.7184868,314.392368 L83.1761315,312.952186 C84.2597147,313.181791 85.3622873,313.668012 86.5099598,314.318677 C87.6438649,314.993747 88.8803128,315.72924 90.169219,316.555011 C90.8158084,316.963749 91.4730793,317.400211 92.1571728,317.819613 C92.8517104,318.217926 93.5635759,318.619319 94.2927692,319.011234 C95.0226747,319.401017 95.7665848,319.789378 96.5325701,320.139827 C97.3094743,320.463264 98.1022822,320.763479 98.90862,321.027205 C98.5969563,321.218897 98.0446018,321.135728 97.4419254,320.912995 C97.1404686,320.801391 96.8269059,320.65543 96.524737,320.491698 C96.2209064,320.331757 95.9415247,320.12253 95.6894403,319.931311 C96.5019497,320.656141 96.7162926,320.816319 96.9344335,320.969152 C97.3709525,321.275054 97.8236126,321.552997 98.2886157,321.806059 C98.7536189,322.058885 99.2312025,322.287068 99.7185183,322.493688 C100.206546,322.697702 100.698609,322.895792 101.21346,323.030143 C102.236277,323.319222 103.285204,323.536031 104.340541,323.710426 L105.529515,323.890272 C106.466405,323.973441 107.001194,324.013486 107.53361,324.050687 C108.599865,324.119876 109.651404,324.199965 110.690362,324.261572 C111.734305,324.300432 112.756884,324.361565 113.750505,324.477671 C114.247315,324.535249 114.736768,324.609178 115.219099,324.696849 C115.704753,324.764854 116.182336,324.851341 116.652087,324.960575 C117.59135,325.178806 118.498332,325.487078 119.37232,325.919985 C119.84207,325.858378 120.277877,325.795586 120.682826,325.784687 C121.08825,325.769996 121.464715,325.789663 121.821716,325.836105 C122.535481,325.929226 123.171388,326.128975 123.797327,326.374218 C124.480708,326.673723 124.882809,326.820632 125.298202,326.979389 C125.713596,327.135539 126.142756,327.29003 126.591856,327.430304 C125.836077,327.032702 125.119702,326.700498 124.49044,326.53179 C125.197796,326.550983 126.090535,326.54032 127.068015,326.48985 C128.045733,326.431086 129.108427,326.372797 130.154981,326.166887 L131.035378,327.765115 C133.617225,328.311048 133.176908,326.965409 132.079558,325.762413 C132.602479,325.632091 133.101425,325.487551 133.56002,325.32761 C134.018851,325.171223 134.435431,324.961049 134.797417,324.758456 C135.658587,326.011448 137.026774,325.733506 138.445757,325.472387 C139.864978,325.153215 141.330961,324.846839 142.6061,326.112626 C142.923935,325.759807 143.720066,325.421679 144.744782,325.081419 C145.257496,324.912 145.827416,324.742344 146.423208,324.566527 C147.018764,324.389288 147.642566,324.218447 148.250939,323.990264 C149.47267,323.554987 150.67019,323.075401 151.58904,322.520701 C152.050245,322.251762 152.431695,321.919558 152.719384,321.593278 C153.005412,321.261311 153.191746,320.909915 153.249189,320.536007 C154.083536,321.100185 155.222663,321.018201 156.301974,320.801154 C157.370128,320.546433 158.379415,320.1621 159.251267,319.524231 C159.734784,320.098124 160.223524,320.670595 160.717724,321.241645 C162.073805,319.914488 163.37814,318.549419 164.655178,317.220603 C167.830444,317.44618 169.301886,317.701375 166.949573,320.158072 C167.716508,319.578256 168.369032,319.101512 168.936577,318.702015 C169.503649,318.310099 169.983131,317.978369 170.402085,317.689053 C171.237619,317.117767 171.846704,316.764001 172.423983,316.423266 C172.712384,316.252899 172.992953,316.085613 173.288713,315.896527 C173.584948,315.708862 173.895899,315.497977 174.236996,315.222167 C174.922514,314.680025 175.759472,313.942163 176.90762,312.80812 L177.16279,314.126036 C177.410601,314.014196 177.666484,313.869656 177.927351,313.703791 C178.187031,313.535557 178.445524,313.333912 178.70924,313.127766 C179.235246,312.712393 179.768611,312.253894 180.290108,311.839943 C180.811605,311.425991 181.321945,311.056349 181.805463,310.81703 C182.28091,310.562071 182.731197,310.439331 183.143029,310.535533 C185.869197,310.594771 191.291385,307.881219 197.206111,304.204466 C197.576405,303.97581 197.950022,303.74502 198.326249,303.512335 C199.078705,303.040805 199.265276,302.918776 199.452321,302.796035 C200.201691,302.306971 200.958893,301.812219 201.720131,301.315098 C202.102531,301.068433 202.485642,300.821294 202.869228,300.573918 L204.002658,299.806437 C204.760099,299.296521 205.520862,298.791581 206.282574,298.296118 C207.040727,297.799471 207.227298,297.672703 207.413631,297.546171 C207.788672,297.295952 208.162051,297.046918 208.532819,296.799542 C209.278629,296.308582 210.022776,295.832075 210.763126,295.374525 C212.217002,294.426962 213.653314,293.551905 215.056394,292.790348 C213.968063,292.429947 213.775795,292.098691 214.073217,291.775254 C214.36423,291.443524 215.137573,291.103501 216.002778,290.722723 C216.867271,290.341944 217.824812,289.919936 218.462856,289.428739 C219.088795,288.923798 219.399509,288.358909 218.990525,287.718197 C220.135586,287.917946 221.788852,287.126533 220.808049,289.076868 C221.329783,288.456533 221.847007,287.908231 222.35711,287.413242 C222.872672,286.924177 223.350018,286.456201 223.834486,286.042249 C224.793213,285.204631 225.716573,284.516055 226.550209,283.821317 C227.369839,283.113784 228.111138,282.411702 228.728769,281.580718 C229.037584,281.165345 229.315779,280.71822 229.555995,280.222284 C229.786953,279.717343 229.980645,279.164302 230.129712,278.546573 C231.300647,278.647277 230.156535,280.467053 230.998952,280.370851 C231.212346,279.856907 231.824042,278.340664 232.684263,278.228823 C233.534039,278.123144 232.597623,279.436321 232.181518,280.455443 C232.735771,279.842216 233.19579,279.267612 233.572255,278.728551 C233.760487,278.458902 233.928069,278.19802 234.075949,277.945668 C234.873979,276.238444 235.016399,275.406749 234.97035,274.668176 C234.878251,273.19103 234.036309,272.082578 233.196265,271.037391 C236.254746,269.393195 237.22107,268.02007 237.321951,265.098714 C238.701769,264.76959 240.613053,263.844537 238.332662,267.163496 C238.718622,266.748833 239.500986,265.908135 240.459951,264.877876 C241.401114,263.831505 242.472591,262.554108 243.463601,261.295192 C244.436096,260.022297 245.283973,258.734711 245.808318,257.695685 C246.337411,256.659503 246.480306,255.828519 246.081766,255.483757 C246.922522,255.207473 247.993762,252.976589 248.114345,252.349382 C250.961807,248.184749 251.372453,247.905385 253.714796,243.526312 L252.733756,244.545671 C252.115413,243.049569 252.492353,242.098452 253.245283,241.059189 C254.01293,240.0313 255.085832,238.869534 255.890033,237.045967 C256.819565,236.373266 257.362187,235.616211 257.793484,234.991611 C258.223832,234.366063 258.531935,233.866572 258.758383,233.452857 C258.984357,233.038669 259.130576,232.711441 259.233593,232.42639 C259.56757,231.171977 259.69195,230.69784 260.143186,229.886049 C260.368923,229.479917 260.676314,228.98943 261.106899,228.368858 C261.517545,227.738571 262.046874,226.976777 262.735478,226.032532 L261.073192,225.865956 C260.366549,225.338031 260.322161,224.671254 260.667056,223.88221 C260.845557,223.489821 261.096929,223.055966 261.415951,222.593913 C261.734499,222.13115 262.115711,221.638057 262.525645,221.11653 C262.930594,220.593108 263.384916,220.049307 263.796274,219.465699 C264.209531,218.882802 264.616616,218.275026 264.983112,217.647819 C265.346284,217.019665 265.682159,216.37753 265.917866,215.715255 C266.146925,215.05061 266.300265,214.374829 266.342754,213.698337 L264.903119,215.223347 C264.840691,214.45089 265.235434,213.685304 265.887482,212.915217 C266.213388,212.530173 266.603858,212.144182 267.032781,211.756531 C267.447225,211.364379 267.899173,210.969858 268.364651,210.574862 C269.29347,209.784397 270.283056,208.991799 271.102924,208.213418 C271.900716,207.428166 272.544932,206.662107 272.825975,205.958839 C273.270802,205.392055 273.046965,207.072741 273.041742,208.018171 C273.999283,206.224934 274.368153,205.219792 274.393551,204.653719 C274.405657,204.081484 274.084261,203.944527 273.67765,203.854012 C272.861343,203.67393 271.693257,203.657107 272.032218,200.786221 C272.691863,200.371084 273.326821,200.841667 273.919291,200.947347 C274.215763,200.999476 274.501791,200.95872 274.776425,200.662533 C275.058418,200.368952 275.301482,199.810935 275.515588,198.832568 C275.821317,198.379757 275.868316,197.394756 275.809686,196.107406 C275.723997,194.812948 275.491376,193.209745 275.321896,191.529059 C274.95089,187.726248 274.272256,184.03125 275.206298,181.254433 C274.39094,182.513822 273.578905,183.688383 272.805324,181.025065 C272.532826,178.984689 273.111054,176.171145 273.296913,173.408782 C273.338452,172.721864 273.361477,172.038263 273.346997,171.373618 C273.332993,170.709448 273.262732,170.071104 273.148558,169.464986 C272.923771,168.251091 272.443339,167.193347 271.621572,166.40762 C271.773013,165.861451 271.964094,165.630424 272.174164,165.572372 C271.862738,164.841855 271.519267,163.874625 271.154907,162.81143 C270.77417,161.753212 270.372781,160.599028 269.941009,159.495315 C269.497844,158.394683 269.05278,157.336227 268.578757,156.470649 C268.104496,155.60507 267.628574,154.924787 267.163096,154.566519 C268.344,153.562561 268.466956,151.939217 268.074113,150.060204 C267.866179,149.124488 267.531016,148.12527 267.129152,147.110413 C266.713284,146.099584 266.234277,145.072169 265.758829,144.070582 C265.268665,143.073496 264.779925,142.102712 264.363345,141.195667 C263.943204,140.289808 263.575284,139.453848 263.357381,138.713616 C262.923948,137.233864 263.006314,136.159058 264.218551,135.768091 L263.396072,133.560191 L262.537988,131.366745 C261.977326,129.900735 261.360407,128.456051 260.769837,127.003074 C260.408326,124.17555 259.432745,122.362645 258.446245,121.096858 C257.474462,119.823963 256.486063,119.096526 255.50526,118.379042 C255.266706,116.974402 256.106512,117.705867 256.395389,117.706341 C256.232317,117.178653 256.078266,116.680584 255.932522,116.208817 C255.779657,115.739419 255.628454,115.299166 255.485084,114.881186 C255.196682,114.045937 254.92822,113.305706 254.666403,112.636322 C254.127104,111.304189 253.604658,110.260187 253.010052,109.30362 C251.794017,107.406125 250.256587,105.856946 247.411262,103.234857 L248.499118,101.778562 C248.045508,101.45631 247.57552,100.526519 247.029812,99.2045747 C246.759688,98.5401669 246.453721,97.7880877 246.120457,96.9677668 C245.784819,96.1464981 245.429005,95.2508271 245.025955,94.3198506 C243.408769,90.6058965 241.076632,86.2578641 237.791702,83.2476514 C237.9956,83.2090286 238.360909,83.1730122 238.953141,83.6056829 C238.044498,82.742711 237.209914,81.7607902 236.430398,80.6983065 C235.641626,79.6422204 234.878014,78.525712 234.163538,77.3613397 C233.803451,76.7798645 233.442652,76.1969675 233.082565,75.6157292 C232.72509,75.0314105 232.373786,74.4430636 232.026992,73.8570863 C231.684945,73.2670808 231.329131,72.6924771 230.974029,72.1271144 C230.617503,71.5619887 230.265487,71.0042084 229.920354,70.4570909 C229.231988,69.3585907 228.495199,68.3560553 227.773127,67.4426131 C227.410191,66.9871952 227.045832,66.5583157 226.679337,66.1621353 C226.309755,65.7680875 225.924508,65.4176385 225.54377,65.0998885 C224.778971,64.4672321 224.002542,63.9897778 223.207123,63.718944 C222.413128,63.4464515 221.574034,63.4033266 220.725445,63.5999951 C219.792827,63.003355 218.874452,62.4010281 217.939698,61.8209746 L215.115973,60.1222801 C217.937562,63.1668505 217.245398,63.4040374 216.08918,63.2836669 C214.929402,63.159979 213.31459,62.6896332 214.165078,64.2001894 C213.532019,63.7113616 212.925545,63.0308412 212.415679,62.3197543 C211.903202,61.6117477 211.462411,60.8987652 211.211038,60.302836 C210.701885,59.118086 210.895577,58.4610237 212.468137,59.6815531 C213.524423,59.9919576 213.501873,59.350297 213.032835,58.5408758 C212.799028,58.1366391 212.454133,57.6911732 212.047284,57.2248556 C211.84386,56.9916968 211.625957,56.7523773 211.39666,56.5125839 C211.161903,56.2784773 210.917415,56.0420012 210.66984,55.8052882 C210.173504,55.3325729 209.670048,54.8532231 209.195312,54.4013595 C208.721764,53.9468894 208.29379,53.4997648 207.928007,53.114721 C207.207121,52.3323121 206.832318,51.6821214 207.209258,51.3025275 C200.745263,46.1791948 194.112737,41.3823791 187.198218,37.1464241 C180.263523,32.9656785 173.002685,29.4268304 165.528691,26.9675264 C165.856495,27.9309651 166.173618,28.8910864 166.479585,29.8478905 C164.802346,29.2036235 163.084041,28.6854138 161.376656,28.1250271 C160.177475,27.1836248 160.048347,25.751736 163.764574,26.9549681 C163.372918,26.4805942 162.760272,26.1953064 162.062649,26.0434214 C161.36455,25.8905887 160.583374,25.8668937 159.839464,25.9593042 C158.354729,26.1223258 157.068434,26.5824827 156.952836,26.8236978 C155.191806,26.1043176 154.505813,25.6882334 154.465223,25.3512905 C154.422497,25.0226409 155.016628,24.8188639 155.771695,24.6795373 C157.269959,24.4425873 159.411727,24.5034835 158.275686,24.1821793 C157.224384,23.9829043 156.181391,23.7509303 155.122732,23.6009409 C154.385942,24.2392842 153.593135,24.5911549 152.578625,24.7529918 C152.071608,24.8340287 151.509759,24.8679125 150.792909,24.813414 C150.07321,24.7769237 149.195899,24.6707701 148.061045,24.4383222 C145.253935,23.4514255 146.821749,22.6912899 145.688793,22.4138215 C145.723449,22.2413219 145.343423,22.107919 143.928,22.0960715 C142.796706,21.9074593 141.665174,21.705578 140.531269,21.5295241 L137.120059,21.079793 C137.972446,21.8074664 138.812728,22.5341921 139.640903,23.2602068 C138.091368,23.5777198 136.514772,23.3933727 135.681374,23.4381563 C135.153469,23.9947518 135.498364,24.3781369 136.217588,24.9942069 C135.954822,24.7574938 135.62678,24.5357086 135.242007,24.3279035 C134.856759,24.1279177 134.413594,23.9542334 133.92248,23.7890792 C132.939778,23.4613774 131.762909,23.1903066 130.461185,22.9640194 C129.810323,22.8396206 129.127654,22.7818048 128.42291,22.7083503 C127.717928,22.6405826 126.990633,22.5834777 126.249809,22.534666 C125.879041,22.5126296 125.505187,22.4901194 125.129197,22.4678461 C124.752732,22.4465206 124.373893,22.4263798 123.996241,22.4266168 C123.239988,22.4176127 122.478512,22.4152432 121.72036,22.4173757 C120.962445,22.4235364 120.207854,22.4296971 119.46513,22.4358578 C118.722407,22.4408338 117.990128,22.4943845 117.2785,22.5221076 C115.855006,22.5955621 114.512218,22.6420043 113.314461,22.714748 C110.918472,22.8834564 109.102135,22.9377179 108.377214,22.7419972 C107.359619,23.1955195 106.344635,23.5599486 105.313748,23.8570839 C104.798185,24.0054146 104.278588,24.1371588 103.752818,24.2549229 C103.227999,24.3892736 102.697245,24.5108289 102.157945,24.6207737 C101.079822,24.8435067 99.9668048,25.0112673 98.8065519,25.1759475 C97.6493847,25.3685879 96.4426078,25.5408505 95.1722163,25.7152457 C95.837083,25.8045759 96.4456935,26.3481391 96.3431507,26.9289036 C96.2923541,27.2194043 96.0649559,27.518909 95.581438,27.7752889 C95.3397978,27.9046636 95.0328815,28.0181627 94.6530933,28.1236054 C94.2742546,28.2371045 93.8213571,28.3356757 93.28277,28.4136322 C93.4539121,27.2435732 93.0311603,26.6405354 92.2169894,26.3604605 C91.810616,26.2201861 91.3076341,26.1607117 90.7370023,26.1502859 C90.1658958,26.1384384 89.5271396,26.1749287 88.8556266,26.263548 C88.1822146,26.34885 87.4682128,26.4391279 86.7478021,26.5305906 C86.3862912,26.5741894 86.0219319,26.6147079 85.6580474,26.6481178 C85.2927386,26.6796322 84.9302782,26.7106726 84.5749389,26.7412392 C83.1462232,26.8497623 81.7749505,26.7777295 80.661459,26.2623632 C81.602859,26.5504944 81.2999779,26.9331687 80.430975,27.4009079 C79.565058,27.8849968 78.1258981,28.4470422 76.7548627,29.0180916 C75.3964078,29.6306074 74.1105874,30.2637377 73.530461,30.7999556 C72.9493851,31.3385429 73.0827857,31.7844828 74.525506,32.0605295 C73.6265949,32.2887124 73.1266987,32.3159616 72.8385344,32.2349247 C72.2643421,31.2037184 72.2137828,30.5900179 70.6896453,30.6440425 C66.8471383,33.119459 62.2927658,34.9340221 57.5261867,37.1622998 C56.3486059,37.739273 55.1401673,38.3048727 53.937663,38.914545 C53.3440066,39.2341905 52.7475018,39.5552578 52.1481485,39.8779836 C51.84954,40.04219 51.5502195,40.2068702 51.2501868,40.3717874 L50.3610077,40.8883384 C49.7749471,41.2463698 49.1893611,41.6112728 48.6061489,41.9844691 C48.0224619,42.3564806 47.4390123,42.7344158 46.8814358,43.1512108 C45.7610606,43.9772185 44.6292918,44.8046479 43.5946064,45.7576607 C43.7094923,46.0412899 44.2708667,46.0635632 44.6347513,46.2898504 C44.9998227,46.5156638 45.1669295,46.945491 44.5227138,48.0221918 L42.927366,48.3702713 C42.3923394,48.4875616 41.8739285,48.6297316 41.3424624,48.7619497 L39.7483015,49.1742427 C39.2151738,49.314754 38.6744504,49.451948 38.1510548,49.6128371 C37.428033,50.4746242 37.6259976,51.4392476 37.4695723,52.3379989 C37.2998545,53.2305896 36.8339019,54.0885855 34.6861996,54.7802425 C35.4407913,54.7247962 36.5545202,54.6636631 35.6532353,55.8180835 C31.351422,59.1334877 27.6404166,63.2201643 24.3865813,67.6395185 C21.1199281,72.0610054 18.3840289,76.8668251 15.8653211,81.7463363 C14.6253127,84.197347 13.4126015,86.6599683 12.2620807,89.1465215 C11.9672701,89.7651979 11.6738837,90.3843482 11.3926031,91.0082375 L10.5250244,92.8704275 C9.96554897,94.119154 9.3730794,95.355559 8.80838183,96.6026268 C8.22255855,97.8423492 7.66094676,99.0908387 7.05993195,100.327481 C6.48431547,101.57289 5.87238175,102.80811 5.27065484,104.049254 C4.05319632,106.527514 2.7676133,108.996059 1.40393633,111.468632 C2.35079576,110.187207 2.71539242,110.039824 2.77449696,110.476049 C2.83739938,110.914406 2.57653237,111.936372 2.31708956,113.032502 C2.95062373,111.688285 3.70260435,113.436028 4.54288572,113.360441 C3.06194915,116.065225 1.65673284,118.833986 0.330322588,121.667908 C1.23398111,122.700062 0.809567811,125.083068 0.456839529,127.403045 C0.0984144246,129.718758 -0.174320969,131.980208 0.816688839,132.577559 C0.805295194,131.610803 0.810042546,130.647365 0.822148294,129.683215 C1.78419925,131.745628 3.33017456,130.589075 5.03494879,129.154343 C6.7392483,127.706104 8.63581557,125.985374 10.1542562,126.532965 C9.12550497,124.308952 10.6793134,121.877609 12.2302734,119.225664 C12.6212179,118.56102 13.0112129,117.879551 13.3553959,117.173914 C13.7116847,116.471358 14.013379,115.742262 14.2452871,114.984496 C14.7100529,113.468016 14.8503372,111.828322 14.3753646,109.965659 C15.4295142,108.783515 14.9865862,111.441146 15.9232388,110.921041 C15.5237491,109.940542 15.3865507,108.937533 15.6068278,107.778373 C15.8138124,106.614949 16.3573842,105.286607 17.2759969,103.653311 C19.0835513,99.2398803 20.7963961,95.9270824 22.8059503,92.6412969 C24.8316456,89.3630938 27.1561867,86.0903405 30.5422357,81.5131775 L28.7593676,81.4013371 C29.1306105,80.9035052 29.4520063,80.5194092 29.7396958,80.2116112 C30.0285722,79.904287 30.2963229,79.6822649 30.5377258,79.492468 C31.0248041,79.1157175 31.4394853,78.890378 31.9184932,78.5216838 C31.7067613,76.677976 30.7261956,78.0999129 29.6960202,79.5464926 C28.6929046,81.0030242 27.6629665,82.5024437 27.2273969,80.7056519 C29.4463094,80.1106705 31.811203,76.4727773 34.4148884,73.1493167 C34.7298753,72.7265979 35.067412,72.3247307 35.3966409,71.9264178 C35.7270566,71.5285788 36.0553361,71.1395069 36.3807671,70.7651259 C36.7012134,70.3864798 37.042548,70.0433762 37.3708274,69.7142527 C37.700531,69.3863139 38.025962,69.0799375 38.3456962,68.8010474 C38.9766193,68.2361586 39.6246329,67.8196005 40.2187641,67.5487667 C40.8164558,67.2807763 41.3775928,67.1743857 41.8931553,67.2786437 C43.1609357,65.9303983 42.6543932,65.822823 42.1300482,65.7081392 C41.6090262,65.5955879 41.0834943,65.4894343 42.3899657,64.1272088 C42.858292,64.1153613 43.3133257,64.0942728 43.786162,64.0966423 L43.5611375,62.5372744 C44.0391959,62.1389614 44.5063354,61.8401675 44.9471271,61.6262017 C45.3841208,61.4082077 45.8182662,61.3003954 46.1956807,61.2435274 C46.9571561,61.136426 47.5479641,61.2925761 47.8631883,61.567912 C47.614427,61.7306966 47.3473884,62.0567398 47.0919809,62.4007912 C46.8349117,62.74271 46.5927968,63.1064283 46.3988674,63.3568844 C47.9306007,62.6934244 49.458536,61.1392694 50.8160414,59.7393689 C51.4761608,59.0190409 52.1161039,58.369561 52.6380753,57.8501666 C53.1617082,57.3331417 53.5792379,56.9618411 53.8458017,56.8680089 C52.8099294,57.4520906 51.7510325,58.0202967 50.7134986,58.6271256 C54.2768613,55.0117426 58.9646344,51.8257131 63.7763134,48.9951085 C64.3680709,48.6233339 64.9899741,48.3025036 65.5945494,47.9560828 C66.2005489,47.6110836 66.8051242,47.2667952 67.4068512,46.9241655 C68.019497,46.6002549 68.6273955,46.27279 69.2293597,45.9408231 C69.833223,45.6128843 70.4202331,45.2600658 71.0262326,44.9534525 C73.4177114,43.6616011 75.7329951,42.3716454 77.8996867,41.0404603 L76.922919,40.6075527 C77.7643872,40.1196726 78.4940553,39.7308377 79.1389831,39.4185376 C79.4613283,39.2626245 79.7625478,39.1254305 80.0462021,39.004586 C80.3336543,38.8934564 80.604016,38.7998612 80.8598983,38.7178765 C81.8839022,38.3901746 82.6809827,38.2641173 83.5032241,38.1536986 C83.9124459,38.0918546 84.3375713,38.0622359 84.799014,38.0067896 C85.2611687,37.9520541 85.7620144,37.8795474 86.3345451,37.7665223 C86.9092121,37.6594209 87.5472562,37.4864474 88.3058832,37.2966504 C89.0647474,37.1080382 89.9306645,36.8606625 90.9394769,36.5320128 C91.0493781,36.4967073 91.4585999,36.2284799 91.9022399,35.9803932 C92.35039,35.7474714 92.8324836,35.5323208 93.3399756,35.3380218 C93.847705,35.1434859 94.3813074,34.9700385 94.9315255,34.820523 C95.4817436,34.6702967 96.0483401,34.5406851 96.6306029,34.4717326 C95.6467141,35.0799833 96.7274489,35.3238048 97.7101508,35.5958234 C98.6964133,35.8673681 99.5832187,36.1671098 98.297161,36.8751164 C99.2848476,36.521824 100.0881,36.2197127 100.749406,35.9747064 C101.41451,35.7460497 101.933396,35.5555419 102.346178,35.3884922 C103.172217,35.0539188 103.573368,34.8127037 103.882184,34.5440024 C104.191474,34.275538 104.407953,33.9769811 104.874143,33.5312781 C105.344131,33.1009769 106.06288,32.5289797 107.39831,31.7008394 L108.804239,32.7969701 C109.597996,32.2026995 109.768426,32.077353 109.934821,31.9550868 C110.269034,31.7150564 110.589243,31.5048818 110.987546,31.314374 C111.385849,31.1238662 111.862008,30.9530253 112.509072,30.7914254 C113.156611,30.636934 113.972444,30.4575628 115.057689,30.3528309 C114.617609,30.5009247 114.33348,30.6388296 114.164712,30.7717585 C114.008524,31.4013347 114.352469,31.626911 114.682648,31.8740499 C115.345378,32.366195 115.935949,32.8841677 114.015645,33.6717895 C115.149312,33.9473623 116.201326,34.1347898 117.183316,34.2120355 C117.674192,34.2530278 118.148452,34.2712729 118.607047,34.2712729 C119.506432,34.2570559 119.725285,34.2513691 119.940815,34.2418911 C121.663155,34.1703323 123.170914,33.8521084 124.53198,33.5966763 C127.234173,33.162347 129.403713,32.8043156 131.307638,34.9347329 C132.371995,34.1501915 132.446053,33.6101825 131.971556,33.2308255 C131.498482,32.8524164 130.482074,32.6308682 129.402763,32.4958067 C127.237496,32.2981904 124.832487,32.4256695 125.997013,32.0937025 C125.038522,31.5103316 125.899692,30.8982898 127.381103,30.485286 C128.120503,30.2841154 129.01443,30.1097202 129.900048,30.0547479 C130.784955,30.0078318 131.66369,30.0388722 132.373656,30.1703794 C133.100951,30.2364885 133.755373,30.5613469 134.433533,31.0167648 C135.110742,31.4863997 135.809553,32.1095782 136.634642,32.7289655 C137.04695,33.0398438 137.490353,33.3528548 137.978381,33.6523596 C138.222157,33.802112 138.477565,33.9483101 138.745315,34.0892954 C139.013303,34.228385 139.293872,34.3653421 139.586546,34.5096446 C140.760566,35.0724009 142.164833,35.5181038 143.923015,35.7529212 C143.227291,35.6311289 143.139227,35.8872719 142.445876,35.7723511 C143.698465,36.3609349 145.008023,36.3230229 146.403269,36.3343965 C147.098757,36.3452962 147.814657,36.3652 148.535305,36.5244304 C149.251681,36.7007212 149.976839,36.9976195 150.692977,37.5129858 C151.246518,37.1051948 151.784156,36.9646835 152.292597,36.9445428 C153.268653,37.0293708 153.497238,37.0817368 153.716803,37.1272312 C154.595538,37.3094457 155.331378,37.3819524 155.920287,36.1775356 L154.285061,35.9168906 C153.74054,35.8301669 153.19863,35.7365717 152.648174,35.6792298 L149.367042,35.2828125 C150.311527,35.3112465 151.276189,35.1908759 152.289274,35.0392279 C152.794155,34.9693276 153.317076,34.8662544 153.843083,34.816021 C154.371226,34.7574943 154.913848,34.7063131 155.472849,34.6766944 C156.032087,34.6473126 156.607466,34.6394932 157.201122,34.6676903 C157.498069,34.6819073 157.799526,34.7048914 158.105256,34.7390122 C158.411223,34.7726591 158.716003,34.8371095 159.028616,34.9036925 C159.65218,35.0418343 160.293785,35.2311574 160.952955,35.4858786 C161.282659,35.6131207 161.616635,35.7569494 161.954646,35.9185493 C162.292895,36.0799122 162.636129,36.2559661 162.975802,36.4751448 C162.666512,36.6414837 162.013276,36.7656455 161.2753,36.8514214 C160.537324,36.9348278 159.716507,36.9751093 159.058999,36.9824547 C159.814777,37.6103722 160.677846,37.7321645 161.555394,37.8603545 C161.995948,37.9174594 162.430094,38.0037092 162.852845,38.1499074 C163.27536,38.2958686 163.685056,38.5065171 164.062946,38.8436969 C163.726121,39.4237505 163.077158,39.5896155 162.228331,39.5225587 C161.316365,39.3974491 161.066654,39.3519547 160.807211,39.2979301 C160.288326,39.1896439 159.731936,39.047237 159.151097,38.8922717 C158.570734,38.7375433 157.964259,38.5757065 157.351613,38.412211 C156.732796,38.2712258 156.100686,38.1529877 155.477359,38.0591555 C154.853319,37.966982 154.235926,37.9065597 153.642032,37.8996882 C153.345085,37.8963709 153.054073,37.9063228 152.770656,37.9321503 C152.48534,37.9665081 152.207145,38.0202957 151.939632,38.0904329 C152.139258,38.2771495 152.410332,38.4046286 152.721521,38.5107822 C153.03176,38.620727 153.385913,38.6953662 153.759529,38.7489169 C154.506525,38.8553075 155.33209,38.876633 156.030663,38.9209426 C156.379593,38.9432159 156.696479,38.971176 156.954497,39.0180921 C157.742321,39.454791 157.621975,39.7794124 156.962805,40.3255822 C157.87762,39.6540659 158.753744,39.4718514 159.626782,39.5528883 C160.499108,39.6386642 161.375944,39.9611531 162.273668,40.3985628 C163.177327,40.8203338 164.125136,41.2845188 165.188305,41.5747825 C166.244117,41.8875565 167.402233,42.0600561 168.779203,41.8368492 L167.91376,43.1922032 C168.307791,43.2132917 168.942274,43.1768014 169.632302,43.2275087 C170.317582,43.2874571 171.067427,43.4132775 171.701436,43.7021196 C170.659629,44.0054155 169.637761,44.2987596 168.618505,44.6250398 C169.662448,44.5755172 170.571566,44.8406643 171.408287,45.2396881 C171.826054,45.4410955 172.224356,45.6799411 172.610079,45.9394014 C172.995801,46.1990986 173.3566,46.5073705 173.71906,46.8045058 C174.441133,47.4063588 175.142317,48.0250352 175.89311,48.5340038 C176.638919,49.054109 177.41701,49.5000489 178.336335,49.6969543 C177.487509,49.2704444 176.840919,48.9112282 176.353366,48.6043779 C175.86154,48.3070057 175.522579,48.0747947 175.308236,47.8653309 C174.876702,47.4511423 174.923464,47.1698827 175.112171,46.9135028 C175.486737,46.3993213 176.446652,45.9927151 175.195487,44.775503 C175.79579,44.9100906 176.336276,45.0520237 176.822405,45.2005913 C177.308059,45.3501067 177.743391,45.4989113 178.118432,45.680652 C178.875397,46.0308641 179.446266,46.3978996 179.891093,46.779863 C180.33592,47.1615894 180.655179,47.5580068 180.911062,47.9674564 C181.167181,48.376669 181.34853,48.822135 181.537,49.2661793 C181.910854,50.1604285 182.285183,51.1037264 183.157509,52.0958361 C183.59474,52.5898768 184.132378,53.1393638 184.868455,53.6857705 C185.59836,54.2430769 186.53169,54.7887727 187.672004,55.4415699 C187.342775,55.2970304 186.937113,54.9840195 186.532639,54.6281206 C186.124604,54.2783824 185.728675,53.8672742 185.443834,53.4881542 C184.875338,52.7303881 184.747872,52.0989164 185.900766,52.3676177 C186.291948,52.6983999 186.708054,53.0642507 187.120836,53.4473988 C187.534805,53.8286513 187.92575,54.2603742 188.296993,54.6726672 C189.034731,55.5057834 189.649513,56.3327389 189.930319,57.0092311 C192.870354,58.8676299 192.896228,58.3887539 192.54255,57.5494771 C192.192433,56.7118588 191.453507,55.5038878 192.96815,55.9730488 C193.403007,57.4556449 194.229521,57.767708 195.292928,57.9447096 C196.358472,58.1127072 197.713129,58.0672128 199.148728,58.7951232 L198.177657,60.0694402 C199.594504,61.5418475 200.543975,62.1804277 201.233053,62.4427313 C201.919283,62.7071675 202.370756,62.55315 202.799679,62.3884698 C203.22884,62.2237895 203.634976,62.0489204 204.237415,62.2763924 C204.538397,62.3901284 204.888989,62.6045682 205.315064,62.970419 C205.741851,63.335085 206.219909,63.8805439 206.805021,64.6167475 L204.906317,64.3902233 C204.279666,64.3139254 203.633314,64.268668 203.002866,64.2106152 C204.104014,64.8752599 205.15579,65.6090941 206.232727,66.3206549 L204.423037,67.1381324 C204.916049,67.358022 205.360164,67.5693813 205.764638,67.7760017 C206.169587,67.9816743 206.534659,68.1830818 206.857954,68.3984694 C207.510714,68.8211882 208.04408,69.2424852 208.534718,69.703116 C209.529289,70.6108714 210.298835,71.7375686 211.532197,73.3573588 C211.610053,72.6322918 212.222936,72.2199988 213.146771,72.3173853 C214.066096,72.4171412 215.268838,73.0609343 216.535194,74.3861956 C217.486326,76.8779618 214.491696,74.3537335 218.062417,78.0752701 C217.299043,77.9636666 216.473241,77.8783646 215.796031,77.49261 C215.45707,77.2997327 215.155376,77.0312684 214.914923,76.644803 C214.671383,76.2611809 214.477929,75.7706944 214.373012,75.1124474 C213.832289,75.2965575 212.863117,74.9572451 212.327141,75.1404075 C212.572579,75.8081325 212.96115,76.4521626 213.427102,77.0646784 C213.663283,77.3679743 213.909671,77.6722181 214.163179,77.971486 C214.418587,78.2688582 214.684913,78.5574633 214.954088,78.8354056 C215.491489,79.392712 216.043131,79.9052348 216.530447,80.3713155 C217.007793,80.8464002 217.429358,81.2667495 217.725593,81.6174355 C217.318032,81.036908 216.849706,80.3265319 216.737669,79.8519211 C217.809858,80.5511605 218.8773,81.2674604 219.957323,81.9842341 C221.026664,82.7107227 222.075354,83.467541 223.144695,84.2179616 C223.396542,85.5091021 222.432592,85.0669535 221.49048,84.6406804 C222.569554,85.7005577 223.75924,86.1090595 225.209556,87.8056215 C223.815971,88.1164999 222.810244,89.0133556 220.471461,86.9175329 L223.145407,89.2803982 C224.034349,90.0770241 224.896943,90.902084 225.779713,91.7174289 C225.862555,92.9905612 225.922371,93.4436096 225.976016,93.8485571 C226.071201,94.6643759 226.075236,95.3254664 225.623525,95.0842513 C226.006399,95.9912959 226.666519,96.8391029 227.437251,97.7134484 C228.211307,98.5844766 229.156505,99.4379704 230.067522,100.373212 C230.98471,101.303478 231.942726,102.262888 232.733398,103.335798 C233.534039,104.401362 234.232137,105.537063 234.633288,106.801428 C234.98483,106.91398 235.46004,107.270115 236.163122,108.148963 C236.690553,109.256941 237.100012,110.388614 237.515643,111.508203 C237.928663,112.62945 238.293022,113.770365 238.749005,114.893034 C238.978777,115.45342 239.211635,116.020442 239.470128,116.587226 C239.730283,117.152826 240.017973,117.717478 240.343878,118.280945 C240.998301,119.406457 241.760251,120.550452 242.781406,121.686627 C242.52315,123.009993 242.243294,124.32933 241.968185,125.632792 C243.098292,127.601846 243.342543,126.304308 243.772891,125.316464 C243.983436,124.825977 244.240505,124.414869 244.687468,124.541874 C245.139891,124.66651 245.761319,125.339922 246.701295,127.022504 C247.403191,128.198723 247.65575,128.966441 247.684235,129.464036 C247.708446,129.964001 247.488881,130.20332 247.188136,130.357101 C246.586409,130.66324 245.662337,130.631252 245.706488,131.621703 C246.231782,132.131146 246.850362,132.739396 247.502648,133.444085 C248.152323,134.149486 248.839503,134.950613 249.429599,135.867136 C250.631628,137.689755 251.546206,139.947889 251.402836,142.600307 C251.172589,142.243697 250.995988,141.893722 250.850956,141.546827 C250.700702,141.201828 250.580119,140.860383 250.469506,140.519175 C250.248042,139.836759 250.061946,139.156002 249.734379,138.459369 C249.726308,139.792923 249.73248,141.11392 249.707081,142.436338 Z" id="Fill-115"></path>
                <path d="M137.249348,96.3857259 L137.895687,95.8662024 C137.12131,95.9724019 136.359228,96.0778008 135.605166,96.2256262 C135.228002,96.2968706 134.854579,96.3593095 134.483028,96.4409603 L133.376393,96.6899153 C134.011238,96.6189378 134.652498,96.5380875 135.297768,96.4980625 L136.270217,96.4268182 C136.595792,96.4054716 136.921367,96.3993344 137.249348,96.3857259" id="Fill-3"></path>
                <path d="M110.63975,97.5332938 C112.173803,98.5042985 114.392953,97.8612314 116.94944,97.1055608 C117.592037,96.9206457 118.251206,96.7309275 118.913851,96.5401421 C119.584782,96.3720374 120.260257,96.1951272 120.936533,96.0713168 C122.287483,95.8207608 123.628276,95.70709 124.825527,95.9045463 L125.623159,96.4894438 C126.312267,95.7505838 127.03345,95.0456114 127.780295,94.326497 C124.789173,94.4588461 121.43639,95.111786 118.418271,95.8615862 C115.389459,96.6020473 112.669115,97.389471 110.63975,97.5332938" id="Fill-5"></path>
                <path d="M95.214088,96.861142 C95.8363696,97.1538576 95.2047323,97.6733811 95.1403123,97.7259471 C95.1077013,97.7523636 95.2151572,97.6627078 95.6917586,97.3699922 C95.9299257,97.2235009 96.2605797,97.0263115 96.7128565,96.7677505 C97.1686084,96.5145261 97.7510619,96.2074015 98.4848089,95.8279653 C98.136513,95.8482446 98.0234437,95.8234291 97.8133435,95.820494 C97.2685797,96.0585088 96.5102408,96.3640324 95.214088,96.861142" id="Fill-7"></path>
                <path d="M97.8132633,95.8203872 C100.476672,94.6516595 95.7218837,95.7352676 97.8132633,95.8203872" id="Fill-9"></path>
                <path d="M86.1884377,102.144512 C87.1159796,101.259694 88.0713209,100.395156 89.0413639,99.5332859 C88.5481897,99.4428296 87.5452684,99.7729018 86.7703566,99.9986423 C86.0029294,100.232922 85.4680558,100.368739 85.906433,99.8646923 C84.3234639,101.036622 83.8163899,101.682091 83.9789102,101.977741 C84.1475784,102.281664 84.9874448,102.236569 86.1884377,102.144512" id="Fill-11"></path>
                <path d="M84.1569073,105.595221 C84.6246878,105.150144 85.1061007,104.720009 85.5872463,104.285605 C85.1737284,104.236508 84.6749408,104.403545 84.1569073,105.595221" id="Fill-13"></path>
                <path d="M88.7232465,101.577225 C88.1867691,102.017766 87.657509,102.464444 87.1376044,102.919661 C86.6139576,103.369808 86.0951222,103.822357 85.5872463,104.285578 C86.268602,104.386174 86.7310363,105.105022 87.0496617,103.101641 C87.0996474,103.526439 87.2052321,103.475207 87.4516856,103.151806 C87.6973371,102.82627 88.0881343,102.230165 88.7232465,101.577225" id="Fill-15"></path>
                <path d="M90.9596915,100.864275 C92.0134004,100.640135 93.1986224,100.348487 93.7329614,100.392514 C94.2729137,100.441612 94.1708039,100.846664 92.727367,102.063688 C95.7754245,100.358093 96.9603792,99.2846244 96.5294866,98.9524175 C96.3175152,98.7939188 95.6965701,98.8206021 94.7468421,99.1234574 C93.7928373,99.4180408 92.4990902,99.9738536 90.9596915,100.864275" id="Fill-17"></path>
                <path d="M110.085444,100.535964 C110.540393,100.537298 111.000422,100.561046 111.454837,100.576255 C111.910589,100.594667 112.361797,100.606407 112.816747,100.639495 C113.478589,100.17734 114.149787,99.7125175 114.838628,99.2735775 C114.322198,99.5975126 113.047964,99.6991759 111.93732,99.8368616 C111.384804,99.9118416 110.872919,99.9892231 110.523286,100.095423 C110.173921,100.203223 109.990551,100.34758 110.085444,100.535964" id="Fill-19"></path>
                <path d="M66.4655573,114.332448 C66.5628556,114.624363 67.0445358,114.707081 67.5863593,114.769787 C68.1308557,114.834894 68.7330896,114.878121 69.0712281,115.070774 C69.6202687,114.324443 70.1850802,113.589052 70.7571089,112.854995 C69.4179202,113.412942 67.1503879,114.841298 66.4655573,114.332448" id="Fill-21"></path>
                <path d="M69.0712548,115.070668 C68.6550639,115.622745 68.2471593,116.179892 67.8475411,116.742642 C67.4452499,117.301924 67.0442953,117.859338 66.6567057,118.427425 C69.4152739,116.154809 69.6518372,115.413014 69.0712548,115.070668" id="Fill-23"></path>
                <path d="M85.1595613,108.454815 C86.6313323,106.73988 88.1782154,105.062836 89.7996762,103.421547 C87.8093371,105.273634 85.9181676,107.182823 84.1181484,109.138174 C84.460831,108.904428 84.8104634,108.679755 85.1595613,108.454815" id="Fill-25"></path>
                <path d="M55.1229236,125.110253 C55.3295489,124.247582 55.5468664,123.384111 55.7671241,122.513436 L55.060642,124.706268 L54.3993341,126.8991 L55.1229236,125.110253 Z" id="Fill-27"></path>
                <path d="M48.5499934,133.122789 C48.6571819,132.112293 47.9322559,132.283866 47.2492964,132.487727 C46.5674062,132.689986 45.928819,132.922931 46.2386233,131.993019 C44.619301,134.370499 43.9224418,136.896872 43.3645802,139.155879 C44.3068237,136.998269 45.8825756,135.056793 48.5499934,133.122789" id="Fill-29"></path>
                <path d="M42.3318011,142.849272 C42.7383692,141.746719 43.0307988,140.511016 43.3646604,139.155772 C43.1115243,139.727595 42.8998202,140.320497 42.7204598,140.93021 C42.5397629,141.539123 42.4069133,142.17632 42.3318011,142.849272" id="Fill-31"></path>
                <path d="M61.481557,122.878783 C61.0217956,122.854768 59.9528504,122.623157 58.0940245,123.990409 L60.3455187,123.973865 C60.6919435,123.640057 61.0838099,123.262222 61.481557,122.878783" id="Fill-33"></path>
                <path d="M60.4200428,123.969569 L60.3457325,123.974105 C59.7336084,124.571277 59.2153077,125.077192 58.8047301,125.478242 C58.3973601,125.883027 58.0969114,126.18188 57.9167491,126.361192 C58.2260188,126.052466 58.9693888,125.321077 60.4200428,123.969569" id="Fill-35"></path>
                <path d="M61.768694,122.604266 C61.6631092,122.705267 61.585324,122.779815 61.4816104,122.879214 C61.7010663,122.885626 61.801305,122.857303 61.768694,122.604266" id="Fill-37"></path>
                <path d="M75.7901058,113.087006 C75.623576,113.350637 75.4265736,113.637482 75.2194137,113.935801 C75.0157287,114.236522 74.8029554,114.551384 74.594459,114.859309 C74.1798718,115.47516 73.804311,116.083005 73.6161296,116.572643 C73.2362918,117.550852 73.5754995,118.003134 75.7935808,117.125254 C76.1007121,116.196142 75.6206357,115.976805 75.2945258,115.598703 C74.9750986,115.224604 74.788521,114.669858 75.7901058,113.087006" id="Fill-39"></path>
                <path d="M64.5560774,122.69232 C65.1003066,122.250979 65.657099,121.823779 66.2114857,121.39578 C66.762932,120.964311 67.3240012,120.54485 67.8861397,120.12779 C67.5458628,119.866294 66.5640585,119.915658 67.134216,118.815239 C66.2462351,120.096571 65.3857863,121.388308 64.5560774,122.69232" id="Fill-41"></path>
                <path d="M63.4359437,124.47938 C63.7981394,123.876604 64.1793137,123.288505 64.5559438,122.6924 L63.3402492,123.671143 L63.4359437,124.47938 Z" id="Fill-43"></path>
                <path d="M47.7911466,137.679146 C47.2471847,139.572058 46.1317288,141.235227 44.9510509,143.176969 C46.5695713,141.335556 48.1720535,139.40929 49.6007887,137.511308 C49.4069939,136.947224 49.3227934,135.550887 47.7911466,137.679146" id="Fill-45"></path>
                <path d="M53.8018314,130.878298 C53.7478362,130.999339 53.6548147,131.134275 53.6061655,131.248903 C53.8734687,131.146299 54.0349197,131.019913 53.8018314,130.878298" id="Fill-47"></path>
                <path d="M34.1367686,162.747521 C34.2664106,162.667628 34.4126254,162.613921 34.5470789,162.534029 C34.4749071,162.471504 34.398993,162.416728 34.3273557,162.345119 L34.1367686,162.747521 Z" id="Fill-49"></path>
                <path d="M50.0854092,137.369967 C50.4227458,137.056705 50.6972661,136.753583 50.9234045,136.457665 C51.1540871,136.164683 51.3361205,135.878905 51.4836719,135.596062 C51.7811802,135.032244 51.9322065,134.474297 52.0749464,133.921953 C51.3390609,135.079474 50.5267267,136.272483 49.6007887,137.511121 C49.6914044,137.768882 49.7937815,137.881218 50.0854092,137.369967" id="Fill-51"></path>
                <path d="M39.6004176,148.607951 C40.3881599,147.952877 41.1887328,147.162785 42.0184417,146.336137 C41.0882268,146.853259 39.4186515,148.101503 39.6004176,148.607951" id="Fill-53"></path>
                <path d="M52.8674199,131.43302 C52.9088519,131.347517 52.9398591,131.264952 52.9911813,131.177311 C52.3408328,131.417523 52.5159163,131.466955 52.8674199,131.43302" id="Fill-55"></path>
                <path d="M52.8674199,131.43267 C52.4303793,132.299609 52.2732051,133.129726 52.0751335,133.921953 C52.6776347,132.982968 53.2010142,132.078405 53.6062457,131.248555 C53.3731574,131.347283 53.0927564,131.408655 52.8674199,131.43267" id="Fill-57"></path>
                <path d="M41.2097161,172.61925 C40.8889523,172.421793 40.6582697,171.981786 40.5518831,171.385148 C40.449506,170.790111 40.464475,170.035241 40.6114917,169.208326 C40.9306516,167.566503 41.796981,165.635167 43.3425277,164.223355 C43.4828618,163.243545 43.271425,162.522563 42.7900121,162.010244 C42.3094011,161.498725 41.5662984,161.20094 40.6748425,161.09394 C38.8897923,160.873536 36.5188136,161.444558 34.5471858,162.53377 C34.817162,162.721887 35.0884746,162.877183 35.1839019,163.505842 C35.2763887,164.131831 35.2004747,165.236519 34.832131,167.31995 C35.4712527,166.791354 36.7850475,164.85735 37.9553006,163.565345 C39.1330381,162.272273 40.1191194,161.604658 40.0140692,163.424991 C39.6302219,164.713794 39.3273675,165.602347 39.0207708,166.231272 C38.7294104,166.866334 38.4482076,167.247371 38.1544414,167.532882 C37.562365,168.102304 36.9416872,168.29389 36.0972766,169.375096 C37.362155,168.670124 37.3546705,170.508335 37.4784318,172.470891 C37.5401789,173.454437 37.6396156,174.473738 37.8962266,175.224072 C38.1662028,175.979476 38.6011049,176.466712 39.3319117,176.409076 C39.4922935,174.882526 39.691969,173.354641 39.9229189,171.823821 C40.3465943,171.895866 40.4166277,173.658297 41.2097161,172.61925" id="Fill-59"></path>
                <path d="M38.1619794,155.381689 L38.8136644,153.770553 C38.2386954,154.580924 37.6412729,155.222123 36.9355927,155.906016 C36.5795449,156.245961 36.1887477,156.592577 35.7468957,156.969878 C35.3042417,157.350916 34.8222942,157.765574 34.2783324,158.233599 C33.6774349,161.191174 33.9591724,161.96232 34.3275161,162.345225 C35.5464183,159.765486 36.8543325,157.234843 38.244576,154.757034 L38.1619794,155.381689 Z" id="Fill-61"></path>
                <path d="M42.7130556,147.065844 C43.036225,148.062198 42.8229171,149.526577 42.8833276,150.57603 C42.950688,151.633755 43.2850842,152.267217 44.6566165,151.64603 C45.2631273,150.580033 45.611156,149.822227 45.8049507,149.23733 C46.0043589,148.655634 46.0439197,148.244178 46.0359006,147.873814 C46.0171894,147.131218 45.8100295,146.56073 46.339557,145.12597 C45.3096381,146.855046 44.861638,147.588837 44.6558146,147.756408 C44.4537335,147.926647 44.5154805,147.542408 44.5812371,147.075184 C44.7114137,146.144737 44.867786,144.86394 42.9041773,147.110672 C43.5219148,145.604668 44.2465735,144.347885 44.9509173,143.177023 C43.9693802,144.292918 42.9849028,145.35171 42.018602,146.336323 C42.0905066,146.29283 42.1415615,146.262944 42.204645,146.229857 L42.2230889,146.195969 C42.2297715,146.200239 42.2287023,146.209044 42.2364541,146.213847 C42.5975806,146.022261 42.7643778,145.989708 42.4532369,146.265613 C42.4543061,146.298166 42.4064589,146.385954 42.3896188,146.42758 C42.5470603,146.592216 42.6325973,146.824627 42.7053038,147.061041 C41.9373419,147.977879 41.8071653,148.010433 41.8854851,147.710246 C41.9632703,147.410326 42.2685305,146.791807 42.3896188,146.42758 C42.334287,146.360872 42.3056856,146.26668 42.2364541,146.213847 C42.2268312,146.217049 42.2153371,146.223453 42.204645,146.229857 C40.9905543,148.71247 39.8590601,151.227636 38.8136376,153.770553 C39.8510411,152.358473 40.8339146,150.428472 42.7130556,147.065844" id="Fill-63"></path>
                <path d="M74.7436141,122.425664 C74.4696284,122.469752 74.4028026,122.374362 74.3143253,122.297141 C74.0590508,122.766877 74.0021153,122.98892 74.7436141,122.425664" id="Fill-65"></path>
                <path d="M71.7052598,123.755356 C71.9747013,123.212618 71.9097466,122.420658 73.416267,121.350658 C74.9519234,120.702788 73.905699,121.946763 74.3141382,122.297114 C74.8711979,121.274077 76.5648305,118.939557 73.3751023,120.554429 L73.0914937,121.076087 C72.4029209,121.478738 71.6151786,121.855506 70.8204864,122.18798 C70.034348,122.529792 69.2329732,122.819039 68.5337082,123.054119 C67.1359802,123.525079 66.0977749,123.729473 66.2279515,123.457837 C67.910892,123.883435 69.2041045,124.064882 71.7052598,123.755356" id="Fill-67"></path>
                <path d="M56.7045562,134.609394 C55.491,136.463082 54.3127279,138.329311 53.2068949,140.234764 L54.7735585,139.337939 L56.3509142,138.472867 L55.5920406,138.081957 C58.1851482,135.409626 56.9023605,135.384277 56.7045562,134.609394" id="Fill-69"></path>
                <path d="M33.0846635,163.15034 L31.8922243,161.626992 C32.0774654,163.18156 32.3100191,164.72999 32.555938,166.253873 C32.7227351,165.22203 32.8932745,164.184317 33.0846635,163.15034" id="Fill-71"></path>
                <path d="M30.0380762,171.611342 L28.7488733,170.815913 C28.766248,171.670045 28.7905726,172.520175 28.8354795,173.371905 L29.4280905,172.485486 L30.0380762,171.611342 Z" id="Fill-73"></path>
                <path d="M289.833747,144.400905 L289.070597,142.735334 C289.363293,143.535833 289.609212,144.03988 289.833747,144.400905" id="Fill-75"></path>
                <path d="M258.397697,251.167121 L261.395502,249.122381 C260.616848,249.50502 259.640389,250.155291 258.397697,251.167121" id="Fill-83"></path>
                <path d="M52.2338848,29.9986801 C52.057732,30.0742975 51.8781043,30.199614 51.7016843,30.2522523 C51.8176938,30.4483765 52.0013311,30.2819114 52.2338848,29.9986801" id="Fill-93"></path>
                <path d="M179.10212,0.298233715 C179.008564,0.218341126 178.894158,0.149938107 178.795791,0.0492039726 C176.977862,0.211928343 177.723905,0.322281652 179.10212,0.298233715" id="Fill-109"></path>
                <path d="M185.32058,304.058403 C185.252685,304.099018 185.228093,304.152992 185.16688,304.191201 C185.246804,304.184254 185.347043,304.17517 185.41868,304.168757 L185.32058,304.058403 Z" id="Fill-111"></path>
                <path d="M264.281493,79.1006329 C264.264119,79.0367722 264.228567,78.984134 264.207718,78.9224109 C264.062305,78.8828654 263.937741,78.8882094 263.828682,78.9138606 L264.281493,79.1006329 Z" id="Fill-120"></path>
                <path d="M87.8626106,289.926937 C88.6345821,290.809353 88.9614938,291.451353 89.1066394,291.981016 C89.4161764,291.662418 89.2124914,291.050837 87.8626106,289.926937" id="Fill-122"></path>
                <path d="M46.2986596,158.41275 C46.3612085,157.817446 46.8313947,157.365164 46.905705,156.781334 L46.0976476,156.508898 C44.9971607,158.630219 44.8389173,160.403857 46.2986596,158.41275" id="Fill-126"></path>
                <path d="M33.1572096,178.86586 C33.3197299,178.024269 33.5421261,177.179476 33.8452478,176.398456 C33.1286082,175.83624 33.3694483,177.346513 33.1572096,178.86586" id="Fill-130"></path>
                <path d="M143.99092,310.946799 C143.489459,311.073011 142.95512,311.230176 142.379616,311.447378 C143.293526,311.254191 143.723349,311.09249 143.99092,310.946799" id="Fill-152"></path>
            </g>
        </g>
    </g>
</svg>