<?xml version="1.0" encoding="UTF-8"?>
<svg width="425px" height="75px" viewBox="0 0 425 75" version="1.1" xmlns="http://www.w3.org/2000/svg" xmlns:xlink="http://www.w3.org/1999/xlink">
    <!-- Generator: Sketch 42 (36781) - http://www.bohemiancoding.com/sketch -->
    <title>Page 1</title>
    <desc>Created with Sketch.</desc>
    <defs></defs>
    <g id="02.-Handoff-Folder-" stroke="none" stroke-width="1" fill="none" fill-rule="evenodd">
        <g id="ICEF_Assets" transform="translate(-55.000000, -3816.000000)">
            <g id="Donate-Page" transform="translate(55.000000, 3544.000000)">
                <g id="Page-1" transform="translate(0.000000, 272.000000)">
                    <path d="M91.6725,62.0394531 C91.6725,78.8913672 66.6706,78.8913672 66.6706,62.0394531 C66.6706,45.1875391 91.6725,45.1875391 91.6725,62.0394531" id="Fill-1" fill="#898989"></path>
                    <path d="M158.3295,12.9605469 C158.3295,29.8124609 133.3276,29.8124609 133.3276,12.9605469 C133.3276,-3.89136719 158.3295,-3.89136719 158.3295,12.9605469" id="Fill-2" fill="#898989"></path>
                    <path d="M224.99925,62.0394531 C224.99925,78.8913672 199.99735,78.8913672 199.99735,62.0394531 C199.99735,45.1875391 224.99925,45.1875391 224.99925,62.0394531" id="Fill-3" fill="#898989"></path>
                    <path d="M291.67325,12.9605469 C291.67325,29.8124609 266.67135,29.8124609 266.67135,12.9605469 C266.67135,-3.89136719 291.67325,-3.89136719 291.67325,12.9605469" id="Fill-4" fill="#898989"></path>
                    <path d="M25.0019,12.9605469 C25.0019,29.8124609 0,29.8124609 0,12.9605469 C0,-3.89136719 25.0019,-3.89136719 25.0019,12.9605469" id="Fill-5" fill="#898989"></path>
                    <path d="M358.326,62.0394531 C358.326,78.8913672 333.3241,78.8913672 333.3241,62.0394531 C333.3241,45.1875391 358.326,45.1875391 358.326,62.0394531" id="Fill-6" fill="#898989"></path>
                    <path d="M425,12.9605469 C425,29.8124609 399.9981,29.8124609 399.9981,12.9605469 C399.9981,-3.89136719 425,-3.89136719 425,12.9605469" id="Fill-7" fill="#898989"></path>
                    <polyline id="Path-7" stroke="#898989" stroke-width="4.53333333" points="13.6 13.6363636 78.7666667 61.9318182 146.766667 12.5 213.633333 62.5 281.066667 12.5 346.233333 63.0681818 413.666667 11.3636364"></polyline>
                </g>
            </g>
        </g>
    </g>
</svg>