<?xml version="1.0" encoding="UTF-8"?>
<svg width="151px" height="150px" viewBox="0 0 151 150" version="1.1" xmlns="http://www.w3.org/2000/svg" xmlns:xlink="http://www.w3.org/1999/xlink">
    <!-- Generator: Sketch 42 (36781) - http://www.bohemiancoding.com/sketch -->
    <title>Local Business</title>
    <desc>Created with Sketch.</desc>
    <defs></defs>
    <g id="01.-Homepage" stroke="none" stroke-width="1" fill="none" fill-rule="evenodd">
        <g id="1.1_DESKTOP_Main" transform="translate(-1022.000000, -2936.000000)">
            <g id="Tekera-Research-Centre-" transform="translate(253.000000, 2310.000000)">
                <g id="4/8-Programs" transform="translate(0.000000, 626.000000)">
                    <g id="Local-Business" transform="translate(769.000000, 0.000000)">
                        <g id="ASSET_YCircleFill" transform="translate(0.163952, 0.000000)" fill="#FFEABA">
                            <ellipse id="Oval-Copy" cx="75.0816104" cy="75" rx="75.0816104" ry="75"></ellipse>
                        </g>
                        <path d="M125.818598,46.56 C125.462798,45.6565333 124.85435,44.9098667 124.106871,44.3722667 C124.749703,43.8705067 125.257989,43.21792 125.591364,42.4533333 C126.116095,41.24672 126.134034,39.9042133 125.649668,38.67968 C124.896209,36.7831467 123.097774,35.5586133 121.052671,35.5586133 C120.429273,35.5586133 119.814845,35.6750933 119.231812,35.9080533 C119.091286,35.9662933 118.956739,36.0305067 118.822193,36.09472 C118.76389,35.7691733 118.671202,35.4421333 118.548616,35.1210667 C117.795157,33.2245333 115.996722,32 113.951619,32 C113.328221,32 112.713794,32.11648 112.13076,32.3509333 C110.396608,33.0378667 109.26343,34.6013867 109.046661,36.3396267 C108.415789,36.0544 107.722128,35.8916267 106.997073,35.8916267 C106.372181,35.8916267 105.759248,36.0081067 105.180699,36.2410667 C103.954833,36.7249067 102.990585,37.65824 102.465855,38.87232 C102.190782,39.5025067 102.056236,40.1730133 102.062216,40.8375467 C101.601769,40.6971733 101.111422,40.6225067 100.609116,40.6225067 C99.9842238,40.6225067 99.3712909,40.7389867 98.792742,40.9719467 C97.5668762,41.4557867 96.6026282,42.38912 96.0764028,43.6032 C95.8431893,44.14528 95.7146229,44.7172267 95.6802389,45.2891733 C95.1480337,45.0965333 94.5814445,44.9845333 93.9984108,44.9845333 C93.3735182,44.9845333 92.7605854,45.1025067 92.1820365,45.3354667 C90.9561707,45.8193067 89.9919226,46.75264 89.4671922,47.96672 C89.3446057,48.2519467 89.2504233,48.54912 89.1801603,48.8462933 C88.4625803,48.45056 87.6508179,48.22208 86.786732,48.22208 C86.1618395,48.22208 85.5474116,48.3400533 84.9703577,48.5730133 C83.742997,49.0568533 82.7802438,49.9901867 82.2540185,51.2042667 C82.1957151,51.3312 82.1493714,51.4656 82.1030277,51.6 C81.2733259,50.9877333 80.2567542,50.63232 79.1714145,50.63232 C78.5465219,50.63232 77.9335891,50.7488 77.3490604,50.98176 C76.1635584,51.4491733 75.2650885,52.33472 74.744843,53.39648 C73.8568378,52.5856 72.6832955,52.1137067 71.4155709,52.1137067 C70.7906784,52.1137067 70.1777455,52.2301867 69.5947117,52.4631467 C68.367351,52.94848 67.4045978,53.88032 66.8783725,55.0944 C66.860433,55.1406933 66.8439885,55.18848 66.826049,55.2288 C65.9858824,54.59264 64.9573511,54.2193067 63.8421122,54.2193067 C63.2172197,54.2193067 62.6102666,54.3357867 62.0257379,54.5687467 C60.659346,55.11232 59.6666937,56.2024533 59.2047516,57.48672 C58.3705649,56.8669867 57.3539933,56.5056 56.2566939,56.5056 C55.6318013,56.5056 55.0188684,56.62208 54.4343397,56.8565333 C52.8990176,57.4628267 51.842082,58.7575467 51.4683425,60.2449067 C50.7492675,59.8491733 49.9315254,59.61472 49.0674395,59.61472 C48.4425469,59.61472 47.829614,59.7312 47.2510651,59.9656533 C46.0251994,60.4494933 45.0609513,61.3828267 44.5362209,62.5954133 C44.389715,62.9284267 44.2910477,63.2778667 44.2207847,63.6228267 C43.5615081,63.2957867 42.8185138,63.1210667 42.0426305,63.1210667 C41.4177379,63.1210667 40.804805,63.2375467 40.2262562,63.4705067 C38.1243448,64.30528 36.9149235,66.4288 37.1376723,68.5687467 C36.9089437,68.5403733 36.6817101,68.51648 36.4484966,68.51648 C35.823604,68.51648 35.2106711,68.63296 34.6261424,68.8674133 C32.1788957,69.8350933 30.9410702,72.55296 31.7707721,75.02144 C31.2684661,75.0557867 30.7781198,75.1662933 30.2982382,75.35296 C27.7702637,76.35648 26.5264584,79.2266667 27.5250905,81.7578667 C27.6940208,82.1909333 27.9272343,82.57472 28.1963268,82.9316267 C27.0108249,83.4274133 26.0824558,84.3428267 25.5681901,85.5210667 C25.0434598,86.7291733 25.0255203,88.0701867 25.5098868,89.29472 C25.861202,90.18176 26.4502155,90.91648 27.185735,91.45408 C25.5681901,92.7771733 24.9089135,95.04704 25.7206759,97.0884267 C26.2812852,98.5056 27.4428678,99.5509333 28.8451387,99.98848 C27.9870326,101.289173 27.7523242,102.969173 28.3652571,104.52672 C29.0439682,106.22912 30.5733105,107.38496 32.3597856,107.594027 C31.8574797,108.75584 31.7931964,110.1088 32.2955024,111.373653 C33.0489614,113.264213 34.8473962,114.488747 36.8924992,114.488747 C37.079369,114.488747 37.2602589,114.47232 37.4411489,114.4544 C37.3125824,115.295147 37.3888253,116.17472 37.7207061,117.027413 C38.474165,118.922453 40.2725999,120.142507 42.3177028,120.142507 C42.9411004,120.142507 43.5555283,120.024533 44.1325822,119.791573 C44.640868,119.586987 45.0968303,119.307733 45.4929942,118.97472 C46.2942918,120.742827 48.0224636,121.880747 49.9838489,121.880747 C50.6087415,121.880747 51.2231693,121.764267 51.8002232,121.529813 C53.027584,121.04 53.9903371,120.11264 54.5165624,118.900053 C54.5569263,118.8 54.5913103,118.707413 54.6271893,118.60736 C55.4793156,119.273387 56.5362511,119.663147 57.6754093,119.663147 C58.3003019,119.663147 58.9132348,119.546667 59.4977634,119.31968 C62.0317177,118.31616 63.2695432,115.44 62.2709111,112.914773 C62.2589514,112.89088 62.2484867,112.866987 62.236527,112.844587 C62.632691,112.79232 63.0303499,112.692267 63.4100693,112.547413 C64.1859526,112.244267 64.8586839,111.75296 65.3774344,111.128747 C66.2893589,112.418987 67.7603979,113.211947 69.3958823,113.211947 C70.0207748,113.211947 70.6337077,113.095467 71.2182364,112.862507 C72.1750097,112.4832 72.9688326,111.82912 73.5234621,110.97792 C74.4294068,112.302507 75.9243651,113.12384 77.5882537,113.12384 C78.2131463,113.12384 78.8260791,113.00736 79.404628,112.7744 C80.7007568,112.260693 81.6590251,111.2512 82.1493714,110.056533 C82.557495,110.335787 83.0553161,110.540373 83.6099457,110.63296 L101.805083,113.93472 C101.92767,113.958613 102.045771,113.97056 102.162378,113.97056 C102.79923,113.97056 103.406183,113.667413 103.87261,113.117867 C104.368936,112.54144 104.549826,111.8112 104.392856,111.070507 L101.408919,97.1765333 C101.250453,96.43584 100.778047,95.8459733 100.094851,95.5189333 C99.3757758,95.18144 98.5759731,95.20384 97.9286562,95.58912 L82.4065042,104.729813 C82.1030277,104.904533 81.8399151,105.121067 81.6186612,105.365973 C80.7067367,104.06528 79.2237381,103.2544 77.5822739,103.2544 C76.9573813,103.2544 76.3444484,103.37088 75.7658995,103.60384 C74.8091262,103.983147 74.0153034,104.637227 73.4606739,105.488427 C72.5547291,104.16384 71.0597708,103.342507 69.4018621,103.342507 C68.7769695,103.342507 68.1640366,103.458987 67.5854878,103.691947 C66.7916649,104.00704 66.1308934,104.502827 65.6166277,105.10912 C64.7061981,103.826347 63.2351592,103.027413 61.5996748,103.027413 C61.0046814,103.027413 60.4201527,103.13792 59.8535635,103.34848 C59.835624,102.786987 59.7249971,102.22848 59.514208,101.684907 C58.762244,99.79584 56.9623142,98.5698133 54.9187062,98.5698133 C54.5270271,98.5698133 54.1428229,98.62208 53.7690833,98.7101867 C53.7855278,98.0516267 53.6749009,97.3796267 53.4237479,96.7509333 C52.7001881,94.93056 51.0004205,93.7403733 49.0614596,93.6462933 C49.3948353,92.6024533 49.3828757,91.43616 48.9508327,90.3400533 C48.7759226,89.9025067 48.5427091,89.4993067 48.261657,89.13792 C49.4650984,88.6481067 50.411407,87.72672 50.9301575,86.53056 C51.2515735,85.7898667 51.3801399,85.0013867 51.3218366,84.2203733 C51.6432526,84.2845867 51.9706485,84.33088 52.3025292,84.33088 C52.9274218,84.33088 53.5403547,84.2144 54.1248834,83.98144 C55.035313,83.6200533 55.8007316,83.0122667 56.3493813,82.2312533 C57.2672857,83.3856 58.6740414,84.08 60.2093636,84.08 C60.8342562,84.08 61.4471891,83.96352 62.0257379,83.73056 C63.0587541,83.3213867 63.9063954,82.5866667 64.461025,81.6413867 C65.3714546,82.6165333 66.6571187,83.2049067 68.0519148,83.2049067 C68.6768073,83.2049067 69.2897402,83.0884267 69.8742689,82.8554667 C70.983528,82.4119467 71.877513,81.60704 72.4261627,80.5572267 C73.3201478,81.3905067 74.5116295,81.88032 75.7957987,81.88032 C76.4206913,81.88032 77.0336242,81.76384 77.612173,81.53088 C78.8380388,81.04704 79.8022869,80.1137067 80.3270173,78.8996267 C80.3449568,78.8593067 80.3569164,78.8189867 80.3748559,78.7771733 C81.2210023,79.4312533 82.2659782,79.8165333 83.3931767,79.8165333 C84.0180693,79.8165333 84.6310022,79.7000533 85.209551,79.4656 C86.6402261,78.8996267 87.6627776,77.7333333 88.0948205,76.3744 C88.8826636,76.8881067 89.8110326,77.1793067 90.803685,77.1793067 C91.4285775,77.1793067 92.0415104,77.0628267 92.6200593,76.8298667 C93.8459251,76.3445333 94.8101732,75.4112 95.3349035,74.1986133 C95.4694498,73.88352 95.5740968,73.55648 95.6383801,73.2309333 C96.3395155,73.6042667 97.1288535,73.8133333 97.9570604,73.8133333 C98.5819529,73.8133333 99.1948858,73.6968533 99.7734347,73.4638933 C101.549445,72.76352 102.687108,71.14176 102.863513,69.3632 C103.428608,69.5842133 104.037056,69.71264 104.667928,69.71264 C105.291326,69.71264 105.905754,69.59616 106.482807,69.3632 C108.345526,68.6225067 109.508603,66.8663467 109.595311,64.98176 C110.063233,65.1281067 110.559559,65.2042667 111.067845,65.2042667 C111.692737,65.2042667 112.30567,65.0862933 112.884219,64.8533333 C114.110085,64.3694933 115.072838,63.43616 115.599063,62.22208 C115.948883,61.40672 116.07147,60.5376 115.966823,59.6789333 C116.235915,59.72672 116.509493,59.7550933 116.790545,59.7550933 C117.415437,59.7550933 118.02837,59.6386133 118.612899,59.4056533 C119.838765,58.9218133 120.803013,57.9869867 121.327743,56.7744 C121.81211,55.6603733 121.859948,54.43584 121.486209,53.2919467 C122.016919,53.26208 122.537165,53.1515733 123.033491,52.95296 C124.259356,52.46912 125.223605,51.5357867 125.748335,50.3232 C126.26858,49.1150933 126.302964,47.7845333 125.818598,46.56 Z M116.533412,49.90208 C116.002702,49.9319467 115.482456,50.0424533 114.98613,50.2350933 C113.760264,50.7189333 112.796016,51.6522667 112.269791,52.8663467 C111.919971,53.6832 111.797384,54.55232 111.902031,55.4094933 C111.634434,55.3632 111.359361,55.3393067 111.079804,55.3393067 C110.454912,55.3393067 109.840484,55.4557867 109.26343,55.6887467 C108.036069,56.17408 107.073316,57.1074133 106.547091,58.32 C106.301918,58.88 106.173351,59.47584 106.150927,60.0701867 C105.683005,59.92384 105.186679,59.8491733 104.678393,59.8491733 C104.0535,59.8491733 103.440567,59.9656533 102.863513,60.1986133 C101.636153,60.6824533 100.6734,61.6157867 100.147174,62.8298667 C99.942365,63.30176 99.8137986,63.7975467 99.7674548,64.2993067 C99.2068455,64.0782933 98.5998924,63.9498667 97.9630402,63.9498667 C97.3381476,63.9498667 96.7311946,64.0663467 96.1466659,64.2993067 C94.5410807,64.9354667 93.455741,66.3242667 93.1343249,67.9042133 C92.4331895,67.53088 91.6453465,67.31584 90.8096648,67.31584 C90.1847722,67.31584 89.5718393,67.43232 88.9932905,67.66528 C87.5626154,68.2312533 86.5415589,69.3975467 86.108021,70.75648 C85.3261578,70.2442667 84.3918089,69.9515733 83.4051364,69.9515733 C82.7802438,69.9515733 82.1673109,70.0680533 81.5827822,70.3025067 C80.2746937,70.8206933 79.3119406,71.8421333 78.8260791,73.05472 C77.9799328,72.39616 76.9349569,72.0168533 75.8077584,72.0168533 C75.1828658,72.0168533 74.5699329,72.1333333 73.991384,72.3662933 C72.882125,72.80384 71.9881399,73.61472 71.4394902,74.6645333 C70.5455052,73.8312533 69.3540234,73.34144 68.0698543,73.34144 C67.4449617,73.34144 66.8320288,73.45792 66.2475001,73.69088 C65.1845848,74.1105067 64.3563779,74.8631467 63.8181929,75.7800533 C62.9077633,74.8049067 61.6235941,74.2165333 60.2213233,74.2165333 C59.5964307,74.2165333 58.9834978,74.3330133 58.3989691,74.5659733 C57.4885395,74.92736 56.7231209,75.5336533 56.1744712,76.31616 C55.2580617,75.16032 53.849811,74.4674133 52.3144889,74.4674133 C51.6895963,74.4674133 51.0766634,74.5838933 50.4981145,74.8168533 C49.2722488,75.3006933 48.3080007,76.2340267 47.7832703,77.4481067 C47.4618543,78.1888 47.3332879,78.9757867 47.3915912,79.7582933 C47.0701752,79.69408 46.7487592,79.6462933 46.4108986,79.6462933 C45.786006,79.6462933 45.1730731,79.7642667 44.5945243,79.9972267 C42.06057,81.0007467 40.8167647,83.8754133 41.8198817,86.4021333 C41.9962868,86.8456533 42.2295003,87.2413867 42.5090575,87.6042667 C41.307111,88.09408 40.3608024,89.0154667 39.8405569,90.2116267 C39.3158266,91.41824 39.2978871,92.7607467 39.7822535,93.98528 C40.5073083,95.8056533 42.2055809,96.99584 44.1445418,97.0884267 C43.8126611,98.13824 43.8231258,99.3000533 44.2551687,100.39616 C45.0086277,102.28672 46.8070625,103.511253 48.8521655,103.511253 C49.2423496,103.511253 49.6280488,103.458987 50.0077682,103.37088 C49.9898287,104.018987 50.0959708,104.689493 50.3516086,105.331627 C51.1050676,107.226667 52.9049974,108.4512 54.9486054,108.4512 C55.5435988,108.4512 56.1341073,108.340693 56.6947167,108.131627 C56.7111612,108.685653 56.8173032,109.245653 57.0325772,109.787733 C57.0445369,109.811627 57.0564966,109.834027 57.0684562,109.85792 C56.6707973,109.910187 56.2731384,110.008747 55.894914,110.155093 C54.5225423,110.697173 53.5343748,111.794773 53.0739277,113.08352 C52.2203065,112.413013 51.163371,112.02176 50.0257077,112.02176 C49.4008152,112.02176 48.7878823,112.13824 48.2033536,112.3712 C47.6950678,112.575787 47.2391055,112.85056 46.8429415,113.188053 C46.0431389,111.42144 44.3134721,110.289493 42.3520868,110.289493 C42.1711969,110.289493 41.9843271,110.30144 41.8034371,110.32384 C41.9379834,109.466667 41.843801,108.5856 41.5164052,107.758293 C40.8391891,106.0544 39.3098467,104.900053 37.5218766,104.68352 C37.5218766,104.68352 37.5218766,104.68352 37.5218766,104.677547 C38.0481019,103.470933 38.0660414,102.128427 37.5816749,100.903893 C37.0150857,99.4807467 35.857988,98.4354133 34.4572121,98.00384 C35.3153182,96.7031467 35.5485317,95.0231467 34.9355988,93.4656 C34.5857785,92.5800533 33.99527,91.84384 33.2597505,91.3077333 C34.8772954,89.9831467 35.536572,87.7147733 34.7248097,85.6733867 C34.5558794,85.24032 34.3226659,84.85056 34.0535734,84.4996267 C35.2390753,84.00384 36.1674444,83.0884267 36.6817101,81.9101867 C37.1720564,80.7842133 37.2124202,79.54176 36.828216,78.3874133 C37.3305219,78.3515733 37.8208683,78.2410667 38.2992549,78.0544 C39.5251207,77.57056 40.4893688,76.6372267 41.0140992,75.4231467 C41.3594345,74.6301867 41.4820211,73.78496 41.3938186,72.9501867 C41.6165674,72.9800533 41.843801,73.0024533 42.0770145,73.0024533 C42.7019071,73.0024533 43.31484,72.8859733 43.8933888,72.6530133 C45.5169135,72.01088 46.609728,70.5937067 46.9191844,68.99584 C47.5844408,69.3213867 48.3259402,69.50208 49.1033185,69.50208 C49.728211,69.50208 50.3411439,69.3856 50.9241777,69.15264 C52.4609948,68.5463467 53.5179303,67.2516267 53.8916699,65.7642667 C54.6092498,66.16 55.426992,66.39296 56.2910779,66.39296 C56.9159705,66.39296 57.5289034,66.27648 58.1134321,66.04352 C59.4798239,65.50144 60.4664964,64.4098133 60.9344184,63.12704 C61.7626252,63.74528 62.7851767,64.1066667 63.8824761,64.1066667 C64.5073687,64.1066667 65.1203016,63.9901867 65.7048303,63.7572267 C66.9306961,63.2733867 67.8949441,62.3400533 68.4196745,61.1259733 C68.437614,61.07968 68.4555535,61.0333867 68.473493,60.9915733 C69.3076797,61.6277333 70.3421909,62.0010667 71.4514499,62.0010667 C72.0763425,62.0010667 72.6892754,61.8845867 73.2738041,61.6516267 C74.459306,61.1842133 75.3577759,60.2971733 75.8780214,59.2354133 C76.7645317,60.0462933 77.9395689,60.51968 79.2057986,60.51968 C79.8306911,60.51968 80.443624,60.4032 81.0281527,60.1687467 C82.2540185,59.6849067 83.2182666,58.7515733 83.742997,57.5389867 C83.8027953,57.41056 83.849139,57.27616 83.8954827,57.14176 C84.7251846,57.7540267 85.7402612,58.1109333 86.8270959,58.1109333 C87.4519885,58.1109333 88.0649214,57.99296 88.6434702,57.76 C89.869336,57.2701867 90.8335841,56.3428267 91.3583145,55.1287467 C91.4809011,54.84352 91.5750834,54.5463467 91.6453465,54.2491733 C92.3629264,54.6449067 93.1746888,54.8733867 94.0387747,54.8733867 C94.6636673,54.8733867 95.2766001,54.7554133 95.855149,54.5224533 C97.6999275,53.7937067 98.8570252,52.0674133 98.9616723,50.20672 C99.4938775,50.3978667 100.058972,50.5098667 100.64948,50.5098667 C101.274373,50.5098667 101.887306,50.3933867 102.465855,50.1589333 C104.404815,49.3898667 105.584338,47.5291733 105.584338,45.5624533 C106.044785,45.7028267 106.536626,45.7789867 107.037437,45.7789867 C107.66233,45.7789867 108.276757,45.6625067 108.853811,45.4280533 C110.081172,44.9442133 111.043925,44.01088 111.570151,42.7982933 C111.75702,42.3607467 111.879607,41.8993067 111.93791,41.4378667 C112.568783,41.7245867 113.263938,41.88736 113.987498,41.88736 C114.612391,41.88736 115.225324,41.77088 115.803872,41.53792 C115.944398,41.47968 116.07745,41.42144 116.211996,41.3512533 C116.270299,41.6782933 116.358502,42.00384 116.487068,42.3189333 C116.842868,43.2238933 117.449821,43.97056 118.20328,44.5066667 C116.579756,45.7550933 115.8846,47.9069867 116.533412,49.90208 Z M46.2404733,94.3586133 C46.0835027,94.4571733 45.931017,94.5632 45.786006,94.6737067 C45.6753791,94.73792 45.5632572,94.8021333 45.4346908,94.8544 C45.0908504,94.9888 44.7290705,95.0589867 44.3613108,95.0589867 C43.1578694,95.0589867 42.0889742,94.33472 41.6449716,93.21472 C41.3594345,92.4919467 41.3713942,91.6989867 41.6808506,90.9806933 C41.9903069,90.2638933 42.562876,89.71584 43.2864358,89.4231467 C43.6302762,89.2887467 43.993551,89.2200533 44.3613108,89.2200533 C45.5632572,89.2200533 46.6321524,89.9428267 47.076155,91.0628267 C47.5500568,92.2589867 47.1703374,93.5716267 46.2404733,94.3586133 Z M119.979291,37.7806933 C120.323131,37.6462933 120.684911,37.5776 121.052671,37.5776 C122.256112,37.5776 123.325008,38.3003733 123.76901,39.4203733 C124.054547,40.1431467 124.042588,40.9376 123.733131,41.6544 C123.423675,42.3712 122.852601,42.9207467 122.127546,43.2059733 C121.783706,43.3403733 121.421926,43.41056 121.052671,43.41056 C119.844745,43.41056 118.781829,42.6862933 118.337827,41.5662933 C117.742833,40.07296 118.484333,38.37056 119.979291,37.7806933 Z M112.884219,34.2280533 C113.228059,34.0936533 113.589839,34.02496 113.957599,34.02496 C115.16104,34.02496 116.229936,34.7477333 116.673938,35.8677333 C116.959475,36.5905067 116.947515,37.38496 116.638059,38.10176 C116.328603,38.8200533 115.756034,39.3681067 115.032474,39.6533333 C114.688634,39.7877333 114.325359,39.85792 113.957599,39.85792 C112.755652,39.85792 111.686757,39.1351467 111.242755,38.0151467 C110.647761,36.5218133 111.383281,34.81792 112.884219,34.2280533 Z M104.322593,39.6712533 C104.632049,38.95296 105.204618,38.4049067 105.928178,38.1137067 C106.273513,37.9793067 106.635293,37.90912 107.003053,37.90912 C108.212474,37.90912 109.27539,38.6333867 109.717897,39.7533867 C110.004929,40.47616 109.99297,41.26912 109.683513,41.9874133 C109.374057,42.7042133 108.801488,43.2522667 108.077928,43.5389867 C107.732593,43.6733867 107.370813,43.74208 107.003053,43.74208 C105.793632,43.74208 104.732211,43.0193067 104.288209,41.8993067 C104.001177,41.1765333 104.013136,40.38208 104.322593,39.6712533 Z M97.934636,44.39616 C98.2440924,43.6778667 98.8151664,43.1298133 99.5402212,42.8445867 C99.8840616,42.7042133 100.247336,42.64 100.615096,42.64 C101.823022,42.64 102.885938,43.3642667 103.32994,44.4842667 C103.924934,45.9776 103.189414,47.68 101.688476,48.2698667 C101.344636,48.4042667 100.982856,48.47296 100.615096,48.47296 C99.4116548,48.47296 98.3427596,47.7501867 97.898757,46.6301867 C97.61322,45.90144 97.6251796,45.11296 97.934636,44.39616 Z M91.3239304,48.7537067 C91.6333868,48.0354133 92.2059558,47.48736 92.9295156,47.2021333 C93.273356,47.0677333 93.6366309,46.9975467 94.0043906,46.9975467 C95.2123169,46.9975467 96.2752323,47.7218133 96.7192349,48.8418133 C97.3097434,50.3351467 96.572729,52.0375467 95.0777707,52.6274133 C94.7339303,52.76032 94.3721504,52.8305067 94.0043906,52.8305067 C92.8009492,52.8305067 91.732054,52.1077333 91.2880514,50.9877333 C91.0025144,50.26496 91.0144741,49.4705067 91.3239304,48.7537067 Z M84.1122517,51.9912533 C84.421708,51.27296 84.9927821,50.7249067 85.7178369,50.43968 C86.0616773,50.2993067 86.4234572,50.2350933 86.7927119,50.2350933 C88.0006382,50.2350933 89.0635535,50.9578667 89.5075561,52.0778667 C89.7930931,52.8021333 89.7826284,53.5950933 89.4716771,54.3133867 C89.1622208,55.0301867 88.5911467,55.57824 87.8660919,55.86496 C87.5222515,55.9978667 87.1604716,56.0680533 86.7927119,56.0680533 C85.5892704,56.0680533 84.5203753,55.34528 84.0763727,54.22528 C83.7908356,53.4965333 83.8027953,52.70208 84.1122517,51.9912533 Z M78.1025193,52.8424533 C78.4463597,52.7080533 78.8096346,52.6378667 79.1773943,52.6378667 C80.3793408,52.6378667 81.448236,53.3621333 81.8922386,54.4821333 C82.1792706,55.2049067 82.1673109,55.9978667 81.8578546,56.71616 C81.5483982,57.42848 80.9758292,57.9825067 80.2507744,58.2677333 C79.906934,58.4021333 79.5451541,58.47232 79.1773943,58.47232 C77.9739529,58.47232 76.9050577,57.7480533 76.4610551,56.6280533 C75.8660617,55.13472 76.6015812,53.43232 78.1025193,52.8424533 Z M68.7410905,55.8754133 C69.0505469,55.1645867 69.6231159,54.61056 70.3481707,54.32384 C70.6920111,54.1909333 71.053791,54.1207467 71.4215507,54.1207467 C72.6249922,54.1207467 73.6938873,54.84352 74.13789,55.96352 C74.7328834,57.4568533 73.9973639,59.1607467 72.4964258,59.74912 C72.1525854,59.8894933 71.7893105,59.95968 71.4215507,59.95968 C70.2136245,59.95968 69.1507091,59.2354133 68.7067065,58.1154133 C68.4196745,57.3806933 68.4316342,56.5937067 68.7410905,55.8754133 Z M62.7851767,56.42496 C63.1290171,56.29056 63.492292,56.2203733 63.8600517,56.2203733 C65.067978,56.2203733 66.1308934,56.9431467 66.574896,58.0631467 C66.860433,58.7874133 66.8499683,59.5803733 66.5405119,60.2971733 C66.2310556,61.0154667 65.6584865,61.56352 64.9334318,61.8487467 C64.5895914,61.9831467 64.2278115,62.0533333 63.8600517,62.0533333 C62.6566103,62.0533333 61.5877151,61.33056 61.1437125,60.21056 C60.5487191,58.7172267 61.2842386,57.0193067 62.7851767,56.42496 Z M55.1937785,58.7112533 C55.5376189,58.57088 55.8993988,58.5006933 56.2686535,58.5006933 C57.4765798,58.5006933 58.5394952,59.22496 58.9834978,60.34496 C59.5784912,61.8442667 58.8429717,63.5406933 57.3420336,64.13056 C56.9981932,64.26496 56.6364133,64.3336533 56.2686535,64.3336533 C55.1937785,64.3336533 54.2295304,63.7572267 53.7152648,62.83584 C53.6988202,62.7940267 53.6928404,62.7477333 53.6749009,62.7074133 C53.634537,62.6013867 53.5762337,62.5028267 53.5239101,62.3982933 C52.9976848,60.9333333 53.7272245,59.2891733 55.1937785,58.7112533 Z M46.4049188,63.3719467 C46.7143751,62.6551467 47.2869441,62.1056 48.010504,61.8203733 C48.3558393,61.6859733 48.7176192,61.6157867 49.085379,61.6157867 C50.160254,61.6157867 51.1230071,62.1937067 51.6372728,63.1150933 C51.6552123,63.1554133 51.665677,63.1972267 51.6776366,63.24352 C51.7194955,63.3480533 51.7777988,63.4481067 51.8301224,63.55264 C52.3548527,65.02208 51.6312929,66.6677333 50.1662338,67.2516267 C49.8208984,67.3845333 49.4591185,67.45472 49.0913588,67.45472 C47.8879174,67.45472 46.8190222,66.7319467 46.3750196,65.6119467 C46.0835027,64.8832 46.0954624,64.0887467 46.4049188,63.3719467 Z M39.3442308,69.1063467 C38.7492374,67.60704 39.4847568,65.90912 40.985695,65.3207467 C41.3295354,65.1803733 41.6928102,65.1101867 42.06057,65.1101867 C43.2684963,65.1101867 44.3314116,65.83296 44.7754142,66.95296 C45.3704076,68.4522667 44.6348881,70.1501867 43.13395,70.7445333 C42.7901096,70.8849067 42.4283297,70.94912 42.06057,70.94912 C41.4356774,70.94912 40.8511487,70.7505067 40.3667822,70.4130133 C40.1500133,70.1322667 39.9048401,69.8813867 39.6372426,69.6603733 C39.5251207,69.4856533 39.4204736,69.30496 39.3442308,69.1063467 Z M35.3855812,70.71616 C35.7294216,70.5757867 36.0912015,70.5056 36.4604562,70.5056 C37.0853488,70.5056 37.6683825,70.7042133 38.152749,71.0491733 C38.369518,71.3284267 38.6146911,71.5793067 38.8837836,71.80032 C39.0003904,71.9765333 39.0990576,72.1512533 39.1812803,72.3498667 C39.4668173,73.07264 39.4548577,73.8656 39.1454013,74.5838933 C38.8359449,75.3006933 38.2648709,75.85472 37.5398161,76.1354667 C37.1959757,76.27584 36.8341958,76.3445333 36.4649411,76.3445333 C36.0224334,76.3445333 35.6008552,76.2459733 35.2211358,76.0712533 C34.9939021,75.8845867 34.748729,75.7218133 34.4856163,75.58144 C34.1701801,75.2887467 33.9130473,74.9213867 33.744117,74.50176 C33.1551034,73.0084267 33.8906229,71.3105067 35.3855812,70.71616 Z M31.057677,77.2032 C31.4030123,77.0688 31.7647922,76.9986133 32.132552,76.9986133 C32.5765546,76.9986133 32.9966379,77.0971733 33.3763573,77.2733867 C33.6035909,77.4600533 33.8487641,77.6228267 34.1118768,77.7632 C34.427313,78.0544 34.6844458,78.42176 34.8533761,78.8413867 C35.1404081,79.5656533 35.1284484,80.3586133 34.818992,81.0754133 C34.5095357,81.7937067 33.9369666,82.3477333 33.2134068,82.63296 C32.8680715,82.76736 32.5062916,82.8375467 32.1385318,82.8375467 C32.0099654,82.8375467 31.8873788,82.8256 31.7647922,82.8091733 C31.5315787,82.72704 31.2864056,82.6568533 31.0352526,82.6165333 C30.3101978,82.32384 29.7211843,81.7533867 29.4221926,80.9947733 C28.8271992,79.4954667 29.5627187,77.7915733 31.057677,77.2032 Z M27.436888,86.2976 C27.7463444,85.5793067 28.3189134,85.02528 29.0439682,84.7400533 C29.3878086,84.59968 29.7495885,84.5294933 30.1173482,84.5294933 C30.2459146,84.5294933 30.3685012,84.54144 30.4910878,84.5578667 C30.7317761,84.64 30.9709694,84.7042133 31.2221224,84.7505067 C31.9397024,85.0432 32.5302109,85.6136533 32.8336874,86.3722667 C33.4286808,87.8656 32.6931613,89.5694933 31.1922232,90.1578667 C30.9874139,90.24 30.7781198,90.2862933 30.5613508,90.3221333 C30.4851079,90.31616 30.4043802,90.3042133 30.3281373,90.3042133 C30.1412675,90.3042133 29.9603776,90.3221333 29.7794876,90.3400533 C28.7165723,90.2176 27.8046477,89.5351467 27.402504,88.51968 C27.1169669,87.8013867 27.1274316,87.0144 27.436888,86.2976 Z M27.6132931,96.32384 C27.0227846,94.8305067 27.758304,93.1281067 29.2532623,92.53824 C29.4580716,92.4576 29.6733456,92.4098133 29.8841347,92.3754667 C29.9603776,92.38144 30.0366205,92.3933867 30.1173482,92.3933867 C30.304218,92.3933867 30.4851079,92.38144 30.6674929,92.3575467 C31.7289132,92.48 32.6408378,93.1624533 33.0429816,94.17792 C33.6394699,95.6772267 32.9039505,97.3751467 31.4030123,97.9694933 C31.057677,98.1038933 30.6958971,98.17408 30.3281373,98.17408 C29.1246959,98.1681067 28.0617806,97.44384 27.6132931,96.32384 Z M30.2638541,103.762133 C29.6688607,102.262827 30.4043802,100.564907 31.9053183,99.9765333 C32.2491587,99.83616 32.6109386,99.7719467 32.9786984,99.7719467 C34.1881196,99.7719467 35.251035,100.49472 35.6950376,101.61472 C35.9805746,102.338987 35.9686149,103.131947 35.6591586,103.848747 C35.3497022,104.56704 34.7786282,105.115093 34.0535734,105.40032 C33.709733,105.53472 33.3479531,105.604907 32.9786984,105.604907 C31.7707721,105.604907 30.7078567,104.882133 30.2638541,103.762133 Z M37.9838187,112.248747 C37.6399783,112.383147 37.2767034,112.453333 36.9089437,112.453333 C35.7010174,112.453333 34.6381021,111.73056 34.1940995,110.61056 C33.5976111,109.111253 34.3346255,107.413333 35.8355637,106.818987 C36.1794041,106.684587 36.541184,106.6144 36.9089437,106.6144 C38.118365,106.6144 39.1812803,107.337173 39.6252829,108.457173 C39.91082,109.18144 39.8988603,109.9744 39.5894039,110.6912 C39.4503728,111.012267 39.2575232,111.293013 39.0228147,111.53792 C38.9540466,111.602133 38.8837836,111.660373 38.8195004,111.73056 C38.5743272,111.9456 38.2992549,112.126293 37.9838187,112.248747 Z M43.4150022,117.902507 C43.0696668,118.041387 42.7078869,118.1056 42.3401272,118.1056 C41.1322009,118.1056 40.0692855,117.382827 39.6252829,116.262827 C39.1992198,115.177173 39.4727972,113.998933 40.2202763,113.2 C40.2905394,113.135787 40.3667822,113.0656 40.4310654,112.995413 C40.6762386,112.786347 40.949816,112.59968 41.2652522,112.477227 C41.6105875,112.342827 41.9723674,112.27264 42.3401272,112.27264 C43.5495484,112.27264 44.6124638,112.995413 45.0564664,114.115413 C45.6454799,115.61472 44.9099605,117.31264 43.4150022,117.902507 Z M52.6882284,118.089173 C52.3787721,118.805973 51.8062031,119.36 51.0826432,119.64672 C50.7373079,119.779627 50.375528,119.849813 50.0077682,119.849813 C48.798347,119.849813 47.7354316,119.12704 47.292924,118.00704 C46.6964356,116.507733 47.4319551,114.809813 48.9328932,114.215467 C49.2782286,114.081067 49.6400085,114.01088 50.0077682,114.01088 C51.2171895,114.01088 52.2801048,114.733653 52.7226125,115.853653 C53.0096445,116.57792 52.9976848,117.37088 52.6882284,118.089173 Z M58.7727087,117.42912 C58.4288683,117.56352 58.0670884,117.633707 57.6993286,117.633707 C56.4899074,117.633707 55.426992,116.910933 54.9829894,115.790933 C54.387996,114.291627 55.1235155,112.593707 56.6244536,111.997867 C56.968294,111.86496 57.3300739,111.794773 57.6993286,111.794773 C58.1014724,111.794773 58.4871716,111.881387 58.8429717,112.033707 C59.0358213,112.162133 59.2406306,112.278613 59.4499248,112.383147 C59.871503,112.69824 60.2093636,113.12384 60.4141729,113.64352 C61.0046814,115.136853 60.267667,116.840747 58.7727087,117.42912 Z M84.4381526,108.422827 C83.8311995,108.422827 83.3348733,107.92704 83.3348733,107.320747 C83.3348733,106.71296 83.8311995,106.217173 84.4381526,106.217173 C85.0466006,106.217173 85.5429267,106.71296 85.5429267,107.320747 C85.5429267,107.92704 85.0466006,108.422827 84.4381526,108.422827 Z M98.9616723,97.3109333 C98.9975513,97.2930133 99.0259555,97.28704 99.0618345,97.28704 C99.1141581,97.28704 99.1784413,97.30496 99.2427245,97.3333333 C99.3593312,97.3856 99.4176346,97.46176 99.4460388,97.5901867 L102.429976,111.485653 C102.453895,111.61408 102.435955,111.700693 102.349248,111.800747 C102.261045,111.90528 102.190782,111.935147 102.168358,111.939627 L86.931743,109.175467 C87.3234221,108.655787 87.5566355,108.019627 87.5566355,107.320747 C87.5566355,106.275413 87.037885,105.36 86.248547,104.794027 L98.9616723,97.3109333 Z M74.9137733,107.0176 C75.2232297,106.299307 75.7957987,105.74528 76.5193585,105.460053 C76.8646939,105.31968 77.2264738,105.249493 77.5942335,105.249493 C78.8036548,105.249493 79.8665701,105.972267 80.3105727,107.092267 C80.8995863,108.5856 80.1700466,110.289493 78.6691085,110.877867 C78.3237732,111.01824 77.9619933,111.088427 77.5942335,111.088427 C76.3863072,111.088427 75.3233919,110.365653 74.8793893,109.245653 C74.5923573,108.521387 74.6043169,107.7344 74.9137733,107.0176 Z M68.3329669,105.546667 C68.6768073,105.412267 69.0385872,105.34208 69.4078419,105.34208 C70.6157682,105.34208 71.6786836,106.066347 72.1226862,107.186347 C72.4082232,107.90912 72.3977585,108.70208 72.0883021,109.420373 C71.7788458,110.137173 71.2062768,110.68672 70.481222,110.97792 C70.1373816,111.11232 69.7756017,111.182507 69.4078419,111.182507 C68.2044005,111.182507 67.1355053,110.45824 66.6915027,109.33824 C66.5868556,109.070933 66.5405119,108.79616 66.5106128,108.52736 C66.5405119,108.27648 66.5464918,108.0256 66.5345321,107.77472 C66.7094422,106.795093 67.3522743,105.931947 68.3329669,105.546667 Z M61.6056546,105.022507 C62.8090961,105.022507 63.8764963,105.74528 64.3204989,106.86528 C64.4266409,107.13408 64.4789645,107.40736 64.5013888,107.688107 C64.4729846,107.933013 64.4670048,108.183893 64.4789645,108.4288 C64.4371056,108.655787 64.3788023,108.884267 64.2861148,109.099307 C63.9766585,109.8176 63.4040894,110.365653 62.6805296,110.65088 C62.3351943,110.791253 61.9734144,110.86144 61.6056546,110.86144 C61.2020159,110.86144 60.8163167,110.773333 60.4605166,110.622507 C60.267667,110.49408 60.0643526,110.371627 59.8535635,110.271573 C59.4334802,109.95648 59.0941247,109.53088 58.8893154,109.017173 C58.294322,107.517867 59.0298415,105.82144 60.5307796,105.2256 C60.876115,105.0912 61.2378949,105.022507 61.6056546,105.022507 Z M54.9306659,100.57088 C56.1400871,100.57088 57.2030025,101.293653 57.6455101,102.413653 C57.9325421,103.13792 57.9205824,103.93088 57.6111261,104.649173 C57.3016697,105.365973 56.7291007,105.914027 56.0055409,106.200747 C55.6602055,106.339627 55.2984256,106.409813 54.9306659,106.409813 C53.7212446,106.409813 52.6583293,105.68704 52.2158216,104.56704 C51.842082,103.62176 51.9990527,102.601813 52.5357427,101.82528 C52.5895612,101.76704 52.6359049,101.702827 52.6882284,101.644587 C52.991705,101.277227 53.3774042,100.968107 53.849811,100.78144 C54.2011262,100.635093 54.5569263,100.57088 54.9306659,100.57088 Z M51.5550501,97.47968 C51.842082,98.2024533 51.8301224,98.9954133 51.520666,99.7137067 C51.4384433,99.9003733 51.3397761,100.075093 51.2276542,100.237867 C51.1813105,100.291627 51.1349668,100.343893 51.0886231,100.402133 C50.7791667,100.78144 50.3815078,101.084587 49.9150808,101.271253 C49.5697455,101.405653 49.2079655,101.47584 48.8402058,101.47584 C47.6307846,101.47584 46.5678692,100.751573 46.1238666,99.6315733 C45.6514598,98.4413867 46.0311792,97.1287467 46.9595483,96.34176 C47.1165189,96.2432 47.2749845,96.1371733 47.4155106,96.0266667 C47.5261375,95.9624533 47.6367644,95.89824 47.759351,95.8519467 C48.1046863,95.7115733 48.4664662,95.6413867 48.834226,95.6413867 C50.0421523,95.6309333 51.1050676,96.35968 51.5550501,97.47968 Z M49.0734193,85.71968 C48.7639629,86.43648 48.1913939,86.9845333 47.4678341,87.2712533 C47.1224987,87.4116267 46.7607188,87.47584 46.3929591,87.47584 C45.1835378,87.47584 44.1221175,86.7515733 43.6781148,85.6315733 C43.0816265,84.1322667 43.817146,82.43584 45.3180841,81.84 C45.6634194,81.7056 46.0251994,81.6354133 46.3929591,81.6354133 C47.5964005,81.6354133 48.6652957,82.35968 49.1078033,83.47968 C49.3948353,84.2084267 49.3888555,85.0013867 49.0734193,85.71968 Z M54.9829894,80.5393067 C54.673533,81.2576 54.100964,81.8056533 53.3774042,82.0968533 C53.0320688,82.2312533 52.6702889,82.30144 52.3025292,82.30144 C51.0990878,82.30144 50.0316876,81.5771733 49.587685,80.4571733 C49.300653,79.7344 49.3126126,78.94144 49.622069,78.2231467 C49.9315254,77.51232 50.5040944,76.9582933 51.2276542,76.6656 C51.5729896,76.5312 51.9347695,76.4625067 52.3025292,76.4625067 C53.5059706,76.4625067 54.5748658,77.18528 55.0188684,78.30528 C55.3044054,79.0280533 55.2924458,79.8225067 54.9829894,80.5393067 Z M62.883844,80.2884267 C62.5743876,81.00672 62.0018186,81.5547733 61.2782588,81.84 C60.9344184,81.9744 60.5711435,82.05056 60.2033838,82.05056 C58.9954575,82.05056 57.9325421,81.3262933 57.4885395,80.2062933 C57.2030025,79.48352 57.2134672,78.69056 57.5229235,77.9722667 C57.8323799,77.2554667 58.4049489,76.7074133 59.1300037,76.4206933 C59.4738441,76.28032 59.835624,76.2176 60.2033838,76.2176 C61.412805,76.2176 62.4757204,76.9403733 62.919723,78.0603733 C63.20526,78.7771733 63.1933003,79.5716267 62.883844,80.2884267 Z M70.732375,79.4193067 C70.4229186,80.1376 69.8503496,80.6856533 69.1267898,80.9768533 C68.7829494,81.1112533 68.4196745,81.18144 68.0519148,81.18144 C66.8499683,81.18144 65.7810731,80.4571733 65.3370705,79.3371733 C64.7420771,77.8378667 65.4775966,76.14144 66.9785347,75.5456 C67.3223751,75.4112 67.684155,75.3425067 68.0519148,75.3425067 C69.261336,75.3425067 70.3242514,76.06528 70.768254,77.18528 C70.838517,77.3540267 70.8788809,77.5242667 70.9132649,77.6989867 C70.9192448,77.74528 70.9252246,77.7915733 70.9312044,77.8333867 C71.0134271,78.36352 70.9491439,78.9115733 70.732375,79.4193067 Z M78.4702791,78.09472 C78.1608227,78.8130133 77.5882537,79.3610667 76.8646939,79.6462933 C76.5193585,79.7866667 76.1575786,79.85088 75.7898189,79.85088 C74.5863774,79.85088 73.5189772,79.1281067 73.0749746,78.0081067 C73.0047116,77.8378667 72.9583679,77.66912 72.9284687,77.4944 C72.9224889,77.45408 72.916509,77.4062933 72.9105292,77.36 C72.8298015,76.8238933 72.8940847,76.28032 73.1153385,75.77408 C73.4247949,75.0557867 73.9973639,74.5077333 74.7209237,74.2225067 C75.0662591,74.0821333 75.428039,74.0119467 75.7957987,74.0119467 C77.00522,74.0119467 78.0681353,74.73472 78.5106429,75.85472 C78.7976749,76.58496 78.7797354,77.37792 78.4702791,78.09472 Z M84.4680517,77.58848 C84.1227164,77.72736 83.7609365,77.7975467 83.3931767,77.7975467 C82.1837555,77.7975467 81.1223351,77.0747733 80.6783325,75.9547733 C80.0878239,74.46144 80.8173636,72.7575467 82.3183017,72.1691733 C82.6636371,72.0288 83.025417,71.9586133 83.3931767,71.9586133 C84.602598,71.9586133 85.6655133,72.6813867 86.108021,73.8013867 C86.6985295,75.29472 85.9689898,76.9986133 84.4680517,77.58848 Z M93.4841452,73.39968 C93.1746888,74.11648 92.6021198,74.6645333 91.87856,74.9572267 C91.5332246,75.0916267 91.1714447,75.16032 90.803685,75.16032 C89.6002435,75.16032 88.5328433,74.4375467 88.0888407,73.3175467 C87.4923523,71.81824 88.2278718,70.1218133 89.7288099,69.5259733 C90.0741453,69.3915733 90.4359252,69.3213867 90.803685,69.3213867 C92.0071264,69.3213867 93.0760215,70.0456533 93.5200242,71.1656533 C93.8055612,71.8884267 93.7936015,72.6813867 93.4841452,73.39968 Z M99.0379152,71.5912533 C98.6925798,71.7316267 98.3307999,71.80032 97.9630402,71.80032 C96.7551139,71.80032 95.6921986,71.0775467 95.2481959,69.9575467 C94.6576874,68.45824 95.3932069,66.7618133 96.8881652,66.1719467 C97.2335005,66.0315733 97.5952805,65.9613867 97.9630402,65.9613867 C99.1724614,65.9613867 100.235377,66.6856533 100.679379,67.8056533 C101.268393,69.2989867 100.532873,70.9954133 99.0379152,71.5912533 Z M105.753268,67.49056 C105.409427,67.6309333 105.046153,67.6996267 104.678393,67.6996267 C103.476446,67.6996267 102.407551,66.9768533 101.963549,65.8568533 C101.678012,65.13408 101.688476,64.3396267 101.997933,63.6228267 C102.307389,62.9045333 102.873978,62.35648 103.605013,62.0712533 C103.948853,61.9368533 104.310633,61.8666667 104.678393,61.8666667 C105.554438,61.8666667 106.354241,62.2519467 106.898406,62.89408 C107.003053,63.0628267 107.1077,63.2256 107.236266,63.3838933 C107.29457,63.4884267 107.352873,63.5989333 107.400712,63.7154133 C107.983746,65.1982933 107.248226,66.9006933 105.753268,67.49056 Z M113.760264,61.42912 C113.450808,62.1474133 112.878239,62.6954667 112.153184,62.9866667 C111.809344,63.1210667 111.447564,63.1912533 111.079804,63.1912533 C110.203759,63.1912533 109.402461,62.8059733 108.859791,62.16384 C108.755144,61.9950933 108.650497,61.83232 108.52791,61.68 C108.469607,61.5754667 108.409809,61.46496 108.363465,61.3469867 C108.077928,60.6242133 108.089888,59.8312533 108.399344,59.11296 C108.7088,58.39616 109.279874,57.8481067 110.004929,57.5613867 C110.34877,57.42848 110.712044,57.3582933 111.079804,57.3582933 C112.287731,57.3582933 113.350646,58.0810667 113.794648,59.2010667 C114.086165,59.92384 114.069721,60.7182933 113.760264,61.42912 Z M119.488945,55.98144 C119.179488,56.69824 118.606919,57.2462933 117.881864,57.5330133 C117.538024,57.6733867 117.176244,57.74208 116.808484,57.74208 C115.605043,57.74208 114.536148,57.0193067 114.092145,55.8993067 C113.806608,55.1765333 113.818568,54.38208 114.128024,53.66528 C114.437481,52.94848 115.008555,52.3989333 115.733609,52.1137067 C116.07745,51.9733333 116.440725,51.90912 116.808484,51.90912 C117.298831,51.90912 117.765258,52.0375467 118.180856,52.25408 C118.349786,52.3869867 118.530676,52.5154133 118.723526,52.6274133 C119.067366,52.9245867 119.348419,53.3098667 119.523329,53.7533867 C119.808866,54.47616 119.798401,55.26912 119.488945,55.98144 Z M123.909536,49.53472 C123.60008,50.2530133 123.027511,50.8010667 122.302456,51.0862933 C121.958616,51.2266667 121.596836,51.29088 121.229076,51.29088 C120.73873,51.29088 120.270808,51.1624533 119.856704,50.9474133 C119.681794,50.8130133 119.499409,50.6845867 119.31254,50.57408 C118.968699,50.2754133 118.687647,49.8916267 118.512737,49.4481067 C117.923723,47.9547733 118.659243,46.25088 120.154201,45.6625067 C120.498041,45.5281067 120.861316,45.45792 121.229076,45.45792 C122.431022,45.45792 123.499918,46.1806933 123.94392,47.3006933 C124.229457,48.0309333 124.218993,48.8238933 123.909536,49.53472 Z" id="Page-1" fill="#000000"></path>
                    </g>
                </g>
            </g>
        </g>
    </g>
</svg>