<?xml version="1.0" encoding="UTF-8"?>
<svg width="58px" height="16px" viewBox="0 0 58 16" version="1.1" xmlns="http://www.w3.org/2000/svg" xmlns:xlink="http://www.w3.org/1999/xlink">
    <!-- Generator: Sketch 42 (36781) - http://www.bohemiancoding.com/sketch -->
    <title>Logo_ICEF_Letters</title>
    <desc>Created with Sketch.</desc>
    <defs></defs>
    <g id="Symbols" stroke="none" stroke-width="1" fill="none" fill-rule="evenodd">
        <g id="LOGO_VerticalWhite" transform="translate(-1.000000, -56.000000)" fill="#FFFFFF">
            <g id="Logo_ICEF_Letters" transform="translate(1.000000, 56.000000)">
                <g id="Group" transform="translate(0.600000, 0.000000)">
                    <path d="M3.23956044,1.9619255 C2.65716141,3.12766444 2.3793598,6.19867979 2.70419081,7.38269218 C2.21858486,7.86425146 2.18194567,9.4072835 2.2486618,10.3827635 C2.2863947,10.9229054 2.45099762,13.6440378 2.74465798,13.3822974 C2.41162416,13.6795098 3.45392703,13.5241854 2.72442439,14.5136393 C2.02609241,15.4600967 1.12706517,14.0358422 0.856919515,13.5204232 C-0.573649376,10.7960661 0.402484214,5.79773869 3.62376795e-13,2.88312261 C0.45881013,2.54721351 0.530447945,2.19786805 0.883715339,1.72544549 C0.238428148,1.01600547 3.16682892,-0.0519167336 3.23956044,1.9619255" id="Fill-1"></path>
                    <path d="M21.9868132,8.83856381 C21.1155395,12.9361561 12.9954204,15.1914657 9.91282786,14.0097049 C4.72592459,12.0211753 6.16102758,6.45843538 8.45056547,2.9629733 C10.0774139,1.3574714 10.9226146,0 13.5565337,0 C15.31592,0.13928278 17.4712904,1.20051043 18.157337,2.83226177 C19.170926,5.24506808 15.9395,7.15645639 15.8075052,4.50044091 C15.7504705,3.35885782 15.0611648,1.02962117 13.6097661,2.17656129 C10.3343418,0.509989257 7.13605024,8.5337488 8.83622903,10.8185221 C9.73574854,12.0286752 12.0263728,13.2243643 13.788475,12.458309 C15.2816991,11.809037 16.9096339,11.578149 18.2502222,10.7145957 C19.2230721,10.0872875 20.8482909,7.70126634 21.9868132,8.83856381" id="Fill-3"></path>
                    <path d="M39.2615385,5.53878598 C39.2615385,7.40937622 34.037859,7.40293146 32.9146032,7.48456503 C31.9744165,7.55330909 28.3362558,7.22892307 27.898294,7.93516084 C27.7384461,8.19295105 28.2946737,10.726277 28.500964,10.9308979 C29.2948034,11.7193063 29.8683119,12.0683973 30.9597061,12.5324196 C32.4442398,12.561421 34.2538697,11.4642014 35.3755054,10.5871777 C36.3572742,10.4308923 36.4220774,8.98297064 37.6490184,8.98297064 C39.4705288,8.98297064 36.7925358,11.4599049 36.4458386,11.8229595 C35.3107022,13.0114798 33.2035175,14.0157875 31.9906173,14.3734714 C25.6501624,16.2424505 24.8871044,6.78262376 26.3332963,3.14617056 C23.8896749,3.06453699 25.7387267,1.4238097 26.7825986,0.963009691 C27.4727529,0.963009691 27.3809483,0.514562132 28.2984539,0.575250245 C29.0987737,0.627882414 30.0605614,0.753555143 30.7220943,0.0956530356 C32.8530401,-0.109505009 35.3123223,0.0365761117 37.1732547,0.332497794 C38.2981306,0.511339755 40.4695785,1.10801669 38.1512433,1.98933698 C37.1484135,2.37065167 34.7209929,1.65582089 33.9735958,1.88353558 C32.2249889,2.41898733 28.7364157,1.82929222 28.0775829,3.85401952 C28.8282202,4.71761674 28.0775829,4.82932583 28.0775829,5.74931465 C28.0775829,5.94319438 32.7147933,5.64190207 33.0749912,5.6703664 C34.521723,5.6703664 37.9384727,5.15639716 39.2615385,5.53878598 C39.2615385,5.94212025 39.2615385,5.53878598 39.2615385,5.53878598" id="Fill-5"></path>
                    <path d="M56.8307692,0.991662872 C56.8307692,2.16240212 50.5260174,1.9786514 49.585229,2.03023055 C49.1243569,2.05494556 46.9484095,2.08664524 47.1339554,2.62822631 C47.5893863,3.95961312 47.3831637,4.60005423 47.2139415,6.10713252 C49.2745348,5.91156157 51.3623343,6.24145322 53.353824,6.0045115 C54.093287,5.9169344 57.1360222,5.27595601 56.564149,7.0017084 C56.4188682,7.37243354 54.2423767,7.47774097 53.9208001,7.55994524 C53.0268062,7.78667858 51.8988395,7.88876232 51.0124633,7.79043956 C50.5831503,7.74315868 47.3118836,7.78560402 47.0800873,8.00105443 C46.6807011,9.97234506 47.3760901,15.9130811 44.3632817,15.1291855 C44.7545061,12.7484853 45.0423471,10.5483122 44.7893299,8.00105443 C44.2348687,8.03436596 43.7859673,8.00105443 43.164579,8.00105443 C42.185702,8.00105443 42.1998492,6.50687093 42.9055765,6.15118971 C43.4741849,5.86428069 44.408988,6.00612335 45.0292881,6.10713252 C44.944405,5.12497954 45.5173663,1.83734602 43.9051303,2.72278809 C43.0481367,3.19291055 42.9246208,1.19905404 42.9246208,0.780510728 C42.9246208,0.06807372 45.436292,0.235705957 46.1349458,0.194335181 C47.5627242,0.108369931 56.8307692,-0.49768508 56.8307692,0.991662872 C56.8307692,1.33015104 56.8307692,0.421068527 56.8307692,0.991662872" id="Fill-7"></path>
                </g>
            </g>
        </g>
    </g>
</svg>