<?xml version="1.0" encoding="UTF-8"?>
<svg width="100px" height="100px" viewBox="0 0 100 100" version="1.1" xmlns="http://www.w3.org/2000/svg" xmlns:xlink="http://www.w3.org/1999/xlink">
    <!-- Generator: Sketch 42 (36781) - http://www.bohemiancoding.com/sketch -->
    <title>HealthCare</title>
    <desc>Created with Sketch.</desc>
    <defs></defs>
    <g id="01.-Homepage" stroke="none" stroke-width="1" fill="none" fill-rule="evenodd">
        <g id="1.1_MOBILE_Main" transform="translate(-43.000000, -2269.000000)">
            <g id="Tekera-Research-Centre-" transform="translate(0.000000, 1339.000000)">
                <g id="Programs" transform="translate(43.000000, 930.000000)">
                    <g id="HealthCare">
                        <g id="ASSET_YCircleFill" fill="#FFEABA">
                            <ellipse id="Oval-Copy" cx="49.7229208" cy="50" rx="49.7229208" ry="50"></ellipse>
                        </g>
                        <path d="M70.5038298,28.2816599 L67.4479268,28.2816599 L67.4479268,27.239012 C67.4479268,24.0616046 64.8613604,21.4777644 61.6789972,21.4777644 L35.8889487,21.4777644 C32.7065855,21.4777644 30.1200191,24.0616046 30.1200191,27.239012 L30.1200191,28.2816599 L27.0641161,28.2816599 C26.5035196,28.2816599 26.0459163,28.7346454 26.0459163,29.298274 L26.0459163,44.2064459 C26.0459163,44.7661695 26.5035196,45.2243618 27.0641161,45.2243618 L30.1200191,45.2243618 L30.1200191,73.3172776 C30.1200191,76.4894784 32.7065855,79.0772236 35.8889487,79.0772236 L61.6789972,79.0772236 C64.8613604,79.0772236 67.4479268,76.4946851 67.4479268,73.3172776 L67.4479268,45.2243618 L70.5038298,45.2243618 C71.0644263,45.2243618 71.5220295,44.7713762 71.5220295,44.2064459 L71.5220295,29.298274 C71.5220295,28.7398522 71.0696412,28.2816599 70.5038298,28.2816599 Z M32.1616335,27.239012 C32.1616335,25.1849567 33.8369046,23.5122945 35.8941635,23.5122945 L61.6829083,23.5122945 C63.741471,23.5122945 65.4167421,25.1849567 65.4167421,27.239012 L65.4167421,28.2816599 L32.1616335,28.2816599 L32.1616335,27.239012 Z M65.4167421,73.3120709 C65.4167421,75.3661262 63.741471,77.0387885 61.6829083,77.0387885 L35.8941635,77.0387885 C33.8369046,77.0387885 32.1616335,75.3661262 32.1616335,73.3120709 L32.1616335,69.4577885 L48.8048323,69.4577885 C49.3641252,69.4577885 49.8230321,68.9995962 49.8230321,68.4411743 L49.8230321,53.1971683 C49.8230321,52.6374447 49.3641252,52.1792524 48.8048323,52.1792524 L32.1616335,52.1792524 L32.1616335,45.219155 L65.4167421,45.219155 L65.4167421,73.3120709 Z M32.1772781,67.4284651 L32.1772781,54.2137825 L47.7853289,54.2137825 L47.7853289,67.4284651 L32.1772781,67.4284651 Z M69.48563,43.1898317 L28.0875307,43.1898317 L28.0875307,30.3148882 L69.48563,30.3148882 L69.48563,43.1898317 Z" id="Page-1" fill="#000000"></path>
                    </g>
                </g>
            </g>
        </g>
    </g>
</svg>