<?xml version="1.0" encoding="UTF-8"?>
<svg width="100px" height="100px" viewBox="0 0 100 100" version="1.1" xmlns="http://www.w3.org/2000/svg" xmlns:xlink="http://www.w3.org/1999/xlink">
    <!-- Generator: Sketch 42 (36781) - http://www.bohemiancoding.com/sketch -->
    <title>CoopFarming</title>
    <desc>Created with Sketch.</desc>
    <defs></defs>
    <g id="01.-Homepage" stroke="none" stroke-width="1" fill="none" fill-rule="evenodd">
        <g id="1.1_MOBILE_Main" transform="translate(-180.000000, -2269.000000)">
            <g id="Tekera-Research-Centre-" transform="translate(0.000000, 1339.000000)">
                <g id="Programs" transform="translate(43.000000, 930.000000)">
                    <g id="CoopFarming" transform="translate(137.000000, 0.000000)">
                        <g id="ASSET_YCircleFill" transform="translate(0.252635, 0.000000)" fill="#FFEABA">
                            <ellipse id="Oval-Copy" cx="49.7229208" cy="50" rx="49.7229208" ry="50"></ellipse>
                        </g>
                        <path d="M72.3869554,37.8818177 L71.5527132,38.2574889 C58.9604352,43.9164215 57.1870921,53.9756342 57.1115322,58.804703 C54.4129666,52.8324544 50.2232508,46.5268746 43.7451514,41.3367612 C46.4228995,39.5923534 56.0606337,32.3907054 50.6180124,22.2321861 L50.2147696,21.4777644 L49.4406668,21.8388091 C49.3196169,21.8957756 38.0319026,27.3899672 41.4112777,39.8871937 C38.4713833,37.6016039 29.9331218,32.2913988 19.28304,37.5384788 L18.2321414,38.0588758 L19.0031602,38.9403175 C19.2745588,39.2497844 25.7403219,46.5391917 33.2939924,46.5692146 L33.3425666,46.5692146 C36.6432978,46.5692146 39.6186591,45.1650664 42.2031139,42.4191254 C49.0728909,47.7870668 53.3258302,54.4598498 55.95192,60.6545758 C43.5523967,46.7401142 29.3941797,57.1873152 29.2492282,57.2950897 L28.3124404,58.004862 L29.2407469,58.7238721 C35.8930966,63.8962797 41.9741214,65.3481566 46.7027793,65.3481566 C52.6959079,65.3481566 56.5240159,63.0179173 56.5903236,62.9755773 L56.8224002,62.8316213 C60.1354677,71.714552 60.2133406,79.0786317 60.2133406,79.2110404 L62.0206085,79.2110404 C62.0206085,79.0724731 61.9458197,71.4289495 58.5086182,62.2057592 C65.743087,59.3520436 70.477913,55.3374424 72.574313,50.2704999 C75.085521,44.2112618 72.8449406,38.9372382 72.7485632,38.7178401 L72.3869554,37.8818177 Z M49.4314146,23.895763 C53.1060899,31.9842414 45.8747052,37.7640355 43.1576351,39.5746476 C40.5045597,30.141297 47.0852046,25.287594 49.4314146,23.895763 Z M33.3425666,44.7678403 L33.3063287,44.7678403 C28.0448969,44.7493647 23.1381336,40.5153653 21.219839,38.6362394 C30.9539506,34.4892294 38.3904263,39.6801127 40.5886007,41.5168986 C38.4297482,43.6762383 35.9956421,44.7678403 33.3425666,44.7678403 Z M31.3548803,58.0618285 C34.6224577,56.0656903 45.0913501,51.0734201 54.6866783,61.9355531 C51.8046103,63.2496325 42.6279453,66.2473041 31.3548803,58.0618285 Z M70.9081415,49.5822825 C69.1078127,53.930215 65.0746137,57.4636799 58.9218842,60.0887595 C58.6836394,56.6515218 59.0899663,46.3197935 71.3961964,40.3206013 C71.8665178,41.9410683 72.5619767,45.5884664 70.9081415,49.5822825 Z" id="Page-1" fill="#000000"></path>
                    </g>
                </g>
            </g>
        </g>
    </g>
</svg>