<?xml version="1.0" encoding="UTF-8"?>
<svg width="100px" height="100px" viewBox="0 0 100 100" version="1.1" xmlns="http://www.w3.org/2000/svg" xmlns:xlink="http://www.w3.org/1999/xlink">
    <!-- Generator: Sketch 42 (36781) - http://www.bohemiancoding.com/sketch -->
    <title>Local Business</title>
    <desc>Created with Sketch.</desc>
    <defs></defs>
    <g id="01.-Homepage" stroke="none" stroke-width="1" fill="none" fill-rule="evenodd">
        <g id="1.1_MOBILE_Main" transform="translate(-180.000000, -2432.000000)">
            <g id="Tekera-Research-Centre-" transform="translate(0.000000, 1339.000000)">
                <g id="Programs" transform="translate(43.000000, 930.000000)">
                    <g id="Local-Business" transform="translate(137.000000, 163.000000)">
                        <g id="ASSET_YCircleFill" transform="translate(0.106757, 0.000000)" fill="#FFEABA">
                            <ellipse id="Oval-Copy" cx="49.7229208" cy="50" rx="49.7229208" ry="50"></ellipse>
                        </g>
                        <path d="M81.9265169,30.3031731 C81.6948384,29.7151596 81.2986487,29.2291981 80.8119293,28.8793058 C81.230508,28.5527396 81.5614773,28.1280092 81.7785542,27.6303846 C82.1202312,26.8450708 82.1319125,25.9713119 81.8165183,25.174335 C81.325905,23.9399927 80.154858,23.1430158 78.8231935,23.1430158 C78.4172694,23.1430158 78.017186,23.2188258 77.6375448,23.3704458 C77.5460415,23.4083508 77.458432,23.4501435 77.3708225,23.4919362 C77.3328584,23.2800569 77.2725052,23.0672058 77.1926832,22.8582423 C76.70207,21.6239 75.5310229,20.8269231 74.1993584,20.8269231 C73.7934344,20.8269231 73.3933509,20.9027331 73.0137097,21.055325 C71.8845205,21.5024096 71.1466538,22.5200131 71.0055052,23.6513315 C70.5947139,23.4656942 70.1430382,23.3597546 69.6709203,23.3597546 C69.2640229,23.3597546 68.8649129,23.4355646 68.488192,23.5871846 C67.6899721,23.9020877 67.0621039,24.5095396 66.7204269,25.2997131 C66.5413141,25.7098646 66.4537046,26.1462581 66.4575983,26.5787638 C66.1577791,26.4874031 65.8384912,26.4388069 65.5114157,26.4388069 C65.1045182,26.4388069 64.7054082,26.5146169 64.3286873,26.6662369 C63.5304674,26.98114 62.9025992,27.5885919 62.5599487,28.3787654 C62.4080923,28.7315735 62.3243765,29.10382 62.3019874,29.4760665 C61.9554431,29.3506885 61.5865098,29.2777942 61.2068686,29.2777942 C60.7999711,29.2777942 60.4008611,29.3545762 60.0241402,29.5061962 C59.2259203,29.8210992 58.5980522,30.4285512 58.2563751,31.2187246 C58.1765531,31.4043619 58.1152264,31.5977746 58.0694748,31.7911873 C57.6022241,31.5336277 57.0736467,31.3849235 56.510999,31.3849235 C56.1041015,31.3849235 55.7040181,31.4617054 55.3282707,31.6133254 C54.5290773,31.9282285 53.9021826,32.5356804 53.5595321,33.3258538 C53.521568,33.4084673 53.4913914,33.4959404 53.4612148,33.5834135 C52.9209561,33.184925 52.2590176,32.9536073 51.5523009,32.9536073 C51.1454035,32.9536073 50.7462935,33.0294173 50.3656789,33.1810373 C49.5937418,33.4852492 49.0087049,34.0615996 48.6699482,34.7526369 C48.0917254,34.2248827 47.3275759,33.917755 46.5020996,33.917755 C46.0952021,33.917755 45.6960922,33.993565 45.316451,34.145185 C44.5172576,34.46106 43.8903629,35.06754 43.5477124,35.8577135 C43.5360311,35.8878431 43.5253233,35.9189446 43.513642,35.9451865 C42.9665693,35.5311473 42.2968433,35.2881665 41.5706578,35.2881665 C41.1637603,35.2881665 40.7685441,35.3639765 40.3879295,35.5155965 C39.4982063,35.8693765 38.8518428,36.5788804 38.5510502,37.4147342 C38.0078712,37.0113862 37.3459327,36.7761808 36.6314285,36.7761808 C36.2245311,36.7761808 35.8254211,36.8519908 35.4448064,37.0045827 C34.4450846,37.3991835 33.7568633,38.2418408 33.5135035,39.2098762 C33.0452794,38.9523165 32.5128083,38.7997246 31.9501606,38.7997246 C31.5432631,38.7997246 31.1441531,38.8755346 30.7674322,39.0281265 C29.9692123,39.3430296 29.3413442,39.9504815 28.9996671,40.7396831 C28.9042701,40.9564219 28.8400231,41.1838519 28.7942715,41.4083662 C28.3649849,41.195515 27.8811857,41.0818 27.3759709,41.0818 C26.9690734,41.0818 26.5699634,41.15761 26.1932425,41.30923 C24.8245874,41.852535 24.0370752,43.2346096 24.1821177,44.6273754 C24.0331815,44.6089088 23.8852188,44.5933581 23.7333623,44.5933581 C23.3264648,44.5933581 22.9273548,44.6691681 22.5467402,44.82176 C20.9532206,45.4515662 20.1472132,47.2204662 20.6874718,48.827055 C20.3603963,48.8494092 20.0411083,48.9213315 19.7286344,49.0428219 C18.0825491,49.6959542 17.2726479,51.5639904 17.9229051,53.2114 C18.0329037,53.4932577 18.1847602,53.7430419 18.3599792,53.9753315 C17.5880421,54.29801 16.9835365,54.8937988 16.6486735,55.6606462 C16.3069964,56.4469319 16.2953152,57.3197188 16.6107094,58.1166958 C16.8394676,58.6940181 17.2230025,59.1722042 17.7019345,59.5220965 C16.6486735,60.3832204 16.2193869,61.8605435 16.7479643,63.1891623 C17.1130039,64.1115173 17.869366,64.7918635 18.7824517,65.0766369 C18.2236978,65.9231819 18.0708678,67.0165954 18.4699778,68.0303112 C18.9119191,69.1383035 19.9077472,69.8905719 21.0710067,70.0266412 C20.7439312,70.7827973 20.7020734,71.6633596 21.0291489,72.4865785 C21.5197621,73.7170331 22.6908092,74.51401 24.0224737,74.51401 C24.1441535,74.51401 24.2619396,74.5033188 24.3797258,74.4916558 C24.29601,75.0388485 24.3456554,75.6113112 24.5617588,76.1662792 C25.0523721,77.3996496 26.2234192,78.1937108 27.5550837,78.1937108 C27.9610077,78.1937108 28.3610911,78.1169288 28.7368386,77.9653088 C29.0678078,77.8321554 29.3647067,77.6504058 29.622668,77.4336669 C30.1444313,78.5844238 31.2697267,79.3250292 32.5468787,79.3250292 C32.9537761,79.3250292 33.3538596,79.2492192 33.729607,79.0966273 C34.5288004,78.7778365 35.1556951,78.1742723 35.4983456,77.3850708 C35.5246284,77.3199519 35.5470175,77.2596927 35.5703801,77.1945738 C36.1252403,77.6280515 36.8134616,77.8817235 37.5552221,77.8817235 C37.9621196,77.8817235 38.3612296,77.8059135 38.7418442,77.6581812 C40.3918232,77.0050488 41.1978307,75.133125 40.5475735,73.4896031 C40.539786,73.4740523 40.5329719,73.4585015 40.5251844,73.4439227 C40.7831457,73.4099054 41.0420805,73.3447865 41.289334,73.25051 C41.7945488,73.0532096 42.2325963,72.7334469 42.5703796,72.3271831 C43.1641774,73.1669246 44.1220413,73.6830158 45.1869836,73.6830158 C45.5938811,73.6830158 45.992991,73.6072058 46.3736057,73.4555858 C46.9966066,73.2087173 47.5135027,72.783015 47.8746485,72.2290188 C48.4645526,73.0911146 49.4379915,73.6256723 50.5214291,73.6256723 C50.9283266,73.6256723 51.3274365,73.5498623 51.7041574,73.3982423 C52.548129,73.0639008 53.1721034,72.4068808 53.4913914,71.6293423 C53.7571402,71.8110919 54.0812954,71.9442454 54.4424412,72.0045046 L66.2901668,74.1534265 C66.3699888,74.1689773 66.4468905,74.1767527 66.5228187,74.1767527 C66.9375037,74.1767527 67.33272,73.9794523 67.6364329,73.6217846 C67.9596147,73.2466223 68.0774008,72.7713519 67.9751897,72.2892781 L66.0322055,63.2465058 C65.929021,62.7644319 65.6214143,62.3805223 65.1765527,62.1676712 C64.7083285,61.9480165 64.1875387,61.9625954 63.7660396,62.2133515 L53.6588229,68.1624927 C53.4612148,68.2762077 53.2898895,68.4171365 53.1458205,68.5765319 C52.5520228,67.7299869 51.5863713,67.2022327 50.5175353,67.2022327 C50.1106378,67.2022327 49.7115279,67.2780427 49.334807,67.4296627 C48.7118061,67.6765312 48.19491,68.1022335 47.8337641,68.6562296 C47.2438601,67.7941338 46.2704211,67.2595762 45.1908773,67.2595762 C44.7839798,67.2595762 44.3848699,67.3353862 44.008149,67.4870062 C43.4912529,67.6920819 43.0609929,68.0147604 42.7261299,68.4093612 C42.1333056,67.5744792 41.1754416,67.0545004 40.1104994,67.0545004 C39.7230707,67.0545004 39.342456,67.1264227 38.9735227,67.2634638 C38.9618414,66.8980208 38.8898069,66.5345215 38.752552,66.1807415 C38.2629122,64.9512588 37.0908917,64.15331 35.7602007,64.15331 C35.5051597,64.15331 35.2549858,64.1873273 35.0116261,64.2446708 C35.0223339,63.8160527 34.9502994,63.3786873 34.7867617,62.9695077 C34.3156172,61.7847335 33.2088171,61.0101108 31.9462668,60.9488796 C32.1633437,60.2695054 32.1555562,59.5104335 31.8742323,58.7970419 C31.76034,58.5122685 31.6084835,58.2498492 31.425477,58.0146438 C32.2090953,57.6958531 32.8252822,57.0961765 33.1630655,56.3176662 C33.3723549,55.8355923 33.4560706,55.3224169 33.4181065,54.8141012 C33.6273959,54.8558938 33.840579,54.8860235 34.0566825,54.8860235 C34.46358,54.8860235 34.8626899,54.8102135 35.2433046,54.6585935 C35.8361289,54.4233881 36.3345297,54.0278154 36.6917818,53.5194996 C37.2894733,54.2707962 38.2054793,54.7227404 39.2052012,54.7227404 C39.6120986,54.7227404 40.0112086,54.6469304 40.3879295,54.4953104 C41.0605758,54.2290035 41.6125157,53.7508173 41.9736616,53.13559 C42.5664859,53.7702558 43.4036434,54.1531935 44.3118619,54.1531935 C44.7187594,54.1531935 45.1178694,54.0773835 45.498484,53.9257635 C46.2207758,53.6371023 46.8028923,53.1132358 47.1601443,52.4299738 C47.7422608,52.9723069 48.5180917,53.2910977 49.3542758,53.2910977 C49.7611733,53.2910977 50.1602832,53.2152877 50.5370041,53.0636677 C51.3352241,52.7487646 51.9630922,52.1413127 52.3047693,51.3511392 C52.3164505,51.3248973 52.324238,51.2986554 52.3359193,51.2714415 C52.8868858,51.6971438 53.5673196,51.9479 54.3012926,51.9479 C54.7081901,51.9479 55.1073,51.87209 55.4840209,51.7194981 C56.415602,51.3511392 57.0814343,50.5920673 57.3627581,49.7076173 C57.8757604,50.0419588 58.480266,50.2314838 59.1266295,50.2314838 C59.533527,50.2314838 59.932637,50.1556738 60.3093578,50.0040538 C61.1075778,49.6881788 61.7354459,49.0807269 62.077123,48.2915254 C62.1647325,48.0864496 62.2328732,47.8735985 62.2747311,47.6617192 C62.731274,47.9047 63.2452498,48.0407692 63.7845349,48.0407692 C64.1914324,48.0407692 64.5905424,47.9649592 64.9672633,47.8133392 C66.1237088,47.3575073 66.8644958,46.3019988 66.9793616,45.1444385 C67.3473215,45.2882831 67.7435112,45.3718685 68.1543024,45.3718685 C68.5602265,45.3718685 68.9603099,45.2960585 69.3360573,45.1444385 C70.5489623,44.6623646 71.3062978,43.5193831 71.3627573,42.2928162 C71.6674437,42.3880646 71.9906254,42.4376327 72.3215946,42.4376327 C72.7284921,42.4376327 73.1276021,42.3608508 73.504323,42.2092308 C74.3025429,41.8943277 74.9294376,41.2868758 75.2720881,40.4967023 C75.4998729,39.9660323 75.5796948,39.4003731 75.5115541,38.8415173 C75.6867731,38.8726188 75.8649125,38.8910854 76.047919,38.8910854 C76.4548165,38.8910854 76.8539264,38.8152754 77.2345411,38.6636554 C78.032761,38.3487523 78.6606292,37.7403285 79.0023062,36.9511269 C79.3177005,36.2260723 79.3488505,35.4290954 79.1054908,34.6846023 C79.4510616,34.6651638 79.7898184,34.5932415 80.1130001,34.4639758 C80.91122,34.1490727 81.5390882,33.5416208 81.8807652,32.7524192 C82.219522,31.9661335 82.2419111,31.10015 81.9265169,30.3031731 Z M75.8804875,32.4783369 C75.5349167,32.4977754 75.1961599,32.5696977 74.8729782,32.6950758 C74.0747582,33.0099788 73.4468901,33.6174308 73.1042396,34.4076042 C72.8764548,34.9392462 72.7966329,35.5049054 72.8647736,36.0627892 C72.690528,36.0326596 72.5114152,36.0171088 72.3293822,36.0171088 C71.9224847,36.0171088 71.5224013,36.0929188 71.1466538,36.2445388 C70.3474604,36.5604138 69.7205657,37.1678658 69.3779152,37.9570673 C69.2182712,38.3215385 69.1345555,38.7093358 69.1199539,39.0961612 C68.8152675,39.0009127 68.4920858,38.9523165 68.1611165,38.9523165 C67.754219,38.9523165 67.3551091,39.0281265 66.9793616,39.1797465 C66.1801682,39.4946496 65.5532735,40.1021015 65.210623,40.892275 C65.0772619,41.1994027 64.9935461,41.5220812 64.9633695,41.8486473 C64.5983299,41.7048027 64.2031137,41.6212173 63.7884287,41.6212173 C63.3815312,41.6212173 62.986315,41.6970273 62.6057004,41.8486473 C61.5602269,42.2626865 60.8535102,43.166575 60.6442209,44.1948696 C60.187678,43.9518888 59.6746756,43.8119319 59.1305233,43.8119319 C58.7236258,43.8119319 58.3245158,43.8877419 57.9477949,44.0393619 C57.0162138,44.4077208 56.351355,45.1667927 56.0690577,46.0512427 C55.5599492,45.7178731 54.9515498,45.5273762 54.3090801,45.5273762 C53.9021826,45.5273762 53.5030726,45.6031862 53.122458,45.7557781 C52.2706989,46.0930354 51.6438042,46.7578308 51.3274365,47.5470323 C50.7764701,47.1184142 50.0960363,46.8715458 49.3620633,46.8715458 C48.9551658,46.8715458 48.5560558,46.9473558 48.1793349,47.0989758 C47.4570432,47.3837492 46.8749267,47.9115035 46.5176746,48.5947654 C45.9355581,48.0524323 45.1597273,47.7336415 44.3235432,47.7336415 C43.9166457,47.7336415 43.5175358,47.8094515 43.1369211,47.9610715 C42.444806,48.2341819 41.9055208,48.7240312 41.5550828,49.3207919 C40.9622585,48.6861262 40.1260744,48.3031885 39.2129887,48.3031885 C38.8060912,48.3031885 38.4069812,48.3789985 38.0263666,48.5306185 C37.4335422,48.7658238 36.9351415,49.1604246 36.5778894,49.6697123 C35.9811713,48.9174438 35.0641918,48.4664715 34.06447,48.4664715 C33.6575725,48.4664715 33.2584625,48.5422815 32.8817417,48.6939015 C32.0835217,49.0088046 31.4556536,49.6162565 31.1139765,50.40643 C30.9046871,50.8885038 30.8209714,51.4007073 30.8589355,51.909995 C30.6496461,51.8682023 30.4403567,51.8371008 30.2203595,51.8371008 C29.813462,51.8371008 29.4143521,51.9138827 29.0376312,52.0655027 C27.3876522,52.718635 26.5777509,54.5895869 27.2309285,56.2340808 C27.3457943,56.5227419 27.4976508,56.7803015 27.6796838,57.0164788 C26.8970389,57.3352696 26.2808521,57.9349462 25.9420953,58.7134565 C25.6004182,59.4987704 25.588737,60.3725292 25.9041312,61.1695062 C26.3762491,62.3542804 27.4820757,63.1289031 28.7446261,63.1891623 C28.5285226,63.8724242 28.5353367,64.6285804 28.8166605,65.3419719 C29.3072738,66.5724265 30.4783209,67.3694035 31.8099854,67.3694035 C32.0640529,67.3694035 32.3152002,67.3353862 32.5624537,67.2780427 C32.5507724,67.6998573 32.6198866,68.1362508 32.7863446,68.5541777 C33.2769579,69.7875481 34.4489784,70.584525 35.7796694,70.584525 C36.1670982,70.584525 36.5516065,70.5126027 36.9166462,70.3765335 C36.927354,70.7371169 36.9964681,71.1015881 37.1366434,71.4543962 C37.1444309,71.4699469 37.1522184,71.4845258 37.1600059,71.5000765 C36.9010711,71.5340938 36.6421364,71.5982408 36.3958563,71.6934892 C35.5022393,72.0462973 34.8587962,72.7606608 34.558977,73.5994304 C34.0031433,73.1630369 33.314922,72.9083931 32.5741349,72.9083931 C32.1672375,72.9083931 31.7681275,72.9842031 31.3875128,73.1358231 C31.0565436,73.2689765 30.7596447,73.4478104 30.5016834,73.667465 C29.9808935,72.51768 28.8546247,71.7809623 27.5774728,71.7809623 C27.4596866,71.7809623 27.3380068,71.7887377 27.2202207,71.8033165 C27.3078302,71.2454327 27.2465035,70.6719981 27.0333204,70.1335527 C26.5923525,69.0245885 25.5965245,68.2732919 24.4322915,68.1323631 C24.4322915,68.1323631 24.4322915,68.1323631 24.4322915,68.1284754 C24.774942,67.3431615 24.7866232,66.4694027 24.471229,65.6724258 C24.1022957,64.7461831 23.3488539,64.0658369 22.4367416,63.7849512 C22.9954956,62.9384062 23.147352,61.8449927 22.7482421,60.8312769 C22.5204573,60.2549265 22.135949,59.7757685 21.657017,59.4268481 C22.7102779,58.5647523 23.1395645,57.0884012 22.6109872,55.7597823 C22.5009886,55.4779246 22.3491321,55.2242527 22.1739131,54.9958508 C22.9458502,54.6731723 23.5503558,54.0773835 23.8852188,53.3105362 C24.2045067,52.5777062 24.2307896,51.7690662 23.9806158,51.0177696 C24.3076913,50.9944435 24.6269793,50.9225212 24.9384797,50.8010308 C25.7366997,50.4861277 26.3645678,49.8786758 26.7062449,49.0885023 C26.9311093,48.5724112 27.0109313,48.0223027 26.9534984,47.4789977 C27.0985408,47.4984362 27.2465035,47.513015 27.39836,47.513015 C27.8052575,47.513015 28.2043674,47.437205 28.5810883,47.285585 C29.638243,46.8676581 30.3498269,45.9453031 30.5513288,44.9053454 C30.9845091,45.1172246 31.4673348,45.2348273 31.9735231,45.2348273 C32.3804206,45.2348273 32.7795306,45.1590173 33.1591718,45.0073973 C34.159867,44.6127965 34.8480884,43.7701392 35.0914481,42.8021038 C35.5586988,43.0596635 36.0911699,43.2112835 36.6538176,43.2112835 C37.0607151,43.2112835 37.4598251,43.1354735 37.8404397,42.9838535 C38.7301629,42.6310454 39.3726327,41.9205696 39.677319,41.0856877 C40.2166042,41.4880638 40.8824365,41.7232692 41.5969407,41.7232692 C42.0038382,41.7232692 42.4029481,41.6474592 42.7835628,41.4958392 C43.5817827,41.1809362 44.2096509,40.5734842 44.5513279,39.7833108 C44.5630092,39.7531812 44.5746905,39.7230515 44.5863717,39.6958377 C45.1295507,40.1098769 45.8031704,40.3528577 46.5254621,40.3528577 C46.9323596,40.3528577 47.3314696,40.2770477 47.7120842,40.1254277 C48.4840213,39.8212158 49.0690582,39.2438935 49.4078149,38.5528562 C49.9850642,39.0806104 50.7501872,39.38871 51.57469,39.38871 C51.9815875,39.38871 52.3806975,39.3129 52.7613121,39.1603081 C53.5595321,38.845405 54.1874002,38.2379531 54.5290773,37.4487515 C54.5680149,37.3651662 54.5981915,37.2776931 54.6283681,37.19022 C55.1686267,37.5887085 55.8295917,37.8209981 56.5372819,37.8209981 C56.9441794,37.8209981 57.3432893,37.7442162 57.7200102,37.5925962 C58.5182302,37.2738054 59.1460983,36.6702412 59.4877754,35.8800677 C59.5675974,35.6944304 59.628924,35.5010177 59.6746756,35.307605 C60.1419263,35.5651646 60.6705037,35.7138688 61.2331514,35.7138688 C61.6400489,35.7138688 62.0391589,35.6370869 62.4158798,35.4854669 C63.6171034,35.0111685 64.3705452,33.8876254 64.4386859,32.6766092 C64.7852302,32.8010154 65.1531901,32.8739096 65.5376985,32.8739096 C65.944596,32.8739096 66.343706,32.7980996 66.7204269,32.6455077 C67.9829772,32.1449673 68.7510205,30.9339512 68.7510205,29.6539285 C69.0508397,29.7452892 69.3711011,29.7948573 69.6972032,29.7948573 C70.1041007,29.7948573 70.5041841,29.7190473 70.8799315,29.5664554 C71.6791249,29.2515523 72.3060196,28.6441004 72.6486701,27.8548988 C72.77035,27.5701254 72.850172,27.2698012 72.8881361,26.9694769 C73.2989274,27.1560862 73.7515765,27.2620258 74.2227209,27.2620258 C74.6296184,27.2620258 75.0287284,27.1862158 75.4054493,27.0345958 C75.4969525,26.9966908 75.5835886,26.9587858 75.6711981,26.9131054 C75.7091622,27.1259565 75.7665951,27.3378358 75.8503109,27.5429115 C76.0819894,28.1318969 76.4772056,28.6178585 76.9678188,28.9667788 C75.9106641,29.7793065 75.458015,31.1798477 75.8804875,32.4783369 Z M30.1093875,61.4124869 C30.0071764,61.4766338 29.9078856,61.5456404 29.813462,61.6175627 C29.7414276,61.6593554 29.6684196,61.7011481 29.5847039,61.7351654 C29.3608129,61.8226385 29.1252407,61.8683188 28.8857747,61.8683188 C28.1021564,61.8683188 27.4061475,61.3969362 27.1170361,60.6679938 C26.9311093,60.1975831 26.9388968,59.6814919 27.1403987,59.2139969 C27.3419005,58.7474738 27.7147276,58.3907781 28.1858721,58.2002812 C28.4097631,58.1128081 28.6463087,58.0680996 28.8857747,58.0680996 C29.6684196,58.0680996 30.3644285,58.5385104 30.6535399,59.2674527 C30.96212,60.0459631 30.7148665,60.9002835 30.1093875,61.4124869 Z M78.1242643,24.5892373 C78.3481553,24.5017642 78.5837275,24.4570558 78.8231935,24.4570558 C79.6068118,24.4570558 80.3028207,24.9274665 80.5919321,25.6564088 C80.7778589,26.1268196 80.7700714,26.6438827 80.5685695,27.1104058 C80.3670677,27.5769288 79.995214,27.9345965 79.5230961,28.1202338 C79.2992051,28.2077069 79.0636329,28.2533873 78.8231935,28.2533873 C78.0366548,28.2533873 77.3445397,27.7820046 77.0554283,27.0530623 C76.6679996,26.0811392 77.1508253,24.9731469 78.1242643,24.5892373 Z M73.504323,22.2770323 C73.7282139,22.1895592 73.9637862,22.1448508 74.2032522,22.1448508 C74.9868705,22.1448508 75.6828794,22.6152615 75.9719907,23.3442038 C76.1579176,23.8146146 76.1501301,24.3316777 75.9486282,24.7982008 C75.7471263,25.2656958 75.3742992,25.6223915 74.9031548,25.8080288 C74.6792638,25.8955019 74.4427181,25.9411823 74.2032522,25.9411823 C73.4206072,25.9411823 72.7245984,25.4707715 72.435487,24.7418292 C72.0480583,23.7699062 72.5269903,22.6609419 73.504323,22.2770323 Z M67.929438,25.8196919 C68.1309399,25.3521969 68.503767,24.9955012 68.9749115,24.8059762 C69.1997759,24.7185031 69.4353481,24.6728227 69.6748141,24.6728227 C70.4623262,24.6728227 71.1544413,25.1442054 71.4425793,25.8731477 C71.6294795,26.3435585 71.621692,26.8596496 71.4201902,27.3271446 C71.2186883,27.7936677 70.8458612,28.1503635 70.3747167,28.3369727 C70.1498523,28.4244458 69.9142801,28.4691542 69.6748141,28.4691542 C68.887302,28.4691542 68.1961603,27.9987435 67.9070489,27.2698012 C67.7201487,26.7993904 67.7279362,26.2823273 67.929438,25.8196919 Z M63.7699334,28.8948565 C63.9714352,28.4273615 64.3432889,28.0706658 64.8154068,27.8850285 C65.0392978,27.7936677 65.2758434,27.751875 65.5153094,27.751875 C66.3018481,27.751875 66.9939632,28.2232577 67.2830746,28.9522 C67.6705033,29.9241231 67.1915713,31.0321154 66.2142386,31.416025 C65.9903476,31.5034981 65.7547754,31.5482065 65.5153094,31.5482065 C64.7316911,31.5482065 64.0356822,31.0777958 63.7465708,30.3488535 C63.560644,29.874555 63.5684315,29.3613796 63.7699334,28.8948565 Z M59.4653863,31.7309281 C59.6668881,31.2634331 60.0397153,30.9067373 60.5108597,30.7211 C60.7347507,30.6336269 60.9712963,30.5879465 61.2107623,30.5879465 C61.997301,30.5879465 62.6894161,31.0593292 62.9785275,31.7882715 C63.3630359,32.7601946 62.8831305,33.8681869 61.9096915,34.2520965 C61.6858005,34.3385977 61.4502283,34.3842781 61.2107623,34.3842781 C60.427144,34.3842781 59.7311351,33.9138673 59.4420237,33.184925 C59.2560969,32.7145142 59.2638844,32.1974512 59.4653863,31.7309281 Z M54.7695167,33.8380573 C54.9710186,33.3705623 55.3428723,33.0138665 55.8149902,32.8282292 C56.0388811,32.7368685 56.2744534,32.6950758 56.5148928,32.6950758 C57.3014315,32.6950758 57.9935466,33.1654865 58.2826579,33.8944288 C58.4685848,34.3658115 58.4617707,34.8819027 58.2592954,35.3493977 C58.0577935,35.8159208 57.6859398,36.1726165 57.2138219,36.3592258 C56.989931,36.4457269 56.7543588,36.4914073 56.5148928,36.4914073 C55.7312744,36.4914073 55.0352656,36.0209965 54.7461542,35.2920542 C54.5602273,34.8177558 54.5680149,34.3006927 54.7695167,33.8380573 Z M50.8562921,34.3920535 C51.080183,34.3045804 51.3167287,34.2589 51.5561947,34.2589 C52.3388396,34.2589 53.0348485,34.7302827 53.3239599,35.459225 C53.5108601,35.9296358 53.5030726,36.4457269 53.3015708,36.9132219 C53.1000689,37.3768292 52.7272418,37.7374127 52.2551239,37.92305 C52.0312329,38.0105231 51.7956607,38.0562035 51.5561947,38.0562035 C50.7725763,38.0562035 50.0765675,37.5848208 49.7874561,36.8558785 C49.4000274,35.8839554 49.8789594,34.7759631 50.8562921,34.3920535 Z M44.7606173,36.3660292 C44.9621192,35.9033938 45.3349463,35.5428104 45.8070642,35.3562012 C46.0309552,35.2697 46.2665274,35.2240196 46.5059934,35.2240196 C47.2896117,35.2240196 47.9856206,35.6944304 48.274732,36.4233727 C48.6621607,37.3952958 48.1832287,38.50426 47.205896,38.8871977 C46.982005,38.9785585 46.7454594,39.0242388 46.5059934,39.0242388 C45.7194547,39.0242388 45.0273396,38.5528562 44.7382282,37.8239138 C44.5513279,37.3457277 44.5591154,36.8335242 44.7606173,36.3660292 Z M40.8824365,36.7236969 C41.1063274,36.6362238 41.3428731,36.5905435 41.5823391,36.5905435 C42.3688778,36.5905435 43.0609929,37.0609542 43.3501043,37.7898965 C43.5360311,38.2612792 43.529217,38.7773704 43.3277152,39.2438935 C43.1262133,39.7113885 42.7533862,40.0680842 42.2812683,40.2537215 C42.0573773,40.3411946 41.8218051,40.386875 41.5823391,40.386875 C40.7987207,40.386875 40.1027119,39.9164642 39.8136005,39.1875219 C39.4261718,38.2155988 39.9051038,37.1105223 40.8824365,36.7236969 Z M35.9393134,38.2117112 C36.1632044,38.1203504 36.3987766,38.07467 36.639216,38.07467 C37.4257547,38.07467 38.1178698,38.5460527 38.4069812,39.274995 C38.7944099,40.2508058 38.3154779,41.3549104 37.3381452,41.73882 C37.1142543,41.8262931 36.878682,41.8710015 36.639216,41.8710015 C35.9393134,41.8710015 35.3114453,41.4958392 34.9765823,40.8961627 C34.9658745,40.8689488 34.9619807,40.8388192 34.9502994,40.8125773 C34.9240166,40.7435708 34.8860525,40.6794238 34.8519821,40.6113892 C34.5093316,39.6579327 34.9843698,38.5878454 35.9393134,38.2117112 Z M30.2164658,41.2450831 C30.4179676,40.77856 30.7907948,40.4208923 31.2619392,40.235255 C31.4868036,40.1477819 31.7223759,40.1021015 31.9618418,40.1021015 C32.6617444,40.1021015 33.2886391,40.4782358 33.6235021,41.0779123 C33.6351834,41.1041542 33.6419975,41.1313681 33.649785,41.1614977 C33.6770413,41.2295323 33.7150054,41.2946512 33.7490758,41.3626858 C34.0907528,42.3190581 33.6196084,43.3901173 32.6656382,43.7701392 C32.4407738,43.8566404 32.2052016,43.9023208 31.9657356,43.9023208 C31.1821172,43.9023208 30.4861084,43.43191 30.196997,42.7029677 C30.0071764,42.2286692 30.0149639,41.7116062 30.2164658,41.2450831 Z M25.6189136,44.9772677 C25.2314849,44.0014569 25.7104168,42.8963804 26.6877495,42.5134427 C26.9116405,42.4220819 27.1481862,42.3764015 27.3876522,42.3764015 C28.1741908,42.3764015 28.8663059,42.8468123 29.1554173,43.5757546 C29.542846,44.5515654 29.063914,45.6566419 28.0865813,46.0434673 C27.8626904,46.1348281 27.6271181,46.1766208 27.3876522,46.1766208 C26.9807547,46.1766208 26.60014,46.047355 26.2847458,45.8277004 C26.1435972,45.6449788 25.9839532,45.4816958 25.8097076,45.3378512 C25.7366997,45.2241362 25.6685589,45.1065335 25.6189136,44.9772677 Z M23.0412472,46.0250008 C23.2651381,45.93364 23.5007104,45.8879596 23.7411498,45.8879596 C24.1480473,45.8879596 24.5276885,46.0172254 24.8430827,46.2417396 C24.9842314,46.4234892 25.1438753,46.5867723 25.3190944,46.7306169 C25.3950226,46.8453038 25.4592696,46.9590188 25.5128087,47.0882846 C25.6987356,47.5586954 25.690948,48.0747865 25.4894462,48.5422815 C25.2879443,49.0088046 24.9160906,49.3693881 24.4439727,49.5521096 C24.2200818,49.6434704 23.9845095,49.6881788 23.7440701,49.6881788 C23.4559322,49.6881788 23.1814224,49.6240319 22.9341689,49.5103169 C22.7862062,49.3888265 22.6265622,49.2828869 22.4552369,49.1915262 C22.2498413,49.0010292 22.0824098,48.7619362 21.9724112,48.4888258 C21.5888763,47.5169027 22.0678082,46.4118262 23.0412472,46.0250008 Z M20.2231414,50.2470346 C20.4480058,50.1595615 20.683578,50.1138812 20.923044,50.1138812 C21.2121554,50.1138812 21.4856917,50.1780281 21.7329452,50.292715 C21.8809079,50.4142054 22.0405519,50.520145 22.2118772,50.6115058 C22.4172728,50.8010308 22.5847043,51.0401238 22.6947029,51.3132342 C22.8816032,51.7846169 22.8738157,52.3007081 22.6723138,52.7672312 C22.470812,53.2347262 22.0979848,53.5953096 21.6268404,53.7809469 C21.401976,53.86842 21.1664037,53.9141004 20.9269378,53.9141004 C20.843222,53.9141004 20.7634,53.906325 20.683578,53.8956338 C20.5317215,53.8421781 20.3720776,53.7964977 20.2085398,53.7702558 C19.7364219,53.5797588 19.352887,53.2084842 19.1581992,52.7147473 C18.7707705,51.7389365 19.2497024,50.6299723 20.2231414,50.2470346 Z M17.8654722,56.1660462 C18.0669741,55.6985512 18.4398012,55.3379677 18.9119191,55.1523304 C19.1358101,55.0609696 19.3713823,55.0152892 19.6108483,55.0152892 C19.694564,55.0152892 19.774386,55.0230646 19.854208,55.0337558 C20.0109317,55.0872115 20.1666819,55.1290042 20.3302197,55.1591338 C20.7974704,55.3496308 21.1819788,55.7209054 21.3795869,56.2146423 C21.7670156,57.1865654 21.2880836,58.2955296 20.3107509,58.6784673 C20.1773898,58.7319231 20.0411083,58.7620527 19.8999597,58.7853788 C19.8503143,58.7814912 19.7977486,58.7737158 19.7481032,58.7737158 C19.6264233,58.7737158 19.5086372,58.7853788 19.3908511,58.7970419 C18.698736,58.7173442 18.1049382,58.2731754 17.8430831,57.6122677 C17.6571563,57.1447727 17.6639704,56.6325692 17.8654722,56.1660462 Z M17.980338,62.6915377 C17.5958296,61.7196146 18.0747616,60.6116223 19.0482006,60.2277127 C19.1815617,60.1752288 19.3217369,60.1441273 19.4589918,60.1217731 C19.5086372,60.1256608 19.5582826,60.1334362 19.6108483,60.1334362 C19.7325282,60.1334362 19.8503143,60.1256608 19.9690738,60.11011 C20.6602155,60.1898077 21.2540133,60.6339765 21.5158683,61.2948842 C21.9042705,62.270695 21.4253385,63.3757715 20.4480058,63.7625969 C20.2231414,63.85007 19.9875692,63.8957504 19.7481032,63.8957504 C18.9644848,63.8918627 18.2723697,63.42048 17.980338,62.6915377 Z M19.7062453,67.5326865 C19.3188166,66.5568758 19.7977486,65.4517992 20.7750813,65.0688615 C20.9989722,64.9775008 21.2345445,64.9357081 21.4740105,64.9357081 C22.2615226,64.9357081 22.9536377,65.4061188 23.2427491,66.1350612 C23.4286759,66.6064438 23.4208884,67.122535 23.2193865,67.5890581 C23.0178847,68.0565531 22.646031,68.4132488 22.1739131,68.5988862 C21.9500221,68.6863592 21.7144499,68.7320396 21.4740105,68.7320396 C20.6874718,68.7320396 19.9953567,68.2616288 19.7062453,67.5326865 Z M24.7330841,73.0561254 C24.5091931,73.1435985 24.2726475,73.1892788 24.0331815,73.1892788 C23.2466428,73.1892788 22.5545277,72.7188681 22.2654163,71.9899258 C21.8770142,71.014115 22.3569196,69.9090385 23.3342523,69.5222131 C23.5581433,69.43474 23.7937155,69.3890596 24.0331815,69.3890596 C24.8206936,69.3890596 25.5128087,69.8594704 25.8019201,70.5884127 C25.9878469,71.0597954 25.9800594,71.5758865 25.7785575,72.0424096 C25.6880277,72.2513731 25.5624541,72.4340946 25.4096242,72.59349 C25.364846,72.6352827 25.3190944,72.6731877 25.2772365,72.7188681 C25.1175925,72.858825 24.9384797,72.9764277 24.7330841,73.0561254 Z M28.2695879,76.7358262 C28.0447235,76.826215 27.8091512,76.8680077 27.5696852,76.8680077 C26.7831466,76.8680077 26.0910315,76.3975969 25.8019201,75.6686546 C25.52449,74.9620665 25.7026293,74.1952192 26.1893488,73.6752404 C26.2351004,73.6334477 26.2847458,73.5877673 26.3266037,73.5420869 C26.4862477,73.4060177 26.664387,73.2845273 26.8697826,73.2048296 C27.094647,73.1173565 27.3302193,73.0716762 27.5696852,73.0716762 C28.3571974,73.0716762 29.0493125,73.5420869 29.3384238,74.2710292 C29.7219588,75.24684 29.2430268,76.3519165 28.2695879,76.7358262 Z M34.3078297,76.8573165 C34.1063279,77.3238396 33.7335007,77.6844231 33.2623563,77.8710323 C33.0374919,77.9575335 32.8019197,78.0032138 32.5624537,78.0032138 C31.7749416,78.0032138 31.0828265,77.5328031 30.7946885,76.8038608 C30.4062864,75.82805 30.8852183,74.7229735 31.8625511,74.3361481 C32.0874155,74.248675 32.3229877,74.2029946 32.5624537,74.2029946 C33.3499658,74.2029946 34.0420809,74.6734054 34.3302188,75.4023477 C34.5171191,75.8737304 34.5093316,76.3898215 34.3078297,76.8573165 Z M38.2697263,76.4277265 C38.0458353,76.5151996 37.8102631,76.56088 37.5707971,76.56088 C36.783285,76.56088 36.0911699,76.0904692 35.8020585,75.3615269 C35.4146298,74.3857162 35.8935618,73.2806396 36.8708945,72.8928423 C37.0947855,72.8063412 37.3303577,72.7606608 37.5707971,72.7606608 C37.8326522,72.7606608 38.0837995,72.8170323 38.3154779,72.9161685 C38.4410516,72.9997538 38.5744127,73.0755638 38.7106942,73.1435985 C38.9852039,73.3486742 39.2052012,73.6256723 39.3385623,73.9639015 C39.7230707,74.9358246 39.2431653,76.0447888 38.2697263,76.4277265 Z M54.9817264,70.5660585 C54.5865102,70.5660585 54.2633285,70.24338 54.2633285,69.8487792 C54.2633285,69.4532065 54.5865102,69.1305281 54.9817264,69.1305281 C55.3779161,69.1305281 55.7010978,69.4532065 55.7010978,69.8487792 C55.7010978,70.24338 55.3779161,70.5660585 54.9817264,70.5660585 Z M64.4386859,63.3339788 C64.4620485,63.3223158 64.4805438,63.3184281 64.5039063,63.3184281 C64.5379767,63.3184281 64.5798346,63.3300912 64.6216925,63.3485577 C64.6976207,63.382575 64.7355848,63.4321431 64.7540801,63.5157285 L66.6970643,72.5594727 C66.7126393,72.6430581 66.7009581,72.6994296 66.6444986,72.7645485 C66.5870657,72.8325831 66.5413141,72.8520215 66.5267125,72.8549373 L56.6054226,71.0559077 C56.8604636,70.7176785 57.0123201,70.3036392 57.0123201,69.8487792 C57.0123201,69.1684331 56.6745368,68.5726442 56.160561,68.2042854 L64.4386859,63.3339788 Z M48.7799468,69.6514788 C48.9814486,69.1839838 49.3542758,68.8234004 49.8254202,68.6377631 C50.0502846,68.5464023 50.2858569,68.5007219 50.5253228,68.5007219 C51.312835,68.5007219 52.0049501,68.9711327 52.2940614,69.700075 C52.6775964,70.6719981 52.2025582,71.7809623 51.2252255,72.1639 C51.0003611,72.2552608 50.7647888,72.3009412 50.5253228,72.3009412 C49.7387842,72.3009412 49.0466691,71.8305304 48.7575577,71.1015881 C48.5706574,70.6302054 48.5784449,70.1180019 48.7799468,69.6514788 Z M44.4948685,68.6941346 C44.7187594,68.6066615 44.9543317,68.5609812 45.1947711,68.5609812 C45.9813098,68.5609812 46.6734249,69.0323638 46.9625362,69.7613062 C47.1484631,70.2317169 47.141649,70.7478081 46.9401471,71.2153031 C46.7386453,71.6818262 46.3658182,72.0394938 45.8937003,72.2290188 C45.6698093,72.3164919 45.4342371,72.3621723 45.1947711,72.3621723 C44.4111527,72.3621723 43.7151439,71.8907896 43.4260325,71.1618473 C43.3578918,70.9878731 43.3277152,70.8090392 43.3082464,70.6340931 C43.3277152,70.47081 43.3316089,70.3075269 43.3238214,70.1442438 C43.4377138,69.5066623 43.8562925,68.9448908 44.4948685,68.6941346 Z M40.1143931,68.3529896 C40.8980115,68.3529896 41.5930469,68.8234004 41.8821583,69.5523427 C41.9512725,69.7272888 41.9853428,69.9051508 41.9999444,70.0878723 C41.9814491,70.2472677 41.9775553,70.4105508 41.9853428,70.5699462 C41.9580865,70.7176785 41.9201224,70.8663827 41.8597692,71.0063396 C41.6582673,71.4738346 41.2854402,71.8305304 40.8142958,72.0161677 C40.5894314,72.1075285 40.3538591,72.1532088 40.1143931,72.1532088 C39.8515646,72.1532088 39.6004174,72.0958654 39.3687389,71.9977012 C39.2431653,71.9141158 39.1107776,71.8344181 38.9735227,71.7692992 C38.6999863,71.5642235 38.4790157,71.2872254 38.3456545,70.9528838 C37.9582258,69.9770731 38.4371578,68.8729685 39.4144905,68.4851712 C39.6393549,68.3976981 39.8749272,68.3529896 40.1143931,68.3529896 Z M35.7679882,65.4556869 C36.5555003,65.4556869 37.2476154,65.9260977 37.5357533,66.65504 C37.7226536,67.1264227 37.7148661,67.6425138 37.5133642,68.1100088 C37.3118624,68.5765319 36.9390352,68.9332277 36.4678908,69.1198369 C36.2430264,69.2102258 36.0074542,69.2559062 35.7679882,69.2559062 C34.9804761,69.2559062 34.288361,68.7854954 34.000223,68.0565531 C33.7568633,67.4413258 33.8590744,66.7775023 34.208539,66.2721023 C34.2435828,66.2341973 34.2737594,66.1924046 34.3078297,66.1544996 C34.5054378,65.9154065 34.7565851,65.7142185 35.0641918,65.5927281 C35.29295,65.4974796 35.5246284,65.4556869 35.7679882,65.4556869 Z M33.569963,63.4438062 C33.7568633,63.9142169 33.7490758,64.4303081 33.5475739,64.8978031 C33.4940348,65.0192935 33.4297878,65.1330085 33.3567799,65.2389481 C33.3266033,65.2739373 33.2964267,65.3079546 33.26625,65.3458596 C33.0647482,65.5927281 32.8058134,65.7900285 32.5021005,65.9115188 C32.2772361,65.9989919 32.0416638,66.0446723 31.8021978,66.0446723 C31.0146857,66.0446723 30.3225706,65.5732896 30.0334593,64.8443473 C29.7258525,64.0697246 29.973106,63.2154042 30.5776116,62.7032008 C30.6798227,62.6390538 30.7830073,62.5700473 30.8745105,62.498125 C30.946545,62.4563323 31.0185795,62.4145396 31.0984015,62.38441 C31.3232659,62.2930492 31.5588381,62.2473688 31.7983041,62.2473688 C32.5848428,62.2405654 33.2769579,62.7148638 33.569963,63.4438062 Z M31.9540543,55.7899119 C31.7525525,56.256435 31.3797253,56.6131308 30.9085809,56.79974 C30.6837165,56.8911008 30.4481442,56.9328935 30.2086783,56.9328935 C29.4211661,56.9328935 28.7300245,56.4615108 28.4409131,55.7325685 C28.052511,54.7567577 28.5314429,53.6526531 29.5087757,53.2648558 C29.7336401,53.1773827 29.9692123,53.1317023 30.2086783,53.1317023 C30.9922966,53.1317023 31.6883055,53.603085 31.9764434,54.3320273 C32.1633437,54.8063258 32.1594499,55.3224169 31.9540543,55.7899119 Z M35.8020585,52.4183108 C35.6005567,52.8858058 35.2277296,53.2425015 34.7565851,53.4320265 C34.5317207,53.5194996 34.2961485,53.56518 34.0566825,53.56518 C33.2730641,53.56518 32.5780287,53.0937973 32.2889173,52.364855 C32.102017,51.8944442 32.1098046,51.3783531 32.3113064,50.9108581 C32.5128083,50.4482227 32.8856354,50.0876392 33.3567799,49.8971423 C33.5816443,49.8096692 33.8172165,49.7649608 34.0566825,49.7649608 C34.8403008,49.7649608 35.5363097,50.2353715 35.8254211,50.9643138 C36.0113479,51.4347246 36.0035604,51.9517877 35.8020585,52.4183108 Z M40.9466835,52.2550277 C40.7451816,52.7225227 40.3723545,53.0792185 39.90121,53.2648558 C39.677319,53.3523288 39.4407734,53.4018969 39.2013074,53.4018969 C38.4147687,53.4018969 37.7226536,52.9305142 37.4335422,52.2015719 C37.2476154,51.7311612 37.2544295,51.21507 37.4559313,50.747575 C37.6574332,50.2810519 38.0302603,49.9243562 38.5023782,49.7377469 C38.7262692,49.6463862 38.9618414,49.6055654 39.2013074,49.6055654 C39.9888195,49.6055654 40.6809346,50.0759762 40.970046,50.8049185 C41.1559728,51.2714415 41.1481853,51.7885046 40.9466835,52.2550277 Z M46.057238,51.6893685 C45.8557361,52.1568635 45.482909,52.5135592 45.0117646,52.7030842 C44.7878736,52.7905573 44.5513279,52.8362377 44.3118619,52.8362377 C43.529217,52.8362377 42.8332082,52.364855 42.5440968,51.6359127 C42.1566681,50.6601019 42.6356001,49.5559973 43.6129328,49.1682 C43.8368237,49.0807269 44.072396,49.0360185 44.3118619,49.0360185 C45.0993741,49.0360185 45.7914892,49.5064292 46.0806005,50.2353715 C46.1263522,50.3451988 46.152635,50.4559981 46.1750241,50.5697131 C46.1789179,50.5998427 46.1828116,50.6299723 46.1867054,50.6571862 C46.2402445,51.0022188 46.1983867,51.3589146 46.057238,51.6893685 Z M51.0957581,50.8272727 C50.8942562,51.2947677 50.5214291,51.6514635 50.0502846,51.8371008 C49.8254202,51.9284615 49.589848,51.9702542 49.350382,51.9702542 C48.5667637,51.9702542 47.8717282,51.4998435 47.5826169,50.7709012 C47.5368652,50.6601019 47.5066886,50.5502746 47.4872198,50.4365596 C47.4833261,50.4103177 47.4794323,50.3792162 47.4755386,50.3490865 C47.4229729,50.0001662 47.4648307,49.6463862 47.6088997,49.3169042 C47.8104016,48.8494092 48.1832287,48.4927135 48.6543732,48.3070762 C48.8792376,48.2157154 49.1148098,48.170035 49.3542758,48.170035 C50.1417879,48.170035 50.833903,48.6404458 51.1220409,49.3693881 C51.3089412,49.8446585 51.2972599,50.3607496 51.0957581,50.8272727 Z M55.0011952,50.4977908 C54.7763308,50.5881796 54.5407586,50.63386 54.3012926,50.63386 C53.5137805,50.63386 52.8226388,50.1634492 52.5335274,49.4345069 C52.149019,48.4625838 52.6240572,47.3536196 53.60139,46.9706819 C53.8262544,46.8793212 54.0618266,46.8336408 54.3012926,46.8336408 C55.0888047,46.8336408 55.7809198,47.3040515 56.0690577,48.0329938 C56.4535661,49.0049169 55.9785279,50.1138812 55.0011952,50.4977908 Z M60.8720056,47.7715465 C60.6705037,48.2380696 60.2976766,48.5947654 59.8265321,48.7852623 C59.6016677,48.8727354 59.3660955,48.9174438 59.1266295,48.9174438 C58.3430111,48.9174438 57.6479757,48.4470331 57.3588644,47.7180908 C56.9704622,46.74228 57.4493942,45.6381754 58.4267269,45.2503781 C58.6515913,45.162905 58.8871635,45.1172246 59.1266295,45.1172246 C59.9102479,45.1172246 60.6062567,45.5886073 60.8953681,46.3175496 C61.0812949,46.7879604 61.0735074,47.3040515 60.8720056,47.7715465 Z M64.4883313,46.5945477 C64.2634669,46.6859085 64.0278947,46.7306169 63.7884287,46.7306169 C63.00189,46.7306169 62.3097749,46.2602062 62.0206635,45.5312638 C61.6361552,44.5554531 62.1150871,43.4513485 63.0885261,43.0674388 C63.3133905,42.9760781 63.5489627,42.9303977 63.7884287,42.9303977 C64.5759408,42.9303977 65.2680559,43.4017804 65.5571673,44.1307227 C65.9407022,45.1026458 65.4617703,46.2067504 64.4883313,46.5945477 Z M68.8610191,43.9256469 C68.6371282,44.0170077 68.4005825,44.0617162 68.1611165,44.0617162 C67.3784716,44.0617162 66.6824627,43.5913054 66.3933514,42.8623631 C66.2074245,42.3919523 66.2142386,41.8748892 66.4157405,41.4083662 C66.6172423,40.9408712 66.9861757,40.5841754 67.4621873,40.3985381 C67.6860783,40.311065 67.9216505,40.2653846 68.1611165,40.2653846 C68.7315517,40.2653846 69.2523416,40.5161408 69.6066734,40.9340677 C69.6748141,41.043895 69.7429548,41.1498346 69.8266706,41.2528585 C69.8646347,41.3208931 69.9025988,41.3928154 69.9337489,41.4686254 C70.3133901,42.433745 69.8344581,43.5417373 68.8610191,43.9256469 Z M74.0747582,39.9806112 C73.8732563,40.4481062 73.5004292,40.8048019 73.0283113,40.9943269 C72.8044204,41.0818 72.5688481,41.1274804 72.3293822,41.1274804 C71.7589469,41.1274804 71.2371836,40.8767242 70.8838253,40.4587973 C70.8156846,40.34897 70.7475438,40.2430304 70.6677218,40.1438942 C70.6297577,40.0758596 70.5908202,40.0039373 70.5606436,39.9271554 C70.3747167,39.4567446 70.3825042,38.9406535 70.5840061,38.4731585 C70.785508,38.0066354 71.1573616,37.6499396 71.6294795,37.4633304 C71.8533705,37.3768292 72.0899162,37.3311488 72.3293822,37.3311488 C73.1159208,37.3311488 73.8080359,37.8015596 74.0971473,38.5305019 C74.2869679,39.0009127 74.2762601,39.5179758 74.0747582,39.9806112 Z M77.8049763,36.4350358 C77.6034744,36.9015588 77.2306473,37.2582546 76.7585294,37.4448638 C76.5346385,37.5362246 76.2990662,37.5809331 76.0596003,37.5809331 C75.2759819,37.5809331 74.579973,37.1105223 74.2908617,36.38158 C74.1049348,35.9111692 74.1127223,35.3941062 74.3142242,34.9275831 C74.5157261,34.46106 74.8875797,34.1033923 75.3596976,33.917755 C75.5835886,33.8263942 75.8201343,33.7846015 76.0596003,33.7846015 C76.3788882,33.7846015 76.6826012,33.8681869 76.9532172,34.0091158 C77.0632158,34.0956169 77.1810019,34.1792023 77.3065756,34.2520965 C77.5304665,34.4455092 77.7134731,34.6962654 77.8273654,34.9849265 C78.0132923,35.4553373 78.0064782,35.9714285 77.8049763,36.4350358 Z M80.6834353,32.2392438 C80.4819335,32.7067388 80.1091063,33.0634346 79.6369884,33.2490719 C79.4130975,33.3404327 79.1775252,33.3822254 78.9380593,33.3822254 C78.6187713,33.3822254 78.3140849,33.29864 78.0444423,33.1586831 C77.9305499,33.07121 77.8117904,32.9876246 77.6901105,32.9157023 C77.4662196,32.7213177 77.283213,32.4715335 77.1693207,32.1828723 C76.7857857,31.2109492 77.2647177,30.101985 78.2381567,29.7190473 C78.4620476,29.6315742 78.6985933,29.5858938 78.9380593,29.5858938 C79.7207042,29.5858938 80.416713,30.0563046 80.7058244,30.7852469 C80.8917513,31.2605173 80.8849372,31.7766085 80.6834353,32.2392438 Z" id="Page-1" fill="#000000"></path>
                    </g>
                </g>
            </g>
        </g>
    </g>
</svg>