<?xml version="1.0" encoding="UTF-8"?>
<svg width="240px" height="454px" viewBox="0 0 240 454" version="1.1" xmlns="http://www.w3.org/2000/svg" xmlns:xlink="http://www.w3.org/1999/xlink">
    <!-- Generator: Sketch 42 (36781) - http://www.bohemiancoding.com/sketch -->
    <title>Approach Wheel</title>
    <desc>Created with Sketch.</desc>
    <defs></defs>
    <g id="02.-Our-Approach" stroke="none" stroke-width="1" fill="none" fill-rule="evenodd">
        <g id="2.1_DESKTOP_OurApproach" transform="translate(-51.000000, -1051.000000)">
            <g id="Approach-Wheel" transform="translate(51.000000, 1049.000000)">
                <g id="Well-being" transform="translate(12.000000, 408.000000)" fill="#4A4A4A">
                    <path d="M38.9312281,23.069756 L33.714386,23.069756 C33.2701754,23.069756 32.9108772,22.7078373 32.9108772,22.2603871 C32.9108772,21.8129369 33.2701754,21.4517251 33.714386,21.4517251 L38.9312281,21.4517251 C39.3747368,21.4517251 39.7340351,21.8129369 39.7340351,22.2603871 C39.7340351,22.7050098 39.3747368,23.069756 38.9312281,23.069756 Z" id="Fill-1"></path>
                    <path d="M20.7101754,7.15381767 C20.2659649,7.15381767 19.9066667,6.79189902 19.9066667,6.34444881 L19.9066667,1.09026648 C19.9066667,0.642816269 20.2659649,0.280897616 20.7101754,0.280897616 C21.154386,0.280897616 21.5129825,0.642816269 21.5129825,1.09026648 L21.5129825,6.34444881 C21.5129825,6.79189902 21.154386,7.15381767 20.7101754,7.15381767 Z" id="Fill-2"></path>
                    <path d="M32.8231579,15.4680505 C32.5024561,15.4680505 32.2014035,15.2743675 32.0750877,14.9541543 C31.9136842,14.5370996 32.1164912,14.0705638 32.5277193,13.9051557 L37.1382456,12.0800112 C37.5522807,11.9167237 38.0182456,12.1210098 38.1796491,12.535237 C38.3417544,12.9522917 38.1389474,13.4188275 37.7277193,13.5849425 L33.1164912,15.4129144 C33.0210526,15.4482581 32.9221053,15.4680505 32.8231579,15.4680505 Z" id="Fill-3"></path>
                    <path d="M28.5277193,9.4454979 C28.3663158,9.4454979 28.2042105,9.39884432 28.0645614,9.29634783 C27.7031579,9.03692567 27.6175439,8.53433941 27.8757895,8.16959327 L30.8961404,3.88453296 C31.154386,3.51978682 31.6554386,3.43425526 32.0147368,3.69367742 C32.3768421,3.95380645 32.4617544,4.45639271 32.2042105,4.82043198 L29.1831579,9.10619916 C29.0266667,9.32674334 28.7803509,9.4454979 28.5277193,9.4454979 Z" id="Fill-4"></path>
                    <path d="M24.2870175,36.1744628 C22.1270175,33.7279776 31.1347368,31.7452006 31.1347368,22.2603871 C31.1347368,9.55576999 21.9515789,9.39884432 20.0217544,9.39884432 C18.0919298,9.39884432 8.90877193,10.5255989 8.90877193,22.2603871 C8.90877193,31.7452006 17.9164912,33.7279776 15.7564912,36.1744628 C12.9108772,39.3963871 3.07017544,35.3375259 3.07017544,47.8569425 L36.9740351,47.8569425 C36.9740351,35.3375259 27.1326316,39.3963871 24.2870175,36.1744628 Z M20.0084211,25.4992763 C18.9087719,24.8892454 15.9375439,22.897986 15.7649123,20.3080056 C15.5649123,17.2790575 19.4273684,17.6848022 20.0084211,19.9298289 C20.5894737,17.6848022 24.4519298,17.281885 24.2519298,20.3080056 C24.0785965,22.897986 21.1045614,24.8892454 20.0084211,25.4992763 Z" id="Fill-5"></path>
                    <path d="M6.11017544,23.069756 L0.893333333,23.069756 C0.449824561,23.069756 0.0905263158,22.7078373 0.0905263158,22.2603871 C0.0905263158,21.8129369 0.449824561,21.4517251 0.893333333,21.4517251 L6.11017544,21.4517251 C6.55438596,21.4517251 6.91368421,21.8129369 6.91368421,22.2603871 C6.91368421,22.7050098 6.55157895,23.069756 6.11017544,23.069756 Z" id="Fill-6"></path>
                    <path d="M6.99859649,15.4680505 C6.89964912,15.4680505 6.80070175,15.4482581 6.70526316,15.4129144 L2.09403509,13.58777 C1.68070175,13.4244825 1.47719298,12.9551192 1.64210526,12.5380645 C1.80350877,12.1210098 2.26947368,11.9167237 2.68350877,12.0828387 L7.29473684,13.9079832 C7.70807018,14.0705638 7.91087719,14.5399271 7.74666667,14.9569818 C7.62315789,15.27154 7.31929825,15.4680505 6.99859649,15.4680505 Z" id="Fill-7"></path>
                    <path d="M12.8757895,8.91534362 C12.6231579,8.91534362 12.3768421,8.79658906 12.2203509,8.57604488 L9.19929825,4.2902777 C8.94175439,3.92623843 9.02666667,3.42082468 9.38877193,3.16352314 C9.75087719,2.90410098 10.2519298,2.98963254 10.5073684,3.35437868 L13.5277193,7.63943899 C13.7859649,8.00418513 13.7003509,8.50959888 13.3389474,8.76619355 C13.1992982,8.86586255 13.037193,8.91534362 12.8757895,8.91534362 Z" id="Fill-8"></path>
                </g>
                <g id="Health" transform="translate(10.000000, 350.000000)" fill="#4A4A4A">
                    <path d="M36.6350685,9.6230137 L30.3769863,9.6230137 L30.3769863,3.36493151 C30.3769863,1.5260274 28.8805479,0.0301369863 27.04,0.0301369863 L12.96,0.0301369863 C11.1194521,0.0301369863 9.6230137,1.5260274 9.6230137,3.36493151 L9.6230137,9.6230137 L3.36493151,9.6230137 C1.5260274,9.6230137 0.0301369863,11.1194521 0.0301369863,12.96 L0.0301369863,27.0421918 C0.0301369863,28.8805479 1.5260274,30.3786301 3.36493151,30.3786301 L9.6230137,30.3786301 L9.6230137,36.6372603 C9.6230137,38.4761644 11.1194521,39.9742466 12.96,39.9742466 L27.0421918,39.9742466 C28.8805479,39.9742466 30.3786301,38.4783562 30.3786301,36.6372603 L30.3786301,30.3769863 L36.6372603,30.3769863 C38.4761644,30.3769863 39.9742466,28.8805479 39.9742466,27.04 L39.9742466,12.96 C39.9720548,11.1194521 38.4739726,9.6230137 36.6350685,9.6230137 Z M37.8082192,27.04 C37.8082192,27.6860274 37.2816438,28.2126027 36.6350685,28.2126027 L28.2147945,28.2126027 L28.2147945,36.6328767 C28.2147945,37.2794521 27.6882192,37.8060274 27.0421918,37.8060274 L12.96,37.8060274 C12.3139726,37.8060274 11.7873973,37.2794521 11.7873973,36.6328767 L11.7873973,28.2147945 L3.36493151,28.2147945 C2.71835616,28.2147945 2.19178082,27.6882192 2.19178082,27.0421918 L2.19178082,12.96 C2.19178082,12.3139726 2.71835616,11.7873973 3.36493151,11.7873973 L11.7873973,11.7873973 L11.7873973,3.36493151 C11.7873973,2.71835616 12.3139726,2.19178082 12.96,2.19178082 L27.0421918,2.19178082 C27.6882192,2.19178082 28.2147945,2.71835616 28.2147945,3.36493151 L28.2147945,11.7873973 L36.6350685,11.7873973 C37.2816438,11.7873973 37.8082192,12.3139726 37.8082192,12.96 L37.8082192,27.04 Z" id="Fill-1"></path>
                    <path d="M23.230137,13.7435616 C21.9775342,13.7435616 20.8241096,14.2575342 20,15.1178082 C19.1758904,14.2591781 18.0224658,13.7435616 16.769863,13.7435616 C14.3024658,13.7435616 12.2926027,15.7534247 12.2926027,18.2213699 C12.2926027,19.3665753 12.7287671,20.4580822 13.540274,21.3161644 L19.2317808,27.0164384 C19.4350685,27.219726 19.7090411,27.3331507 19.9956164,27.3331507 L19.9956164,27.3331507 C20.2827397,27.3331507 20.5589041,27.219726 20.76,27.0164384 L26.459726,21.3161644 C26.4832877,21.2926027 26.5046575,21.2690411 26.5260274,21.2438356 C27.2882192,20.4131507 27.7052055,19.3430137 27.7052055,18.2191781 C27.7073973,15.7512329 25.6975342,13.7435616 23.230137,13.7435616 Z M24.9079452,19.8093151 C24.9013699,19.8158904 24.8975342,19.8224658 24.8909589,19.8290411 L19.9978082,24.7216438 L15.0920548,19.8093151 C14.6810959,19.3747945 14.4564384,18.8120548 14.4564384,18.2213699 C14.4564384,16.9457534 15.4942466,15.9052055 16.769863,15.9052055 C17.7758904,15.9052055 18.6624658,16.549589 18.9726027,17.5084932 C19.1183562,17.9539726 19.5331507,18.2553425 20.0021918,18.2553425 C20.4706849,18.2553425 20.8860274,17.9539726 21.0317808,17.5063014 C21.3419178,16.5473973 22.2257534,15.9052055 23.2317808,15.9052055 C24.5079452,15.9052055 25.5457534,16.9435616 25.5457534,18.2213699 C25.5435616,18.8120548 25.3189041,19.3747945 24.9079452,19.8093151 Z" id="Fill-2"></path>
                </g>
                <path d="M29,271 C26.5022727,271 24.4545455,273.053442 24.4545455,275.55814 C24.4545455,278.062837 26.5022727,280.116279 29,280.116279 C31.4977273,280.116279 33.5454545,278.062837 33.5454545,275.55814 C33.5454545,273.053442 31.4977273,271 29,271 Z M29,273.27907 C30.269697,273.27907 31.2727273,274.284899 31.2727273,275.55814 C31.2727273,276.83138 30.269697,277.837209 29,277.837209 C27.730303,277.837209 26.7272727,276.83138 26.7272727,275.55814 C26.7272727,274.284899 27.730303,273.27907 29,273.27907 Z M29,281.825581 C26.4992424,281.825581 24.2151515,282.255566 22.4484848,283.161116 C20.6818182,284.065907 19.3409091,285.585287 19.3409091,287.505783 L19.3409091,292.081395 C19.3409091,292.677752 19.8825758,293.22093 20.4772727,293.22093 L37.5227273,293.22093 C38.1174242,293.22093 38.6590909,292.677752 38.6590909,292.081395 L38.6590909,287.505783 C38.6590909,285.585287 37.3181818,284.065907 35.5515152,283.161116 C33.7848485,282.255566 31.5007576,281.825581 29,281.825581 Z M29,284.104651 C31.219697,284.104651 33.2083333,284.517163 34.5219697,285.191008 C35.8356061,285.864093 36.3863636,286.618465 36.3863636,287.505783 L36.3863636,290.94186 L21.6136364,290.94186 L21.6136364,287.505783 C21.6136364,286.618465 22.1643939,285.864093 23.4780303,285.191008 C24.7916667,284.517163 26.780303,284.104651 29,284.104651 Z M28.8757576,296.622062 C28.3166667,296.684357 27.8515152,297.21538 27.8636364,297.77907 L27.8636364,302.835566 L22.7325758,305.916109 C22.1643939,306.191876 21.9272727,306.99031 22.2530303,307.533488 C22.5810606,308.076667 23.3977273,308.236961 23.9037879,307.857116 L29,304.794047 L34.0962121,307.857116 C34.6022727,308.233922 35.4189394,308.073628 35.7469697,307.533488 C36.0757576,306.99031 35.8356061,306.191876 35.2674242,305.916109 L30.1363636,302.835566 L30.1363636,297.77907 C30.1515152,297.131814 29.5181818,296.550651 28.8757576,296.622062 Z M13.6590909,297.77907 C11.1613636,297.77907 9.11363636,299.832512 9.11363636,302.337209 C9.11363636,304.841907 11.1613636,306.895349 13.6590909,306.895349 C16.1568182,306.895349 18.2045455,304.841907 18.2045455,302.337209 C18.2045455,299.832512 16.1568182,297.77907 13.6590909,297.77907 Z M44.3409091,297.77907 C41.8431818,297.77907 39.7954545,299.832512 39.7954545,302.337209 C39.7954545,304.841907 41.8431818,306.895349 44.3409091,306.895349 C46.8386364,306.895349 48.8863636,304.841907 48.8863636,302.337209 C48.8863636,299.832512 46.8386364,297.77907 44.3409091,297.77907 Z M13.6590909,300.05814 C14.9287879,300.05814 15.9318182,301.063969 15.9318182,302.337209 C15.9318182,303.61045 14.9287879,304.616279 13.6590909,304.616279 C12.3893939,304.616279 11.3863636,303.61045 11.3863636,302.337209 C11.3863636,301.063969 12.3893939,300.05814 13.6590909,300.05814 Z M44.3409091,300.05814 C45.6106061,300.05814 46.6136364,301.063969 46.6136364,302.337209 C46.6136364,303.61045 45.6106061,304.616279 44.3409091,304.616279 C43.0712121,304.616279 42.0681818,303.61045 42.0681818,302.337209 C42.0681818,301.063969 43.0712121,300.05814 44.3409091,300.05814 Z M13.6590909,308.604651 C11.1583333,308.604651 8.87424242,309.034636 7.10757576,309.940186 C5.34090909,310.844977 4,312.364357 4,314.284853 L4,318.860465 C4,319.456822 4.54166667,320 5.13636364,320 L22.1818182,320 C22.7765152,320 23.3181818,319.456822 23.3181818,318.860465 L23.3181818,314.284853 C23.3181818,312.364357 21.9772727,310.844977 20.2106061,309.940186 C18.4439394,309.034636 16.1598485,308.604651 13.6590909,308.604651 Z M44.3409091,308.604651 C41.8401515,308.604651 39.5560606,309.034636 37.7893939,309.940186 C36.0227273,310.844977 34.6818182,312.364357 34.6818182,314.284853 L34.6818182,318.860465 C34.6818182,319.456822 35.2234848,320 35.8181818,320 L52.8636364,320 C53.4583333,320 54,319.456822 54,318.860465 L54,314.284853 C54,312.364357 52.6590909,310.844977 50.8924242,309.940186 C49.1257576,309.034636 46.8416667,308.604651 44.3409091,308.604651 Z M13.6590909,310.883721 C15.8787879,310.883721 17.8674242,311.296233 19.1810606,311.970078 C20.494697,312.643163 21.0454545,313.397535 21.0454545,314.284853 L21.0454545,317.72093 L6.27272727,317.72093 L6.27272727,314.284853 C6.27272727,313.397535 6.82348485,312.643163 8.13712121,311.970078 C9.45075758,311.296233 11.4393939,310.883721 13.6590909,310.883721 Z M44.3409091,310.883721 C46.5606061,310.883721 48.5492424,311.296233 49.8628788,311.970078 C51.1765152,312.643163 51.7272727,313.397535 51.7272727,314.284853 L51.7272727,317.72093 L36.9545455,317.72093 L36.9545455,314.284853 C36.9545455,313.397535 37.505303,312.643163 38.8189394,311.970078 C40.1325758,311.296233 42.1212121,310.883721 44.3409091,310.883721 Z" id="Social" fill="#433E3E"></path>
                <text id="01.-SUPPORT-02.-ECON" font-family="Oswald-Regular, Oswald" font-size="20" font-weight="normal" line-spacing="35" letter-spacing="0.277777761">
                    <tspan x="77" y="24" fill="#B5852F">01. </tspan>
                    <tspan x="105.611111" y="24" fill="#4A4A4A">SUPPORT</tspan>
                    <tspan x="176.235555" y="24" fill="#B5852F"></tspan>
                    <tspan x="77" y="59" fill="#B5852F"></tspan>
                    <tspan x="77" y="94" fill="#B5852F">02. </tspan>
                    <tspan x="105.831111" y="94" fill="#4A4A4A">ECONOMIC</tspan>
                    <tspan x="77" y="129" fill="#B5852F"></tspan>
                    <tspan x="77" y="164" fill="#B5852F">03. </tspan>
                    <tspan x="105.611111" y="164" fill="#4A4A4A">EDUCATION</tspan>
                    <tspan x="77" y="199" fill="#B5852F"></tspan>
                    <tspan x="77" y="234" fill="#B5852F">04. </tspan>
                    <tspan x="106.091111" y="234" fill="#4A4A4A">INFRASTRUCTURE</tspan>
                    <tspan x="77" y="269" fill="#B5852F"></tspan>
                    <tspan x="77" y="304" fill="#B5852F">05. </tspan>
                    <tspan x="105.791111" y="304" fill="#4A4A4A">SOCIAL</tspan>
                    <tspan x="77" y="339" fill="#4A4A4A"></tspan>
                    <tspan x="77" y="374" fill="#B5852F">06.</tspan>
                    <tspan x="101.193333" y="374" fill="#4A4A4A"> HEALTH</tspan>
                    <tspan x="77" y="409" fill="#4A4A4A"></tspan>
                    <tspan x="77" y="444" fill="#B5852F">07. </tspan>
                    <tspan x="103.971111" y="444" fill="#4A4A4A">WELL-BEING</tspan>
                </text>
                <g id="Hand-Heart" transform="translate(2.000000, 4.000000)" stroke="#4A4A4A">
                    <path d="M34.9979016,19.6774 C38.2539672,16.7660667 39.6726557,14.5540667 39.6726557,10.7987333 C39.6726557,5.0474 35.3828197,0.198066667 29.9713443,0.198066667 C29.9713443,0.198066667 25.3683934,-0.4156 20.3123279,4.76273333" id="Stroke-1" stroke-width="3.07017544" stroke-linecap="round"></path>
                    <path d="M11.5037377,7.67983333 C13.9614426,10.7911667 17.4391475,10.1311667 17.4391475,10.1311667 L23.6525902,16.4481667 C23.6525902,16.4481667 25.3220984,17.9571667 26.9909508,16.4011667 C28.660459,14.8455 26.820459,12.6618333 26.820459,12.6618333 L18.368,4.06816667 C15.9250492,1.2595 13.4145574,0.1665 9.96177049,0.1665 C4.55062295,0.1665 0.164065574,4.82916667 0.164065574,10.5805 C0.164065574,14.0825 1.78898361,16.8131667 4.16767213,19.1668333" id="Stroke-3" stroke-width="3.07017544" stroke-linecap="round"></path>
                    <path d="M36.4428852,18.2939333 L20.8579672,33.1262667 C19.9668197,33.9582667 18.5861639,33.9179333 17.7438689,33.0352667 L3.3317377,18.3122667" id="Stroke-5" stroke-width="3.07017544"></path>
                    <path d="M19.2707541,12.3297333 L11.1120656,20.1310667 C11.1120656,20.1310667 8.6612459,22.2197333 10.2740328,23.7630667 C11.7737049,25.1977333 14.0241967,22.9684 14.0241967,22.9684 L22.2255082,15.3787333" id="Stroke-7" stroke-width="2.19298246" stroke-linecap="round"></path>
                    <path d="M26.0183279,17.5307333 L16.7202951,26.3920667 C16.7202951,26.3920667 14.5750492,28.4027333 13.082918,26.6864 C13.082918,26.6864 11.7684918,24.9840667 14.4412787,22.5924" id="Stroke-9" stroke-width="2.19298246" stroke-linecap="round"></path>
                    <path d="M16.2719016,26.8567667 C16.2719016,26.8567667 15.1046885,28.2951 16.3676393,29.6374333 C17.5532131,30.8974333 18.7797705,30.1164333 19.2266557,29.7711 C19.7378033,29.3761 27.2069836,21.8184333 27.2069836,21.8184333" id="Stroke-11" stroke-width="2.19298246" stroke-linecap="round"></path>
                    <path d="M21.1880328,27.847 C21.1880328,27.847 18.077541,30.439 19.7195082,32.0746667 C21.0437705,33.3936667 23.2981967,31.018 23.8437705,30.5763333" id="Stroke-13" stroke-width="2.19298246" stroke-linecap="round"></path>
                </g>
                <path d="M52.8821127,101.678732 L46.0315211,100.347609 L46.0315211,89.9221619 C46.0315211,89.1539215 45.4119776,88.5304415 44.642588,88.5304415 C43.8738703,88.5304415 43.2543268,89.1512283 43.2543268,89.9221619 L43.2543268,92.2996001 L39.9180652,92.2996001 L39.9180652,85.0986085 C39.9180652,84.3303681 39.2985217,83.7068881 38.5298041,83.7068881 L36.4245658,83.7068881 L36.4245658,79.5647188 C36.4245658,77.6498409 34.8703316,76.082388 32.9492093,76.082388 C32.1825075,76.082388 31.5609482,76.7031747 31.5609482,77.4741084 C31.5609482,78.2416755 32.1798197,78.8651555 32.9492093,78.8651555 C33.3322242,78.8651555 33.6366203,79.1809353 33.6366203,79.553946 L33.6366203,83.6967885 L26.5998969,83.6967885 L23.7830572,74.0045703 C23.6049889,73.4127357 23.0640643,73 22.4552721,73 L7.53314476,73 C6.76644294,73 6.14421166,73.6207867 6.14421166,74.3910471 L6.14421166,91.0108953 C4.80567527,92.604607 4,94.6480862 4,96.8868236 C4,101.907655 8.0733974,106 13.0949247,106 C16.8538467,106 20.0825954,103.701338 21.4708565,100.437158 L29.5134982,100.437158 C29.6599846,103.524933 32.2114016,106 35.3191982,106 C38.5271162,106 41.1464008,103.374786 41.1464008,100.161103 C41.1464008,98.809108 40.684767,97.5783074 39.9153774,96.5818167 L39.9153774,95.0823676 L43.251639,95.0823676 L43.251639,101.502326 C43.251639,102.172937 43.7240241,102.743899 44.3751495,102.872501 L52.3492516,104.411001 C53.0789958,104.558455 53.8456976,104.085122 53.9740412,103.306782 C54.1211996,102.546621 53.6273119,101.818106 52.8821127,101.678732 Z M13.0949247,103.20646 C9.60948886,103.20646 6.78525771,100.366461 6.78525771,96.8841304 C6.78525771,93.4017996 9.6195682,90.5611279 13.0949247,90.5611279 C16.5702813,90.5611279 19.4052637,93.4017996 19.4052637,96.8841304 C19.4052637,100.366461 16.5702813,103.20646 13.0949247,103.20646 Z M30.0645021,97.6469844 L22.1401247,97.6469844 C22.5231397,93.0994858 19.4052637,87.9917979 13.0841734,87.7628744 C11.577648,87.7628744 10.1712441,88.1365584 8.9214059,88.7883171 L8.9214059,85.45344 L11.0085013,85.45344 C11.7745312,85.45344 12.3967624,84.8326532 12.3967624,84.0623929 C12.3967624,83.2941525 11.777219,82.6706725 11.0085013,82.6706725 L8.9214059,82.6706725 L8.9214059,81.1321717 L14.4731065,81.1321717 C15.2398084,81.1321717 15.8613677,80.511385 15.8613677,79.7411246 C15.8613677,78.9728842 15.2418242,78.3494042 14.4731065,78.3494042 L8.9214059,78.3494042 L8.9214059,75.7854607 L21.4130683,75.7854607 L24.2272201,85.4796988 C24.4052885,86.0715335 24.9462131,86.4842692 25.5550052,86.4842692 L37.1307916,86.4842692 L37.1307916,94.6117277 C34.0203072,93.6118706 31.1067059,95.297825 30.0645021,97.6469844 Z M35.321886,103.20646 C33.6393081,103.20646 32.2718776,101.836285 32.2718776,100.150331 C32.2718776,98.4643761 33.6393081,97.0942014 35.321886,97.0942014 C37.0044639,97.0942014 38.3718944,98.4643761 38.3718944,100.150331 C38.3718944,101.836285 37.0044639,103.20646 35.321886,103.20646 Z" id="Tractor" fill="#433E3E"></path>
                <path d="M24.4059349,144.095013 L1.04178741,153.203892 C0.433232874,153.435365 0,154.057627 0,154.702035 C0,155.347158 0.433232874,155.96942 1.04178741,156.200892 L8.69943202,159.181461 L8.69943202,167.034386 C8.69943202,168.365354 9.5028689,169.286244 10.431639,170.048532 C11.3596847,170.810106 12.5565086,171.465945 13.9967544,172.041055 C16.8750724,173.19056 20.7241799,174 25,174 C29.2758201,174 33.1249276,173.19056 36.0032456,172.041055 C37.4434914,171.465945 38.6403153,170.810106 39.568361,170.048532 C40.4971311,169.286244 41.300568,168.365354 41.300568,167.034386 L41.300568,159.181461 L48.9582126,156.200892 C49.5667671,155.96942 50,155.347158 50,154.702035 C50,154.060484 49.5667671,153.435365 48.9582126,153.203892 L25.5940651,144.095013 C25.155761,143.935697 24.6913759,144.00571 24.4059349,144.095013 Z M25,147.326343 L43.9325664,154.710608 L25,162.078441 L6.06743364,154.710608 L25,147.326343 Z M11.9595456,160.453846 L24.4059349,165.309772 C24.7819346,165.454799 25.2180654,165.454799 25.5940651,165.309772 L38.0404544,160.453846 L38.0404544,167.034386 C38.0404544,166.825061 38.0317608,167.117974 37.4804393,167.570203 C36.9283934,168.022432 35.9742668,168.57468 34.763678,169.060487 C32.3381535,170.029243 28.8512809,170.785101 25,170.785101 C21.1487191,170.785101 17.6618465,170.029243 15.236322,169.060487 C14.0257332,168.57468 13.0716066,168.022432 12.5195607,167.570203 C11.9682392,167.117974 11.9595456,166.825061 11.9595456,167.034386 L11.9595456,160.453846 Z" id="Cap" fill="#433E3E"></path>
                <g id="Infrastructure" transform="translate(8.000000, 209.000000)" stroke="#433E3E" stroke-width="2.47787611">
                    <ellipse id="Oval" cx="20.7194245" cy="5.78125" rx="5.75539568" ry="5.78125"></ellipse>
                    <ellipse id="Oval-Copy-2" cx="34.2446043" cy="31.21875" rx="5.75539568" ry="5.78125"></ellipse>
                    <ellipse id="Oval-Copy" cx="5.75539568" cy="31.21875" rx="5.75539568" ry="5.78125"></ellipse>
                    <path d="M10.647482,31.5078125 L29.352518,31.5078125" id="Path-2"></path>
                    <path d="M8.21605216,26.9799194 L16.7764804,10.2739901" id="Path-2"></path>
                    <path d="M23.8848921,26.5340543 L32.4453204,9.828125" id="Path-2" transform="translate(28.165106, 18.181090) scale(-1, 1) translate(-28.165106, -18.181090) "></path>
                </g>
            </g>
        </g>
    </g>
</svg>