<?xml version="1.0" encoding="UTF-8"?>
<svg width="1100px" height="1275px" viewBox="0 0 1100 1275" version="1.1" xmlns="http://www.w3.org/2000/svg" xmlns:xlink="http://www.w3.org/1999/xlink">
    <!-- Generator: Sketch 42 (36781) - http://www.bohemiancoding.com/sketch -->
    <title>Page 1</title>
    <desc>Created with Sketch.</desc>
    <defs></defs>
    <g id="04.-Our-Team" stroke="none" stroke-width="1" fill="none" fill-rule="evenodd" opacity="0.200000003">
        <g id="4.1_DESKTOP_OurTeam" transform="translate(-170.000000, -965.000000)" fill="#B5852F">
            <path d="M1270,1604.56285 C1254.70677,1604.56285 1251.88911,1621.22662 1232.48062,1626.78739 C1179.63094,1644.89697 1083.75632,1624.04408 1040.60162,1607.3247 C1041.97337,1590.66092 1057.24806,1589.21512 1069.77924,1585.08161 C1061.45602,1582.3383 1000.26458,1617.09312 990.551062,1573.94153 C1046.16279,1539.18671 1135.16009,1525.28478 1212.99798,1526.65644 C1206.04651,1519.70548 1187.95416,1522.46732 1181.0027,1512.75451 C1208.80856,1490.52996 1244.93765,1472.42038 1260.21234,1447.45252 C1224.08325,1465.54356 1183.74621,1514.20031 1116.9936,1514.20031 C1121.18301,1501.67004 1158.70239,1478.07383 1160.07415,1448.89832 C1111.41389,1521.15128 1029.36805,1529.54804 989.031008,1539.26085 C945.950455,1550.40093 918.14459,1565.69305 882.015504,1560.11375 C873.692282,1554.53444 888.96697,1540.63251 891.710482,1532.30989 C875.064038,1553.16278 851.391978,1561.4854 822.195821,1574.01567 C765.286485,1582.3383 813.946748,1518.40796 813.946748,1518.40796 C813.946748,1518.40796 815.318504,1518.40796 815.318504,1517.0363 C904.315807,1482.28148 1087.79744,1497.55507 1190.69767,1404.43069 C1115.6033,1437.81385 1053.04011,1450.34412 1000.26458,1455.84928 C1016.91102,1430.78874 1044.71689,1408.56419 1044.71689,1408.56419 C1044.71689,1408.56419 1090.63364,1371.06606 1114.23155,1364.11509 C1133.71419,1358.53579 1132.34243,1351.58482 1121.18301,1354.40228 C1115.6033,1354.40228 1092.00539,1359.98159 1087.79744,1362.7249 C1082.23627,1365.48675 1066.94304,1372.43771 1055.80216,1379.38868 C1054.4304,1364.11509 1059.99157,1339.05455 1057.17391,1315.45834 C1054.4304,1282.07518 1066.88743,1255.64298 1066.88743,1255.64298 C1066.88743,1255.64298 1076.58241,1233.41843 1059.93596,1259.85063 C1052.9845,1270.99071 1048.77654,1294.60545 1046.03303,1315.45834 C1040.45332,1346.00551 1037.69127,1382.20614 1020.97068,1407.19254 C1015.39097,1390.52876 1020.97068,1376.62683 1018.22717,1361.2791 C1005.69599,1376.55269 1016.83687,1444.69067 965.358948,1459.96426 C907.003707,1464.17191 862.458713,1461.35445 827.701382,1472.49453 L830.463431,1459.96426 C841.604314,1453.01329 854.061341,1446.06233 867.964274,1434.92225 C961.095383,1358.46164 952.753623,1293.14112 1005.62184,1273.67842 C1011.20155,1270.91657 1030.66566,1272.28822 1018.15302,1268.09911 C1009.81126,1263.89146 1002.85979,1266.72745 987.585103,1272.28822 C972.310415,1277.86753 966.730704,1294.53131 952.827772,1304.29973 C959.779238,1276.49587 970.938659,1211.19388 973.682171,1201.40692 C976.44422,1191.71265 993.164813,1168.02376 997.298618,1161.0728 C1002.85979,1154.12183 1027.84799,1145.79921 1027.84799,1145.79921 C1034.79946,1141.6101 1022.26828,1141.6101 1022.26828,1141.6101 C1022.26828,1141.6101 994.684867,1151.37852 989.105157,1158.32948 L989.105157,1158.32948 C989.105157,1148.6352 990.476913,1133.26894 989.105157,1131.89728 C987.733401,1129.15397 986.361645,1134.65913 986.361645,1134.65913 C986.361645,1134.65913 984.989889,1158.25534 979.410179,1172.15727 C951.604314,1208.28375 948.842265,1279.18358 932.121672,1329.28613 C916.846983,1290.32366 944.652848,1225.02167 948.768116,1198.58947 C893.156387,1294.53131 933.493428,1332.02944 907.059319,1376.55269 C901.498146,1365.41261 901.498146,1346.00551 888.96697,1343.18806 C893.156387,1354.32814 898.661948,1364.04095 898.661948,1382.13199 C883.38726,1397.40558 861.161105,1414.1435 837.489046,1419.64866 L845.812268,1380.68619 C812.426694,1308.43324 834.652848,1238.9236 856.953151,1195.77201 C837.489046,1213.86305 836.098753,1238.84945 815.244355,1256.94049 C791.646444,1234.71594 804.103472,1183.24174 816.634648,1134.58499 C824.95787,1105.40948 822.195821,1081.72059 847.184024,1052.54508 C841.604314,1053.91673 830.53758,1062.23935 826.329626,1058.12438 C829.073138,1031.69218 840.232558,984.407092 833.281092,965 C826.329626,997.011507 826.329626,1040.08895 811.054938,1070.65466 C808.292888,1062.3135 792.944051,1005.33413 783.249073,1013.65675 C826.329626,1087.37404 794.389956,1195.77201 781.877317,1201.33278 C755.443209,1187.43085 744.357937,1148.48692 747.119987,1124.87218 C708.154702,1172.15727 816.634648,1233.34429 818.006404,1372.36357 L813.79845,1389.00881 L813.79845,1389.00881 L809.609033,1404.30093 C797.077856,1430.7146 780.412875,1471.04873 758.186721,1501.61443 C734.58881,1522.46732 709.526458,1482.1332 698.385575,1462.65196 C698.385575,1461.2803 698.385575,1459.90865 696.995281,1458.44431 C684.482642,1415.36687 681.720593,1323.63268 670.57971,1319.42503 C648.335019,1258.25654 690.043815,1206.83794 694.17762,1152.60189 C698.385575,1103.94514 680.274688,1003.88833 676.066734,1002.44253 C676.066734,995.491563 680.274688,966.316049 673.323222,978.827785 C670.57971,1014.9728 673.323222,1046.96577 674.694978,1078.90313 C663.554095,1076.14128 658.048534,1048.33743 644.145602,1060.79355 C717.84968,1117.79146 634.432086,1201.20303 624.662959,1276.27344 C614.967981,1266.57916 639.937647,1287.43206 621.919447,1320.74108 C569.05123,1287.35791 496.793057,1206.7638 562.099764,1146.96697 C545.45332,1144.20512 541.245366,1172.00898 528.714189,1160.8689 C523.134479,1131.69339 496.718908,1071.87802 487.005393,1069.11618 C513.439501,1123.35223 510.62184,1176.14249 521.762723,1199.81284 C512.067745,1197.06952 502.298618,1174.77083 491.213347,1185.91091 C532.922144,1224.87338 519.019211,1244.28047 537.11156,1274.90179 C553.776542,1304.0773 583.028311,1326.32038 581.582406,1329.13784 C569.05123,1329.13784 556.520054,1329.13784 549.568588,1334.71715 C631.614425,1333.32696 651.097068,1429.2688 645.517358,1462.57782 C639.937647,1463.94947 624.662959,1456.99851 624.662959,1465.33967 C648.26087,1470.90044 671.951466,1505.65526 652.468824,1523.69069 C617.711493,1527.87981 610.760027,1487.56422 591.277385,1470.8263 C582.954162,1463.87533 567.679474,1463.87533 560.728008,1456.92437 C537.11156,1433.32816 537.11156,1395.75588 523.208628,1362.37272 C474.548365,1345.70894 466.225143,1274.7535 438.419279,1251.15729 C449.578699,1301.1857 473.176609,1340.14817 502.35423,1376.27465 C485.707786,1401.31665 439.791035,1380.46376 425.888102,1379.01796 C445.370745,1402.6327 503.744523,1391.54823 519.019211,1417.98043 C524.598921,1504.13532 582.954162,1491.67919 573.259184,1523.61655 C566.307718,1520.87324 560.728008,1518.03724 553.776542,1515.29393 C537.11156,1509.71462 514.811257,1515.29393 499.536569,1509.71462 C445.296596,1493.06938 403.587799,1433.25402 396.636333,1401.24251 C404.978092,1395.68174 413.301314,1379.01796 420.252781,1372.067 C409.09336,1369.32368 402.141894,1388.73077 392.446916,1390.17658 C370.202224,1363.74438 364.641052,1331.80701 366.012808,1297.05219 C352.109875,1298.44238 364.641052,1313.71597 354.853387,1323.48439 C342.340748,1312.34431 314.534884,1294.30888 315.90664,1295.68053 C307.583418,1292.93722 300.631951,1291.49142 300.631951,1291.49142 C300.631951,1291.49142 258.923155,1284.54046 296.423997,1297.05219 C315.90664,1304.00316 329.809572,1312.34431 339.50455,1319.29528 C360.358948,1347.09913 365.938659,1380.46376 375.633637,1411.02947 C352.035726,1423.55974 297.795753,1415.21858 297.795753,1415.21858 C297.795753,1415.21858 247.763734,1404.0785 229.652848,1394.36569 C215.749916,1383.22561 211.560499,1388.80492 219.95787,1395.75588 C222.701382,1398.4992 246.391978,1416.60877 245.020222,1412.40112 C253.343445,1416.60877 263.112572,1420.72375 274.197843,1424.9314 C265.874621,1434.62567 246.391978,1444.41263 231.11729,1459.68622 C211.634648,1480.53911 186.646444,1486.11842 186.646444,1486.11842 C186.646444,1486.11842 167.163802,1491.67919 192.226154,1487.49007 C203.367037,1486.11842 221.403775,1474.9598 236.678463,1465.26552 C260.294911,1451.3636 285.338726,1433.25402 310.401079,1430.5107 C302.077856,1443.02244 290.918436,1447.15595 281.223458,1456.92437 C299.315807,1456.92437 334.073138,1405.5243 374.33603,1436.07147 C375.707786,1437.46167 407.721604,1468.08298 416.044826,1475.03395 C428.576003,1488.93587 434.155713,1507.04545 435.527469,1515.36807 C422.996293,1589.06683 261.740816,1538.96428 217.26997,1568.21394 C224.239973,1576.55509 253.417594,1565.47062 268.692282,1568.21394 C249.209639,1597.38945 204.757331,1634.98026 170,1648.88219 C208.946748,1651.62551 270.064038,1561.26297 331.255477,1576.6107 C342.39636,1578.00089 335.463431,1587.76932 342.39636,1590.51263 C335.463431,1601.67124 321.560499,1623.89579 321.560499,1623.89579 C321.560499,1623.89579 303.449612,1647.51054 299.315807,1653.07131 C285.412875,1676.68605 263.186721,1687.82613 240.960566,1694.77709 C221.477924,1693.40544 201.995281,1694.77709 201.995281,1694.77709 C201.995281,1694.77709 164.494439,1701.72806 203.367037,1703.11825 C214.526458,1703.11825 224.239973,1703.11825 233.934951,1701.72806 C249.209639,1701.72806 264.484328,1698.98474 277.015504,1694.77709 C278.38726,1700.3564 277.015504,1704.48991 275.643748,1710.06921 C240.886417,1761.46928 236.678463,1787.90148 236.678463,1787.90148 C236.678463,1787.90148 214.452309,1856.03946 242.258173,1787.90148 C265.874621,1730.92211 322.932255,1658.57647 340.950455,1636.35192 C391.001011,1583.48752 449.430401,1548.75124 524.450624,1551.56869 C530.030334,1558.51966 566.15942,1552.94035 578.690597,1578.00089 L578.690597,1582.19001 C578.690597,1582.19001 504.967981,1615.57317 481.370071,1654.4615 C454.935962,1671.10674 407.647455,1634.98026 379.841591,1646.12034 C393.744523,1650.32799 443.776542,1653.07131 446.61274,1683.63701 C404.903943,1703.11825 365.938659,1726.71446 333.998989,1767.04858 C389.610718,1721.13515 452.173913,1704.48991 485.559488,1676.68605 C536.9818,1632.21841 562.025615,1614.12737 573.185035,1611.36552 C587.087968,1608.62221 596.782946,1596.09194 613.522076,1618.31649 C614.893832,1621.07834 623.217054,1632.21841 630.16852,1654.4615 C646.814965,1701.72806 653.766431,1767.04858 653.766431,1807.38271 C649.577014,1992.29689 699.683182,2149.35161 532.847995,2170.2045 C498.090664,2174.39362 467.52275,2191.0574 441.107179,2195.24651 C375.781935,2204.95932 396.636333,2217.4896 464.705089,2211.91029 C498.090664,2209.14844 534.219751,2199.38002 568.977081,2199.38002 C599.544995,2199.38002 692.731716,2160.43608 727.489046,2168.83285 C756.666667,2175.78381 835.968992,2207.77678 886.001011,2214.72775 C919.386586,2218.9354 947.19245,2223.05037 973.608022,2224.44056 C990.273003,2225.81222 1008.36535,2216.0994 1025.03033,2216.0994 C1050.07415,2217.4896 1070.92855,2235.58064 1097.28851,2239.71415 C1118.14291,2243.90326 1072.24469,2200.75167 1016.63296,2195.24651 C947.118301,2188.29555 892.878328,2168.83285 840.08426,2146.58976 C777.521065,2100.69486 798.375463,1974.20585 791.423997,1842.13753 C787.23458,1755.96411 777.521065,1730.92211 803.955174,1665.60158 C805.32693,1658.65061 808.163128,1651.69965 817.858106,1640.55957 C879.049545,1587.69517 1029.1456,1618.31649 1073.6906,1679.50351 C1084.83148,1672.55254 1061.15942,1662.85826 1058.41591,1654.4615 C1141.8335,1651.69965 1164.05966,1739.24473 1218.28109,1778.18866 C1218.28109,1757.33577 1180.78025,1739.24473 1180.78025,1704.48991 C1180.78025,1693.33129 1207.21436,1710.06921 1201.63465,1693.33129 C1162.66936,1697.53894 1159.92585,1669.73509 1143.27941,1654.38736 C1189.17762,1654.38736 1218.35524,1647.43639 1248.92315,1630.77261 C1254.63263,1619.83643 1264.42029,1610.14215 1270,1604.56285" id="Page-1"></path>
        </g>
    </g>
</svg>