<?xml version="1.0" encoding="UTF-8"?>
<svg width="129px" height="95px" viewBox="0 0 129 95" version="1.1" xmlns="http://www.w3.org/2000/svg" xmlns:xlink="http://www.w3.org/1999/xlink">
    <!-- Generator: Sketch 42 (36781) - http://www.bohemiancoding.com/sketch -->
    <title>Page 1</title>
    <desc>Created with Sketch.</desc>
    <defs></defs>
    <g id="02.-Handoff-Folder-" stroke="none" stroke-width="1" fill="none" fill-rule="evenodd">
        <g id="ICEF_Assets" transform="translate(-381.000000, -3644.000000)" fill="#898989">
            <g id="Donate-Page" transform="translate(55.000000, 3544.000000)">
                <path d="M451.502278,109.958342 L451.50076,109.958361 C453.064745,110.632918 454.080204,112.17455 454.080204,113.879329 L454.080204,190.727564 C454.080204,192.16548 453.353865,193.507079 452.160516,194.292753 C450.959786,195.085845 449.440297,195.211858 448.120956,194.648531 C419.827523,182.45562 408.413757,182.351827 392.589093,194.151921 C391.840382,194.707828 390.943516,194.996891 390.039249,194.996891 C389.142478,194.996891 388.245611,194.715228 387.496996,194.159321 C371.480305,182.292664 360.577344,182.389056 331.951848,194.655932 C330.632525,195.219239 329.120437,195.085826 327.919688,194.292734 C326.718977,193.499584 326,192.16548 326,190.727545 L326,113.87931 C326,112.174607 327.015497,110.625422 328.586844,109.958342 C358.273035,97.2392758 372.703805,96.7575038 390.033177,108.639 C407.370519,96.6759308 421.810397,97.1577029 451.502278,109.958342 Z M385.771421,182.774417 L385.771421,116.065177 C371.147486,105.799467 360.252114,105.962461 334.539264,116.710019 L334.539264,184.338364 C357.990309,174.984282 371.377272,174.435909 385.771421,182.774417 Z M445.54227,184.323544 C433.119611,179.34264 423.51434,176.844788 415.093292,176.844788 C407.621936,176.844788 401.077122,178.809067 394.310114,182.752235 L394.310114,116.059352 C408.793255,105.867758 420.119736,106.030752 445.54227,116.704194 L445.54227,184.323544 Z" id="Page-1"></path>
            </g>
        </g>
    </g>
</svg>