<?xml version="1.0" encoding="UTF-8"?>
<svg width="151px" height="150px" viewBox="0 0 151 150" version="1.1" xmlns="http://www.w3.org/2000/svg" xmlns:xlink="http://www.w3.org/1999/xlink">
    <!-- Generator: Sketch 42 (36781) - http://www.bohemiancoding.com/sketch -->
    <title>ASSET_YCircleFill Copy 5</title>
    <desc>Created with Sketch.</desc>
    <defs></defs>
    <g id="03.-Our-Work" stroke="none" stroke-width="1" fill="none" fill-rule="evenodd">
        <g id="3.1_DESKTOP_OurWork-TRCEmpty" transform="translate(-573.000000, -3446.000000)">
            <g id="CTA-DONATE" transform="translate(263.000000, 3151.000000)">
                <g id="TRC-NAV" transform="translate(0.000000, 118.000000)">
                    <g id="ASSET_YCircleFill-Copy-5" transform="translate(310.000000, 177.000000)">
                        <ellipse id="Oval-Copy" fill="#852762" cx="75.0816104" cy="75" rx="75.0816104" ry="75"></ellipse>
                        <path d="M42.2543831,116.999113 L42.2543831,86.7806644 C42.2543831,86.6865611 42.2602702,86.5983449 42.2602702,86.5101136 L42.2602702,86.3513124 L42.2602702,75.7882535 L38.6784724,82.7636425 C37.6198177,84.8280433 35.149523,85.6808451 33.1616034,84.6574528 C31.1736898,83.6399626 30.4208633,81.134526 31.4794879,79.0701252 L38.5020099,65.384041 C38.6255186,65.1487827 38.7608015,64.9252836 38.9195877,64.7253178 C39.5489054,62.8962506 41.2897865,61.5788043 43.3365712,61.5788043 L55.811207,61.5788043 L49.5239014,73.8298507 C47.4712448,77.8410607 48.847532,82.9285115 53.0057239,85.0692489 C55.6112563,86.4043415 58.5167148,86.1808423 60.8280427,84.8457498 L60.9868439,84.7398722 L60.9868439,117 L52.799856,117 L52.799856,91.027479 L50.6707121,91.027479 L50.6707121,117 L42.2543831,116.999113 Z M64.7563665,116.999113 L64.7563665,84.0569382 C64.7563665,83.9569478 64.7563665,83.8569724 64.7622536,83.7511099 L64.7622536,83.5805496 L64.7622536,71.9352274 L60.8157867,79.6223385 C59.6453824,81.9043061 56.9223187,82.8394672 54.7284318,81.7160995 C52.5346954,80.5927469 51.7112538,77.8285036 52.8757258,75.5522574 L60.6156854,60.4656148 C60.7509533,60.2068232 60.9038824,59.9656929 61.0744428,59.7421938 C61.7684585,57.7249199 63.6917193,56.2721154 65.9443267,56.2721154 L84.4879485,56.2721154 C86.746428,56.2721154 88.6637264,57.7248296 89.3578324,59.7421938 C89.5283928,59.9656929 89.6813069,60.2068232 89.8165898,60.4656148 L97.5565494,75.5522574 C98.7269537,77.828353 97.8976702,80.5927319 95.7038435,81.7160995 C93.5101071,82.8394521 90.7869832,81.9043061 89.6223606,79.6223385 L85.6758937,71.9410994 L85.6758937,83.5805496 C85.6758937,83.7334637 85.6700065,83.8805058 85.6523603,84.0275328 L85.6523603,84.0569382 L85.6523603,116.999118 L76.3185165,116.999118 L76.3185165,88.7334963 L74.0893973,88.7334963 L74.0893973,116.999118 L64.7563665,116.999113 Z M89.4234789,116.999113 L89.4234789,84.7209311 L89.6057984,84.8444398 C91.9172768,86.1795324 94.8225848,86.4030918 97.4281172,85.067939 C101.592151,82.927051 102.962596,77.8396003 100.90994,73.8285408 L94.6226341,61.5774944 L107.09727,61.5774944 C109.144055,61.5774944 110.884891,62.8949407 111.514253,64.7240079 C111.667168,64.9298608 111.808323,65.1474728 111.931831,65.3827311 L118.954347,79.0688153 C120.013017,81.1332161 119.26019,83.6387732 117.272232,84.6561429 C115.284318,85.6795201 112.814144,84.8267032 111.749497,82.7623326 L108.173571,75.7869436 L108.173571,86.3500025 C108.173571,86.4852703 108.167684,86.6205532 108.155925,86.7558211 L108.155925,86.7793394 L108.155925,116.9978 L99.7396258,116.9978 L99.7396258,91.0252807 L97.6104819,91.0252807 L97.6104819,116.9978 L89.4234789,116.999113 Z M43.5311768,49.744613 C43.5311768,45.1218067 47.2776931,41.3752904 51.9004993,41.3752904 C56.5233056,41.3752904 60.2698219,45.1218067 60.2698219,49.744613 C60.2698219,54.3674192 56.5233056,58.1198075 51.9004993,58.1198075 C47.2776931,58.1198075 43.5311768,54.3674192 43.5311768,49.744613 Z M90.4714134,49.744613 C90.4714134,45.1218067 94.2179296,41.3752904 98.8407359,41.3752904 C103.463542,41.3752904 107.210058,45.1218067 107.210058,49.744613 C107.210058,54.3674192 103.463542,58.1198075 98.8407359,58.1198075 C94.2179296,58.1198075 90.4714134,54.3674192 90.4714134,49.744613 Z M66.1581294,43.2279964 C66.1581294,38.1346736 70.292803,34 75.3861258,34 C80.4794487,34 84.6141222,38.1346736 84.6141222,43.2279964 C84.6141222,48.3213192 80.4794487,52.4559928 75.3861258,52.4559928 C70.292803,52.4559928 66.1581294,48.3213192 66.1581294,43.2279964 Z" id="Page-1" fill="#FFFFFF"></path>
                    </g>
                </g>
            </g>
        </g>
    </g>
</svg>