<?xml version="1.0" encoding="UTF-8"?>
<svg width="151px" height="150px" viewBox="0 0 151 150" version="1.1" xmlns="http://www.w3.org/2000/svg" xmlns:xlink="http://www.w3.org/1999/xlink">
    <!-- Generator: Sketch 42 (36781) - http://www.bohemiancoding.com/sketch -->
    <title>ASSET_YCircleFill Copy 7</title>
    <desc>Created with Sketch.</desc>
    <defs></defs>
    <g id="03.-Our-Work" stroke="none" stroke-width="1" fill="none" fill-rule="evenodd">
        <g id="3.1_DESKTOP_OurWork-TRCEmpty" transform="translate(-955.000000, -3446.000000)">
            <g id="CTA-DONATE" transform="translate(263.000000, 3151.000000)">
                <g id="TRC-NAV" transform="translate(0.000000, 118.000000)">
                    <g id="ASSET_YCircleFill-Copy-7" transform="translate(692.000000, 177.000000)">
                        <ellipse id="Oval-Copy" fill="#852762" cx="75.0816104" cy="75" rx="75.0816104" ry="75"></ellipse>
                        <g id="Water" transform="translate(36.000000, 39.000000)" stroke="#FFFFFF">
                            <path d="M28.0001451,27.4391179 C27.9508008,16.4894057 40.5,0 40.5,0 C40.5,0 53.0491992,16.4894057 52.9998549,27.4391179 C52.9999516,27.4594006 53,27.4796946 53,27.5 C53,34.4035594 47.4035594,40 40.5,40 C33.5964406,40 28,34.4035594 28,27.5 C28,27.4796946 28.0000484,27.4594006 28.0001451,27.4391179 Z" id="Combined-Shape" stroke-width="4" fill="#FFFFFF"></path>
                            <path d="M0,50 C0,50 1.29925304,50.6466196 2.91301302,51.4497648 L10.1395911,55.046329 C11.7484038,55.847012 14.3579777,55.873221 15.989892,55.0945359 L23.7293789,51.4015579 C25.3515981,50.6274988 27.9659197,50.6466196 29.5796797,51.4497648 L36.8062578,55.046329 C38.4150705,55.847012 41.0246444,55.873221 42.6565586,55.0945359 L50.3960455,51.4015579 C52.0182648,50.6274988 54.6325864,50.6466196 56.2463464,51.4497648 L63.4729245,55.046329 C65.0817371,55.847012 67.691311,55.873221 69.3232253,55.0945359 L77.0627122,51.4015579" id="Path-3" stroke-width="6"></path>
                            <path d="M0,66.4960938 C0,66.4960938 1.29925304,67.1427133 2.91301302,67.9458585 L10.1395911,71.5424227 C11.7484038,72.3431057 14.3579777,72.3693147 15.989892,71.5906296 L23.7293789,67.8976516 C25.3515981,67.1235926 27.9659197,67.1427133 29.5796797,67.9458585 L36.8062578,71.5424227 C38.4150705,72.3431057 41.0246444,72.3693147 42.6565586,71.5906296 L50.3960455,67.8976516 C52.0182648,67.1235926 54.6325864,67.1427133 56.2463464,67.9458585 L63.4729245,71.5424227 C65.0817371,72.3431057 67.691311,72.3693147 69.3232253,71.5906296 L77.0627122,67.8976516" id="Path-3-Copy" stroke-width="6"></path>
                        </g>
                    </g>
                </g>
            </g>
        </g>
    </g>
</svg>