<?xml version="1.0" encoding="UTF-8"?>
<svg width="755px" height="468px" viewBox="0 0 755 468" version="1.1" xmlns="http://www.w3.org/2000/svg" xmlns:xlink="http://www.w3.org/1999/xlink">
    <!-- Generator: Sketch 42 (36781) - http://www.bohemiancoding.com/sketch -->
    <title>TEXTURE_YellowCircle</title>
    <desc>Created with Sketch.</desc>
    <defs></defs>
    <g id="Symbols" stroke="none" stroke-width="1" fill="none" fill-rule="evenodd">
        <g id="TEXTURE_YellowCircle" fill="#F2CA6E">
            <g id="Dotted-Texture">
                <g id="Group" transform="translate(241.000000, 31.000000)">
                    <circle id="Oval" cx="17.5" cy="17.5" r="17.5"></circle>
                    <circle id="Oval-Copy" cx="17.5" cy="84.5" r="17.5"></circle>
                    <circle id="Oval-Copy-4" cx="17.5" cy="151.5" r="17.5"></circle>
                    <circle id="Oval-Copy-5" cx="17.5" cy="218.5" r="17.5"></circle>
                    <circle id="Oval-Copy-6" cx="17.5" cy="285.5" r="17.5"></circle>
                    <circle id="Oval-Copy-7" cx="17.5" cy="352.5" r="17.5"></circle>
                    <circle id="Oval-Copy-8" cx="17.5" cy="419.5" r="17.5"></circle>
                </g>
                <g id="Group-Copy-10" transform="translate(118.000000, 31.000000)">
                    <circle id="Oval" cx="17.5" cy="17.5" r="17.5"></circle>
                    <circle id="Oval-Copy" cx="17.5" cy="84.5" r="17.5"></circle>
                    <circle id="Oval-Copy-4" cx="17.5" cy="151.5" r="17.5"></circle>
                    <circle id="Oval-Copy-5" cx="17.5" cy="218.5" r="17.5"></circle>
                    <circle id="Oval-Copy-6" cx="17.5" cy="285.5" r="17.5"></circle>
                    <circle id="Oval-Copy-7" cx="17.5" cy="352.5" r="17.5"></circle>
                    <circle id="Oval-Copy-8" cx="17.5" cy="419.5" r="17.5"></circle>
                </g>
                <g id="Group-Copy-12" transform="translate(0.000000, 31.000000)">
                    <circle id="Oval" cx="17.5" cy="17.5" r="17.5"></circle>
                    <circle id="Oval-Copy" cx="17.5" cy="84.5" r="17.5"></circle>
                    <circle id="Oval-Copy-4" cx="17.5" cy="151.5" r="17.5"></circle>
                    <circle id="Oval-Copy-5" cx="17.5" cy="218.5" r="17.5"></circle>
                    <circle id="Oval-Copy-6" cx="17.5" cy="285.5" r="17.5"></circle>
                    <circle id="Oval-Copy-7" cx="17.5" cy="352.5" r="17.5"></circle>
                    <circle id="Oval-Copy-8" cx="17.5" cy="419.5" r="17.5"></circle>
                </g>
                <g id="Group-Copy" transform="translate(300.000000, 0.000000)">
                    <circle id="Oval" cx="17.5" cy="17.5" r="17.5"></circle>
                    <circle id="Oval-Copy" cx="17.5" cy="84.5" r="17.5"></circle>
                    <circle id="Oval-Copy-4" cx="17.5" cy="151.5" r="17.5"></circle>
                    <circle id="Oval-Copy-5" cx="17.5" cy="218.5" r="17.5"></circle>
                    <circle id="Oval-Copy-6" cx="17.5" cy="285.5" r="17.5"></circle>
                    <circle id="Oval-Copy-7" cx="17.5" cy="352.5" r="17.5"></circle>
                    <circle id="Oval-Copy-8" cx="17.5" cy="419.5" r="17.5"></circle>
                </g>
                <g id="Group-Copy-9" transform="translate(182.000000, 0.000000)">
                    <circle id="Oval" cx="17.5" cy="17.5" r="17.5"></circle>
                    <circle id="Oval-Copy" cx="17.5" cy="84.5" r="17.5"></circle>
                    <circle id="Oval-Copy-4" cx="17.5" cy="151.5" r="17.5"></circle>
                    <circle id="Oval-Copy-5" cx="17.5" cy="218.5" r="17.5"></circle>
                    <circle id="Oval-Copy-6" cx="17.5" cy="285.5" r="17.5"></circle>
                    <circle id="Oval-Copy-7" cx="17.5" cy="352.5" r="17.5"></circle>
                    <circle id="Oval-Copy-8" cx="17.5" cy="419.5" r="17.5"></circle>
                </g>
                <g id="Group-Copy-11" transform="translate(59.000000, 0.000000)">
                    <circle id="Oval" cx="17.5" cy="17.5" r="17.5"></circle>
                    <circle id="Oval-Copy" cx="17.5" cy="84.5" r="17.5"></circle>
                    <circle id="Oval-Copy-4" cx="17.5" cy="151.5" r="17.5"></circle>
                    <circle id="Oval-Copy-5" cx="17.5" cy="218.5" r="17.5"></circle>
                    <circle id="Oval-Copy-6" cx="17.5" cy="285.5" r="17.5"></circle>
                    <circle id="Oval-Copy-7" cx="17.5" cy="352.5" r="17.5"></circle>
                    <circle id="Oval-Copy-8" cx="17.5" cy="419.5" r="17.5"></circle>
                </g>
                <g id="Group-Copy-3" transform="translate(418.000000, 0.000000)">
                    <circle id="Oval" cx="17.5" cy="17.5" r="17.5"></circle>
                    <circle id="Oval-Copy" cx="17.5" cy="84.5" r="17.5"></circle>
                    <circle id="Oval-Copy-4" cx="17.5" cy="151.5" r="17.5"></circle>
                    <circle id="Oval-Copy-5" cx="17.5" cy="218.5" r="17.5"></circle>
                    <circle id="Oval-Copy-6" cx="17.5" cy="285.5" r="17.5"></circle>
                    <circle id="Oval-Copy-7" cx="17.5" cy="352.5" r="17.5"></circle>
                    <circle id="Oval-Copy-8" cx="17.5" cy="419.5" r="17.5"></circle>
                </g>
                <g id="Group-Copy-5" transform="translate(536.000000, 0.000000)">
                    <circle id="Oval" cx="17.5" cy="17.5" r="17.5"></circle>
                    <circle id="Oval-Copy" cx="17.5" cy="84.5" r="17.5"></circle>
                    <circle id="Oval-Copy-4" cx="17.5" cy="151.5" r="17.5"></circle>
                    <circle id="Oval-Copy-5" cx="17.5" cy="218.5" r="17.5"></circle>
                    <circle id="Oval-Copy-6" cx="17.5" cy="285.5" r="17.5"></circle>
                    <circle id="Oval-Copy-7" cx="17.5" cy="352.5" r="17.5"></circle>
                    <circle id="Oval-Copy-8" cx="17.5" cy="419.5" r="17.5"></circle>
                </g>
                <g id="Group-Copy-7" transform="translate(661.000000, 0.000000)">
                    <circle id="Oval" cx="17.5" cy="17.5" r="17.5"></circle>
                    <circle id="Oval-Copy" cx="17.5" cy="84.5" r="17.5"></circle>
                    <circle id="Oval-Copy-4" cx="17.5" cy="151.5" r="17.5"></circle>
                    <circle id="Oval-Copy-5" cx="17.5" cy="218.5" r="17.5"></circle>
                    <circle id="Oval-Copy-6" cx="17.5" cy="285.5" r="17.5"></circle>
                    <circle id="Oval-Copy-7" cx="17.5" cy="352.5" r="17.5"></circle>
                    <circle id="Oval-Copy-8" cx="17.5" cy="419.5" r="17.5"></circle>
                </g>
                <g id="Group-Copy-2" transform="translate(359.000000, 31.000000)">
                    <circle id="Oval" cx="17.5" cy="17.5" r="17.5"></circle>
                    <circle id="Oval-Copy" cx="17.5" cy="84.5" r="17.5"></circle>
                    <circle id="Oval-Copy-4" cx="17.5" cy="151.5" r="17.5"></circle>
                    <circle id="Oval-Copy-5" cx="17.5" cy="218.5" r="17.5"></circle>
                    <circle id="Oval-Copy-6" cx="17.5" cy="285.5" r="17.5"></circle>
                    <circle id="Oval-Copy-7" cx="17.5" cy="352.5" r="17.5"></circle>
                    <circle id="Oval-Copy-8" cx="17.5" cy="419.5" r="17.5"></circle>
                </g>
                <g id="Group-Copy-4" transform="translate(477.000000, 31.000000)">
                    <circle id="Oval" cx="17.5" cy="17.5" r="17.5"></circle>
                    <circle id="Oval-Copy" cx="17.5" cy="84.5" r="17.5"></circle>
                    <circle id="Oval-Copy-4" cx="17.5" cy="151.5" r="17.5"></circle>
                    <circle id="Oval-Copy-5" cx="17.5" cy="218.5" r="17.5"></circle>
                    <circle id="Oval-Copy-6" cx="17.5" cy="285.5" r="17.5"></circle>
                    <circle id="Oval-Copy-7" cx="17.5" cy="352.5" r="17.5"></circle>
                    <circle id="Oval-Copy-8" cx="17.5" cy="419.5" r="17.5"></circle>
                </g>
                <circle id="Oval" cx="612.5" cy="48.5" r="17.5"></circle>
                <circle id="Oval-Copy" cx="612.5" cy="115.5" r="17.5"></circle>
                <circle id="Oval-Copy-4" cx="612.5" cy="182.5" r="17.5"></circle>
                <circle id="Oval-Copy-5" cx="612.5" cy="249.5" r="17.5"></circle>
                <circle id="Oval-Copy-6" cx="612.5" cy="316.5" r="17.5"></circle>
                <circle id="Oval-Copy-7" cx="612.5" cy="383.5" r="17.5"></circle>
                <circle id="Oval-Copy-8" cx="612.5" cy="450.5" r="17.5"></circle>
                <circle id="Oval" cx="737.5" cy="48.5" r="17.5"></circle>
                <circle id="Oval-Copy" cx="737.5" cy="115.5" r="17.5"></circle>
                <circle id="Oval-Copy-4" cx="737.5" cy="182.5" r="17.5"></circle>
                <circle id="Oval-Copy-5" cx="737.5" cy="249.5" r="17.5"></circle>
                <circle id="Oval-Copy-6" cx="737.5" cy="316.5" r="17.5"></circle>
                <circle id="Oval-Copy-7" cx="737.5" cy="383.5" r="17.5"></circle>
                <circle id="Oval-Copy-8" cx="737.5" cy="450.5" r="17.5"></circle>
            </g>
        </g>
    </g>
</svg>