<?xml version="1.0" encoding="UTF-8"?>
<svg width="50px" height="30px" viewBox="0 0 50 30" version="1.1" xmlns="http://www.w3.org/2000/svg" xmlns:xlink="http://www.w3.org/1999/xlink">
    <!-- Generator: Sketch 42 (36781) - http://www.bohemiancoding.com/sketch -->
    <title>Cap</title>
    <desc>Created with Sketch.</desc>
    <defs></defs>
    <g id="02.-Handoff-Folder-" stroke="none" stroke-width="1" fill="none" fill-rule="evenodd">
        <g id="ICEF_Assets" transform="translate(-665.000000, -2515.000000)" fill="#433E3E">
            <g id="Our-Approach" transform="translate(57.000000, 2374.000000)">
                <path d="M632.405935,141.095013 L609.041787,150.203892 C608.433233,150.435365 608,151.057627 608,151.702035 C608,152.347158 608.433233,152.96942 609.041787,153.200892 L616.699432,156.181461 L616.699432,164.034386 C616.699432,165.365354 617.502869,166.286244 618.431639,167.048532 C619.359685,167.810106 620.556509,168.465945 621.996754,169.041055 C624.875072,170.19056 628.72418,171 633,171 C637.27582,171 641.124928,170.19056 644.003246,169.041055 C645.443491,168.465945 646.640315,167.810106 647.568361,167.048532 C648.497131,166.286244 649.300568,165.365354 649.300568,164.034386 L649.300568,156.181461 L656.958213,153.200892 C657.566767,152.96942 658,152.347158 658,151.702035 C658,151.060484 657.566767,150.435365 656.958213,150.203892 L633.594065,141.095013 C633.155761,140.935697 632.691376,141.00571 632.405935,141.095013 Z M633,144.326343 L651.932566,151.710608 L633,159.078441 L614.067434,151.710608 L633,144.326343 Z M619.959546,157.453846 L632.405935,162.309772 C632.781935,162.454799 633.218065,162.454799 633.594065,162.309772 L646.040454,157.453846 L646.040454,164.034386 C646.040454,163.825061 646.031761,164.117974 645.480439,164.570203 C644.928393,165.022432 643.974267,165.57468 642.763678,166.060487 C640.338153,167.029243 636.851281,167.785101 633,167.785101 C629.148719,167.785101 625.661847,167.029243 623.236322,166.060487 C622.025733,165.57468 621.071607,165.022432 620.519561,164.570203 C619.968239,164.117974 619.959546,163.825061 619.959546,164.034386 L619.959546,157.453846 Z" id="Cap"></path>
            </g>
        </g>
    </g>
</svg>