<?xml version="1.0" encoding="UTF-8"?>
<svg width="44px" height="38px" viewBox="0 0 44 38" version="1.1" xmlns="http://www.w3.org/2000/svg" xmlns:xlink="http://www.w3.org/1999/xlink">
    <!-- Generator: Sketch 42 (36781) - http://www.bohemiancoding.com/sketch -->
    <title>Hand Heart</title>
    <desc>Created with Sketch.</desc>
    <defs></defs>
    <g id="02.-Handoff-Folder-" stroke="none" stroke-width="1" fill="none" fill-rule="evenodd">
        <g id="ICEF_Assets" transform="translate(-439.000000, -2716.000000)" stroke="#4A4A4A">
            <g id="Our-Approach" transform="translate(57.000000, 2374.000000)">
                <g id="Hand-Heart" transform="translate(384.000000, 344.000000)">
                    <path d="M34.9979016,19.6774 C38.2539672,16.7660667 39.6726557,14.5540667 39.6726557,10.7987333 C39.6726557,5.0474 35.3828197,0.198066667 29.9713443,0.198066667 C29.9713443,0.198066667 25.3683934,-0.4156 20.3123279,4.76273333" id="Stroke-1" stroke-width="3.07017544" stroke-linecap="round"></path>
                    <path d="M11.5037377,7.67983333 C13.9614426,10.7911667 17.4391475,10.1311667 17.4391475,10.1311667 L23.6525902,16.4481667 C23.6525902,16.4481667 25.3220984,17.9571667 26.9909508,16.4011667 C28.660459,14.8455 26.820459,12.6618333 26.820459,12.6618333 L18.368,4.06816667 C15.9250492,1.2595 13.4145574,0.1665 9.96177049,0.1665 C4.55062295,0.1665 0.164065574,4.82916667 0.164065574,10.5805 C0.164065574,14.0825 1.78898361,16.8131667 4.16767213,19.1668333" id="Stroke-3" stroke-width="3.07017544" stroke-linecap="round"></path>
                    <path d="M36.4428852,18.2939333 L20.8579672,33.1262667 C19.9668197,33.9582667 18.5861639,33.9179333 17.7438689,33.0352667 L3.3317377,18.3122667" id="Stroke-5" stroke-width="3.07017544"></path>
                    <path d="M19.2707541,12.3297333 L11.1120656,20.1310667 C11.1120656,20.1310667 8.6612459,22.2197333 10.2740328,23.7630667 C11.7737049,25.1977333 14.0241967,22.9684 14.0241967,22.9684 L22.2255082,15.3787333" id="Stroke-7" stroke-width="2.19298246" stroke-linecap="round"></path>
                    <path d="M26.0183279,17.5307333 L16.7202951,26.3920667 C16.7202951,26.3920667 14.5750492,28.4027333 13.082918,26.6864 C13.082918,26.6864 11.7684918,24.9840667 14.4412787,22.5924" id="Stroke-9" stroke-width="2.19298246" stroke-linecap="round"></path>
                    <path d="M16.2719016,26.8567667 C16.2719016,26.8567667 15.1046885,28.2951 16.3676393,29.6374333 C17.5532131,30.8974333 18.7797705,30.1164333 19.2266557,29.7711 C19.7378033,29.3761 27.2069836,21.8184333 27.2069836,21.8184333" id="Stroke-11" stroke-width="2.19298246" stroke-linecap="round"></path>
                    <path d="M21.1880328,27.847 C21.1880328,27.847 18.077541,30.439 19.7195082,32.0746667 C21.0437705,33.3936667 23.2981967,31.018 23.8437705,30.5763333" id="Stroke-13" stroke-width="2.19298246" stroke-linecap="round"></path>
                </g>
            </g>
        </g>
    </g>
</svg>