<?xml version="1.0" encoding="UTF-8"?>
<svg width="40px" height="40px" viewBox="0 0 40 40" version="1.1" xmlns="http://www.w3.org/2000/svg" xmlns:xlink="http://www.w3.org/1999/xlink">
    <!-- Generator: Sketch 42 (36781) - http://www.bohemiancoding.com/sketch -->
    <title>Health</title>
    <desc>Created with Sketch.</desc>
    <defs></defs>
    <g id="02.-Handoff-Folder-" stroke="none" stroke-width="1" fill="none" fill-rule="evenodd">
        <g id="ICEF_Assets" transform="translate(-183.000000, -2508.000000)" fill="#4A4A4A">
            <g id="Our-Approach" transform="translate(57.000000, 2374.000000)">
                <g id="Health" transform="translate(126.000000, 134.000000)">
                    <path d="M36.6350685,9.6230137 L30.3769863,9.6230137 L30.3769863,3.36493151 C30.3769863,1.5260274 28.8805479,0.0301369863 27.04,0.0301369863 L12.96,0.0301369863 C11.1194521,0.0301369863 9.6230137,1.5260274 9.6230137,3.36493151 L9.6230137,9.6230137 L3.36493151,9.6230137 C1.5260274,9.6230137 0.0301369863,11.1194521 0.0301369863,12.96 L0.0301369863,27.0421918 C0.0301369863,28.8805479 1.5260274,30.3786301 3.36493151,30.3786301 L9.6230137,30.3786301 L9.6230137,36.6372603 C9.6230137,38.4761644 11.1194521,39.9742466 12.96,39.9742466 L27.0421918,39.9742466 C28.8805479,39.9742466 30.3786301,38.4783562 30.3786301,36.6372603 L30.3786301,30.3769863 L36.6372603,30.3769863 C38.4761644,30.3769863 39.9742466,28.8805479 39.9742466,27.04 L39.9742466,12.96 C39.9720548,11.1194521 38.4739726,9.6230137 36.6350685,9.6230137 Z M37.8082192,27.04 C37.8082192,27.6860274 37.2816438,28.2126027 36.6350685,28.2126027 L28.2147945,28.2126027 L28.2147945,36.6328767 C28.2147945,37.2794521 27.6882192,37.8060274 27.0421918,37.8060274 L12.96,37.8060274 C12.3139726,37.8060274 11.7873973,37.2794521 11.7873973,36.6328767 L11.7873973,28.2147945 L3.36493151,28.2147945 C2.71835616,28.2147945 2.19178082,27.6882192 2.19178082,27.0421918 L2.19178082,12.96 C2.19178082,12.3139726 2.71835616,11.7873973 3.36493151,11.7873973 L11.7873973,11.7873973 L11.7873973,3.36493151 C11.7873973,2.71835616 12.3139726,2.19178082 12.96,2.19178082 L27.0421918,2.19178082 C27.6882192,2.19178082 28.2147945,2.71835616 28.2147945,3.36493151 L28.2147945,11.7873973 L36.6350685,11.7873973 C37.2816438,11.7873973 37.8082192,12.3139726 37.8082192,12.96 L37.8082192,27.04 Z" id="Fill-1"></path>
                    <path d="M23.230137,13.7435616 C21.9775342,13.7435616 20.8241096,14.2575342 20,15.1178082 C19.1758904,14.2591781 18.0224658,13.7435616 16.769863,13.7435616 C14.3024658,13.7435616 12.2926027,15.7534247 12.2926027,18.2213699 C12.2926027,19.3665753 12.7287671,20.4580822 13.540274,21.3161644 L19.2317808,27.0164384 C19.4350685,27.219726 19.7090411,27.3331507 19.9956164,27.3331507 L19.9956164,27.3331507 C20.2827397,27.3331507 20.5589041,27.219726 20.76,27.0164384 L26.459726,21.3161644 C26.4832877,21.2926027 26.5046575,21.2690411 26.5260274,21.2438356 C27.2882192,20.4131507 27.7052055,19.3430137 27.7052055,18.2191781 C27.7073973,15.7512329 25.6975342,13.7435616 23.230137,13.7435616 Z M24.9079452,19.8093151 C24.9013699,19.8158904 24.8975342,19.8224658 24.8909589,19.8290411 L19.9978082,24.7216438 L15.0920548,19.8093151 C14.6810959,19.3747945 14.4564384,18.8120548 14.4564384,18.2213699 C14.4564384,16.9457534 15.4942466,15.9052055 16.769863,15.9052055 C17.7758904,15.9052055 18.6624658,16.549589 18.9726027,17.5084932 C19.1183562,17.9539726 19.5331507,18.2553425 20.0021918,18.2553425 C20.4706849,18.2553425 20.8860274,17.9539726 21.0317808,17.5063014 C21.3419178,16.5473973 22.2257534,15.9052055 23.2317808,15.9052055 C24.5079452,15.9052055 25.5457534,16.9435616 25.5457534,18.2213699 C25.5435616,18.8120548 25.3189041,19.3747945 24.9079452,19.8093151 Z" id="Fill-2"></path>
                </g>
            </g>
        </g>
    </g>
</svg>