<?xml version="1.0" encoding="UTF-8"?>
<svg width="50px" height="49px" viewBox="0 0 50 49" version="1.1" xmlns="http://www.w3.org/2000/svg" xmlns:xlink="http://www.w3.org/1999/xlink">
    <!-- Generator: Sketch 42 (36781) - http://www.bohemiancoding.com/sketch -->
    <title>Social</title>
    <desc>Created with Sketch.</desc>
    <defs></defs>
    <g id="02.-Handoff-Folder-" stroke="none" stroke-width="1" fill="none" fill-rule="evenodd">
        <g id="ICEF_Assets" transform="translate(-431.000000, -2495.000000)" fill="#433E3E">
            <g id="Our-Approach" transform="translate(57.000000, 2374.000000)">
                <path d="M399,121 C396.502273,121 394.454545,123.053442 394.454545,125.55814 C394.454545,128.062837 396.502273,130.116279 399,130.116279 C401.497727,130.116279 403.545455,128.062837 403.545455,125.55814 C403.545455,123.053442 401.497727,121 399,121 Z M399,123.27907 C400.269697,123.27907 401.272727,124.284899 401.272727,125.55814 C401.272727,126.83138 400.269697,127.837209 399,127.837209 C397.730303,127.837209 396.727273,126.83138 396.727273,125.55814 C396.727273,124.284899 397.730303,123.27907 399,123.27907 Z M399,131.825581 C396.499242,131.825581 394.215152,132.255566 392.448485,133.161116 C390.681818,134.065907 389.340909,135.585287 389.340909,137.505783 L389.340909,142.081395 C389.340909,142.677752 389.882576,143.22093 390.477273,143.22093 L407.522727,143.22093 C408.117424,143.22093 408.659091,142.677752 408.659091,142.081395 L408.659091,137.505783 C408.659091,135.585287 407.318182,134.065907 405.551515,133.161116 C403.784848,132.255566 401.500758,131.825581 399,131.825581 Z M399,134.104651 C401.219697,134.104651 403.208333,134.517163 404.52197,135.191008 C405.835606,135.864093 406.386364,136.618465 406.386364,137.505783 L406.386364,140.94186 L391.613636,140.94186 L391.613636,137.505783 C391.613636,136.618465 392.164394,135.864093 393.47803,135.191008 C394.791667,134.517163 396.780303,134.104651 399,134.104651 Z M398.875758,146.622062 C398.316667,146.684357 397.851515,147.21538 397.863636,147.77907 L397.863636,152.835566 L392.732576,155.916109 C392.164394,156.191876 391.927273,156.99031 392.25303,157.533488 C392.581061,158.076667 393.397727,158.236961 393.903788,157.857116 L399,154.794047 L404.096212,157.857116 C404.602273,158.233922 405.418939,158.073628 405.74697,157.533488 C406.075758,156.99031 405.835606,156.191876 405.267424,155.916109 L400.136364,152.835566 L400.136364,147.77907 C400.151515,147.131814 399.518182,146.550651 398.875758,146.622062 Z M383.659091,147.77907 C381.161364,147.77907 379.113636,149.832512 379.113636,152.337209 C379.113636,154.841907 381.161364,156.895349 383.659091,156.895349 C386.156818,156.895349 388.204545,154.841907 388.204545,152.337209 C388.204545,149.832512 386.156818,147.77907 383.659091,147.77907 Z M414.340909,147.77907 C411.843182,147.77907 409.795455,149.832512 409.795455,152.337209 C409.795455,154.841907 411.843182,156.895349 414.340909,156.895349 C416.838636,156.895349 418.886364,154.841907 418.886364,152.337209 C418.886364,149.832512 416.838636,147.77907 414.340909,147.77907 Z M383.659091,150.05814 C384.928788,150.05814 385.931818,151.063969 385.931818,152.337209 C385.931818,153.61045 384.928788,154.616279 383.659091,154.616279 C382.389394,154.616279 381.386364,153.61045 381.386364,152.337209 C381.386364,151.063969 382.389394,150.05814 383.659091,150.05814 Z M414.340909,150.05814 C415.610606,150.05814 416.613636,151.063969 416.613636,152.337209 C416.613636,153.61045 415.610606,154.616279 414.340909,154.616279 C413.071212,154.616279 412.068182,153.61045 412.068182,152.337209 C412.068182,151.063969 413.071212,150.05814 414.340909,150.05814 Z M383.659091,158.604651 C381.158333,158.604651 378.874242,159.034636 377.107576,159.940186 C375.340909,160.844977 374,162.364357 374,164.284853 L374,168.860465 C374,169.456822 374.541667,170 375.136364,170 L392.181818,170 C392.776515,170 393.318182,169.456822 393.318182,168.860465 L393.318182,164.284853 C393.318182,162.364357 391.977273,160.844977 390.210606,159.940186 C388.443939,159.034636 386.159848,158.604651 383.659091,158.604651 Z M414.340909,158.604651 C411.840152,158.604651 409.556061,159.034636 407.789394,159.940186 C406.022727,160.844977 404.681818,162.364357 404.681818,164.284853 L404.681818,168.860465 C404.681818,169.456822 405.223485,170 405.818182,170 L422.863636,170 C423.458333,170 424,169.456822 424,168.860465 L424,164.284853 C424,162.364357 422.659091,160.844977 420.892424,159.940186 C419.125758,159.034636 416.841667,158.604651 414.340909,158.604651 Z M383.659091,160.883721 C385.878788,160.883721 387.867424,161.296233 389.181061,161.970078 C390.494697,162.643163 391.045455,163.397535 391.045455,164.284853 L391.045455,167.72093 L376.272727,167.72093 L376.272727,164.284853 C376.272727,163.397535 376.823485,162.643163 378.137121,161.970078 C379.450758,161.296233 381.439394,160.883721 383.659091,160.883721 Z M414.340909,160.883721 C416.560606,160.883721 418.549242,161.296233 419.862879,161.970078 C421.176515,162.643163 421.727273,163.397535 421.727273,164.284853 L421.727273,167.72093 L406.954545,167.72093 L406.954545,164.284853 C406.954545,163.397535 407.505303,162.643163 408.818939,161.970078 C410.132576,161.296233 412.121212,160.883721 414.340909,160.883721 Z" id="Social"></path>
            </g>
        </g>
    </g>
</svg>