<?xml version="1.0" encoding="UTF-8"?>
<svg width="50px" height="29px" viewBox="0 0 50 29" version="1.1" xmlns="http://www.w3.org/2000/svg" xmlns:xlink="http://www.w3.org/1999/xlink">
    <!-- Generator: Sketch 42 (36781) - http://www.bohemiancoding.com/sketch -->
    <title>Tractor</title>
    <desc>Created with Sketch.</desc>
    <defs></defs>
    <g id="02.-Handoff-Folder-" stroke="none" stroke-width="1" fill="none" fill-rule="evenodd">
        <g id="ICEF_Assets" transform="translate(-918.000000, -2515.000000)" fill="#433E3E">
            <g id="Our-Approach" transform="translate(57.000000, 2374.000000)">
                <path d="M909.882113,166.202522 L903.031521,165.032747 L903.031521,155.870991 C903.031521,155.19587 902.411978,154.647964 901.642588,154.647964 C900.87387,154.647964 900.254327,155.193504 900.254327,155.870991 L900.254327,157.960255 L896.918065,157.960255 L896.918065,151.632111 C896.918065,150.95699 896.298522,150.409083 895.529804,150.409083 L893.424566,150.409083 L893.424566,146.768995 C893.424566,145.086224 891.870332,143.708765 889.949209,143.708765 C889.182507,143.708765 888.560948,144.254305 888.560948,144.931792 C888.560948,145.606321 889.17982,146.154228 889.949209,146.154228 C890.332224,146.154228 890.63662,146.431731 890.63662,146.759528 L890.63662,150.400208 L883.599897,150.400208 L880.783057,141.882804 C880.604989,141.362707 880.064064,141 879.455272,141 L864.533145,141 C863.766443,141 863.144212,141.54554 863.144212,142.222435 L863.144212,156.827756 C861.805675,158.228291 861,160.024076 861,161.991451 C861,166.403697 865.073397,170 870.094925,170 C873.853847,170 877.082595,167.979964 878.470857,165.111442 L886.513498,165.111442 C886.659985,167.824941 889.211402,170 892.319198,170 C895.527116,170 898.146401,167.692994 898.146401,164.868848 C898.146401,163.680731 897.684767,162.599119 896.915377,161.723415 L896.915377,160.405717 L900.251639,160.405717 L900.251639,166.047499 C900.251639,166.636824 900.724024,167.138578 901.375149,167.251591 L909.349252,168.603607 C910.078996,168.733188 910.845698,168.317228 910.974041,167.633233 C911.1212,166.965213 910.627312,166.325002 909.882113,166.202522 Z M870.094925,167.545071 C866.609489,167.545071 863.785258,165.049314 863.785258,161.989084 C863.785258,158.928854 866.619568,156.432506 870.094925,156.432506 C873.570281,156.432506 876.405264,158.928854 876.405264,161.989084 C876.405264,165.049314 873.570281,167.545071 870.094925,167.545071 Z M887.064502,162.659471 L879.140125,162.659471 C879.52314,158.663185 876.405264,154.17461 870.084173,153.973435 C868.577648,153.973435 867.171244,154.301824 865.921406,154.874582 L865.921406,151.943932 L868.008501,151.943932 C868.774531,151.943932 869.396762,151.398392 869.396762,150.721497 C869.396762,150.046376 868.777219,149.49847 868.008501,149.49847 L865.921406,149.49847 L865.921406,148.146454 L871.473107,148.146454 C872.239808,148.146454 872.861368,147.600914 872.861368,146.924019 C872.861368,146.248898 872.241824,145.700992 871.473107,145.700992 L865.921406,145.700992 L865.921406,143.447829 L878.413068,143.447829 L881.22722,151.967008 C881.405288,152.487105 881.946213,152.849812 882.555005,152.849812 L894.130792,152.849812 L894.130792,159.992124 C891.020307,159.113462 888.106706,160.595058 887.064502,162.659471 Z M892.321886,167.545071 C890.639308,167.545071 889.271878,166.340978 889.271878,164.859381 C889.271878,163.377785 890.639308,162.173692 892.321886,162.173692 C894.004464,162.173692 895.371894,163.377785 895.371894,164.859381 C895.371894,166.340978 894.004464,167.545071 892.321886,167.545071 Z" id="Tractor"></path>
            </g>
        </g>
    </g>
</svg>