<?xml version="1.0" encoding="UTF-8"?>
<svg width="40px" height="48px" viewBox="0 0 40 48" version="1.1" xmlns="http://www.w3.org/2000/svg" xmlns:xlink="http://www.w3.org/1999/xlink">
    <!-- Generator: Sketch 42 (36781) - http://www.bohemiancoding.com/sketch -->
    <title>Well-being</title>
    <desc>Created with Sketch.</desc>
    <defs></defs>
    <g id="02.-Handoff-Folder-" stroke="none" stroke-width="1" fill="none" fill-rule="evenodd">
        <g id="ICEF_Assets" transform="translate(-187.000000, -2705.000000)" fill="#4A4A4A">
            <g id="Our-Approach" transform="translate(57.000000, 2374.000000)">
                <g id="Well-being" transform="translate(130.000000, 331.000000)">
                    <path d="M38.9312281,23.069756 L33.714386,23.069756 C33.2701754,23.069756 32.9108772,22.7078373 32.9108772,22.2603871 C32.9108772,21.8129369 33.2701754,21.4517251 33.714386,21.4517251 L38.9312281,21.4517251 C39.3747368,21.4517251 39.7340351,21.8129369 39.7340351,22.2603871 C39.7340351,22.7050098 39.3747368,23.069756 38.9312281,23.069756 Z" id="Fill-1"></path>
                    <path d="M20.7101754,7.15381767 C20.2659649,7.15381767 19.9066667,6.79189902 19.9066667,6.34444881 L19.9066667,1.09026648 C19.9066667,0.642816269 20.2659649,0.280897616 20.7101754,0.280897616 C21.154386,0.280897616 21.5129825,0.642816269 21.5129825,1.09026648 L21.5129825,6.34444881 C21.5129825,6.79189902 21.154386,7.15381767 20.7101754,7.15381767 Z" id="Fill-2"></path>
                    <path d="M32.8231579,15.4680505 C32.5024561,15.4680505 32.2014035,15.2743675 32.0750877,14.9541543 C31.9136842,14.5370996 32.1164912,14.0705638 32.5277193,13.9051557 L37.1382456,12.0800112 C37.5522807,11.9167237 38.0182456,12.1210098 38.1796491,12.535237 C38.3417544,12.9522917 38.1389474,13.4188275 37.7277193,13.5849425 L33.1164912,15.4129144 C33.0210526,15.4482581 32.9221053,15.4680505 32.8231579,15.4680505 Z" id="Fill-3"></path>
                    <path d="M28.5277193,9.4454979 C28.3663158,9.4454979 28.2042105,9.39884432 28.0645614,9.29634783 C27.7031579,9.03692567 27.6175439,8.53433941 27.8757895,8.16959327 L30.8961404,3.88453296 C31.154386,3.51978682 31.6554386,3.43425526 32.0147368,3.69367742 C32.3768421,3.95380645 32.4617544,4.45639271 32.2042105,4.82043198 L29.1831579,9.10619916 C29.0266667,9.32674334 28.7803509,9.4454979 28.5277193,9.4454979 Z" id="Fill-4"></path>
                    <path d="M24.2870175,36.1744628 C22.1270175,33.7279776 31.1347368,31.7452006 31.1347368,22.2603871 C31.1347368,9.55576999 21.9515789,9.39884432 20.0217544,9.39884432 C18.0919298,9.39884432 8.90877193,10.5255989 8.90877193,22.2603871 C8.90877193,31.7452006 17.9164912,33.7279776 15.7564912,36.1744628 C12.9108772,39.3963871 3.07017544,35.3375259 3.07017544,47.8569425 L36.9740351,47.8569425 C36.9740351,35.3375259 27.1326316,39.3963871 24.2870175,36.1744628 Z M20.0084211,25.4992763 C18.9087719,24.8892454 15.9375439,22.897986 15.7649123,20.3080056 C15.5649123,17.2790575 19.4273684,17.6848022 20.0084211,19.9298289 C20.5894737,17.6848022 24.4519298,17.281885 24.2519298,20.3080056 C24.0785965,22.897986 21.1045614,24.8892454 20.0084211,25.4992763 Z" id="Fill-5"></path>
                    <path d="M6.11017544,23.069756 L0.893333333,23.069756 C0.449824561,23.069756 0.0905263158,22.7078373 0.0905263158,22.2603871 C0.0905263158,21.8129369 0.449824561,21.4517251 0.893333333,21.4517251 L6.11017544,21.4517251 C6.55438596,21.4517251 6.91368421,21.8129369 6.91368421,22.2603871 C6.91368421,22.7050098 6.55157895,23.069756 6.11017544,23.069756 Z" id="Fill-6"></path>
                    <path d="M6.99859649,15.4680505 C6.89964912,15.4680505 6.80070175,15.4482581 6.70526316,15.4129144 L2.09403509,13.58777 C1.68070175,13.4244825 1.47719298,12.9551192 1.64210526,12.5380645 C1.80350877,12.1210098 2.26947368,11.9167237 2.68350877,12.0828387 L7.29473684,13.9079832 C7.70807018,14.0705638 7.91087719,14.5399271 7.74666667,14.9569818 C7.62315789,15.27154 7.31929825,15.4680505 6.99859649,15.4680505 Z" id="Fill-7"></path>
                    <path d="M12.8757895,8.91534362 C12.6231579,8.91534362 12.3768421,8.79658906 12.2203509,8.57604488 L9.19929825,4.2902777 C8.94175439,3.92623843 9.02666667,3.42082468 9.38877193,3.16352314 C9.75087719,2.90410098 10.2519298,2.98963254 10.5073684,3.35437868 L13.5277193,7.63943899 C13.7859649,8.00418513 13.7003509,8.50959888 13.3389474,8.76619355 C13.1992982,8.86586255 13.037193,8.91534362 12.8757895,8.91534362 Z" id="Fill-8"></path>
                </g>
            </g>
        </g>
    </g>
</svg>